<svg width="45" height="45" viewBox="0 0 45 45" fill="none" xmlns="http://www.w3.org/2000/svg">
<path d="M35.625 3.75H9.375C7.88316 3.75 6.45242 4.34263 5.39752 5.39752C4.34263 6.45242 3.75 7.88316 3.75 9.375V28.125C3.75 29.6168 4.34263 31.0476 5.39752 32.1025C6.45242 33.1574 7.88316 33.75 9.375 33.75H31.1063L38.0438 40.7062C38.219 40.88 38.4267 41.0175 38.6552 41.1108C38.8836 41.2041 39.1282 41.2514 39.375 41.25C39.621 41.2563 39.865 41.205 40.0875 41.1C40.4299 40.9593 40.723 40.7205 40.9299 40.4135C41.1368 40.1065 41.2482 39.7452 41.25 39.375V9.375C41.25 7.88316 40.6574 6.45242 39.6025 5.39752C38.5476 4.34263 37.1168 3.75 35.625 3.75ZM37.5 34.8563L33.2062 30.5438C33.031 30.37 32.8233 30.2325 32.5948 30.1392C32.3664 30.0459 32.1218 29.9986 31.875 30H9.375C8.87772 30 8.40081 29.8025 8.04918 29.4508C7.69754 29.0992 7.5 28.6223 7.5 28.125V9.375C7.5 8.87772 7.69754 8.40081 8.04918 8.04918C8.40081 7.69754 8.87772 7.5 9.375 7.5H35.625C36.1223 7.5 36.5992 7.69754 36.9508 8.04918C37.3025 8.40081 37.5 8.87772 37.5 9.375V34.8563ZM22.5 22.5C22.1292 22.5 21.7666 22.61 21.4583 22.816C21.15 23.022 20.9096 23.3149 20.7677 23.6575C20.6258 24.0001 20.5887 24.3771 20.661 24.7408C20.7334 25.1045 20.912 25.4386 21.1742 25.7008C21.4364 25.963 21.7705 26.1416 22.1342 26.214C22.4979 26.2863 22.8749 26.2492 23.2175 26.1073C23.5601 25.9654 23.853 25.725 24.059 25.4167C24.265 25.1084 24.375 24.7458 24.375 24.375C24.375 23.8777 24.1775 23.4008 23.8258 23.0492C23.4742 22.6975 22.9973 22.5 22.5 22.5ZM22.5 11.25C22.0027 11.25 21.5258 11.4475 21.1742 11.7992C20.8225 12.1508 20.625 12.6277 20.625 13.125V18.75C20.625 19.2473 20.8225 19.7242 21.1742 20.0758C21.5258 20.4275 22.0027 20.625 22.5 20.625C22.9973 20.625 23.4742 20.4275 23.8258 20.0758C24.1775 19.7242 24.375 19.2473 24.375 18.75V13.125C24.375 12.6277 24.1775 12.1508 23.8258 11.7992C23.4742 11.4475 22.9973 11.25 22.5 11.25Z" fill="#00C6C3"/>
</svg>
