<svg width="505" height="504" viewBox="0 0 505 504" fill="none" xmlns="http://www.w3.org/2000/svg">
<rect x="1" y="1" width="503" height="502" rx="37" fill="#131627" stroke="black" stroke-width="2"/>
<path d="M162.179 41.0994C162.061 40.7159 161.897 40.3726 161.689 40.0696C161.485 39.7618 161.239 39.4991 160.95 39.2812C160.666 39.0634 160.339 38.9001 159.97 38.7912C159.601 38.6776 159.198 38.6207 158.763 38.6207C157.982 38.6207 157.286 38.8172 156.675 39.2102C156.064 39.6032 155.583 40.1809 155.233 40.9432C154.887 41.7008 154.714 42.6241 154.714 43.7131C154.714 44.8116 154.887 45.742 155.233 46.5043C155.579 47.2666 156.059 47.8466 156.675 48.2443C157.29 48.6373 158.005 48.8338 158.82 48.8338C159.558 48.8338 160.197 48.6918 160.737 48.4077C161.282 48.1236 161.701 47.7211 161.994 47.2003C162.288 46.6747 162.435 46.0592 162.435 45.3537L163.031 45.446H159.082V43.3864H164.984V45.1335C164.984 46.3788 164.719 47.456 164.189 48.3651C163.659 49.2741 162.929 49.9749 162.001 50.4673C161.073 50.955 160.008 51.1989 158.805 51.1989C157.465 51.1989 156.289 50.8982 155.276 50.2969C154.267 49.6908 153.479 48.8314 152.911 47.7188C152.347 46.6013 152.065 45.2756 152.065 43.7415C152.065 42.5672 152.231 41.5185 152.562 40.5952C152.899 39.6719 153.367 38.8883 153.969 38.2443C154.57 37.5956 155.276 37.1032 156.085 36.767C156.895 36.4261 157.776 36.2557 158.727 36.2557C159.532 36.2557 160.283 36.3741 160.979 36.6108C161.675 36.8428 162.293 37.1742 162.832 37.6051C163.377 38.036 163.824 38.5473 164.175 39.1392C164.525 39.7311 164.755 40.3845 164.864 41.0994H162.179ZM167.419 51V40.0909H169.912V41.9091H170.025C170.224 41.2794 170.565 40.794 171.048 40.4531C171.536 40.1075 172.092 39.9347 172.717 39.9347C172.859 39.9347 173.018 39.9418 173.193 39.956C173.373 39.9654 173.522 39.982 173.64 40.0057V42.3707C173.531 42.3329 173.359 42.2997 173.122 42.2713C172.89 42.2382 172.665 42.2216 172.447 42.2216C171.978 42.2216 171.557 42.3234 171.183 42.527C170.814 42.7259 170.522 43.0028 170.309 43.358C170.096 43.7131 169.99 44.1226 169.99 44.5866V51H167.419ZM178.292 51.2202C177.601 51.2202 176.978 51.0971 176.424 50.8509C175.875 50.5999 175.44 50.2306 175.118 49.7429C174.8 49.2552 174.642 48.6539 174.642 47.9389C174.642 47.3234 174.755 46.8144 174.983 46.4119C175.21 46.0095 175.52 45.6875 175.913 45.446C176.306 45.2045 176.749 45.0223 177.241 44.8991C177.738 44.7713 178.252 44.679 178.782 44.6222C179.422 44.5559 179.94 44.4967 180.338 44.4446C180.735 44.3878 181.024 44.3026 181.204 44.1889C181.389 44.0705 181.481 43.8883 181.481 43.642V43.5994C181.481 43.0644 181.323 42.6501 181.005 42.3565C180.688 42.063 180.231 41.9162 179.635 41.9162C179.005 41.9162 178.505 42.0535 178.136 42.3281C177.771 42.6027 177.525 42.9271 177.397 43.3011L174.997 42.9602C175.186 42.2973 175.499 41.7434 175.934 41.2983C176.37 40.8485 176.903 40.5123 177.532 40.2898C178.162 40.0625 178.858 39.9489 179.62 39.9489C180.146 39.9489 180.669 40.0104 181.19 40.1335C181.711 40.2566 182.187 40.4602 182.618 40.7443C183.048 41.0237 183.394 41.4048 183.654 41.8878C183.92 42.3707 184.052 42.9744 184.052 43.6989V51H181.581V49.5014H181.495C181.339 49.8045 181.119 50.0885 180.835 50.3537C180.556 50.6141 180.203 50.8248 179.777 50.9858C179.355 51.142 178.86 51.2202 178.292 51.2202ZM178.96 49.331C179.476 49.331 179.923 49.2292 180.302 49.0256C180.681 48.8172 180.972 48.5426 181.176 48.2017C181.384 47.8608 181.488 47.4891 181.488 47.0866V45.8011C181.408 45.8674 181.27 45.929 181.076 45.9858C180.887 46.0426 180.674 46.0923 180.437 46.1349C180.2 46.1776 179.966 46.2154 179.734 46.2486C179.502 46.2817 179.301 46.3101 179.13 46.3338C178.747 46.3859 178.404 46.4711 178.1 46.5895C177.797 46.7079 177.558 46.8736 177.383 47.0866C177.208 47.295 177.12 47.5649 177.12 47.8963C177.12 48.3698 177.293 48.7273 177.639 48.9688C177.984 49.2102 178.425 49.331 178.96 49.331ZM178.747 38.6562L180.338 35.4105H182.852L180.672 38.6562H178.747ZM192.163 40.0909V42.0795H185.714V40.0909H192.163ZM187.326 51V39.0611C187.326 38.3272 187.478 37.7164 187.781 37.2287C188.089 36.741 188.501 36.3764 189.017 36.1349C189.533 35.8935 190.106 35.7727 190.735 35.7727C191.181 35.7727 191.576 35.8082 191.922 35.8793C192.267 35.9503 192.523 36.0142 192.689 36.071L192.177 38.0597C192.068 38.0265 191.931 37.9934 191.765 37.9602C191.6 37.9223 191.415 37.9034 191.211 37.9034C190.733 37.9034 190.395 38.0194 190.196 38.2514C190.002 38.4787 189.904 38.8054 189.904 39.2315V51H187.326ZM194.176 51V40.0909H196.748V51H194.176ZM195.469 38.5426C195.062 38.5426 194.712 38.4077 194.418 38.1378C194.124 37.8632 193.978 37.5341 193.978 37.1506C193.978 36.7623 194.124 36.4332 194.418 36.1634C194.712 35.8887 195.062 35.7514 195.469 35.7514C195.881 35.7514 196.231 35.8887 196.52 36.1634C196.814 36.4332 196.961 36.7623 196.961 37.1506C196.961 37.5341 196.814 37.8632 196.52 38.1378C196.231 38.4077 195.881 38.5426 195.469 38.5426ZM204.15 51.2131C203.061 51.2131 202.126 50.974 201.344 50.4957C200.568 50.0175 199.969 49.357 199.548 48.5142C199.131 47.6667 198.923 46.6913 198.923 45.5881C198.923 44.4801 199.136 43.5024 199.562 42.6548C199.988 41.8026 200.589 41.1397 201.366 40.6662C202.147 40.188 203.07 39.9489 204.136 39.9489C205.021 39.9489 205.805 40.1122 206.487 40.4389C207.173 40.7609 207.72 41.2178 208.127 41.8097C208.534 42.3968 208.766 43.0833 208.823 43.8693H206.366C206.266 43.3437 206.03 42.9058 205.656 42.5554C205.286 42.2003 204.791 42.0227 204.171 42.0227C203.646 42.0227 203.184 42.1648 202.786 42.4489C202.388 42.7282 202.078 43.1307 201.856 43.6562C201.638 44.1818 201.529 44.8116 201.529 45.5455C201.529 46.2888 201.638 46.928 201.856 47.4631C202.074 47.9934 202.379 48.4029 202.772 48.6918C203.17 48.9759 203.636 49.1179 204.171 49.1179C204.55 49.1179 204.888 49.0469 205.187 48.9048C205.49 48.758 205.743 48.5473 205.947 48.2727C206.15 47.9981 206.29 47.6643 206.366 47.2713H208.823C208.762 48.0431 208.534 48.7273 208.141 49.3239C207.748 49.9157 207.213 50.3797 206.536 50.7159C205.859 51.0473 205.064 51.2131 204.15 51.2131ZM215.693 51.2131C214.627 51.2131 213.704 50.9787 212.923 50.5099C212.142 50.0412 211.536 49.3854 211.105 48.5426C210.679 47.6998 210.466 46.715 210.466 45.5881C210.466 44.4612 210.679 43.474 211.105 42.6264C211.536 41.7789 212.142 41.1207 212.923 40.652C213.704 40.1832 214.627 39.9489 215.693 39.9489C216.758 39.9489 217.681 40.1832 218.463 40.652C219.244 41.1207 219.848 41.7789 220.274 42.6264C220.705 43.474 220.92 44.4612 220.92 45.5881C220.92 46.715 220.705 47.6998 220.274 48.5426C219.848 49.3854 219.244 50.0412 218.463 50.5099C217.681 50.9787 216.758 51.2131 215.693 51.2131ZM215.707 49.1534C216.285 49.1534 216.768 48.9948 217.156 48.6776C217.544 48.3556 217.833 47.9247 218.022 47.3849C218.217 46.8452 218.314 46.2438 218.314 45.581C218.314 44.9134 218.217 44.3097 218.022 43.7699C217.833 43.2254 217.544 42.7921 217.156 42.4702C216.768 42.1482 216.285 41.9872 215.707 41.9872C215.115 41.9872 214.623 42.1482 214.23 42.4702C213.842 42.7921 213.55 43.2254 213.356 43.7699C213.167 44.3097 213.072 44.9134 213.072 45.581C213.072 46.2438 213.167 46.8452 213.356 47.3849C213.55 47.9247 213.842 48.3556 214.23 48.6776C214.623 48.9948 215.115 49.1534 215.707 49.1534ZM232.112 51.1918C231.254 51.1918 230.487 50.9716 229.81 50.5312C229.133 50.0909 228.598 49.4517 228.205 48.6136C227.812 47.7756 227.616 46.7576 227.616 45.5597C227.616 44.3475 227.815 43.3248 228.212 42.4915C228.615 41.6534 229.157 41.0213 229.839 40.5952C230.521 40.1643 231.281 39.9489 232.119 39.9489C232.758 39.9489 233.283 40.0578 233.695 40.2756C234.107 40.4886 234.434 40.7467 234.675 41.0497C234.917 41.348 235.104 41.6297 235.237 41.8949H235.343V36.4545H237.921V51H235.393V49.2812H235.237C235.104 49.5464 234.912 49.8281 234.661 50.1264C234.41 50.42 234.079 50.6709 233.667 50.8793C233.255 51.0876 232.737 51.1918 232.112 51.1918ZM232.829 49.0824C233.373 49.0824 233.837 48.9356 234.221 48.642C234.604 48.3437 234.896 47.9295 235.094 47.3991C235.293 46.8688 235.393 46.2509 235.393 45.5455C235.393 44.84 235.293 44.2268 235.094 43.706C234.9 43.1851 234.612 42.7803 234.228 42.4915C233.849 42.2027 233.383 42.0582 232.829 42.0582C232.256 42.0582 231.778 42.2074 231.394 42.5057C231.011 42.804 230.722 43.2159 230.528 43.7415C230.334 44.267 230.237 44.8684 230.237 45.5455C230.237 46.2273 230.334 46.8357 230.528 47.3707C230.727 47.901 231.018 48.3201 231.401 48.6278C231.79 48.9309 232.265 49.0824 232.829 49.0824ZM245.49 51.2131C244.397 51.2131 243.452 50.9858 242.657 50.5312C241.866 50.072 241.257 49.4233 240.831 48.5852C240.405 47.7424 240.192 46.7505 240.192 45.6094C240.192 44.4872 240.405 43.5024 240.831 42.6548C241.262 41.8026 241.864 41.1397 242.635 40.6662C243.407 40.188 244.314 39.9489 245.355 39.9489C246.028 39.9489 246.662 40.0578 247.259 40.2756C247.86 40.4886 248.391 40.8201 248.85 41.2699C249.314 41.7197 249.678 42.2926 249.944 42.9886C250.209 43.6799 250.341 44.5038 250.341 45.4602V46.2486H241.4V44.5156H247.877C247.872 44.0232 247.766 43.5852 247.557 43.2017C247.349 42.8134 247.058 42.508 246.684 42.2855C246.314 42.063 245.883 41.9517 245.391 41.9517C244.865 41.9517 244.404 42.0795 244.006 42.3352C243.608 42.5862 243.298 42.9176 243.076 43.3295C242.858 43.7367 242.747 44.1842 242.742 44.6719V46.1847C242.742 46.8191 242.858 47.3636 243.09 47.8182C243.322 48.268 243.646 48.6136 244.063 48.8551C244.48 49.0919 244.967 49.2102 245.526 49.2102C245.9 49.2102 246.239 49.1581 246.542 49.054C246.845 48.9451 247.107 48.7865 247.33 48.5781C247.552 48.3698 247.721 48.1117 247.834 47.804L250.235 48.0739C250.083 48.7083 249.794 49.2623 249.368 49.7358C248.947 50.2045 248.407 50.5691 247.749 50.8295C247.091 51.0852 246.338 51.2131 245.49 51.2131ZM256.952 38.6634V36.4545H268.557V38.6634H264.061V51H261.447V38.6634H256.952ZM276.149 46.4119V40.0909H278.72V51H276.227V49.0611H276.114C275.867 49.6719 275.463 50.1714 274.899 50.5597C274.34 50.9479 273.652 51.142 272.832 51.142C272.117 51.142 271.485 50.9834 270.936 50.6662C270.392 50.3442 269.965 49.8778 269.658 49.267C269.35 48.6515 269.196 47.9081 269.196 47.0369V40.0909H271.767V46.6392C271.767 47.3305 271.956 47.8797 272.335 48.2869C272.714 48.6941 273.211 48.8977 273.827 48.8977C274.205 48.8977 274.572 48.8054 274.928 48.6207C275.283 48.4361 275.574 48.1615 275.801 47.7969C276.033 47.4276 276.149 46.9659 276.149 46.4119ZM281.364 51V40.0909H283.857V41.9091H283.971C284.169 41.2794 284.51 40.794 284.993 40.4531C285.481 40.1075 286.037 39.9347 286.662 39.9347C286.804 39.9347 286.963 39.9418 287.138 39.956C287.318 39.9654 287.467 39.982 287.586 40.0057V42.3707C287.477 42.3329 287.304 42.2997 287.067 42.2713C286.835 42.2382 286.61 42.2216 286.392 42.2216C285.924 42.2216 285.502 42.3234 285.128 42.527C284.759 42.7259 284.468 43.0028 284.255 43.358C284.042 43.7131 283.935 44.1226 283.935 44.5866V51H281.364ZM289.407 51V36.4545H291.978V41.8949H292.085C292.217 41.6297 292.404 41.348 292.646 41.0497C292.887 40.7467 293.214 40.4886 293.626 40.2756C294.038 40.0578 294.564 39.9489 295.203 39.9489C296.046 39.9489 296.806 40.1643 297.483 40.5952C298.164 41.0213 298.704 41.6534 299.102 42.4915C299.504 43.3248 299.706 44.3475 299.706 45.5597C299.706 46.7576 299.509 47.7756 299.116 48.6136C298.723 49.4517 298.188 50.0909 297.511 50.5312C296.834 50.9716 296.067 51.1918 295.21 51.1918C294.585 51.1918 294.066 51.0876 293.654 50.8793C293.243 50.6709 292.911 50.42 292.66 50.1264C292.414 49.8281 292.222 49.5464 292.085 49.2812H291.936V51H289.407ZM291.929 45.5455C291.929 46.2509 292.028 46.8688 292.227 47.3991C292.431 47.9295 292.722 48.3437 293.1 48.642C293.484 48.9356 293.948 49.0824 294.493 49.0824C295.061 49.0824 295.537 48.9309 295.92 48.6278C296.304 48.3201 296.592 47.901 296.787 47.3707C296.985 46.8357 297.085 46.2273 297.085 45.5455C297.085 44.8684 296.988 44.267 296.794 43.7415C296.6 43.2159 296.311 42.804 295.927 42.5057C295.544 42.2074 295.065 42.0582 294.493 42.0582C293.943 42.0582 293.477 42.2027 293.093 42.4915C292.71 42.7803 292.419 43.1851 292.22 43.706C292.026 44.2268 291.929 44.84 291.929 45.5455ZM301.891 51V40.0909H304.462V51H301.891ZM303.184 38.5426C302.777 38.5426 302.426 38.4077 302.133 38.1378C301.839 37.8632 301.692 37.5341 301.692 37.1506C301.692 36.7623 301.839 36.4332 302.133 36.1634C302.426 35.8887 302.777 35.7514 303.184 35.7514C303.596 35.7514 303.946 35.8887 304.235 36.1634C304.529 36.4332 304.675 36.7623 304.675 37.1506C304.675 37.5341 304.529 37.8632 304.235 38.1378C303.946 38.4077 303.596 38.5426 303.184 38.5426ZM311.154 51.1918C310.297 51.1918 309.53 50.9716 308.853 50.5312C308.176 50.0909 307.641 49.4517 307.248 48.6136C306.855 47.7756 306.659 46.7576 306.659 45.5597C306.659 44.3475 306.858 43.3248 307.255 42.4915C307.658 41.6534 308.2 41.0213 308.882 40.5952C309.564 40.1643 310.324 39.9489 311.162 39.9489C311.801 39.9489 312.326 40.0578 312.738 40.2756C313.15 40.4886 313.477 40.7467 313.718 41.0497C313.96 41.348 314.147 41.6297 314.279 41.8949H314.386V36.4545H316.964V51H314.436V49.2812H314.279C314.147 49.5464 313.955 49.8281 313.704 50.1264C313.453 50.42 313.122 50.6709 312.71 50.8793C312.298 51.0876 311.779 51.1918 311.154 51.1918ZM311.872 49.0824C312.416 49.0824 312.88 48.9356 313.264 48.642C313.647 48.3437 313.939 47.9295 314.137 47.3991C314.336 46.8688 314.436 46.2509 314.436 45.5455C314.436 44.84 314.336 44.2268 314.137 43.706C313.943 43.1851 313.654 42.7803 313.271 42.4915C312.892 42.2027 312.426 42.0582 311.872 42.0582C311.299 42.0582 310.821 42.2074 310.437 42.5057C310.054 42.804 309.765 43.2159 309.571 43.7415C309.377 44.267 309.279 44.8684 309.279 45.5455C309.279 46.2273 309.377 46.8357 309.571 47.3707C309.77 47.901 310.061 48.3201 310.444 48.6278C310.833 48.9309 311.308 49.0824 311.872 49.0824ZM324.533 51.2131C323.44 51.2131 322.495 50.9858 321.7 50.5312C320.909 50.072 320.3 49.4233 319.874 48.5852C319.448 47.7424 319.235 46.7505 319.235 45.6094C319.235 44.4872 319.448 43.5024 319.874 42.6548C320.305 41.8026 320.906 41.1397 321.678 40.6662C322.45 40.188 323.357 39.9489 324.398 39.9489C325.071 39.9489 325.705 40.0578 326.302 40.2756C326.903 40.4886 327.433 40.8201 327.893 41.2699C328.357 41.7197 328.721 42.2926 328.987 42.9886C329.252 43.6799 329.384 44.5038 329.384 45.4602V46.2486H320.442V44.5156H326.92C326.915 44.0232 326.808 43.5852 326.6 43.2017C326.392 42.8134 326.101 42.508 325.727 42.2855C325.357 42.063 324.926 41.9517 324.434 41.9517C323.908 41.9517 323.447 42.0795 323.049 42.3352C322.651 42.5862 322.341 42.9176 322.119 43.3295C321.901 43.7367 321.79 44.1842 321.785 44.6719V46.1847C321.785 46.8191 321.901 47.3636 322.133 47.8182C322.365 48.268 322.689 48.6136 323.106 48.8551C323.522 49.0919 324.01 49.2102 324.569 49.2102C324.943 49.2102 325.281 49.1581 325.585 49.054C325.888 48.9451 326.15 48.7865 326.373 48.5781C326.595 48.3698 326.763 48.1117 326.877 47.804L329.278 48.0739C329.126 48.7083 328.837 49.2623 328.411 49.7358C327.99 50.2045 327.45 50.5691 326.792 50.8295C326.134 51.0852 325.381 51.2131 324.533 51.2131ZM331.417 51V49.3665L337.042 42.3139V42.2216H331.602V40.0909H340.189V41.8452L334.833 48.777V48.8693H340.373V51H331.417Z" fill="white"/>
<path d="M108.71 72.3636V84H106.835L101.352 76.0739H101.256V84H99.1477V72.3636H101.034L106.511 80.2955H106.614V72.3636H108.71ZM110.916 84V75.2727H112.973V84H110.916ZM111.161 74.125L112.433 71.5284H114.445L112.7 74.125H111.161ZM122.884 75.2727L119.776 84H117.503L114.395 75.2727H116.588L118.594 81.7557H118.685L120.696 75.2727H122.884ZM127.874 84.1705C126.999 84.1705 126.243 83.9886 125.607 83.625C124.974 83.2576 124.487 82.7386 124.146 82.0682C123.805 81.3939 123.635 80.6004 123.635 79.6875C123.635 78.7898 123.805 78.0019 124.146 77.3239C124.491 76.642 124.972 76.1117 125.589 75.733C126.207 75.3504 126.932 75.1591 127.766 75.1591C128.304 75.1591 128.811 75.2462 129.288 75.4205C129.769 75.5909 130.194 75.8561 130.561 76.2159C130.932 76.5758 131.224 77.0341 131.436 77.5909C131.648 78.1439 131.754 78.803 131.754 79.5682V80.1989H124.601V78.8125H129.783C129.779 78.4186 129.694 78.0682 129.527 77.7614C129.36 77.4508 129.127 77.2064 128.828 77.0284C128.533 76.8504 128.188 76.7614 127.794 76.7614C127.374 76.7614 127.004 76.8636 126.686 77.0682C126.368 77.2689 126.12 77.5341 125.942 77.8636C125.768 78.1894 125.679 78.5473 125.675 78.9375V80.1477C125.675 80.6553 125.768 81.0909 125.953 81.4545C126.139 81.8144 126.398 82.0909 126.732 82.2841C127.065 82.4735 127.455 82.5682 127.902 82.5682C128.201 82.5682 128.472 82.5265 128.714 82.4432C128.957 82.3561 129.167 82.2292 129.345 82.0625C129.523 81.8958 129.658 81.6894 129.749 81.4432L131.669 81.6591C131.548 82.1667 131.317 82.6098 130.976 82.9886C130.639 83.3636 130.207 83.6553 129.68 83.8636C129.154 84.0682 128.552 84.1705 127.874 84.1705ZM135.551 72.3636V84H133.494V72.3636H135.551ZM144.874 84.1534C144.188 84.1534 143.574 83.9773 143.033 83.625C142.491 83.2727 142.063 82.7614 141.749 82.0909C141.434 81.4205 141.277 80.6061 141.277 79.6477C141.277 78.678 141.436 77.8598 141.754 77.1932C142.076 76.5227 142.51 76.017 143.055 75.6761C143.601 75.3314 144.209 75.1591 144.879 75.1591C145.391 75.1591 145.811 75.2462 146.141 75.4205C146.47 75.5909 146.732 75.7973 146.925 76.0398C147.118 76.2784 147.268 76.5038 147.374 76.7159H147.459V72.3636H149.521V84H147.499V82.625H147.374C147.268 82.8371 147.114 83.0625 146.913 83.3011C146.713 83.536 146.447 83.7367 146.118 83.9034C145.788 84.0701 145.374 84.1534 144.874 84.1534ZM145.447 82.4659C145.883 82.4659 146.254 82.3485 146.561 82.1136C146.868 81.875 147.101 81.5436 147.26 81.1193C147.419 80.6951 147.499 80.2008 147.499 79.6364C147.499 79.072 147.419 78.5814 147.26 78.1648C147.105 77.7481 146.874 77.4242 146.567 77.1932C146.264 76.9621 145.891 76.8466 145.447 76.8466C144.989 76.8466 144.607 76.9659 144.3 77.2045C143.993 77.4432 143.762 77.7727 143.607 78.1932C143.451 78.6136 143.374 79.0947 143.374 79.6364C143.374 80.1818 143.451 80.6686 143.607 81.0966C143.766 81.5208 143.999 81.8561 144.305 82.1023C144.616 82.3447 144.997 82.4659 145.447 82.4659ZM155.577 84.1705C154.702 84.1705 153.946 83.9886 153.31 83.625C152.677 83.2576 152.19 82.7386 151.849 82.0682C151.509 81.3939 151.338 80.6004 151.338 79.6875C151.338 78.7898 151.509 78.0019 151.849 77.3239C152.194 76.642 152.675 76.1117 153.293 75.733C153.91 75.3504 154.635 75.1591 155.469 75.1591C156.007 75.1591 156.514 75.2462 156.991 75.4205C157.473 75.5909 157.897 75.8561 158.264 76.2159C158.635 76.5758 158.927 77.0341 159.139 77.5909C159.351 78.1439 159.457 78.803 159.457 79.5682V80.1989H152.304V78.8125H157.486C157.482 78.4186 157.397 78.0682 157.23 77.7614C157.063 77.4508 156.83 77.2064 156.531 77.0284C156.236 76.8504 155.891 76.7614 155.497 76.7614C155.077 76.7614 154.707 76.8636 154.389 77.0682C154.071 77.2689 153.823 77.5341 153.645 77.8636C153.471 78.1894 153.382 78.5473 153.378 78.9375V80.1477C153.378 80.6553 153.471 81.0909 153.656 81.4545C153.842 81.8144 154.101 82.0909 154.435 82.2841C154.768 82.4735 155.158 82.5682 155.605 82.5682C155.904 82.5682 156.175 82.5265 156.418 82.4432C156.66 82.3561 156.87 82.2292 157.048 82.0625C157.226 81.8958 157.361 81.6894 157.452 81.4432L159.372 81.6591C159.251 82.1667 159.02 82.6098 158.679 82.9886C158.342 83.3636 157.91 83.6553 157.384 83.8636C156.857 84.0682 156.255 84.1705 155.577 84.1705ZM169.524 75.2727V76.8636H164.507V75.2727H169.524ZM165.746 73.1818H167.803V81.375C167.803 81.6515 167.844 81.8636 167.928 82.0114C168.015 82.1553 168.128 82.2538 168.268 82.3068C168.409 82.3598 168.564 82.3864 168.734 82.3864C168.863 82.3864 168.981 82.3769 169.087 82.358C169.196 82.339 169.28 82.322 169.337 82.3068L169.683 83.9148C169.573 83.9527 169.416 83.9943 169.212 84.0398C169.011 84.0852 168.765 84.1117 168.473 84.1193C167.958 84.1345 167.494 84.0568 167.081 83.8864C166.668 83.7121 166.34 83.4432 166.098 83.0795C165.859 82.7159 165.742 82.2614 165.746 81.7159V73.1818ZM176.807 80.3295V75.2727H178.864V84H176.869V82.4489H176.778C176.581 82.9375 176.258 83.3371 175.807 83.6477C175.36 83.9583 174.809 84.1136 174.153 84.1136C173.581 84.1136 173.076 83.9867 172.636 83.733C172.201 83.4754 171.86 83.1023 171.614 82.6136C171.367 82.1212 171.244 81.5265 171.244 80.8295V75.2727H173.301V80.5114C173.301 81.0644 173.453 81.5038 173.756 81.8295C174.059 82.1553 174.456 82.3182 174.949 82.3182C175.252 82.3182 175.545 82.2443 175.83 82.0966C176.114 81.9489 176.347 81.7292 176.528 81.4375C176.714 81.142 176.807 80.7727 176.807 80.3295ZM180.979 84V75.2727H182.973V76.7273H183.064C183.223 76.2235 183.496 75.8352 183.882 75.5625C184.272 75.286 184.717 75.1477 185.217 75.1477C185.331 75.1477 185.458 75.1534 185.598 75.1648C185.742 75.1723 185.861 75.1856 185.956 75.2045V77.0966C185.869 77.0663 185.731 77.0398 185.541 77.017C185.356 76.9905 185.176 76.9773 185.001 76.9773C184.626 76.9773 184.289 77.0587 183.99 77.2216C183.695 77.3807 183.462 77.6023 183.291 77.8864C183.121 78.1705 183.036 78.4981 183.036 78.8693V84H180.979ZM187.413 84V72.3636H189.47V76.7159H189.555C189.661 76.5038 189.811 76.2784 190.004 76.0398C190.197 75.7973 190.459 75.5909 190.788 75.4205C191.118 75.2462 191.538 75.1591 192.05 75.1591C192.724 75.1591 193.332 75.3314 193.874 75.6761C194.419 76.017 194.851 76.5227 195.169 77.1932C195.491 77.8598 195.652 78.678 195.652 79.6477C195.652 80.6061 195.495 81.4205 195.18 82.0909C194.866 82.7614 194.438 83.2727 193.896 83.625C193.355 83.9773 192.741 84.1534 192.055 84.1534C191.555 84.1534 191.141 84.0701 190.811 83.9034C190.482 83.7367 190.216 83.536 190.016 83.3011C189.819 83.0625 189.665 82.8371 189.555 82.625H189.436V84H187.413ZM189.43 79.6364C189.43 80.2008 189.51 80.6951 189.669 81.1193C189.832 81.5436 190.065 81.875 190.368 82.1136C190.675 82.3485 191.046 82.4659 191.482 82.4659C191.936 82.4659 192.317 82.3447 192.624 82.1023C192.93 81.8561 193.161 81.5208 193.317 81.0966C193.476 80.6686 193.555 80.1818 193.555 79.6364C193.555 79.0947 193.478 78.6136 193.322 78.1932C193.167 77.7727 192.936 77.4432 192.629 77.2045C192.322 76.9659 191.94 76.8466 191.482 76.8466C191.042 76.8466 190.669 76.9621 190.362 77.1932C190.055 77.4242 189.822 77.7481 189.663 78.1648C189.508 78.5814 189.43 79.072 189.43 79.6364ZM197.401 84V75.2727H199.457V84H197.401ZM198.435 74.0341C198.109 74.0341 197.829 73.9261 197.594 73.7102C197.359 73.4905 197.241 73.2273 197.241 72.9205C197.241 72.6098 197.359 72.3466 197.594 72.1307C197.829 71.911 198.109 71.8011 198.435 71.8011C198.764 71.8011 199.045 71.911 199.276 72.1307C199.51 72.3466 199.628 72.6098 199.628 72.9205C199.628 73.2273 199.51 73.4905 199.276 73.7102C199.045 73.9261 198.764 74.0341 198.435 74.0341ZM204.811 84.1534C204.125 84.1534 203.512 83.9773 202.97 83.625C202.429 83.2727 202 82.7614 201.686 82.0909C201.372 81.4205 201.214 80.6061 201.214 79.6477C201.214 78.678 201.374 77.8598 201.692 77.1932C202.014 76.5227 202.447 76.017 202.993 75.6761C203.538 75.3314 204.146 75.1591 204.817 75.1591C205.328 75.1591 205.749 75.2462 206.078 75.4205C206.408 75.5909 206.669 75.7973 206.862 76.0398C207.055 76.2784 207.205 76.5038 207.311 76.7159H207.396V72.3636H209.459V84H207.436V82.625H207.311C207.205 82.8371 207.052 83.0625 206.851 83.3011C206.65 83.536 206.385 83.7367 206.055 83.9034C205.726 84.0701 205.311 84.1534 204.811 84.1534ZM205.385 82.4659C205.821 82.4659 206.192 82.3485 206.499 82.1136C206.805 81.875 207.038 81.5436 207.197 81.1193C207.357 80.6951 207.436 80.2008 207.436 79.6364C207.436 79.072 207.357 78.5814 207.197 78.1648C207.042 77.7481 206.811 77.4242 206.504 77.1932C206.201 76.9621 205.828 76.8466 205.385 76.8466C204.927 76.8466 204.544 76.9659 204.237 77.2045C203.93 77.4432 203.699 77.7727 203.544 78.1932C203.389 78.6136 203.311 79.0947 203.311 79.6364C203.311 80.1818 203.389 80.6686 203.544 81.0966C203.703 81.5208 203.936 81.8561 204.243 82.1023C204.554 82.3447 204.934 82.4659 205.385 82.4659ZM215.514 84.1705C214.639 84.1705 213.884 83.9886 213.247 83.625C212.615 83.2576 212.128 82.7386 211.787 82.0682C211.446 81.3939 211.276 80.6004 211.276 79.6875C211.276 78.7898 211.446 78.0019 211.787 77.3239C212.132 76.642 212.613 76.1117 213.23 75.733C213.848 75.3504 214.573 75.1591 215.406 75.1591C215.944 75.1591 216.452 75.2462 216.929 75.4205C217.41 75.5909 217.834 75.8561 218.202 76.2159C218.573 76.5758 218.865 77.0341 219.077 77.5909C219.289 78.1439 219.395 78.803 219.395 79.5682V80.1989H212.241V78.8125H217.423C217.42 78.4186 217.334 78.0682 217.168 77.7614C217.001 77.4508 216.768 77.2064 216.469 77.0284C216.173 76.8504 215.829 76.7614 215.435 76.7614C215.014 76.7614 214.645 76.8636 214.327 77.0682C214.009 77.2689 213.76 77.5341 213.582 77.8636C213.408 78.1894 213.319 78.5473 213.315 78.9375V80.1477C213.315 80.6553 213.408 81.0909 213.594 81.4545C213.779 81.8144 214.039 82.0909 214.372 82.2841C214.705 82.4735 215.096 82.5682 215.543 82.5682C215.842 82.5682 216.113 82.5265 216.355 82.4432C216.598 82.3561 216.808 82.2292 216.986 82.0625C217.164 81.8958 217.298 81.6894 217.389 81.4432L219.31 81.6591C219.188 82.1667 218.957 82.6098 218.616 82.9886C218.279 83.3636 217.848 83.6553 217.321 83.8636C216.795 84.0682 216.192 84.1705 215.514 84.1705ZM221.021 84V82.6932L225.521 77.0511V76.9773H221.169V75.2727H228.038V76.6761L223.754 82.2216V82.2955H228.186V84H221.021ZM237.327 84.1534C236.641 84.1534 236.027 83.9773 235.486 83.625C234.944 83.2727 234.516 82.7614 234.202 82.0909C233.887 81.4205 233.73 80.6061 233.73 79.6477C233.73 78.678 233.889 77.8598 234.207 77.1932C234.529 76.5227 234.963 76.017 235.509 75.6761C236.054 75.3314 236.662 75.1591 237.332 75.1591C237.844 75.1591 238.264 75.2462 238.594 75.4205C238.923 75.5909 239.185 75.7973 239.378 76.0398C239.571 76.2784 239.721 76.5038 239.827 76.7159H239.912V72.3636H241.974V84H239.952V82.625H239.827C239.721 82.8371 239.567 83.0625 239.366 83.3011C239.166 83.536 238.901 83.7367 238.571 83.9034C238.241 84.0701 237.827 84.1534 237.327 84.1534ZM237.901 82.4659C238.336 82.4659 238.707 82.3485 239.014 82.1136C239.321 81.875 239.554 81.5436 239.713 81.1193C239.872 80.6951 239.952 80.2008 239.952 79.6364C239.952 79.072 239.872 78.5814 239.713 78.1648C239.558 77.7481 239.327 77.4242 239.02 77.1932C238.717 76.9621 238.344 76.8466 237.901 76.8466C237.442 76.8466 237.06 76.9659 236.753 77.2045C236.446 77.4432 236.215 77.7727 236.06 78.1932C235.904 78.6136 235.827 79.0947 235.827 79.6364C235.827 80.1818 235.904 80.6686 236.06 81.0966C236.219 81.5208 236.452 81.8561 236.759 82.1023C237.069 82.3447 237.45 82.4659 237.901 82.4659ZM246.678 84.1761C246.125 84.1761 245.626 84.0777 245.183 83.8807C244.744 83.6799 244.395 83.3845 244.138 82.9943C243.884 82.6042 243.757 82.1231 243.757 81.5511C243.757 81.0587 243.848 80.6515 244.03 80.3295C244.212 80.0076 244.46 79.75 244.774 79.5568C245.089 79.3636 245.443 79.2178 245.837 79.1193C246.234 79.017 246.645 78.9432 247.07 78.8977C247.581 78.8447 247.996 78.7973 248.314 78.7557C248.632 78.7102 248.863 78.642 249.007 78.5511C249.155 78.4564 249.229 78.3106 249.229 78.1136V78.0795C249.229 77.6515 249.102 77.3201 248.848 77.0852C248.594 76.8504 248.229 76.733 247.751 76.733C247.248 76.733 246.848 76.8428 246.553 77.0625C246.261 77.2822 246.064 77.5417 245.962 77.8409L244.041 77.5682C244.193 77.0379 244.443 76.5947 244.791 76.2386C245.14 75.8788 245.566 75.6098 246.07 75.4318C246.573 75.25 247.13 75.1591 247.74 75.1591C248.161 75.1591 248.579 75.2083 248.996 75.3068C249.412 75.4053 249.793 75.5682 250.138 75.7955C250.482 76.0189 250.759 76.3239 250.967 76.7102C251.179 77.0966 251.286 77.5795 251.286 78.1591V84H249.308V82.8011H249.24C249.115 83.0436 248.939 83.2708 248.712 83.483C248.488 83.6913 248.206 83.8598 247.865 83.9886C247.528 84.1136 247.132 84.1761 246.678 84.1761ZM247.212 82.6648C247.625 82.6648 247.982 82.5833 248.286 82.4205C248.589 82.2538 248.821 82.0341 248.984 81.7614C249.151 81.4886 249.234 81.1913 249.234 80.8693V79.8409C249.17 79.8939 249.06 79.9432 248.905 79.9886C248.753 80.0341 248.583 80.0739 248.393 80.108C248.204 80.142 248.017 80.1723 247.831 80.1989C247.645 80.2254 247.484 80.2481 247.348 80.267C247.041 80.3087 246.767 80.3769 246.524 80.4716C246.282 80.5663 246.09 80.6989 245.95 80.8693C245.81 81.036 245.74 81.2519 245.74 81.517C245.74 81.8958 245.878 82.1818 246.155 82.375C246.431 82.5682 246.784 82.6648 247.212 82.6648ZM259.834 84.1761C259.281 84.1761 258.783 84.0777 258.339 83.8807C257.9 83.6799 257.552 83.3845 257.294 82.9943C257.04 82.6042 256.913 82.1231 256.913 81.5511C256.913 81.0587 257.004 80.6515 257.186 80.3295C257.368 80.0076 257.616 79.75 257.93 79.5568C258.245 79.3636 258.599 79.2178 258.993 79.1193C259.391 79.017 259.802 78.9432 260.226 78.8977C260.737 78.8447 261.152 78.7973 261.47 78.7557C261.788 78.7102 262.019 78.642 262.163 78.5511C262.311 78.4564 262.385 78.3106 262.385 78.1136V78.0795C262.385 77.6515 262.258 77.3201 262.004 77.0852C261.75 76.8504 261.385 76.733 260.908 76.733C260.404 76.733 260.004 76.8428 259.709 77.0625C259.417 77.2822 259.22 77.5417 259.118 77.8409L257.197 77.5682C257.349 77.0379 257.599 76.5947 257.947 76.2386C258.296 75.8788 258.722 75.6098 259.226 75.4318C259.73 75.25 260.286 75.1591 260.896 75.1591C261.317 75.1591 261.735 75.2083 262.152 75.3068C262.569 75.4053 262.949 75.5682 263.294 75.7955C263.639 76.0189 263.915 76.3239 264.124 76.7102C264.336 77.0966 264.442 77.5795 264.442 78.1591V84H262.464V82.8011H262.396C262.271 83.0436 262.095 83.2708 261.868 83.483C261.644 83.6913 261.362 83.8598 261.021 83.9886C260.684 84.1136 260.288 84.1761 259.834 84.1761ZM260.368 82.6648C260.781 82.6648 261.139 82.5833 261.442 82.4205C261.745 82.2538 261.978 82.0341 262.141 81.7614C262.307 81.4886 262.391 81.1913 262.391 80.8693V79.8409C262.326 79.8939 262.216 79.9432 262.061 79.9886C261.91 80.0341 261.739 80.0739 261.55 80.108C261.36 80.142 261.173 80.1723 260.987 80.1989C260.802 80.2254 260.641 80.2481 260.504 80.267C260.197 80.3087 259.923 80.3769 259.68 80.4716C259.438 80.5663 259.247 80.6989 259.107 80.8693C258.966 81.036 258.896 81.2519 258.896 81.517C258.896 81.8958 259.035 82.1818 259.311 82.375C259.588 82.5682 259.94 82.6648 260.368 82.6648ZM260.197 74.125L261.47 71.5284H263.482L261.737 74.125H260.197ZM270.305 87.4545C269.567 87.4545 268.932 87.3542 268.402 87.1534C267.872 86.9564 267.446 86.6913 267.124 86.358C266.802 86.0246 266.578 85.6553 266.453 85.25L268.305 84.8011C268.389 84.9716 268.51 85.1402 268.669 85.3068C268.828 85.4773 269.042 85.6174 269.311 85.7273C269.584 85.8409 269.927 85.8977 270.339 85.8977C270.923 85.8977 271.406 85.7557 271.788 85.4716C272.171 85.1913 272.362 84.7292 272.362 84.0852V82.4318H272.26C272.154 82.6439 271.999 82.8617 271.794 83.0852C271.593 83.3087 271.326 83.4962 270.993 83.6477C270.663 83.7992 270.249 83.875 269.749 83.875C269.078 83.875 268.47 83.7178 267.925 83.4034C267.383 83.0852 266.951 82.6117 266.629 81.983C266.311 81.3504 266.152 80.5587 266.152 79.608C266.152 78.6496 266.311 77.8409 266.629 77.1818C266.951 76.5189 267.385 76.017 267.93 75.6761C268.476 75.3314 269.084 75.1591 269.754 75.1591C270.266 75.1591 270.686 75.2462 271.016 75.4205C271.349 75.5909 271.614 75.7973 271.811 76.0398C272.008 76.2784 272.158 76.5038 272.26 76.7159H272.374V75.2727H274.402V84.142C274.402 84.8883 274.224 85.5057 273.868 85.9943C273.512 86.483 273.025 86.8485 272.408 87.0909C271.79 87.3333 271.089 87.4545 270.305 87.4545ZM270.322 82.2614C270.758 82.2614 271.129 82.1553 271.436 81.9432C271.743 81.7311 271.976 81.4261 272.135 81.0284C272.294 80.6307 272.374 80.1534 272.374 79.5966C272.374 79.0473 272.294 78.5663 272.135 78.1534C271.98 77.7405 271.749 77.4205 271.442 77.1932C271.139 76.9621 270.766 76.8466 270.322 76.8466C269.864 76.8466 269.482 76.9659 269.175 77.2045C268.868 77.4432 268.637 77.7708 268.482 78.1875C268.326 78.6004 268.249 79.0701 268.249 79.5966C268.249 80.1307 268.326 80.5985 268.482 81C268.641 81.3977 268.874 81.7083 269.18 81.9318C269.491 82.1515 269.872 82.2614 270.322 82.2614ZM282.072 80.3295V75.2727H284.129V84H282.135V82.4489H282.044C281.847 82.9375 281.523 83.3371 281.072 83.6477C280.625 83.9583 280.074 84.1136 279.419 84.1136C278.847 84.1136 278.341 83.9867 277.902 83.733C277.466 83.4754 277.125 83.1023 276.879 82.6136C276.633 82.1212 276.51 81.5265 276.51 80.8295V75.2727H278.567V80.5114C278.567 81.0644 278.718 81.5038 279.021 81.8295C279.324 82.1553 279.722 82.3182 280.214 82.3182C280.518 82.3182 280.811 82.2443 281.095 82.0966C281.379 81.9489 281.612 81.7292 281.794 81.4375C281.98 81.142 282.072 80.7727 282.072 80.3295ZM288.756 84.1761C288.203 84.1761 287.705 84.0777 287.261 83.8807C286.822 83.6799 286.473 83.3845 286.216 82.9943C285.962 82.6042 285.835 82.1231 285.835 81.5511C285.835 81.0587 285.926 80.6515 286.108 80.3295C286.29 80.0076 286.538 79.75 286.852 79.5568C287.167 79.3636 287.521 79.2178 287.915 79.1193C288.313 79.017 288.723 78.9432 289.148 78.8977C289.659 78.8447 290.074 78.7973 290.392 78.7557C290.71 78.7102 290.941 78.642 291.085 78.5511C291.233 78.4564 291.307 78.3106 291.307 78.1136V78.0795C291.307 77.6515 291.18 77.3201 290.926 77.0852C290.672 76.8504 290.307 76.733 289.83 76.733C289.326 76.733 288.926 76.8428 288.631 77.0625C288.339 77.2822 288.142 77.5417 288.04 77.8409L286.119 77.5682C286.271 77.0379 286.521 76.5947 286.869 76.2386C287.218 75.8788 287.644 75.6098 288.148 75.4318C288.652 75.25 289.208 75.1591 289.818 75.1591C290.239 75.1591 290.657 75.2083 291.074 75.3068C291.491 75.4053 291.871 75.5682 292.216 75.7955C292.561 76.0189 292.837 76.3239 293.045 76.7102C293.258 77.0966 293.364 77.5795 293.364 78.1591V84H291.386V82.8011H291.318C291.193 83.0436 291.017 83.2708 290.79 83.483C290.566 83.6913 290.284 83.8598 289.943 83.9886C289.606 84.1136 289.21 84.1761 288.756 84.1761ZM289.29 82.6648C289.703 82.6648 290.061 82.5833 290.364 82.4205C290.667 82.2538 290.9 82.0341 291.062 81.7614C291.229 81.4886 291.312 81.1913 291.312 80.8693V79.8409C291.248 79.8939 291.138 79.9432 290.983 79.9886C290.831 80.0341 290.661 80.0739 290.472 80.108C290.282 80.142 290.095 80.1723 289.909 80.1989C289.723 80.2254 289.563 80.2481 289.426 80.267C289.119 80.3087 288.845 80.3769 288.602 80.4716C288.36 80.5663 288.169 80.6989 288.028 80.8693C287.888 81.036 287.818 81.2519 287.818 81.517C287.818 81.8958 287.956 82.1818 288.233 82.375C288.509 82.5682 288.862 82.6648 289.29 82.6648ZM301.912 84.1761C301.359 84.1761 300.861 84.0777 300.418 83.8807C299.978 83.6799 299.63 83.3845 299.372 82.9943C299.118 82.6042 298.991 82.1231 298.991 81.5511C298.991 81.0587 299.082 80.6515 299.264 80.3295C299.446 80.0076 299.694 79.75 300.009 79.5568C300.323 79.3636 300.677 79.2178 301.071 79.1193C301.469 79.017 301.88 78.9432 302.304 78.8977C302.815 78.8447 303.23 78.7973 303.548 78.7557C303.866 78.7102 304.098 78.642 304.241 78.5511C304.389 78.4564 304.463 78.3106 304.463 78.1136V78.0795C304.463 77.6515 304.336 77.3201 304.082 77.0852C303.829 76.8504 303.463 76.733 302.986 76.733C302.482 76.733 302.082 76.8428 301.787 77.0625C301.495 77.2822 301.298 77.5417 301.196 77.8409L299.276 77.5682C299.427 77.0379 299.677 76.5947 300.026 76.2386C300.374 75.8788 300.8 75.6098 301.304 75.4318C301.808 75.25 302.365 75.1591 302.974 75.1591C303.395 75.1591 303.813 75.2083 304.23 75.3068C304.647 75.4053 305.027 75.5682 305.372 75.7955C305.717 76.0189 305.993 76.3239 306.202 76.7102C306.414 77.0966 306.52 77.5795 306.52 78.1591V84H304.543V82.8011H304.474C304.349 83.0436 304.173 83.2708 303.946 83.483C303.723 83.6913 303.44 83.8598 303.099 83.9886C302.762 84.1136 302.366 84.1761 301.912 84.1761ZM302.446 82.6648C302.859 82.6648 303.217 82.5833 303.52 82.4205C303.823 82.2538 304.056 82.0341 304.219 81.7614C304.385 81.4886 304.469 81.1913 304.469 80.8693V79.8409C304.404 79.8939 304.295 79.9432 304.139 79.9886C303.988 80.0341 303.817 80.0739 303.628 80.108C303.438 80.142 303.251 80.1723 303.065 80.1989C302.88 80.2254 302.719 80.2481 302.582 80.267C302.276 80.3087 302.001 80.3769 301.759 80.4716C301.516 80.5663 301.325 80.6989 301.185 80.8693C301.045 81.036 300.974 81.2519 300.974 81.517C300.974 81.8958 301.113 82.1818 301.389 82.375C301.666 82.5682 302.018 82.6648 302.446 82.6648ZM312.395 84.1705C311.543 84.1705 310.804 83.983 310.179 83.608C309.554 83.233 309.069 82.7083 308.724 82.0341C308.384 81.3598 308.213 80.572 308.213 79.6705C308.213 78.7689 308.384 77.9792 308.724 77.3011C309.069 76.6231 309.554 76.0966 310.179 75.7216C310.804 75.3466 311.543 75.1591 312.395 75.1591C313.247 75.1591 313.986 75.3466 314.611 75.7216C315.236 76.0966 315.719 76.6231 316.06 77.3011C316.404 77.9792 316.577 78.7689 316.577 79.6705C316.577 80.572 316.404 81.3598 316.06 82.0341C315.719 82.7083 315.236 83.233 314.611 83.608C313.986 83.983 313.247 84.1705 312.395 84.1705ZM312.406 82.5227C312.868 82.5227 313.255 82.3958 313.565 82.142C313.876 81.8845 314.107 81.5398 314.259 81.108C314.414 80.6761 314.491 80.1951 314.491 79.6648C314.491 79.1307 314.414 78.6477 314.259 78.2159C314.107 77.7803 313.876 77.4337 313.565 77.1761C313.255 76.9186 312.868 76.7898 312.406 76.7898C311.933 76.7898 311.539 76.9186 311.224 77.1761C310.914 77.4337 310.681 77.7803 310.526 78.2159C310.374 78.6477 310.298 79.1307 310.298 79.6648C310.298 80.1951 310.374 80.6761 310.526 81.108C310.681 81.5398 310.914 81.8845 311.224 82.142C311.539 82.3958 311.933 82.5227 312.406 82.5227ZM324.348 72.3636V84H322.291V72.3636H324.348ZM330.27 84.1705C329.418 84.1705 328.679 83.983 328.054 83.608C327.429 83.233 326.944 82.7083 326.599 82.0341C326.259 81.3598 326.088 80.572 326.088 79.6705C326.088 78.7689 326.259 77.9792 326.599 77.3011C326.944 76.6231 327.429 76.0966 328.054 75.7216C328.679 75.3466 329.418 75.1591 330.27 75.1591C331.122 75.1591 331.861 75.3466 332.486 75.7216C333.111 76.0966 333.594 76.6231 333.935 77.3011C334.279 77.9792 334.452 78.7689 334.452 79.6705C334.452 80.572 334.279 81.3598 333.935 82.0341C333.594 82.7083 333.111 83.233 332.486 83.608C331.861 83.983 331.122 84.1705 330.27 84.1705ZM330.281 82.5227C330.743 82.5227 331.13 82.3958 331.44 82.142C331.751 81.8845 331.982 81.5398 332.134 81.108C332.289 80.6761 332.366 80.1951 332.366 79.6648C332.366 79.1307 332.289 78.6477 332.134 78.2159C331.982 77.7803 331.751 77.4337 331.44 77.1761C331.13 76.9186 330.743 76.7898 330.281 76.7898C329.808 76.7898 329.414 76.9186 329.099 77.1761C328.789 77.4337 328.556 77.7803 328.401 78.2159C328.249 78.6477 328.173 79.1307 328.173 79.6648C328.173 80.1951 328.249 80.6761 328.401 81.108C328.556 81.5398 328.789 81.8845 329.099 82.142C329.414 82.3958 329.808 82.5227 330.281 82.5227ZM338.254 78.8864V84H336.197V75.2727H338.163V76.7557H338.266C338.466 76.267 338.786 75.8788 339.226 75.5909C339.669 75.303 340.216 75.1591 340.868 75.1591C341.47 75.1591 341.995 75.2879 342.442 75.5455C342.893 75.803 343.241 76.1761 343.487 76.6648C343.737 77.1534 343.86 77.7462 343.857 78.4432V84H341.8V78.7614C341.8 78.178 341.648 77.7216 341.345 77.392C341.046 77.0625 340.631 76.8977 340.101 76.8977C339.741 76.8977 339.421 76.9773 339.141 77.1364C338.864 77.2917 338.646 77.517 338.487 77.8125C338.332 78.108 338.254 78.4659 338.254 78.8864ZM349.743 87.4545C349.004 87.4545 348.37 87.3542 347.839 87.1534C347.309 86.9564 346.883 86.6913 346.561 86.358C346.239 86.0246 346.016 85.6553 345.891 85.25L347.743 84.8011C347.826 84.9716 347.947 85.1402 348.107 85.3068C348.266 85.4773 348.48 85.6174 348.749 85.7273C349.021 85.8409 349.364 85.8977 349.777 85.8977C350.36 85.8977 350.843 85.7557 351.226 85.4716C351.608 85.1913 351.8 84.7292 351.8 84.0852V82.4318H351.697C351.591 82.6439 351.436 82.8617 351.232 83.0852C351.031 83.3087 350.764 83.4962 350.43 83.6477C350.101 83.7992 349.686 83.875 349.186 83.875C348.516 83.875 347.908 83.7178 347.362 83.4034C346.821 83.0852 346.389 82.6117 346.067 81.983C345.749 81.3504 345.589 80.5587 345.589 79.608C345.589 78.6496 345.749 77.8409 346.067 77.1818C346.389 76.5189 346.822 76.017 347.368 75.6761C347.913 75.3314 348.521 75.1591 349.192 75.1591C349.703 75.1591 350.124 75.2462 350.453 75.4205C350.786 75.5909 351.052 75.7973 351.249 76.0398C351.446 76.2784 351.595 76.5038 351.697 76.7159H351.811V75.2727H353.839V84.142C353.839 84.8883 353.661 85.5057 353.305 85.9943C352.949 86.483 352.463 86.8485 351.845 87.0909C351.228 87.3333 350.527 87.4545 349.743 87.4545ZM349.76 82.2614C350.196 82.2614 350.567 82.1553 350.874 81.9432C351.18 81.7311 351.413 81.4261 351.572 81.0284C351.732 80.6307 351.811 80.1534 351.811 79.5966C351.811 79.0473 351.732 78.5663 351.572 78.1534C351.417 77.7405 351.186 77.4205 350.879 77.1932C350.576 76.9621 350.203 76.8466 349.76 76.8466C349.302 76.8466 348.919 76.9659 348.612 77.2045C348.305 77.4432 348.074 77.7708 347.919 78.1875C347.764 78.6004 347.686 79.0701 347.686 79.5966C347.686 80.1307 347.764 80.5985 347.919 81C348.078 81.3977 348.311 81.7083 348.618 81.9318C348.929 82.1515 349.309 82.2614 349.76 82.2614ZM359.754 84.1705C358.902 84.1705 358.163 83.983 357.538 83.608C356.913 83.233 356.429 82.7083 356.084 82.0341C355.743 81.3598 355.572 80.572 355.572 79.6705C355.572 78.7689 355.743 77.9792 356.084 77.3011C356.429 76.6231 356.913 76.0966 357.538 75.7216C358.163 75.3466 358.902 75.1591 359.754 75.1591C360.607 75.1591 361.345 75.3466 361.97 75.7216C362.595 76.0966 363.078 76.6231 363.419 77.3011C363.764 77.9792 363.936 78.7689 363.936 79.6705C363.936 80.572 363.764 81.3598 363.419 82.0341C363.078 82.7083 362.595 83.233 361.97 83.608C361.345 83.983 360.607 84.1705 359.754 84.1705ZM359.766 82.5227C360.228 82.5227 360.614 82.3958 360.925 82.142C361.235 81.8845 361.466 81.5398 361.618 81.108C361.773 80.6761 361.851 80.1951 361.851 79.6648C361.851 79.1307 361.773 78.6477 361.618 78.2159C361.466 77.7803 361.235 77.4337 360.925 77.1761C360.614 76.9186 360.228 76.7898 359.766 76.7898C359.292 76.7898 358.898 76.9186 358.584 77.1761C358.273 77.4337 358.04 77.7803 357.885 78.2159C357.733 78.6477 357.658 79.1307 357.658 79.6648C357.658 80.1951 357.733 80.6761 357.885 81.108C358.04 81.5398 358.273 81.8845 358.584 82.142C358.898 82.3958 359.292 82.5227 359.766 82.5227ZM372.889 84.1534C372.204 84.1534 371.59 83.9773 371.048 83.625C370.507 83.2727 370.079 82.7614 369.764 82.0909C369.45 81.4205 369.293 80.6061 369.293 79.6477C369.293 78.678 369.452 77.8598 369.77 77.1932C370.092 76.5227 370.526 76.017 371.071 75.6761C371.616 75.3314 372.224 75.1591 372.895 75.1591C373.406 75.1591 373.827 75.2462 374.156 75.4205C374.486 75.5909 374.747 75.7973 374.94 76.0398C375.134 76.2784 375.283 76.5038 375.389 76.7159H375.474V72.3636H377.537V84H375.514V82.625H375.389C375.283 82.8371 375.13 83.0625 374.929 83.3011C374.728 83.536 374.463 83.7367 374.134 83.9034C373.804 84.0701 373.389 84.1534 372.889 84.1534ZM373.463 82.4659C373.899 82.4659 374.27 82.3485 374.577 82.1136C374.884 81.875 375.116 81.5436 375.276 81.1193C375.435 80.6951 375.514 80.2008 375.514 79.6364C375.514 79.072 375.435 78.5814 375.276 78.1648C375.12 77.7481 374.889 77.4242 374.582 77.1932C374.279 76.9621 373.906 76.8466 373.463 76.8466C373.005 76.8466 372.622 76.9659 372.315 77.2045C372.009 77.4432 371.777 77.7727 371.622 78.1932C371.467 78.6136 371.389 79.0947 371.389 79.6364C371.389 80.1818 371.467 80.6686 371.622 81.0966C371.781 81.5208 372.014 81.8561 372.321 82.1023C372.632 82.3447 373.012 82.4659 373.463 82.4659ZM383.536 84.1705C382.683 84.1705 381.945 83.983 381.32 83.608C380.695 83.233 380.21 82.7083 379.865 82.0341C379.524 81.3598 379.354 80.572 379.354 79.6705C379.354 78.7689 379.524 77.9792 379.865 77.3011C380.21 76.6231 380.695 76.0966 381.32 75.7216C381.945 75.3466 382.683 75.1591 383.536 75.1591C384.388 75.1591 385.126 75.3466 385.751 75.7216C386.376 76.0966 386.859 76.6231 387.2 77.3011C387.545 77.9792 387.717 78.7689 387.717 79.6705C387.717 80.572 387.545 81.3598 387.2 82.0341C386.859 82.7083 386.376 83.233 385.751 83.608C385.126 83.983 384.388 84.1705 383.536 84.1705ZM383.547 82.5227C384.009 82.5227 384.395 82.3958 384.706 82.142C385.017 81.8845 385.248 81.5398 385.399 81.108C385.554 80.6761 385.632 80.1951 385.632 79.6648C385.632 79.1307 385.554 78.6477 385.399 78.2159C385.248 77.7803 385.017 77.4337 384.706 77.1761C384.395 76.9186 384.009 76.7898 383.547 76.7898C383.073 76.7898 382.679 76.9186 382.365 77.1761C382.054 77.4337 381.821 77.7803 381.666 78.2159C381.515 78.6477 381.439 79.1307 381.439 79.6648C381.439 80.1951 381.515 80.6761 381.666 81.108C381.821 81.5398 382.054 81.8845 382.365 82.142C382.679 82.3958 383.073 82.5227 383.547 82.5227ZM397.79 75.2727V76.8636H392.773V75.2727H397.79ZM394.011 73.1818H396.068V81.375C396.068 81.6515 396.11 81.8636 396.193 82.0114C396.28 82.1553 396.394 82.2538 396.534 82.3068C396.674 82.3598 396.83 82.3864 397 82.3864C397.129 82.3864 397.246 82.3769 397.352 82.358C397.462 82.339 397.545 82.322 397.602 82.3068L397.949 83.9148C397.839 83.9527 397.682 83.9943 397.477 84.0398C397.277 84.0852 397.03 84.1117 396.739 84.1193C396.223 84.1345 395.759 84.0568 395.347 83.8864C394.934 83.7121 394.606 83.4432 394.364 83.0795C394.125 82.7159 394.008 82.2614 394.011 81.7159V73.1818ZM403.28 84.1705C402.405 84.1705 401.649 83.9886 401.013 83.625C400.38 83.2576 399.893 82.7386 399.553 82.0682C399.212 81.3939 399.041 80.6004 399.041 79.6875C399.041 78.7898 399.212 78.0019 399.553 77.3239C399.897 76.642 400.378 76.1117 400.996 75.733C401.613 75.3504 402.339 75.1591 403.172 75.1591C403.71 75.1591 404.217 75.2462 404.695 75.4205C405.176 75.5909 405.6 75.8561 405.967 76.2159C406.339 76.5758 406.63 77.0341 406.842 77.5909C407.054 78.1439 407.161 78.803 407.161 79.5682V80.1989H400.007V78.8125H405.189C405.185 78.4186 405.1 78.0682 404.933 77.7614C404.767 77.4508 404.534 77.2064 404.234 77.0284C403.939 76.8504 403.594 76.7614 403.2 76.7614C402.78 76.7614 402.411 76.8636 402.092 77.0682C401.774 77.2689 401.526 77.5341 401.348 77.8636C401.174 78.1894 401.085 78.5473 401.081 78.9375V80.1477C401.081 80.6553 401.174 81.0909 401.359 81.4545C401.545 81.8144 401.804 82.0909 402.138 82.2841C402.471 82.4735 402.861 82.5682 403.308 82.5682C403.607 82.5682 403.878 82.5265 404.121 82.4432C404.363 82.3561 404.573 82.2292 404.751 82.0625C404.929 81.8958 405.064 81.6894 405.155 81.4432L407.075 81.6591C406.954 82.1667 406.723 82.6098 406.382 82.9886C406.045 83.3636 405.613 83.6553 405.087 83.8636C404.56 84.0682 403.958 84.1705 403.28 84.1705ZM408.901 84V75.2727H410.866V76.7557H410.969C411.151 76.2557 411.452 75.8655 411.872 75.5852C412.293 75.3011 412.795 75.1591 413.378 75.1591C413.969 75.1591 414.467 75.303 414.872 75.5909C415.281 75.875 415.569 76.2633 415.736 76.7557H415.827C416.02 76.2708 416.346 75.8845 416.804 75.5966C417.266 75.3049 417.813 75.1591 418.446 75.1591C419.249 75.1591 419.904 75.4129 420.412 75.9205C420.92 76.428 421.173 77.1686 421.173 78.142V84H419.111V78.4602C419.111 77.9186 418.967 77.5227 418.679 77.2727C418.391 77.0189 418.039 76.892 417.622 76.892C417.126 76.892 416.738 77.0473 416.457 77.358C416.181 77.6648 416.043 78.0644 416.043 78.5568V84H414.026V78.375C414.026 77.9242 413.889 77.5644 413.616 77.2955C413.348 77.0265 412.995 76.892 412.56 76.892C412.264 76.892 411.995 76.9678 411.753 77.1193C411.51 77.267 411.317 77.4773 411.173 77.75C411.029 78.0189 410.957 78.3333 410.957 78.6932V84H408.901ZM423.26 87.2727V75.2727H425.283V76.7159H425.402C425.508 76.5038 425.658 76.2784 425.851 76.0398C426.044 75.7973 426.305 75.5909 426.635 75.4205C426.964 75.2462 427.385 75.1591 427.896 75.1591C428.571 75.1591 429.179 75.3314 429.72 75.6761C430.266 76.017 430.697 76.5227 431.016 77.1932C431.338 77.8598 431.499 78.678 431.499 79.6477C431.499 80.6061 431.341 81.4205 431.027 82.0909C430.713 82.7614 430.285 83.2727 429.743 83.625C429.201 83.9773 428.588 84.1534 427.902 84.1534C427.402 84.1534 426.987 84.0701 426.658 83.9034C426.328 83.7367 426.063 83.536 425.862 83.3011C425.665 83.0625 425.512 82.8371 425.402 82.625H425.317V87.2727H423.26ZM425.277 79.6364C425.277 80.2008 425.357 80.6951 425.516 81.1193C425.679 81.5436 425.911 81.875 426.214 82.1136C426.521 82.3485 426.893 82.4659 427.328 82.4659C427.783 82.4659 428.163 82.3447 428.47 82.1023C428.777 81.8561 429.008 81.5208 429.163 81.0966C429.322 80.6686 429.402 80.1818 429.402 79.6364C429.402 79.0947 429.324 78.6136 429.169 78.1932C429.014 77.7727 428.783 77.4432 428.476 77.2045C428.169 76.9659 427.786 76.8466 427.328 76.8466C426.889 76.8466 426.516 76.9621 426.209 77.1932C425.902 77.4242 425.669 77.7481 425.51 78.1648C425.355 78.5814 425.277 79.072 425.277 79.6364ZM437.067 84.1705C436.214 84.1705 435.476 83.983 434.851 83.608C434.226 83.233 433.741 82.7083 433.396 82.0341C433.055 81.3598 432.885 80.572 432.885 79.6705C432.885 78.7689 433.055 77.9792 433.396 77.3011C433.741 76.6231 434.226 76.0966 434.851 75.7216C435.476 75.3466 436.214 75.1591 437.067 75.1591C437.919 75.1591 438.658 75.3466 439.283 75.7216C439.908 76.0966 440.391 76.6231 440.732 77.3011C441.076 77.9792 441.249 78.7689 441.249 79.6705C441.249 80.572 441.076 81.3598 440.732 82.0341C440.391 82.7083 439.908 83.233 439.283 83.608C438.658 83.983 437.919 84.1705 437.067 84.1705ZM437.078 82.5227C437.54 82.5227 437.927 82.3958 438.237 82.142C438.548 81.8845 438.779 81.5398 438.93 81.108C439.086 80.6761 439.163 80.1951 439.163 79.6648C439.163 79.1307 439.086 78.6477 438.93 78.2159C438.779 77.7803 438.548 77.4337 438.237 77.1761C437.927 76.9186 437.54 76.7898 437.078 76.7898C436.605 76.7898 436.211 76.9186 435.896 77.1761C435.586 77.4337 435.353 77.7803 435.197 78.2159C435.046 78.6477 434.97 79.1307 434.97 79.6648C434.97 80.1951 435.046 80.6761 435.197 81.108C435.353 81.5398 435.586 81.8845 435.896 82.142C436.211 82.3958 436.605 82.5227 437.078 82.5227Z" fill="white"/>
<path d="M29.6634 385.205H27.4545L27.4545 373.599H29.6634L29.6634 378.095H42V380.709H29.6634V385.205ZM37.4119 366.007H31.0909L31.0909 363.436H42V365.929H40.0611V366.043C40.6719 366.289 41.1714 366.694 41.5597 367.257C41.9479 367.816 42.142 368.505 42.142 369.324C42.142 370.039 41.9834 370.671 41.6662 371.22C41.3442 371.765 40.8778 372.191 40.267 372.499C39.6515 372.806 38.9081 372.96 38.0369 372.96H31.0909L31.0909 370.389H37.6392C38.3305 370.389 38.8797 370.2 39.2869 369.821C39.6941 369.442 39.8977 368.945 39.8977 368.33C39.8977 367.951 39.8054 367.584 39.6207 367.229C39.4361 366.874 39.1615 366.582 38.7969 366.355C38.4276 366.123 37.9659 366.007 37.4119 366.007ZM42 360.792H31.0909V358.299H32.9091V358.186C32.2794 357.987 31.794 357.646 31.4531 357.163C31.1075 356.675 30.9347 356.119 30.9347 355.494C30.9347 355.352 30.9418 355.193 30.956 355.018C30.9654 354.838 30.982 354.689 31.0057 354.571H33.3707C33.3329 354.68 33.2997 354.852 33.2713 355.089C33.2382 355.321 33.2216 355.546 33.2216 355.764C33.2216 356.233 33.3234 356.654 33.527 357.028C33.7259 357.397 34.0028 357.689 34.358 357.902C34.7131 358.115 35.1226 358.221 35.5866 358.221H42L42 360.792ZM42 352.749H27.4545V350.178H32.8949V350.071C32.6297 349.939 32.348 349.752 32.0497 349.51C31.7467 349.269 31.4886 348.942 31.2756 348.53C31.0578 348.118 30.9489 347.593 30.9489 346.953C30.9489 346.111 31.1643 345.351 31.5952 344.674C32.0213 343.992 32.6534 343.452 33.4915 343.054C34.3248 342.652 35.3475 342.451 36.5597 342.451C37.7576 342.451 38.7756 342.647 39.6136 343.04C40.4517 343.433 41.0909 343.968 41.5313 344.645C41.9716 345.322 42.1918 346.089 42.1918 346.946C42.1918 347.571 42.0876 348.09 41.8793 348.502C41.6709 348.914 41.42 349.245 41.1264 349.496C40.8281 349.742 40.5464 349.934 40.2813 350.071V350.221H42V352.749ZM36.5455 350.228C37.2509 350.228 37.8688 350.128 38.3991 349.929C38.9295 349.726 39.3437 349.435 39.642 349.056C39.9356 348.672 40.0824 348.208 40.0824 347.664C40.0824 347.096 39.9309 346.62 39.6278 346.236C39.3201 345.853 38.901 345.564 38.3707 345.37C37.8357 345.171 37.2273 345.071 36.5455 345.071C35.8684 345.071 35.267 345.168 34.7415 345.363C34.2159 345.557 33.804 345.846 33.5057 346.229C33.2074 346.613 33.0582 347.091 33.0582 347.664C33.0582 348.213 33.2027 348.679 33.4915 349.063C33.7803 349.446 34.1851 349.738 34.706 349.936C35.2268 350.131 35.84 350.228 36.5455 350.228ZM42 340.265H31.0909L31.0909 337.694H42V340.265ZM29.5426 338.972C29.5426 339.379 29.4077 339.73 29.1378 340.023C28.8632 340.317 28.5341 340.464 28.1506 340.464C27.7623 340.464 27.4332 340.317 27.1634 340.023C26.8887 339.73 26.7514 339.379 26.7514 338.972C26.7514 338.56 26.8887 338.21 27.1634 337.921C27.4332 337.628 27.7623 337.481 28.1506 337.481C28.5341 337.481 28.8632 337.628 29.1378 337.921C29.4077 338.21 29.5426 338.56 29.5426 338.972ZM42.1918 331.002C42.1918 331.859 41.9716 332.626 41.5313 333.303C41.0909 333.98 40.4517 334.515 39.6136 334.908C38.7756 335.301 37.7576 335.498 36.5597 335.498C35.3475 335.498 34.3248 335.299 33.4915 334.901C32.6534 334.498 32.0213 333.956 31.5952 333.275C31.1643 332.593 30.9489 331.833 30.9489 330.995C30.9489 330.355 31.0578 329.83 31.2756 329.418C31.4886 329.006 31.7467 328.679 32.0497 328.438C32.348 328.196 32.6297 328.009 32.8949 327.877V327.77H27.4545L27.4545 325.192H42V327.721H40.2813V327.877C40.5464 328.009 40.8281 328.201 41.1264 328.452C41.42 328.703 41.6709 329.034 41.8793 329.446C42.0876 329.858 42.1918 330.377 42.1918 331.002ZM40.0824 330.284C40.0824 329.74 39.9356 329.276 39.642 328.892C39.3437 328.509 38.9295 328.218 38.3991 328.019C37.8688 327.82 37.2509 327.721 36.5455 327.721C35.84 327.721 35.2268 327.82 34.706 328.019C34.1851 328.213 33.7803 328.502 33.4915 328.885C33.2027 329.264 33.0582 329.73 33.0582 330.284C33.0582 330.857 33.2074 331.336 33.5057 331.719C33.804 332.103 34.2159 332.391 34.7415 332.586C35.267 332.78 35.8684 332.877 36.5455 332.877C37.2273 332.877 37.8357 332.78 38.3707 332.586C38.901 332.387 39.3201 332.096 39.6278 331.712C39.9309 331.324 40.0824 330.848 40.0824 330.284ZM42.2131 317.623C42.2131 318.717 41.9858 319.661 41.5313 320.457C41.072 321.247 40.4233 321.856 39.5852 322.282C38.7424 322.708 37.7505 322.921 36.6094 322.921C35.4872 322.921 34.5024 322.708 33.6548 322.282C32.8026 321.851 32.1397 321.25 31.6662 320.478C31.188 319.706 30.9489 318.799 30.9489 317.758C30.9489 317.085 31.0578 316.451 31.2756 315.854C31.4886 315.253 31.8201 314.723 32.2699 314.263C32.7197 313.799 33.2926 313.435 33.9886 313.17C34.6799 312.905 35.5038 312.772 36.4602 312.772H37.2486V321.714H35.5156V315.237C35.0232 315.241 34.5852 315.348 34.2017 315.556C33.8134 315.764 33.508 316.056 33.2855 316.43C33.063 316.799 32.9517 317.23 32.9517 317.722C32.9517 318.248 33.0795 318.71 33.3352 319.107C33.5862 319.505 33.9176 319.815 34.3295 320.038C34.7367 320.255 35.1842 320.367 35.6719 320.371H37.1847C37.8191 320.371 38.3636 320.255 38.8182 320.023C39.268 319.791 39.6136 319.467 39.8551 319.05C40.0919 318.634 40.2102 318.146 40.2102 317.587C40.2102 317.213 40.1581 316.875 40.054 316.572C39.9451 316.269 39.7865 316.006 39.5781 315.783C39.3698 315.561 39.1117 315.393 38.804 315.279L39.0739 312.879C39.7083 313.03 40.2623 313.319 40.7358 313.745C41.2045 314.166 41.5691 314.706 41.8295 315.364C42.0852 316.022 42.2131 316.775 42.2131 317.623ZM42 310.739H40.3665L33.3139 305.114H33.2216V310.554H31.0909L31.0909 301.968H32.8452L39.777 307.323H39.8693V301.783H42V310.739ZM36.0696 293.766C34.294 293.766 32.6629 293.532 31.1761 293.063C29.6847 292.59 28.3068 291.887 27.0426 290.954V288.532C27.5114 288.892 28.0866 289.228 28.7685 289.54C29.4455 289.853 30.1889 290.125 30.9986 290.357C31.8035 290.585 32.6392 290.764 33.5057 290.897C34.3722 291.025 35.2268 291.089 36.0696 291.089C37.1918 291.089 38.3281 290.978 39.4787 290.755C40.6293 290.528 41.6946 290.222 42.6747 289.839C43.6596 289.451 44.4645 289.015 45.0895 288.532L45.0895 290.954C43.8253 291.887 42.4498 292.59 40.9631 293.063C39.4716 293.532 37.8404 293.766 36.0696 293.766ZM42 286.534H31.0909V284.077H32.9446V283.949C32.3196 283.722 31.8319 283.346 31.4815 282.82C31.1264 282.294 30.9489 281.667 30.9489 280.938C30.9489 280.199 31.1288 279.577 31.4886 279.07C31.8437 278.559 32.3291 278.199 32.9446 277.99V277.877C32.3385 277.635 31.8556 277.228 31.4957 276.655C31.1312 276.078 30.9489 275.393 30.9489 274.603C30.9489 273.599 31.2661 272.78 31.9006 272.145C32.535 271.511 33.4607 271.194 34.6776 271.194H42L42 273.772H35.0753C34.3982 273.772 33.9034 273.952 33.5909 274.311C33.2737 274.671 33.1151 275.112 33.1151 275.632C33.1151 276.253 33.3092 276.738 33.6974 277.088C34.081 277.434 34.5805 277.607 35.196 277.607H42V280.128H34.9688C34.4053 280.128 33.9555 280.299 33.6193 280.64C33.2831 280.976 33.1151 281.416 33.1151 281.961C33.1151 282.33 33.2098 282.666 33.3991 282.969C33.5838 283.272 33.8466 283.514 34.1875 283.694C34.5237 283.873 34.9167 283.963 35.3665 283.963H42V286.534ZM42.2131 263.756C42.2131 264.849 41.9858 265.794 41.5313 266.589C41.072 267.38 40.4233 267.989 39.5852 268.415C38.7424 268.841 37.7505 269.054 36.6094 269.054C35.4872 269.054 34.5024 268.841 33.6548 268.415C32.8026 267.984 32.1397 267.383 31.6662 266.611C31.188 265.839 30.9489 264.932 30.9489 263.891C30.9489 263.218 31.0578 262.584 31.2756 261.987C31.4886 261.386 31.8201 260.856 32.2699 260.396C32.7197 259.932 33.2926 259.568 33.9886 259.303C34.6799 259.037 35.5038 258.905 36.4602 258.905H37.2486L37.2486 267.847H35.5156L35.5156 261.369C35.0232 261.374 34.5852 261.481 34.2017 261.689C33.8134 261.897 33.508 262.188 33.2855 262.562C33.063 262.932 32.9517 263.363 32.9517 263.855C32.9517 264.381 33.0795 264.842 33.3352 265.24C33.5862 265.638 33.9176 265.948 34.3295 266.17C34.7367 266.388 35.1842 266.5 35.6719 266.504H37.1847C37.8191 266.504 38.3636 266.388 38.8182 266.156C39.268 265.924 39.6136 265.6 39.8551 265.183C40.0919 264.767 40.2102 264.279 40.2102 263.72C40.2102 263.346 40.1581 263.008 40.054 262.705C39.9451 262.402 39.7865 262.139 39.5781 261.916C39.3698 261.694 39.1117 261.526 38.804 261.412L39.0739 259.011C39.7083 259.163 40.2623 259.452 40.7358 259.878C41.2045 260.299 41.5691 260.839 41.8295 261.497C42.0852 262.155 42.2131 262.908 42.2131 263.756ZM42.1918 252.681C42.1918 253.538 41.9716 254.306 41.5313 254.983C41.0909 255.66 40.4517 256.195 39.6136 256.588C38.7756 256.981 37.7576 257.177 36.5597 257.177C35.3475 257.177 34.3248 256.978 33.4915 256.581C32.6534 256.178 32.0213 255.636 31.5952 254.954C31.1643 254.272 30.9489 253.512 30.9489 252.674C30.9489 252.035 31.0578 251.51 31.2756 251.098C31.4886 250.686 31.7467 250.359 32.0497 250.118C32.348 249.876 32.6297 249.689 32.8949 249.556V249.45H27.4545V246.872H42V249.4H40.2813V249.556C40.5464 249.689 40.8281 249.881 41.1264 250.132C41.42 250.383 41.6709 250.714 41.8793 251.126C42.0876 251.538 42.1918 252.056 42.1918 252.681ZM40.0824 251.964C40.0824 251.42 39.9356 250.956 39.642 250.572C39.3437 250.189 38.9295 249.897 38.3991 249.699C37.8688 249.5 37.2509 249.4 36.5455 249.4C35.84 249.4 35.2268 249.5 34.706 249.699C34.1851 249.893 33.7803 250.181 33.4915 250.565C33.2027 250.944 33.0582 251.41 33.0582 251.964C33.0582 252.537 33.2074 253.015 33.5057 253.399C33.804 253.782 34.2159 254.071 34.7415 254.265C35.267 254.459 35.8684 254.556 36.5455 254.556C37.2273 254.556 37.8357 254.459 38.3707 254.265C38.901 254.066 39.3201 253.775 39.6278 253.392C39.9309 253.003 40.0824 252.528 40.0824 251.964ZM42 244.132H31.0909V241.561H42V244.132ZM29.5426 242.839C29.5426 243.247 29.4077 243.597 29.1378 243.891C28.8632 244.184 28.5341 244.331 28.1506 244.331C27.7623 244.331 27.4332 244.184 27.1634 243.891C26.8887 243.597 26.7514 243.247 26.7514 242.839C26.7514 242.428 26.8887 242.077 27.1634 241.788C27.4332 241.495 27.7623 241.348 28.1506 241.348C28.5341 241.348 28.8632 241.495 29.1378 241.788C29.4077 242.077 29.5426 242.428 29.5426 242.839ZM42.1918 234.869C42.1918 235.726 41.9716 236.493 41.5313 237.17C41.0909 237.847 40.4517 238.382 39.6136 238.775C38.7756 239.168 37.7576 239.365 36.5597 239.365C35.3475 239.365 34.3248 239.166 33.4915 238.768C32.6534 238.366 32.0213 237.824 31.5952 237.142C31.1643 236.46 30.9489 235.7 30.9489 234.862C30.9489 234.223 31.0578 233.697 31.2756 233.285C31.4886 232.873 31.7467 232.547 32.0497 232.305C32.348 232.064 32.6297 231.877 32.8949 231.744V231.637H27.4545V229.059H42V231.588H40.2813V231.744C40.5464 231.877 40.8281 232.068 41.1264 232.319C41.42 232.57 41.6709 232.902 41.8793 233.314C42.0876 233.725 42.1918 234.244 42.1918 234.869ZM40.0824 234.152C40.0824 233.607 39.9356 233.143 39.642 232.76C39.3437 232.376 38.9295 232.085 38.3991 231.886C37.8688 231.687 37.2509 231.588 36.5455 231.588C35.84 231.588 35.2268 231.687 34.706 231.886C34.1851 232.08 33.7803 232.369 33.4915 232.752C33.2027 233.131 33.0582 233.598 33.0582 234.152C33.0582 234.725 33.2074 235.203 33.5057 235.586C33.804 235.97 34.2159 236.259 34.7415 236.453C35.267 236.647 35.8684 236.744 36.5455 236.744C37.2273 236.744 37.8357 236.647 38.3707 236.453C38.901 236.254 39.3201 235.963 39.6278 235.579C39.9309 235.191 40.0824 234.715 40.0824 234.152ZM42.2202 223.18C42.2202 223.872 42.0971 224.494 41.8509 225.048C41.5999 225.598 41.2306 226.033 40.7429 226.355C40.2552 226.672 39.6539 226.831 38.9389 226.831C38.3234 226.831 37.8144 226.717 37.4119 226.49C37.0095 226.263 36.6875 225.953 36.446 225.56C36.2045 225.167 36.0223 224.724 35.8991 224.232C35.7713 223.734 35.679 223.221 35.6222 222.69C35.5559 222.051 35.4967 221.533 35.4446 221.135C35.3878 220.737 35.3026 220.448 35.1889 220.268C35.0705 220.084 34.8883 219.991 34.642 219.991H34.5994C34.0644 219.991 33.6501 220.15 33.3565 220.467C33.063 220.785 32.9162 221.241 32.9162 221.838C32.9162 222.468 33.0535 222.967 33.3281 223.337C33.6027 223.701 33.9271 223.947 34.3011 224.075L33.9602 226.476C33.2973 226.286 32.7434 225.974 32.2983 225.538C31.8485 225.103 31.5123 224.57 31.2898 223.94C31.0625 223.311 30.9489 222.615 30.9489 221.852C30.9489 221.327 31.0104 220.804 31.1335 220.283C31.2566 219.762 31.4602 219.286 31.7443 218.855C32.0237 218.424 32.4048 218.079 32.8878 217.818C33.3707 217.553 33.9744 217.42 34.6989 217.42H42L42 219.892H40.5014V219.977C40.8045 220.134 41.0885 220.354 41.3537 220.638C41.6141 220.917 41.8248 221.27 41.9858 221.696C42.142 222.117 42.2202 222.612 42.2202 223.18ZM40.331 222.513C40.331 221.997 40.2292 221.549 40.0256 221.17C39.8172 220.792 39.5426 220.5 39.2017 220.297C38.8608 220.089 38.4891 219.984 38.0866 219.984H36.8011C36.8674 220.065 36.929 220.202 36.9858 220.396C37.0426 220.586 37.0923 220.799 37.1349 221.036C37.1776 221.272 37.2154 221.507 37.2486 221.739C37.2817 221.971 37.3101 222.172 37.3338 222.342C37.3859 222.726 37.4711 223.069 37.5895 223.372C37.7079 223.675 37.8736 223.914 38.0866 224.089C38.295 224.265 38.5649 224.352 38.8963 224.352C39.3698 224.352 39.7273 224.179 39.9688 223.834C40.2102 223.488 40.331 223.048 40.331 222.513ZM42.2131 205.045C42.2131 206.138 41.9858 207.083 41.5313 207.879C41.072 208.669 40.4233 209.278 39.5852 209.704C38.7424 210.13 37.7505 210.343 36.6094 210.343C35.4872 210.343 34.5024 210.13 33.6548 209.704C32.8026 209.273 32.1397 208.672 31.6662 207.9C31.188 207.128 30.9489 206.221 30.9489 205.18C30.9489 204.507 31.0578 203.873 31.2756 203.276C31.4886 202.675 31.8201 202.145 32.2699 201.685C32.7197 201.221 33.2926 200.857 33.9886 200.592C34.6799 200.326 35.5038 200.194 36.4602 200.194H37.2486V209.136H35.5156V202.658C35.0232 202.663 34.5852 202.77 34.2017 202.978C33.8134 203.186 33.508 203.478 33.2855 203.852C33.063 204.221 32.9517 204.652 32.9517 205.144C32.9517 205.67 33.0795 206.131 33.3352 206.529C33.5862 206.927 33.9176 207.237 34.3295 207.46C34.7367 207.677 35.1842 207.789 35.6719 207.793H37.1847C37.8191 207.793 38.3636 207.677 38.8182 207.445C39.268 207.213 39.6136 206.889 39.8551 206.472C40.0919 206.056 40.2102 205.568 40.2102 205.009C40.2102 204.635 40.1581 204.297 40.054 203.994C39.9451 203.691 39.7865 203.428 39.5781 203.205C39.3698 202.983 39.1117 202.815 38.804 202.701L39.0739 200.3C39.7083 200.452 40.2623 200.741 40.7358 201.167C41.2045 201.588 41.5691 202.128 41.8295 202.786C42.0852 203.444 42.2131 204.197 42.2131 205.045ZM42 198.019H31.0909L31.0909 195.561H32.9446V195.434C32.3196 195.206 31.8319 194.83 31.4815 194.304C31.1264 193.779 30.9489 193.151 30.9489 192.422C30.9489 191.684 31.1288 191.061 31.4886 190.554C31.8437 190.043 32.3291 189.683 32.9446 189.475V189.361C32.3385 189.12 31.8556 188.712 31.4957 188.14C31.1312 187.562 30.9489 186.878 30.9489 186.087C30.9489 185.083 31.2661 184.264 31.9006 183.63C32.535 182.995 33.4607 182.678 34.6776 182.678H42V185.256H35.0753C34.3982 185.256 33.9034 185.436 33.5909 185.796C33.2737 186.156 33.1151 186.596 33.1151 187.117C33.1151 187.737 33.3092 188.222 33.6974 188.573C34.081 188.918 34.5805 189.091 35.196 189.091H42V191.613H34.9688C34.4053 191.613 33.9555 191.783 33.6193 192.124C33.2831 192.46 33.1151 192.9 33.1151 193.445C33.1151 193.814 33.2098 194.15 33.3991 194.453C33.5838 194.757 33.8466 194.998 34.1875 195.178C34.5237 195.358 34.9167 195.448 35.3665 195.448H42V198.019ZM27.4545 163.042H42V165.386L32.0923 172.239V172.36H42V174.995H27.4545V172.637L37.3693 165.79V165.663H27.4545L27.4545 163.042ZM29.6634 160.81H27.4545L27.4545 149.205H29.6634L29.6634 153.701H42V156.314H29.6634V160.81ZM27.4545 137.799V135.164H36.9574C37.9991 135.164 38.9152 135.41 39.706 135.902C40.4967 136.39 41.1146 137.077 41.5597 137.962C42 138.847 42.2202 139.882 42.2202 141.066C42.2202 142.254 42 143.291 41.5597 144.176C41.1146 145.062 40.4967 145.748 39.706 146.236C38.9152 146.724 37.9991 146.968 36.9574 146.968H27.4545V144.333H36.7372C37.3433 144.333 37.883 144.2 38.3565 143.935C38.83 143.665 39.2017 143.286 39.4716 142.799C39.7367 142.311 39.8693 141.733 39.8693 141.066C39.8693 140.398 39.7367 139.82 39.4716 139.333C39.2017 138.84 38.83 138.462 38.3565 138.196C37.883 137.931 37.3433 137.799 36.7372 137.799H27.4545ZM34.7273 127.825C36.4981 127.825 38.1293 128.062 39.6207 128.536C41.1075 129.004 42.483 129.705 43.7472 130.638L43.7472 133.06C43.2784 132.695 42.7055 132.359 42.0284 132.051C41.3513 131.739 40.608 131.469 39.7983 131.241C38.9886 131.009 38.1506 130.83 37.2841 130.702C36.4176 130.569 35.5653 130.503 34.7273 130.503C33.6051 130.503 32.4687 130.616 31.3182 130.844C30.1676 131.066 29.0999 131.372 28.1151 131.76C27.1302 132.143 26.3253 132.577 25.7003 133.06L25.7003 130.638C26.9645 129.705 28.3423 129.004 29.8338 128.536C31.3205 128.062 32.9517 127.825 34.7273 127.825Z" fill="white"/>
<path d="M197.795 446.663V444.455H209.401V446.663H204.905V459H202.291V446.663H197.795ZM214.772 459.213C213.678 459.213 212.733 458.986 211.938 458.531C211.147 458.072 210.539 457.423 210.113 456.585C209.686 455.742 209.473 454.75 209.473 453.609C209.473 452.487 209.686 451.502 210.113 450.655C210.543 449.803 211.145 449.14 211.917 448.666C212.688 448.188 213.595 447.949 214.637 447.949C215.309 447.949 215.944 448.058 216.54 448.276C217.141 448.489 217.672 448.82 218.131 449.27C218.595 449.72 218.96 450.293 219.225 450.989C219.49 451.68 219.623 452.504 219.623 453.46V454.249H210.681V452.516H217.158C217.153 452.023 217.047 451.585 216.838 451.202C216.63 450.813 216.339 450.508 215.965 450.286C215.596 450.063 215.165 449.952 214.672 449.952C214.147 449.952 213.685 450.08 213.287 450.335C212.89 450.586 212.579 450.918 212.357 451.33C212.139 451.737 212.028 452.184 212.023 452.672V454.185C212.023 454.819 212.139 455.364 212.371 455.818C212.603 456.268 212.927 456.614 213.344 456.855C213.761 457.092 214.248 457.21 214.807 457.21C215.181 457.21 215.52 457.158 215.823 457.054C216.126 456.945 216.389 456.786 216.611 456.578C216.834 456.37 217.002 456.112 217.115 455.804L219.516 456.074C219.364 456.708 219.076 457.262 218.65 457.736C218.228 458.205 217.688 458.569 217.03 458.83C216.372 459.085 215.619 459.213 214.772 459.213ZM221.798 459V448.091H224.255V449.945H224.383C224.61 449.32 224.987 448.832 225.512 448.482C226.038 448.126 226.665 447.949 227.394 447.949C228.133 447.949 228.755 448.129 229.262 448.489C229.773 448.844 230.133 449.329 230.342 449.945H230.455C230.697 449.339 231.104 448.856 231.677 448.496C232.254 448.131 232.939 447.949 233.729 447.949C234.733 447.949 235.552 448.266 236.187 448.901C236.821 449.535 237.138 450.461 237.138 451.678V459H234.56V452.075C234.56 451.398 234.38 450.903 234.021 450.591C233.661 450.274 233.22 450.115 232.7 450.115C232.079 450.115 231.594 450.309 231.244 450.697C230.898 451.081 230.725 451.58 230.725 452.196V459H228.204V451.969C228.204 451.405 228.033 450.955 227.692 450.619C227.356 450.283 226.916 450.115 226.371 450.115C226.002 450.115 225.666 450.21 225.363 450.399C225.06 450.584 224.818 450.847 224.638 451.188C224.459 451.524 224.369 451.917 224.369 452.366V459H221.798ZM239.747 463.091V448.091H242.275V449.895H242.424C242.557 449.63 242.744 449.348 242.985 449.05C243.227 448.747 243.554 448.489 243.966 448.276C244.377 448.058 244.903 447.949 245.542 447.949C246.385 447.949 247.145 448.164 247.822 448.595C248.504 449.021 249.044 449.653 249.441 450.491C249.844 451.325 250.045 452.348 250.045 453.56C250.045 454.758 249.849 455.776 249.456 456.614C249.063 457.452 248.528 458.091 247.85 458.531C247.173 458.972 246.406 459.192 245.549 459.192C244.924 459.192 244.406 459.088 243.994 458.879C243.582 458.671 243.251 458.42 243 458.126C242.753 457.828 242.562 457.546 242.424 457.281H242.318V463.091H239.747ZM242.268 453.545C242.268 454.251 242.368 454.869 242.566 455.399C242.77 455.929 243.061 456.344 243.44 456.642C243.824 456.936 244.288 457.082 244.832 457.082C245.4 457.082 245.876 456.931 246.26 456.628C246.643 456.32 246.932 455.901 247.126 455.371C247.325 454.836 247.424 454.227 247.424 453.545C247.424 452.868 247.327 452.267 247.133 451.741C246.939 451.216 246.65 450.804 246.267 450.506C245.883 450.207 245.405 450.058 244.832 450.058C244.283 450.058 243.816 450.203 243.433 450.491C243.049 450.78 242.758 451.185 242.559 451.706C242.365 452.227 242.268 452.84 242.268 453.545ZM257.005 459.213C255.94 459.213 255.017 458.979 254.235 458.51C253.454 458.041 252.848 457.385 252.417 456.543C251.991 455.7 251.778 454.715 251.778 453.588C251.778 452.461 251.991 451.474 252.417 450.626C252.848 449.779 253.454 449.121 254.235 448.652C255.017 448.183 255.94 447.949 257.005 447.949C258.071 447.949 258.994 448.183 259.775 448.652C260.556 449.121 261.16 449.779 261.586 450.626C262.017 451.474 262.233 452.461 262.233 453.588C262.233 454.715 262.017 455.7 261.586 456.543C261.16 457.385 260.556 458.041 259.775 458.51C258.994 458.979 258.071 459.213 257.005 459.213ZM257.02 457.153C257.597 457.153 258.08 456.995 258.468 456.678C258.857 456.356 259.145 455.925 259.335 455.385C259.529 454.845 259.626 454.244 259.626 453.581C259.626 452.913 259.529 452.31 259.335 451.77C259.145 451.225 258.857 450.792 258.468 450.47C258.08 450.148 257.597 449.987 257.02 449.987C256.428 449.987 255.935 450.148 255.542 450.47C255.154 450.792 254.863 451.225 254.669 451.77C254.479 452.31 254.385 452.913 254.385 453.581C254.385 454.244 254.479 454.845 254.669 455.385C254.863 455.925 255.154 456.356 255.542 456.678C255.935 456.995 256.428 457.153 257.02 457.153ZM270.015 453.07C270.015 451.294 270.249 449.663 270.718 448.176C271.192 446.685 271.895 445.307 272.827 444.043H275.249C274.889 444.511 274.553 445.087 274.241 445.768C273.928 446.446 273.656 447.189 273.424 447.999C273.197 448.804 273.017 449.639 272.884 450.506C272.756 451.372 272.692 452.227 272.692 453.07C272.692 454.192 272.804 455.328 273.026 456.479C273.254 457.629 273.559 458.695 273.942 459.675C274.331 460.66 274.766 461.464 275.249 462.089H272.827C271.895 460.825 271.192 459.45 270.718 457.963C270.249 456.472 270.015 454.84 270.015 453.07ZM279.818 452.608V459H277.247V444.455H279.761V449.945H279.889C280.145 449.329 280.54 448.844 281.075 448.489C281.615 448.129 282.301 447.949 283.135 447.949C283.892 447.949 284.553 448.107 285.116 448.425C285.68 448.742 286.115 449.206 286.423 449.817C286.735 450.428 286.892 451.173 286.892 452.054V459H284.321V452.452C284.321 451.718 284.131 451.147 283.752 450.74C283.378 450.328 282.853 450.122 282.176 450.122C281.721 450.122 281.314 450.222 280.954 450.42C280.599 450.615 280.32 450.896 280.116 451.266C279.917 451.635 279.818 452.082 279.818 452.608ZM294.1 453.07C294.1 454.84 293.864 456.472 293.39 457.963C292.922 459.45 292.221 460.825 291.288 462.089H288.866C289.231 461.621 289.567 461.048 289.875 460.371C290.187 459.694 290.457 458.95 290.684 458.141C290.916 457.331 291.096 456.493 291.224 455.626C291.357 454.76 291.423 453.908 291.423 453.07C291.423 451.947 291.309 450.811 291.082 449.661C290.859 448.51 290.554 447.442 290.166 446.457C289.782 445.473 289.349 444.668 288.866 444.043H291.288C292.221 445.307 292.922 446.685 293.39 448.176C293.864 449.663 294.1 451.294 294.1 453.07Z" fill="white"/>
<path d="M88.5 385L88.5 117" stroke="white"/>
<line x1="457.997" y1="385.5" x2="88.0001" y2="385.5" stroke="white"/>
<line x1="89" y1="335.5" x2="94" y2="335.5" stroke="white"/>
<line x1="89" y1="290.5" x2="94" y2="290.5" stroke="white"/>
<line x1="89" y1="245.5" x2="94" y2="245.5" stroke="white"/>
<line x1="89" y1="200.5" x2="94" y2="200.5" stroke="white"/>
<line x1="89" y1="155.5" x2="94" y2="155.5" stroke="white"/>
<line x1="131.5" y1="385" x2="131.5" y2="382" stroke="white"/>
<line x1="173.5" y1="385" x2="173.5" y2="382" stroke="white"/>
<line x1="215.5" y1="385" x2="215.5" y2="382" stroke="white"/>
<line x1="257.5" y1="385" x2="257.5" y2="382" stroke="white"/>
<line x1="303.5" y1="385" x2="303.5" y2="382" stroke="white"/>
<line x1="348.5" y1="385" x2="348.5" y2="382" stroke="white"/>
<line x1="390.5" y1="385" x2="390.5" y2="382" stroke="white"/>
<line x1="434.5" y1="385" x2="434.5" y2="382" stroke="white"/>
<line x1="215.5" y1="382" x2="215.5" y2="138" stroke="white" stroke-opacity="0.5" stroke-dasharray="1 1"/>
<line x1="257.5" y1="382" x2="257.5" y2="138" stroke="white" stroke-opacity="0.5" stroke-dasharray="1 1"/>
<line x1="303.5" y1="382" x2="303.5" y2="138" stroke="white" stroke-opacity="0.5" stroke-dasharray="1 1"/>
<line x1="348.5" y1="382" x2="348.5" y2="138" stroke="white" stroke-opacity="0.5" stroke-dasharray="1 1"/>
<line x1="390.5" y1="382" x2="390.5" y2="138" stroke="white" stroke-opacity="0.5" stroke-dasharray="1 1"/>
<line x1="434.5" y1="382" x2="434.5" y2="138" stroke="white" stroke-opacity="0.5" stroke-dasharray="1 1"/>
<line x1="173.5" y1="382" x2="173.5" y2="138" stroke="white" stroke-opacity="0.5" stroke-dasharray="1 1"/>
<line x1="131.5" y1="383" x2="131.5" y2="139" stroke="white" stroke-opacity="0.5" stroke-dasharray="1 1"/>
<line x1="94" y1="245.5" x2="439" y2="245.5" stroke="white" stroke-opacity="0.5" stroke-dasharray="1 1"/>
<line x1="88.9986" y1="155.5" x2="438.999" y2="154.497" stroke="white" stroke-opacity="0.7" stroke-dasharray="4 4"/>
<path d="M127.995 401.575V400.433L131.024 397.463C131.314 397.17 131.556 396.91 131.749 396.683C131.942 396.456 132.087 396.236 132.183 396.023C132.28 395.81 132.328 395.582 132.328 395.341C132.328 395.065 132.266 394.829 132.141 394.633C132.016 394.435 131.844 394.281 131.625 394.173C131.406 394.065 131.158 394.011 130.88 394.011C130.593 394.011 130.341 394.071 130.125 394.19C129.909 394.307 129.742 394.473 129.622 394.689C129.506 394.905 129.448 395.162 129.448 395.46H127.943C127.943 394.906 128.07 394.425 128.323 394.016C128.576 393.606 128.924 393.29 129.367 393.065C129.813 392.841 130.324 392.729 130.901 392.729C131.486 392.729 132 392.838 132.443 393.057C132.887 393.275 133.23 393.575 133.475 393.956C133.722 394.337 133.845 394.771 133.845 395.26C133.845 395.587 133.783 395.908 133.658 396.223C133.533 396.538 133.313 396.888 132.997 397.271C132.685 397.655 132.246 398.119 131.681 398.665L130.176 400.195V400.254H133.978V401.575H127.995Z" fill="white"/>
<path d="M76.7756 341V339.858L79.8054 336.888C80.0952 336.595 80.3366 336.335 80.5298 336.108C80.723 335.881 80.8679 335.661 80.9645 335.447C81.0611 335.234 81.1094 335.007 81.1094 334.766C81.1094 334.49 81.0469 334.254 80.9219 334.058C80.7969 333.859 80.625 333.706 80.4062 333.598C80.1875 333.49 79.9389 333.436 79.6605 333.436C79.3736 333.436 79.1222 333.496 78.9062 333.615C78.6903 333.732 78.5227 333.898 78.4034 334.114C78.2869 334.33 78.2287 334.587 78.2287 334.885H76.7244C76.7244 334.331 76.8509 333.849 77.1037 333.44C77.3565 333.031 77.7045 332.714 78.1477 332.49C78.5938 332.266 79.1051 332.153 79.6818 332.153C80.267 332.153 80.7813 332.263 81.2244 332.482C81.6676 332.7 82.0114 333 82.2557 333.381C82.5028 333.761 82.6264 334.196 82.6264 334.685C82.6264 335.011 82.5639 335.332 82.4389 335.648C82.3139 335.963 82.0938 336.312 81.7784 336.696C81.4659 337.08 81.027 337.544 80.4616 338.089L78.9574 339.619V339.679H82.7585V341H76.7756Z" fill="white"/>
<path d="M169.095 399.956V398.699L172.798 392.848H173.846V394.638H173.207L170.714 398.588V398.656H175.883V399.956H169.095ZM173.258 401.575V399.572L173.275 399.01V392.848H174.767V401.575H173.258Z" fill="white"/>
<path d="M76.6179 294.381V293.124L80.321 287.273H81.3693V289.062H80.7301L78.2372 293.013V293.081H83.4062V294.381H76.6179ZM80.7812 296V293.997L80.7983 293.435V287.273H82.2898V296H80.7812Z" fill="white"/>
<path d="M214.707 401.695C214.289 401.692 213.881 401.619 213.484 401.477C213.086 401.332 212.728 401.098 212.41 400.774C212.092 400.447 211.839 400.014 211.651 399.474C211.464 398.932 211.371 398.26 211.374 397.459C211.374 396.712 211.454 396.045 211.613 395.46C211.772 394.875 212.001 394.381 212.299 393.977C212.597 393.571 212.957 393.261 213.377 393.048C213.8 392.835 214.273 392.729 214.796 392.729C215.344 392.729 215.83 392.837 216.254 393.052C216.68 393.268 217.023 393.564 217.285 393.939C217.546 394.311 217.708 394.731 217.771 395.2H216.215C216.136 394.865 215.972 394.598 215.725 394.399C215.481 394.197 215.171 394.097 214.796 394.097C214.191 394.097 213.725 394.359 213.398 394.885C213.075 395.41 212.911 396.132 212.908 397.05H212.968C213.107 396.8 213.288 396.585 213.509 396.406C213.731 396.227 213.981 396.089 214.259 395.993C214.541 395.893 214.837 395.844 215.15 395.844C215.661 395.844 216.12 395.966 216.526 396.21C216.935 396.454 217.259 396.791 217.498 397.22C217.737 397.646 217.854 398.135 217.852 398.686C217.854 399.26 217.724 399.775 217.46 400.233C217.195 400.687 216.827 401.045 216.356 401.307C215.884 401.568 215.335 401.697 214.707 401.695ZM214.698 400.416C215.008 400.416 215.285 400.341 215.529 400.19C215.773 400.04 215.967 399.837 216.109 399.581C216.251 399.325 216.32 399.038 216.317 398.72C216.32 398.408 216.252 398.125 216.113 397.872C215.977 397.619 215.788 397.419 215.546 397.271C215.305 397.123 215.029 397.05 214.719 397.05C214.489 397.05 214.275 397.094 214.076 397.182C213.877 397.27 213.704 397.392 213.556 397.548C213.408 397.702 213.292 397.881 213.207 398.085C213.124 398.287 213.082 398.503 213.079 398.733C213.082 399.037 213.153 399.317 213.292 399.572C213.431 399.828 213.623 400.033 213.867 400.186C214.112 400.339 214.389 400.416 214.698 400.416Z" fill="white"/>
<path d="M79.9716 251.119C79.554 251.116 79.1463 251.044 78.7486 250.902C78.3509 250.757 77.9929 250.523 77.6747 250.199C77.3565 249.872 77.1037 249.439 76.9162 248.899C76.7287 248.357 76.6364 247.685 76.6392 246.884C76.6392 246.136 76.7188 245.47 76.8778 244.885C77.0369 244.3 77.2656 243.805 77.5639 243.402C77.8622 242.996 78.2216 242.686 78.642 242.473C79.0653 242.26 79.5384 242.153 80.0611 242.153C80.6094 242.153 81.0952 242.261 81.5185 242.477C81.9446 242.693 82.2884 242.989 82.5497 243.364C82.8111 243.736 82.973 244.156 83.0355 244.625H81.4801C81.4006 244.29 81.2372 244.023 80.9901 243.824C80.7457 243.622 80.4361 243.521 80.0611 243.521C79.456 243.521 78.9901 243.784 78.6634 244.31C78.3395 244.835 78.1761 245.557 78.1733 246.474H78.233C78.3722 246.224 78.5526 246.01 78.7741 245.831C78.9957 245.652 79.2457 245.514 79.5241 245.418C79.8054 245.318 80.1023 245.268 80.4148 245.268C80.9261 245.268 81.3849 245.391 81.7912 245.635C82.2003 245.879 82.5241 246.216 82.7628 246.645C83.0014 247.071 83.1193 247.56 83.1165 248.111C83.1193 248.685 82.9886 249.2 82.7244 249.658C82.4602 250.112 82.0923 250.47 81.6207 250.732C81.1491 250.993 80.5994 251.122 79.9716 251.119ZM79.9631 249.841C80.2727 249.841 80.5497 249.766 80.794 249.615C81.0384 249.464 81.2315 249.261 81.3736 249.006C81.5156 248.75 81.5852 248.463 81.5824 248.145C81.5852 247.832 81.517 247.55 81.3778 247.297C81.2415 247.044 81.0526 246.844 80.8111 246.696C80.5696 246.548 80.294 246.474 79.9844 246.474C79.7543 246.474 79.5398 246.518 79.3409 246.607C79.142 246.695 78.9688 246.817 78.821 246.973C78.6733 247.126 78.5568 247.305 78.4716 247.51C78.3892 247.712 78.3466 247.928 78.3438 248.158C78.3466 248.462 78.4176 248.741 78.5568 248.997C78.696 249.253 78.8878 249.457 79.1321 249.611C79.3764 249.764 79.6534 249.841 79.9631 249.841Z" fill="white"/>
<path d="M257.1 401.695C256.467 401.695 255.904 401.588 255.413 401.375C254.924 401.162 254.541 400.871 254.262 400.501C253.987 400.129 253.85 399.707 253.853 399.236C253.85 398.869 253.93 398.533 254.092 398.226C254.254 397.919 254.472 397.663 254.748 397.459C255.026 397.251 255.336 397.119 255.677 397.062V397.003C255.228 396.903 254.864 396.675 254.586 396.317C254.31 395.956 254.174 395.54 254.177 395.068C254.174 394.619 254.299 394.219 254.552 393.866C254.805 393.514 255.151 393.237 255.592 393.035C256.032 392.831 256.535 392.729 257.1 392.729C257.66 392.729 258.158 392.831 258.596 393.035C259.036 393.237 259.383 393.514 259.636 393.866C259.891 394.219 260.019 394.619 260.019 395.068C260.019 395.54 259.879 395.956 259.597 396.317C259.319 396.675 258.96 396.903 258.519 397.003V397.062C258.86 397.119 259.167 397.251 259.44 397.459C259.715 397.663 259.934 397.919 260.096 398.226C260.261 398.533 260.343 398.869 260.343 399.236C260.343 399.707 260.204 400.129 259.926 400.501C259.647 400.871 259.264 401.162 258.775 401.375C258.289 401.588 257.731 401.695 257.1 401.695ZM257.1 400.476C257.427 400.476 257.711 400.42 257.953 400.31C258.194 400.196 258.382 400.037 258.515 399.832C258.649 399.628 258.717 399.392 258.72 399.125C258.717 398.847 258.644 398.601 258.502 398.388C258.363 398.172 258.171 398.003 257.927 397.881C257.685 397.758 257.41 397.697 257.1 397.697C256.788 397.697 256.509 397.758 256.265 397.881C256.021 398.003 255.828 398.172 255.685 398.388C255.546 398.601 255.478 398.847 255.481 399.125C255.478 399.392 255.543 399.628 255.677 399.832C255.81 400.034 255.998 400.192 256.239 400.305C256.484 400.419 256.771 400.476 257.1 400.476ZM257.1 396.5C257.367 396.5 257.603 396.446 257.808 396.338C258.015 396.23 258.178 396.079 258.298 395.886C258.417 395.693 258.478 395.47 258.481 395.217C258.478 394.967 258.418 394.748 258.302 394.561C258.185 394.371 258.024 394.224 257.816 394.122C257.609 394.017 257.37 393.964 257.1 393.964C256.825 393.964 256.582 394.017 256.372 394.122C256.164 394.224 256.002 394.371 255.886 394.561C255.772 394.748 255.717 394.967 255.72 395.217C255.717 395.47 255.774 395.693 255.89 395.886C256.009 396.077 256.173 396.227 256.38 396.338C256.59 396.446 256.83 396.5 257.1 396.5Z" fill="white"/>
<path d="M79.8778 207.119C79.2443 207.119 78.6818 207.013 78.1903 206.8C77.7017 206.587 77.3182 206.295 77.0398 205.926C76.7642 205.554 76.6278 205.132 76.6307 204.661C76.6278 204.294 76.7074 203.957 76.8693 203.651C77.0313 203.344 77.25 203.088 77.5256 202.884C77.804 202.676 78.1136 202.544 78.4545 202.487V202.428C78.0057 202.328 77.642 202.099 77.3636 201.741C77.0881 201.381 76.9517 200.964 76.9545 200.493C76.9517 200.044 77.0767 199.643 77.3295 199.291C77.5824 198.939 77.929 198.662 78.3693 198.46C78.8097 198.256 79.3125 198.153 79.8778 198.153C80.4375 198.153 80.9361 198.256 81.3736 198.46C81.8139 198.662 82.1605 198.939 82.4134 199.291C82.669 199.643 82.7969 200.044 82.7969 200.493C82.7969 200.964 82.6562 201.381 82.375 201.741C82.0966 202.099 81.7372 202.328 81.2969 202.428V202.487C81.6378 202.544 81.9446 202.676 82.2173 202.884C82.4929 203.088 82.7116 203.344 82.8736 203.651C83.0384 203.957 83.1207 204.294 83.1207 204.661C83.1207 205.132 82.9815 205.554 82.7031 205.926C82.4247 206.295 82.0412 206.587 81.5526 206.8C81.0668 207.013 80.5085 207.119 79.8778 207.119ZM79.8778 205.901C80.2045 205.901 80.4886 205.845 80.7301 205.734C80.9716 205.621 81.1591 205.462 81.2926 205.257C81.4261 205.053 81.4943 204.817 81.4972 204.55C81.4943 204.271 81.4219 204.026 81.2798 203.812C81.1406 203.597 80.9489 203.428 80.7045 203.305C80.4631 203.183 80.1875 203.122 79.8778 203.122C79.5653 203.122 79.2869 203.183 79.0426 203.305C78.7983 203.428 78.6051 203.597 78.4631 203.812C78.3239 204.026 78.2557 204.271 78.2585 204.55C78.2557 204.817 78.321 205.053 78.4545 205.257C78.5881 205.459 78.7756 205.616 79.017 205.73C79.2614 205.844 79.5483 205.901 79.8778 205.901ZM79.8778 201.925C80.1449 201.925 80.3807 201.871 80.5852 201.763C80.7926 201.655 80.956 201.504 81.0753 201.311C81.1946 201.118 81.2557 200.895 81.2585 200.642C81.2557 200.392 81.196 200.173 81.0795 199.986C80.9631 199.795 80.8011 199.649 80.5938 199.547C80.3864 199.442 80.1477 199.389 79.8778 199.389C79.6023 199.389 79.3594 199.442 79.1491 199.547C78.9418 199.649 78.7798 199.795 78.6634 199.986C78.5497 200.173 78.4943 200.392 78.4972 200.642C78.4943 200.895 78.5511 201.118 78.6676 201.311C78.7869 201.501 78.9503 201.652 79.1577 201.763C79.3679 201.871 79.608 201.925 79.8778 201.925Z" fill="white"/>
<path d="M301.265 392.848V401.575H299.684V394.386H299.633L297.592 395.69V394.241L299.761 392.848H301.265ZM306.707 401.741C306.005 401.741 305.403 401.564 304.9 401.209C304.4 400.851 304.015 400.335 303.745 399.662C303.478 398.986 303.345 398.172 303.345 397.22C303.348 396.268 303.483 395.459 303.75 394.791C304.019 394.121 304.404 393.609 304.904 393.257C305.407 392.905 306.008 392.729 306.707 392.729C307.406 392.729 308.007 392.905 308.51 393.257C309.012 393.609 309.397 394.121 309.664 394.791C309.934 395.462 310.069 396.271 310.069 397.22C310.069 398.175 309.934 398.99 309.664 399.666C309.397 400.339 309.012 400.854 308.51 401.209C308.01 401.564 307.409 401.741 306.707 401.741ZM306.707 400.408C307.252 400.408 307.683 400.139 307.998 399.602C308.316 399.062 308.475 398.268 308.475 397.22C308.475 396.527 308.403 395.945 308.258 395.473C308.113 395.001 307.909 394.646 307.644 394.408C307.38 394.166 307.068 394.045 306.707 394.045C306.164 394.045 305.735 394.315 305.42 394.855C305.105 395.392 304.946 396.18 304.943 397.22C304.94 397.916 305.01 398.501 305.152 398.976C305.296 399.45 305.501 399.808 305.765 400.05C306.029 400.288 306.343 400.408 306.707 400.408Z" fill="white"/>
<path d="M72.3253 152.273V161H70.7443V153.811H70.6932L68.652 155.115V153.666L70.821 152.273H72.3253ZM77.767 161.166C77.0653 161.166 76.4631 160.989 75.9602 160.634C75.4602 160.276 75.0753 159.76 74.8054 159.087C74.5384 158.411 74.4048 157.597 74.4048 156.645C74.4077 155.693 74.5426 154.884 74.8097 154.216C75.0795 153.545 75.4645 153.034 75.9645 152.682C76.4673 152.33 77.0682 152.153 77.767 152.153C78.4659 152.153 79.0668 152.33 79.5696 152.682C80.0724 153.034 80.4574 153.545 80.7244 154.216C80.9943 154.886 81.1293 155.696 81.1293 156.645C81.1293 157.599 80.9943 158.415 80.7244 159.091C80.4574 159.764 80.0724 160.278 79.5696 160.634C79.0696 160.989 78.4688 161.166 77.767 161.166ZM77.767 159.832C78.3125 159.832 78.7429 159.564 79.0582 159.027C79.3764 158.487 79.5355 157.693 79.5355 156.645C79.5355 155.952 79.4631 155.369 79.3182 154.898C79.1733 154.426 78.9688 154.071 78.7045 153.832C78.4403 153.591 78.1278 153.47 77.767 153.47C77.2244 153.47 76.7955 153.74 76.4801 154.28C76.1648 154.817 76.0057 155.605 76.0028 156.645C76 157.341 76.0696 157.926 76.2116 158.401C76.3565 158.875 76.5611 159.233 76.8253 159.474C77.0895 159.713 77.4034 159.832 77.767 159.832Z" fill="white"/>
<path d="M345.523 392.848V401.575H343.942V394.386H343.891L341.85 395.69V394.241L344.019 392.848H345.523ZM347.739 401.575V400.433L350.769 397.463C351.059 397.17 351.3 396.91 351.493 396.683C351.686 396.456 351.831 396.236 351.928 396.023C352.024 395.81 352.073 395.582 352.073 395.341C352.073 395.065 352.01 394.829 351.885 394.633C351.76 394.435 351.588 394.281 351.37 394.173C351.151 394.065 350.902 394.011 350.624 394.011C350.337 394.011 350.086 394.071 349.87 394.19C349.654 394.307 349.486 394.473 349.367 394.689C349.25 394.905 349.192 395.162 349.192 395.46H347.688C347.688 394.906 347.814 394.425 348.067 394.016C348.32 393.606 348.668 393.29 349.111 393.065C349.557 392.841 350.068 392.729 350.645 392.729C351.23 392.729 351.745 392.838 352.188 393.057C352.631 393.275 352.975 393.575 353.219 393.956C353.466 394.337 353.59 394.771 353.59 395.26C353.59 395.587 353.527 395.908 353.402 396.223C353.277 396.538 353.057 396.888 352.742 397.271C352.429 397.655 351.99 398.119 351.425 398.665L349.921 400.195V400.254H353.722V401.575H347.739Z" fill="white"/>
<path d="M388.011 392.848V401.575H386.43V394.386H386.379L384.338 395.69V394.241L386.507 392.848H388.011ZM390.069 399.956V398.699L393.772 392.848H394.82V394.638H394.181L391.688 398.588V398.656H396.857V399.956H390.069ZM394.232 401.575V399.572L394.249 399.01V392.848H395.741V401.575H394.232Z" fill="white"/>
<path d="M432.269 392.848V401.575H430.688V394.386H430.637L428.595 395.69V394.241L430.764 392.848H432.269ZM437.681 401.695C437.263 401.692 436.855 401.619 436.458 401.477C436.06 401.332 435.702 401.098 435.384 400.774C435.066 400.447 434.813 400.014 434.625 399.474C434.438 398.932 434.345 398.26 434.348 397.459C434.348 396.712 434.428 396.045 434.587 395.46C434.746 394.875 434.975 394.381 435.273 393.977C435.571 393.571 435.931 393.261 436.351 393.048C436.774 392.835 437.247 392.729 437.77 392.729C438.318 392.729 438.804 392.837 439.227 393.052C439.654 393.268 439.997 393.564 440.259 393.939C440.52 394.311 440.682 394.731 440.744 395.2H439.189C439.11 394.865 438.946 394.598 438.699 394.399C438.455 394.197 438.145 394.097 437.77 394.097C437.165 394.097 436.699 394.359 436.372 394.885C436.048 395.41 435.885 396.132 435.882 397.05H435.942C436.081 396.8 436.262 396.585 436.483 396.406C436.705 396.227 436.955 396.089 437.233 395.993C437.514 395.893 437.811 395.844 438.124 395.844C438.635 395.844 439.094 395.966 439.5 396.21C439.909 396.454 440.233 396.791 440.472 397.22C440.71 397.646 440.828 398.135 440.825 398.686C440.828 399.26 440.698 399.775 440.433 400.233C440.169 400.687 439.801 401.045 439.33 401.307C438.858 401.568 438.308 401.697 437.681 401.695ZM437.672 400.416C437.982 400.416 438.259 400.341 438.503 400.19C438.747 400.04 438.941 399.837 439.083 399.581C439.225 399.325 439.294 399.038 439.291 398.72C439.294 398.408 439.226 398.125 439.087 397.872C438.95 397.619 438.762 397.419 438.52 397.271C438.279 397.123 438.003 397.05 437.693 397.05C437.463 397.05 437.249 397.094 437.05 397.182C436.851 397.27 436.678 397.392 436.53 397.548C436.382 397.702 436.266 397.881 436.181 398.085C436.098 398.287 436.056 398.503 436.053 398.733C436.056 399.037 436.127 399.317 436.266 399.572C436.405 399.828 436.597 400.033 436.841 400.186C437.085 400.339 437.362 400.416 437.672 400.416Z" fill="white"/>
<path d="M434 191.621C429.791 186.609 427.436 180.188 423.54 174.93C419.345 169.269 414.397 163.092 408.076 159.642C403.25 157.008 401.202 163.118 400.131 166.402C398.247 172.182 396.496 178.037 394.562 183.795C394.101 185.166 393.727 189.545 391.989 189.545C389.791 189.545 388.347 187.489 387.41 185.814C385.453 182.32 382.375 179.452 380.314 175.968C378.17 172.344 375.853 168.904 372.454 166.374C368.483 163.419 359.29 155.955 356.227 163.934C354.713 167.878 354.895 172.645 353.598 176.782C352.358 180.736 351.608 184.863 350.29 188.788C347.146 198.147 338.581 186.278 335.844 182.616C333.092 178.936 330.568 175.301 328.126 171.424C326.591 168.988 324.052 166.367 321.369 165.196C312.366 161.265 310.265 192.719 305.509 196.39C300.974 199.89 291.279 184.244 289.762 181.775C287.706 178.43 286.559 175.429 282.355 174.734C278.294 174.062 276.075 175.205 274.241 179.026C270.982 185.817 270.089 194.041 267.88 201.215C266.24 206.543 264.944 211.836 263.018 217.092C262.641 218.121 261.437 217.912 260.53 217.877C256.831 217.736 254.797 214.399 252.727 211.706C250.178 208.389 248.169 204.412 246.225 200.71C244.793 197.983 242.597 194.328 239.101 194.146C235.736 193.97 234.172 197.695 232.994 200.317C230.984 204.792 228.851 209.234 226.888 213.726C223.654 221.123 221.877 229.462 219.763 237.233C219.172 239.409 218.984 240.665 216.314 239.87C212.983 238.879 210.654 235.45 208.455 233.025C205.024 229.243 201.627 226.246 199.012 221.749C197.667 219.434 195.849 218.699 193.076 219.504C189.561 220.525 187.963 224.739 187.195 227.864C185.99 232.767 183.736 237.294 182.107 242.058C180.294 247.357 179.079 252.564 178.036 258.048C177.291 261.959 177.708 266.241 175.604 269.773C171.247 277.09 161.502 261.933 158.924 259.506C152.707 253.654 148.587 264.429 146.711 268.202C141.786 278.109 140.396 288.761 138.23 299.508C137.122 305.004 136.207 311.216 134.159 316.451C133.695 317.639 132.713 323.87 131.615 323.913C128.22 324.048 125.759 323.176 123.586 320.435C121.142 317.352 120.032 311.273 115.331 310.897C110.886 310.541 109.981 317.44 109.337 320.435C108.266 325.413 105.162 329.665 104.249 334.741C103.198 340.577 102.652 346.183 100.573 351.797C98.6001 357.124 97.4011 362.701 95.7107 368.123C94.0317 373.508 91.772 378.725 90 384" stroke="#00C6C3" stroke-width="3" stroke-linecap="round"/>
</svg>
