<svg width="492" height="504" viewBox="0 0 492 504" fill="none" xmlns="http://www.w3.org/2000/svg">
<rect x="1" y="1" width="490" height="502" rx="37" fill="#131627" stroke="black" stroke-width="2"/>
<path d="M119.434 403.69V402.928L121.454 400.948C121.647 400.753 121.808 400.58 121.937 400.428C122.065 400.277 122.162 400.13 122.226 399.988C122.291 399.846 122.323 399.694 122.323 399.533C122.323 399.35 122.281 399.193 122.198 399.062C122.115 398.929 122 398.827 121.854 398.755C121.708 398.683 121.543 398.647 121.357 398.647C121.166 398.647 120.998 398.687 120.854 398.766C120.71 398.844 120.599 398.955 120.519 399.099C120.441 399.243 120.403 399.414 120.403 399.613H119.4C119.4 399.244 119.484 398.923 119.653 398.65C119.821 398.377 120.053 398.166 120.349 398.016C120.646 397.867 120.987 397.792 121.371 397.792C121.761 397.792 122.104 397.865 122.4 398.011C122.695 398.157 122.924 398.356 123.087 398.61C123.252 398.864 123.334 399.154 123.334 399.479C123.334 399.697 123.293 399.911 123.209 400.122C123.126 400.332 122.979 400.565 122.769 400.82C122.561 401.076 122.268 401.386 121.891 401.749L120.888 402.769V402.809H123.422V403.69H119.434Z" fill="white"/>
<path d="M71.9892 349.621V348.859L74.0091 346.879C74.2023 346.684 74.3633 346.511 74.4921 346.359C74.6208 346.208 74.7174 346.061 74.7818 345.919C74.8462 345.777 74.8784 345.625 74.8784 345.464C74.8784 345.281 74.8368 345.124 74.7534 344.993C74.6701 344.86 74.5555 344.758 74.4097 344.686C74.2638 344.614 74.0981 344.578 73.9125 344.578C73.7212 344.578 73.5536 344.618 73.4097 344.697C73.2657 344.775 73.154 344.886 73.0744 345.03C72.9968 345.174 72.958 345.345 72.958 345.544H71.9551C71.9551 345.175 72.0394 344.854 72.208 344.581C72.3765 344.308 72.6085 344.097 72.904 343.947C73.2013 343.798 73.5422 343.723 73.9267 343.723C74.3169 343.723 74.6597 343.796 74.9551 343.942C75.2506 344.088 75.4797 344.287 75.6426 344.541C75.8074 344.795 75.8898 345.085 75.8898 345.411C75.8898 345.628 75.8481 345.842 75.7648 346.053C75.6814 346.263 75.5347 346.496 75.3244 346.751C75.1161 347.007 74.8235 347.317 74.4466 347.68L73.4438 348.7V348.74H75.9778V349.621H71.9892Z" fill="white"/>
<path d="M161.69 402.61V401.772L164.159 397.872H164.857V399.065H164.431L162.769 401.698V401.744H166.215V402.61H161.69ZM164.465 403.69V402.354L164.477 401.979V397.872H165.471V403.69H164.465Z" fill="white"/>
<path d="M70.1898 304.61V303.772L72.6585 299.872H73.3574V301.065H72.9312L71.2693 303.698V303.744H74.7153V304.61H70.1898ZM72.9653 305.69V304.354L72.9767 303.979V299.872H73.971V305.69H72.9653Z" fill="white"/>
<path d="M206.287 403.769C206.008 403.767 205.736 403.719 205.471 403.624C205.206 403.528 204.968 403.372 204.755 403.156C204.543 402.938 204.375 402.649 204.25 402.289C204.125 401.927 204.063 401.479 204.065 400.945C204.065 400.447 204.118 400.003 204.224 399.613C204.33 399.223 204.483 398.893 204.682 398.624C204.88 398.354 205.12 398.147 205.4 398.005C205.682 397.863 205.998 397.792 206.346 397.792C206.712 397.792 207.036 397.864 207.318 398.008C207.602 398.152 207.831 398.349 208.005 398.599C208.18 398.847 208.288 399.127 208.329 399.44H207.292C207.239 399.216 207.13 399.038 206.966 398.906C206.803 398.771 206.596 398.704 206.346 398.704C205.943 398.704 205.632 398.879 205.414 399.229C205.199 399.58 205.09 400.061 205.088 400.673H205.128C205.22 400.506 205.341 400.363 205.488 400.244C205.636 400.124 205.803 400.033 205.988 399.968C206.176 399.902 206.374 399.869 206.582 399.869C206.923 399.869 207.229 399.95 207.5 400.113C207.772 400.276 207.988 400.5 208.147 400.786C208.307 401.07 208.385 401.396 208.383 401.764C208.385 402.146 208.298 402.49 208.122 402.795C207.946 403.098 207.7 403.336 207.386 403.511C207.072 403.685 206.705 403.771 206.287 403.769ZM206.281 402.917C206.487 402.917 206.672 402.867 206.835 402.766C206.998 402.666 207.127 402.531 207.221 402.36C207.316 402.19 207.362 401.998 207.361 401.786C207.362 401.578 207.317 401.39 207.224 401.221C207.133 401.052 207.007 400.919 206.846 400.82C206.685 400.722 206.502 400.673 206.295 400.673C206.142 400.673 205.999 400.702 205.866 400.761C205.734 400.819 205.618 400.901 205.52 401.005C205.421 401.107 205.343 401.227 205.287 401.363C205.232 401.497 205.203 401.641 205.201 401.795C205.203 401.997 205.251 402.184 205.343 402.354C205.436 402.525 205.564 402.661 205.727 402.764C205.89 402.866 206.075 402.917 206.281 402.917Z" fill="white"/>
<path d="M72.4256 263.528C72.1472 263.526 71.8754 263.478 71.6102 263.383C71.3451 263.286 71.1064 263.13 70.8943 262.914C70.6822 262.696 70.5136 262.408 70.3886 262.048C70.2636 261.686 70.2021 261.238 70.204 260.704C70.204 260.206 70.257 259.762 70.3631 259.372C70.4691 258.981 70.6216 258.652 70.8204 258.383C71.0193 258.112 71.2589 257.906 71.5392 257.764C71.8214 257.622 72.1367 257.551 72.4852 257.551C72.8507 257.551 73.1746 257.622 73.4568 257.766C73.7409 257.91 73.9701 258.107 74.1443 258.357C74.3186 258.605 74.4265 258.886 74.4682 259.198H73.4312C73.3782 258.975 73.2693 258.797 73.1045 258.664C72.9417 258.53 72.7352 258.462 72.4852 258.462C72.0818 258.462 71.7712 258.638 71.5534 258.988C71.3375 259.338 71.2286 259.819 71.2267 260.431H71.2665C71.3593 260.265 71.4795 260.122 71.6273 260.002C71.775 259.883 71.9417 259.791 72.1273 259.727C72.3148 259.66 72.5127 259.627 72.721 259.627C73.0619 259.627 73.3678 259.709 73.6386 259.872C73.9114 260.034 74.1273 260.259 74.2864 260.545C74.4454 260.829 74.524 261.155 74.5222 261.522C74.524 261.905 74.4369 262.248 74.2608 262.553C74.0847 262.856 73.8394 263.095 73.525 263.269C73.2106 263.444 72.8441 263.53 72.4256 263.528ZM72.4199 262.676C72.6263 262.676 72.811 262.625 72.9739 262.525C73.1367 262.425 73.2655 262.289 73.3602 262.119C73.4549 261.948 73.5013 261.757 73.4994 261.545C73.5013 261.336 73.4559 261.148 73.3631 260.979C73.2722 260.811 73.1462 260.677 72.9852 260.579C72.8242 260.48 72.6405 260.431 72.4341 260.431C72.2807 260.431 72.1377 260.461 72.0051 260.519C71.8725 260.578 71.757 260.659 71.6585 260.764C71.56 260.866 71.4824 260.985 71.4256 261.122C71.3706 261.256 71.3422 261.4 71.3403 261.553C71.3422 261.756 71.3896 261.943 71.4824 262.113C71.5752 262.283 71.703 262.42 71.8659 262.522C72.0288 262.624 72.2134 262.676 72.4199 262.676Z" fill="white"/>
<path d="M246.891 403.769C246.468 403.769 246.093 403.698 245.766 403.556C245.44 403.414 245.184 403.22 244.999 402.974C244.815 402.726 244.724 402.444 244.726 402.13C244.724 401.886 244.777 401.661 244.885 401.457C244.993 401.252 245.139 401.082 245.322 400.945C245.508 400.807 245.715 400.719 245.942 400.681V400.641C245.643 400.575 245.4 400.423 245.215 400.184C245.031 399.943 244.94 399.666 244.942 399.352C244.94 399.052 245.023 398.785 245.192 398.55C245.36 398.316 245.591 398.131 245.885 397.997C246.179 397.86 246.514 397.792 246.891 397.792C247.264 397.792 247.596 397.86 247.888 397.997C248.181 398.131 248.412 398.316 248.581 398.55C248.751 398.785 248.837 399.052 248.837 399.352C248.837 399.666 248.743 399.943 248.555 400.184C248.37 400.423 248.13 400.575 247.837 400.641V400.681C248.064 400.719 248.268 400.807 248.45 400.945C248.634 401.082 248.78 401.252 248.888 401.457C248.998 401.661 249.053 401.886 249.053 402.13C249.053 402.444 248.96 402.726 248.774 402.974C248.589 403.22 248.333 403.414 248.007 403.556C247.683 403.698 247.311 403.769 246.891 403.769ZM246.891 402.957C247.108 402.957 247.298 402.92 247.459 402.846C247.62 402.77 247.745 402.664 247.834 402.528C247.923 402.391 247.968 402.234 247.97 402.056C247.968 401.871 247.92 401.707 247.825 401.565C247.733 401.421 247.605 401.308 247.442 401.227C247.281 401.145 247.097 401.104 246.891 401.104C246.682 401.104 246.497 401.145 246.334 401.227C246.171 401.308 246.042 401.421 245.947 401.565C245.855 401.707 245.809 401.871 245.811 402.056C245.809 402.234 245.853 402.391 245.942 402.528C246.031 402.662 246.156 402.767 246.317 402.843C246.48 402.919 246.671 402.957 246.891 402.957ZM246.891 400.306C247.069 400.306 247.226 400.27 247.362 400.198C247.5 400.126 247.609 400.026 247.689 399.897C247.768 399.768 247.809 399.62 247.811 399.451C247.809 399.284 247.769 399.139 247.692 399.014C247.614 398.887 247.506 398.789 247.368 398.721C247.23 398.651 247.071 398.616 246.891 398.616C246.707 398.616 246.545 398.651 246.405 398.721C246.267 398.789 246.159 398.887 246.081 399.014C246.005 399.139 245.968 399.284 245.97 399.451C245.968 399.62 246.006 399.768 246.084 399.897C246.163 400.024 246.272 400.124 246.411 400.198C246.551 400.27 246.711 400.306 246.891 400.306Z" fill="white"/>
<path d="M72.3631 216.217C71.9407 216.217 71.5657 216.146 71.2381 216.004C70.9123 215.862 70.6566 215.668 70.471 215.422C70.2873 215.174 70.1964 214.893 70.1983 214.578C70.1964 214.334 70.2494 214.11 70.3574 213.905C70.4653 213.7 70.6112 213.53 70.7949 213.394C70.9805 213.255 71.1869 213.167 71.4142 213.129V213.09C71.115 213.023 70.8725 212.871 70.6869 212.632C70.5032 212.392 70.4123 212.114 70.4142 211.8C70.4123 211.501 70.4956 211.234 70.6642 210.999C70.8328 210.764 71.0638 210.579 71.3574 210.445C71.6509 210.308 71.9862 210.24 72.3631 210.24C72.7362 210.24 73.0686 210.308 73.3602 210.445C73.6538 210.579 73.8848 210.764 74.0534 210.999C74.2239 211.234 74.3091 211.501 74.3091 211.8C74.3091 212.114 74.2153 212.392 74.0278 212.632C73.8422 212.871 73.6026 213.023 73.3091 213.09V213.129C73.5364 213.167 73.7409 213.255 73.9227 213.394C74.1064 213.53 74.2523 213.7 74.3602 213.905C74.4701 214.11 74.525 214.334 74.525 214.578C74.525 214.893 74.4322 215.174 74.2466 215.422C74.061 215.668 73.8053 215.862 73.4795 216.004C73.1557 216.146 72.7835 216.217 72.3631 216.217ZM72.3631 215.405C72.5809 215.405 72.7703 215.368 72.9312 215.294C73.0922 215.218 73.2172 215.112 73.3062 214.976C73.3953 214.84 73.4407 214.682 73.4426 214.504C73.4407 214.319 73.3924 214.155 73.2977 214.013C73.2049 213.869 73.0771 213.756 72.9142 213.675C72.7532 213.593 72.5695 213.553 72.3631 213.553C72.1547 213.553 71.9691 213.593 71.8062 213.675C71.6434 213.756 71.5146 213.869 71.4199 214.013C71.3271 214.155 71.2816 214.319 71.2835 214.504C71.2816 214.682 71.3252 214.84 71.4142 214.976C71.5032 215.11 71.6282 215.216 71.7892 215.291C71.9521 215.367 72.1434 215.405 72.3631 215.405ZM72.3631 212.754C72.5411 212.754 72.6983 212.718 72.8347 212.646C72.9729 212.574 73.0818 212.474 73.1614 212.345C73.2409 212.217 73.2816 212.068 73.2835 211.899C73.2816 211.733 73.2418 211.587 73.1642 211.462C73.0865 211.335 72.9786 211.237 72.8403 211.169C72.7021 211.099 72.543 211.064 72.3631 211.064C72.1793 211.064 72.0174 211.099 71.8773 211.169C71.739 211.237 71.6311 211.335 71.5534 211.462C71.4776 211.587 71.4407 211.733 71.4426 211.899C71.4407 212.068 71.4786 212.217 71.5562 212.345C71.6358 212.472 71.7447 212.573 71.8829 212.646C72.0231 212.718 72.1831 212.754 72.3631 212.754Z" fill="white"/>
<path d="M286.161 397.872V403.69H285.107V398.897H285.073L283.712 399.766V398.8L285.159 397.872H286.161ZM289.789 403.8C289.321 403.8 288.92 403.682 288.585 403.445C288.251 403.207 287.995 402.863 287.815 402.414C287.637 401.963 287.548 401.421 287.548 400.786C287.55 400.152 287.64 399.612 287.818 399.167C287.998 398.72 288.254 398.379 288.587 398.144C288.923 397.909 289.323 397.792 289.789 397.792C290.255 397.792 290.656 397.909 290.991 398.144C291.326 398.379 291.583 398.72 291.761 399.167C291.941 399.614 292.031 400.154 292.031 400.786C292.031 401.423 291.941 401.966 291.761 402.417C291.583 402.866 291.326 403.209 290.991 403.445C290.658 403.682 290.257 403.8 289.789 403.8ZM289.789 402.911C290.153 402.911 290.44 402.732 290.65 402.374C290.862 402.015 290.968 401.485 290.968 400.786C290.968 400.324 290.92 399.936 290.823 399.622C290.727 399.307 290.59 399.07 290.414 398.911C290.238 398.75 290.03 398.67 289.789 398.67C289.427 398.67 289.141 398.85 288.931 399.21C288.721 399.568 288.615 400.093 288.613 400.786C288.611 401.25 288.658 401.64 288.752 401.957C288.849 402.273 288.985 402.512 289.161 402.673C289.337 402.832 289.547 402.911 289.789 402.911Z" fill="white"/>
<path d="M65.8835 164.699V170.517H64.8295V165.725H64.7955L63.4347 166.594V165.628L64.8807 164.699H65.8835ZM69.5114 170.628C69.0436 170.628 68.642 170.51 68.3068 170.273C67.9735 170.034 67.7169 169.691 67.5369 169.242C67.3589 168.791 67.2699 168.248 67.2699 167.614C67.2718 166.979 67.3617 166.44 67.5398 165.994C67.7197 165.548 67.9763 165.207 68.3097 164.972C68.6449 164.737 69.0455 164.619 69.5114 164.619C69.9773 164.619 70.3778 164.737 70.7131 164.972C71.0483 165.207 71.3049 165.548 71.483 165.994C71.6629 166.441 71.7528 166.981 71.7528 167.614C71.7528 168.25 71.6629 168.794 71.483 169.244C71.3049 169.693 71.0483 170.036 70.7131 170.273C70.3797 170.51 69.9792 170.628 69.5114 170.628ZM69.5114 169.739C69.875 169.739 70.1619 169.56 70.3722 169.202C70.5843 168.842 70.6903 168.313 70.6903 167.614C70.6903 167.152 70.642 166.763 70.5455 166.449C70.4489 166.135 70.3125 165.898 70.1364 165.739C69.9602 165.578 69.7519 165.497 69.5114 165.497C69.1496 165.497 68.8636 165.677 68.6534 166.037C68.4432 166.395 68.3371 166.921 68.3352 167.614C68.3333 168.078 68.3797 168.468 68.4744 168.784C68.571 169.101 68.7074 169.339 68.8835 169.5C69.0597 169.659 69.2689 169.739 69.5114 169.739Z" fill="white"/>
<path d="M326.828 397.872V403.69H325.774V398.897H325.74L324.379 399.766V398.8L325.825 397.872H326.828ZM328.305 403.69V402.928L330.325 400.948C330.518 400.753 330.679 400.58 330.808 400.428C330.937 400.277 331.034 400.13 331.098 399.988C331.162 399.846 331.195 399.694 331.195 399.533C331.195 399.35 331.153 399.193 331.07 399.062C330.986 398.929 330.872 398.827 330.726 398.755C330.58 398.683 330.414 398.647 330.229 398.647C330.037 398.647 329.87 398.687 329.726 398.766C329.582 398.844 329.47 398.955 329.391 399.099C329.313 399.243 329.274 399.414 329.274 399.613H328.271C328.271 399.244 328.356 398.923 328.524 398.65C328.693 398.377 328.925 398.166 329.22 398.016C329.517 397.867 329.858 397.792 330.243 397.792C330.633 397.792 330.976 397.865 331.271 398.011C331.567 398.157 331.796 398.356 331.959 398.61C332.124 398.864 332.206 399.154 332.206 399.479C332.206 399.697 332.164 399.911 332.081 400.122C331.998 400.332 331.851 400.565 331.641 400.82C331.432 401.076 331.14 401.386 330.763 401.749L329.76 402.769V402.809H332.294V403.69H328.305Z" fill="white"/>
<path d="M67.5781 127.527V133.345H66.5241V128.552H66.49L65.1292 129.422V128.456L66.5753 127.527H67.5781ZM69.0554 133.345V132.583L71.0753 130.603C71.2684 130.408 71.4294 130.235 71.5582 130.083C71.687 129.932 71.7836 129.785 71.848 129.643C71.9124 129.501 71.9446 129.35 71.9446 129.189C71.9446 129.005 71.9029 128.848 71.8196 128.717C71.7362 128.584 71.6217 128.482 71.4758 128.41C71.33 128.338 71.1643 128.302 70.9787 128.302C70.7874 128.302 70.6198 128.342 70.4758 128.422C70.3319 128.499 70.2201 128.61 70.1406 128.754C70.063 128.898 70.0241 129.069 70.0241 129.268H69.0213C69.0213 128.899 69.1056 128.578 69.2741 128.305C69.4427 128.032 69.6747 127.821 69.9701 127.672C70.2675 127.522 70.6084 127.447 70.9929 127.447C71.383 127.447 71.7258 127.52 72.0213 127.666C72.3167 127.812 72.5459 128.012 72.7088 128.265C72.8736 128.519 72.9559 128.809 72.9559 129.135C72.9559 129.352 72.9143 129.566 72.8309 129.777C72.7476 129.987 72.6008 130.22 72.3906 130.476C72.1823 130.731 71.8897 131.041 71.5128 131.405L70.5099 132.424V132.464H73.044V133.345H69.0554Z" fill="white"/>
<path d="M369.189 397.872V403.69H368.135V398.897H368.101L366.74 399.766V398.8L368.186 397.872H369.189ZM370.561 402.61V401.772L373.03 397.872H373.729V399.065H373.303L371.641 401.698V401.744H375.087V402.61H370.561ZM373.337 403.69V402.354L373.348 401.979V397.872H374.342V403.69H373.337Z" fill="white"/>
<path d="M65.8835 83.5956V89.4138H64.8295V84.6212H64.7955L63.4347 85.4905V84.5246L64.8807 83.5956H65.8835ZM67.2557 88.3343V87.4962L69.7244 83.5956H70.4233V84.7888H69.9972L68.3352 87.4223V87.4678H71.7812V88.3343H67.2557ZM70.0312 89.4138V88.0786L70.0426 87.7036V83.5956H71.0369V89.4138H70.0312Z" fill="white"/>
<path d="M411.55 397.872V403.69H410.496V398.897H410.462L409.101 399.766V398.8L410.547 397.872H411.55ZM415.158 403.769C414.88 403.767 414.608 403.719 414.343 403.624C414.078 403.528 413.839 403.372 413.627 403.156C413.415 402.938 413.246 402.649 413.121 402.289C412.996 401.927 412.935 401.479 412.937 400.945C412.937 400.447 412.99 400.003 413.096 399.613C413.202 399.223 413.354 398.893 413.553 398.624C413.752 398.354 413.992 398.147 414.272 398.005C414.554 397.863 414.869 397.792 415.218 397.792C415.583 397.792 415.907 397.864 416.189 398.008C416.474 398.152 416.703 398.349 416.877 398.599C417.051 398.847 417.159 399.127 417.201 399.44H416.164C416.111 399.216 416.002 399.038 415.837 398.906C415.674 398.771 415.468 398.704 415.218 398.704C414.814 398.704 414.504 398.879 414.286 399.229C414.07 399.58 413.961 400.061 413.959 400.673H413.999C414.092 400.506 414.212 400.363 414.36 400.244C414.508 400.124 414.674 400.033 414.86 399.968C415.047 399.902 415.245 399.869 415.454 399.869C415.795 399.869 416.1 399.95 416.371 400.113C416.644 400.276 416.86 400.5 417.019 400.786C417.178 401.07 417.257 401.396 417.255 401.764C417.257 402.146 417.17 402.49 416.993 402.795C416.817 403.098 416.572 403.336 416.258 403.511C415.943 403.685 415.577 403.771 415.158 403.769ZM415.153 402.917C415.359 402.917 415.544 402.867 415.707 402.766C415.869 402.666 415.998 402.531 416.093 402.36C416.188 402.19 416.234 401.998 416.232 401.786C416.234 401.578 416.189 401.39 416.096 401.221C416.005 401.052 415.879 400.919 415.718 400.82C415.557 400.722 415.373 400.673 415.167 400.673C415.013 400.673 414.87 400.702 414.738 400.761C414.605 400.819 414.49 400.901 414.391 401.005C414.293 401.107 414.215 401.227 414.158 401.363C414.103 401.497 414.075 401.641 414.073 401.795C414.075 401.997 414.122 402.184 414.215 402.354C414.308 402.525 414.436 402.661 414.599 402.764C414.761 402.866 414.946 402.917 415.153 402.917Z" fill="white"/>
<line x1="82.1389" y1="69.5862" x2="82.1389" y2="394" stroke="white"/>
<line x1="435.778" y1="394.5" x2="81.6387" y2="394.5" stroke="white"/>
<path d="M115.179 41.0994C115.061 40.7159 114.897 40.3726 114.689 40.0696C114.485 39.7618 114.239 39.4991 113.95 39.2812C113.666 39.0634 113.339 38.9001 112.97 38.7912C112.601 38.6776 112.198 38.6207 111.763 38.6207C110.982 38.6207 110.286 38.8172 109.675 39.2102C109.064 39.6032 108.583 40.1809 108.233 40.9432C107.887 41.7008 107.714 42.6241 107.714 43.7131C107.714 44.8116 107.887 45.742 108.233 46.5043C108.579 47.2666 109.059 47.8466 109.675 48.2443C110.29 48.6373 111.005 48.8338 111.82 48.8338C112.558 48.8338 113.197 48.6918 113.737 48.4077C114.282 48.1236 114.701 47.7211 114.994 47.2003C115.288 46.6747 115.435 46.0592 115.435 45.3537L116.031 45.446H112.082V43.3864H117.984V45.1335C117.984 46.3788 117.719 47.456 117.189 48.3651C116.659 49.2741 115.929 49.9749 115.001 50.4673C114.073 50.955 113.008 51.1989 111.805 51.1989C110.465 51.1989 109.289 50.8982 108.276 50.2969C107.267 49.6908 106.479 48.8314 105.911 47.7188C105.347 46.6013 105.065 45.2756 105.065 43.7415C105.065 42.5672 105.231 41.5185 105.562 40.5952C105.899 39.6719 106.367 38.8883 106.969 38.2443C107.57 37.5956 108.276 37.1032 109.085 36.767C109.895 36.4261 110.776 36.2557 111.727 36.2557C112.532 36.2557 113.283 36.3741 113.979 36.6108C114.675 36.8428 115.293 37.1742 115.832 37.6051C116.377 38.036 116.824 38.5473 117.175 39.1392C117.525 39.7311 117.755 40.3845 117.864 41.0994H115.179ZM120.419 51V40.0909H122.912V41.9091H123.025C123.224 41.2794 123.565 40.794 124.048 40.4531C124.536 40.1075 125.092 39.9347 125.717 39.9347C125.859 39.9347 126.018 39.9418 126.193 39.956C126.373 39.9654 126.522 39.982 126.64 40.0057V42.3707C126.531 42.3329 126.359 42.2997 126.122 42.2713C125.89 42.2382 125.665 42.2216 125.447 42.2216C124.978 42.2216 124.557 42.3234 124.183 42.527C123.814 42.7259 123.522 43.0028 123.309 43.358C123.096 43.7131 122.99 44.1226 122.99 44.5866V51H120.419ZM131.292 51.2202C130.601 51.2202 129.978 51.0971 129.424 50.8509C128.875 50.5999 128.44 50.2306 128.118 49.7429C127.8 49.2552 127.642 48.6539 127.642 47.9389C127.642 47.3234 127.755 46.8144 127.983 46.4119C128.21 46.0095 128.52 45.6875 128.913 45.446C129.306 45.2045 129.749 45.0223 130.241 44.8991C130.738 44.7713 131.252 44.679 131.782 44.6222C132.422 44.5559 132.94 44.4967 133.338 44.4446C133.735 44.3878 134.024 44.3026 134.204 44.1889C134.389 44.0705 134.481 43.8883 134.481 43.642V43.5994C134.481 43.0644 134.323 42.6501 134.005 42.3565C133.688 42.063 133.231 41.9162 132.635 41.9162C132.005 41.9162 131.505 42.0535 131.136 42.3281C130.771 42.6027 130.525 42.9271 130.397 43.3011L127.997 42.9602C128.186 42.2973 128.499 41.7434 128.934 41.2983C129.37 40.8485 129.903 40.5123 130.532 40.2898C131.162 40.0625 131.858 39.9489 132.62 39.9489C133.146 39.9489 133.669 40.0104 134.19 40.1335C134.711 40.2566 135.187 40.4602 135.618 40.7443C136.048 41.0237 136.394 41.4048 136.654 41.8878C136.92 42.3707 137.052 42.9744 137.052 43.6989V51H134.581V49.5014H134.495C134.339 49.8045 134.119 50.0885 133.835 50.3537C133.556 50.6141 133.203 50.8248 132.777 50.9858C132.355 51.142 131.86 51.2202 131.292 51.2202ZM131.96 49.331C132.476 49.331 132.923 49.2292 133.302 49.0256C133.681 48.8172 133.972 48.5426 134.176 48.2017C134.384 47.8608 134.488 47.4891 134.488 47.0866V45.8011C134.408 45.8674 134.27 45.929 134.076 45.9858C133.887 46.0426 133.674 46.0923 133.437 46.1349C133.2 46.1776 132.966 46.2154 132.734 46.2486C132.502 46.2817 132.301 46.3101 132.13 46.3338C131.747 46.3859 131.404 46.4711 131.1 46.5895C130.797 46.7079 130.558 46.8736 130.383 47.0866C130.208 47.295 130.12 47.5649 130.12 47.8963C130.12 48.3698 130.293 48.7273 130.639 48.9688C130.984 49.2102 131.425 49.331 131.96 49.331ZM131.747 38.6562L133.338 35.4105H135.852L133.672 38.6562H131.747ZM145.163 40.0909V42.0795H138.714V40.0909H145.163ZM140.326 51V39.0611C140.326 38.3272 140.478 37.7164 140.781 37.2287C141.089 36.741 141.501 36.3764 142.017 36.1349C142.533 35.8935 143.106 35.7727 143.735 35.7727C144.181 35.7727 144.576 35.8082 144.922 35.8793C145.267 35.9503 145.523 36.0142 145.689 36.071L145.177 38.0597C145.068 38.0265 144.931 37.9934 144.765 37.9602C144.6 37.9223 144.415 37.9034 144.211 37.9034C143.733 37.9034 143.395 38.0194 143.196 38.2514C143.002 38.4787 142.904 38.8054 142.904 39.2315V51H140.326ZM147.176 51V40.0909H149.748V51H147.176ZM148.469 38.5426C148.062 38.5426 147.712 38.4077 147.418 38.1378C147.124 37.8632 146.978 37.5341 146.978 37.1506C146.978 36.7623 147.124 36.4332 147.418 36.1634C147.712 35.8887 148.062 35.7514 148.469 35.7514C148.881 35.7514 149.231 35.8887 149.52 36.1634C149.814 36.4332 149.961 36.7623 149.961 37.1506C149.961 37.5341 149.814 37.8632 149.52 38.1378C149.231 38.4077 148.881 38.5426 148.469 38.5426ZM157.15 51.2131C156.061 51.2131 155.126 50.974 154.344 50.4957C153.568 50.0175 152.969 49.357 152.548 48.5142C152.131 47.6667 151.923 46.6913 151.923 45.5881C151.923 44.4801 152.136 43.5024 152.562 42.6548C152.988 41.8026 153.589 41.1397 154.366 40.6662C155.147 40.188 156.07 39.9489 157.136 39.9489C158.021 39.9489 158.805 40.1122 159.487 40.4389C160.173 40.7609 160.72 41.2178 161.127 41.8097C161.534 42.3968 161.766 43.0833 161.823 43.8693H159.366C159.266 43.3437 159.03 42.9058 158.656 42.5554C158.286 42.2003 157.791 42.0227 157.171 42.0227C156.646 42.0227 156.184 42.1648 155.786 42.4489C155.388 42.7282 155.078 43.1307 154.856 43.6562C154.638 44.1818 154.529 44.8116 154.529 45.5455C154.529 46.2888 154.638 46.928 154.856 47.4631C155.074 47.9934 155.379 48.4029 155.772 48.6918C156.17 48.9759 156.636 49.1179 157.171 49.1179C157.55 49.1179 157.888 49.0469 158.187 48.9048C158.49 48.758 158.743 48.5473 158.947 48.2727C159.15 47.9981 159.29 47.6643 159.366 47.2713H161.823C161.762 48.0431 161.534 48.7273 161.141 49.3239C160.748 49.9157 160.213 50.3797 159.536 50.7159C158.859 51.0473 158.064 51.2131 157.15 51.2131ZM168.693 51.2131C167.627 51.2131 166.704 50.9787 165.923 50.5099C165.142 50.0412 164.536 49.3854 164.105 48.5426C163.679 47.6998 163.466 46.715 163.466 45.5881C163.466 44.4612 163.679 43.474 164.105 42.6264C164.536 41.7789 165.142 41.1207 165.923 40.652C166.704 40.1832 167.627 39.9489 168.693 39.9489C169.758 39.9489 170.681 40.1832 171.463 40.652C172.244 41.1207 172.848 41.7789 173.274 42.6264C173.705 43.474 173.92 44.4612 173.92 45.5881C173.92 46.715 173.705 47.6998 173.274 48.5426C172.848 49.3854 172.244 50.0412 171.463 50.5099C170.681 50.9787 169.758 51.2131 168.693 51.2131ZM168.707 49.1534C169.285 49.1534 169.768 48.9948 170.156 48.6776C170.544 48.3556 170.833 47.9247 171.022 47.3849C171.217 46.8452 171.314 46.2438 171.314 45.581C171.314 44.9134 171.217 44.3097 171.022 43.7699C170.833 43.2254 170.544 42.7921 170.156 42.4702C169.768 42.1482 169.285 41.9872 168.707 41.9872C168.115 41.9872 167.623 42.1482 167.23 42.4702C166.842 42.7921 166.55 43.2254 166.356 43.7699C166.167 44.3097 166.072 44.9134 166.072 45.581C166.072 46.2438 166.167 46.8452 166.356 47.3849C166.55 47.9247 166.842 48.3556 167.23 48.6776C167.623 48.9948 168.115 49.1534 168.707 49.1534ZM185.112 51.1918C184.254 51.1918 183.487 50.9716 182.81 50.5312C182.133 50.0909 181.598 49.4517 181.205 48.6136C180.812 47.7756 180.616 46.7576 180.616 45.5597C180.616 44.3475 180.815 43.3248 181.212 42.4915C181.615 41.6534 182.157 41.0213 182.839 40.5952C183.521 40.1643 184.281 39.9489 185.119 39.9489C185.758 39.9489 186.283 40.0578 186.695 40.2756C187.107 40.4886 187.434 40.7467 187.675 41.0497C187.917 41.348 188.104 41.6297 188.237 41.8949H188.343V36.4545H190.921V51H188.393V49.2812H188.237C188.104 49.5464 187.912 49.8281 187.661 50.1264C187.41 50.42 187.079 50.6709 186.667 50.8793C186.255 51.0876 185.737 51.1918 185.112 51.1918ZM185.829 49.0824C186.373 49.0824 186.837 48.9356 187.221 48.642C187.604 48.3437 187.896 47.9295 188.094 47.3991C188.293 46.8688 188.393 46.2509 188.393 45.5455C188.393 44.84 188.293 44.2268 188.094 43.706C187.9 43.1851 187.612 42.7803 187.228 42.4915C186.849 42.2027 186.383 42.0582 185.829 42.0582C185.256 42.0582 184.778 42.2074 184.394 42.5057C184.011 42.804 183.722 43.2159 183.528 43.7415C183.334 44.267 183.237 44.8684 183.237 45.5455C183.237 46.2273 183.334 46.8357 183.528 47.3707C183.727 47.901 184.018 48.3201 184.401 48.6278C184.79 48.9309 185.265 49.0824 185.829 49.0824ZM198.49 51.2131C197.397 51.2131 196.452 50.9858 195.657 50.5312C194.866 50.072 194.257 49.4233 193.831 48.5852C193.405 47.7424 193.192 46.7505 193.192 45.6094C193.192 44.4872 193.405 43.5024 193.831 42.6548C194.262 41.8026 194.864 41.1397 195.635 40.6662C196.407 40.188 197.314 39.9489 198.355 39.9489C199.028 39.9489 199.662 40.0578 200.259 40.2756C200.86 40.4886 201.391 40.8201 201.85 41.2699C202.314 41.7197 202.678 42.2926 202.944 42.9886C203.209 43.6799 203.341 44.5038 203.341 45.4602V46.2486H194.4V44.5156H200.877C200.872 44.0232 200.766 43.5852 200.557 43.2017C200.349 42.8134 200.058 42.508 199.684 42.2855C199.314 42.063 198.883 41.9517 198.391 41.9517C197.865 41.9517 197.404 42.0795 197.006 42.3352C196.608 42.5862 196.298 42.9176 196.076 43.3295C195.858 43.7367 195.747 44.1842 195.742 44.6719V46.1847C195.742 46.8191 195.858 47.3636 196.09 47.8182C196.322 48.268 196.646 48.6136 197.063 48.8551C197.48 49.0919 197.967 49.2102 198.526 49.2102C198.9 49.2102 199.239 49.1581 199.542 49.054C199.845 48.9451 200.107 48.7865 200.33 48.5781C200.552 48.3698 200.721 48.1117 200.834 47.804L203.235 48.0739C203.083 48.7083 202.794 49.2623 202.368 49.7358C201.947 50.2045 201.407 50.5691 200.749 50.8295C200.091 51.0852 199.338 51.2131 198.49 51.2131ZM223.588 43.7273C223.588 45.2945 223.295 46.6368 222.707 47.7543C222.125 48.867 221.33 49.7192 220.321 50.3111C219.317 50.9029 218.179 51.1989 216.905 51.1989C215.631 51.1989 214.49 50.9029 213.482 50.3111C212.478 49.7145 211.682 48.8598 211.095 47.7472C210.513 46.6297 210.222 45.2898 210.222 43.7273C210.222 42.16 210.513 40.8201 211.095 39.7074C211.682 38.59 212.478 37.7353 213.482 37.1435C214.49 36.5516 215.631 36.2557 216.905 36.2557C218.179 36.2557 219.317 36.5516 220.321 37.1435C221.33 37.7353 222.125 38.59 222.707 39.7074C223.295 40.8201 223.588 42.16 223.588 43.7273ZM220.939 43.7273C220.939 42.6241 220.766 41.6937 220.42 40.9361C220.08 40.1738 219.606 39.5985 219 39.2102C218.394 38.8172 217.696 38.6207 216.905 38.6207C216.114 38.6207 215.416 38.8172 214.81 39.2102C214.204 39.5985 213.728 40.1738 213.382 40.9361C213.041 41.6937 212.871 42.6241 212.871 43.7273C212.871 44.8305 213.041 45.7633 213.382 46.5256C213.728 47.2831 214.204 47.8584 214.81 48.2514C215.416 48.6397 216.114 48.8338 216.905 48.8338C217.696 48.8338 218.394 48.6397 219 48.2514C219.606 47.8584 220.08 47.2831 220.42 46.5256C220.766 45.7633 220.939 44.8305 220.939 43.7273ZM228.068 40.0909L230.27 44.1179L232.507 40.0909H235.227L231.939 45.5455L235.284 51H232.578L230.27 47.0724L227.983 51H225.255L228.579 45.5455L225.341 40.0909H228.068ZM237.216 51V40.0909H239.787V51H237.216ZM238.508 38.5426C238.101 38.5426 237.751 38.4077 237.457 38.1378C237.163 37.8632 237.017 37.5341 237.017 37.1506C237.017 36.7623 237.163 36.4332 237.457 36.1634C237.751 35.8887 238.101 35.7514 238.508 35.7514C238.92 35.7514 239.27 35.8887 239.559 36.1634C239.853 36.4332 240 36.7623 240 37.1506C240 37.5341 239.853 37.8632 239.559 38.1378C239.27 38.4077 238.92 38.5426 238.508 38.5426ZM247.175 55.3182C246.251 55.3182 245.458 55.1927 244.795 54.9418C244.133 54.6955 243.6 54.3641 243.197 53.9474C242.795 53.5308 242.516 53.0691 242.359 52.5625L244.675 52.0014C244.779 52.2145 244.93 52.4252 245.129 52.6335C245.328 52.8466 245.596 53.0218 245.932 53.1591C246.273 53.3011 246.701 53.3722 247.217 53.3722C247.946 53.3722 248.55 53.1946 249.028 52.8395C249.507 52.4891 249.746 51.9115 249.746 51.1065V49.0398H249.618C249.485 49.3049 249.291 49.5772 249.036 49.8565C248.785 50.1359 248.451 50.3703 248.034 50.5597C247.622 50.7491 247.104 50.8438 246.479 50.8438C245.641 50.8438 244.881 50.6473 244.199 50.2543C243.522 49.8565 242.982 49.2647 242.58 48.4787C242.182 47.688 241.983 46.6984 241.983 45.5099C241.983 44.312 242.182 43.3011 242.58 42.4773C242.982 41.6487 243.524 41.0213 244.206 40.5952C244.888 40.1643 245.648 39.9489 246.486 39.9489C247.125 39.9489 247.651 40.0578 248.062 40.2756C248.479 40.4886 248.811 40.7467 249.057 41.0497C249.303 41.348 249.49 41.6297 249.618 41.8949H249.76V40.0909H252.295V51.1776C252.295 52.1103 252.073 52.8821 251.628 53.4929C251.183 54.1037 250.574 54.5606 249.803 54.8636C249.031 55.1667 248.155 55.3182 247.175 55.3182ZM247.196 48.8267C247.741 48.8267 248.205 48.6941 248.588 48.429C248.972 48.1638 249.263 47.7827 249.462 47.2855C249.661 46.7884 249.76 46.1918 249.76 45.4957C249.76 44.8092 249.661 44.2079 249.462 43.6918C249.268 43.1757 248.979 42.7756 248.595 42.4915C248.216 42.2027 247.75 42.0582 247.196 42.0582C246.623 42.0582 246.145 42.2074 245.761 42.5057C245.378 42.804 245.089 43.2135 244.895 43.7344C244.701 44.2505 244.604 44.8376 244.604 45.4957C244.604 46.1634 244.701 46.7481 244.895 47.25C245.094 47.7472 245.385 48.1354 245.768 48.4148C246.157 48.6894 246.633 48.8267 247.196 48.8267ZM259.76 51.2131C258.666 51.2131 257.722 50.9858 256.926 50.5312C256.135 50.072 255.527 49.4233 255.101 48.5852C254.675 47.7424 254.462 46.7505 254.462 45.6094C254.462 44.4872 254.675 43.5024 255.101 42.6548C255.532 41.8026 256.133 41.1397 256.905 40.6662C257.677 40.188 258.583 39.9489 259.625 39.9489C260.297 39.9489 260.932 40.0578 261.528 40.2756C262.13 40.4886 262.66 40.8201 263.119 41.2699C263.583 41.7197 263.948 42.2926 264.213 42.9886C264.478 43.6799 264.611 44.5038 264.611 45.4602V46.2486H255.669V44.5156H262.146C262.142 44.0232 262.035 43.5852 261.827 43.2017C261.618 42.8134 261.327 42.508 260.953 42.2855C260.584 42.063 260.153 41.9517 259.661 41.9517C259.135 41.9517 258.673 42.0795 258.276 42.3352C257.878 42.5862 257.568 42.9176 257.345 43.3295C257.127 43.7367 257.016 44.1842 257.011 44.6719V46.1847C257.011 46.8191 257.127 47.3636 257.359 47.8182C257.591 48.268 257.916 48.6136 258.332 48.8551C258.749 49.0919 259.237 49.2102 259.795 49.2102C260.17 49.2102 260.508 49.1581 260.811 49.054C261.114 48.9451 261.377 48.7865 261.599 48.5781C261.822 48.3698 261.99 48.1117 262.104 47.804L264.504 48.0739C264.353 48.7083 264.064 49.2623 263.638 49.7358C263.216 50.2045 262.677 50.5691 262.018 50.8295C261.36 51.0852 260.607 51.2131 259.76 51.2131ZM260.996 38.7841L259.554 36.9659L258.112 38.7841H255.861V38.6847L258.553 35.6165H260.562L263.247 38.6847V38.7841H260.996ZM269.357 44.608V51H266.786V40.0909H269.243V41.9446H269.371C269.622 41.3338 270.022 40.8485 270.571 40.4886C271.125 40.1288 271.81 39.9489 272.624 39.9489C273.377 39.9489 274.033 40.1098 274.591 40.4318C275.155 40.7538 275.59 41.2202 275.898 41.831C276.211 42.4418 276.364 43.1828 276.36 44.054V51H273.789V44.4517C273.789 43.7225 273.599 43.152 273.221 42.7401C272.846 42.3281 272.328 42.1222 271.665 42.1222C271.215 42.1222 270.815 42.2216 270.465 42.4205C270.119 42.6146 269.847 42.8963 269.648 43.2656C269.454 43.6349 269.357 44.0824 269.357 44.608ZM278.973 51V40.0909H281.544V51H278.973ZM280.266 38.5426C279.859 38.5426 279.508 38.4077 279.215 38.1378C278.921 37.8632 278.775 37.5341 278.775 37.1506C278.775 36.7623 278.921 36.4332 279.215 36.1634C279.508 35.8887 279.859 35.7514 280.266 35.7514C280.678 35.7514 281.028 35.8887 281.317 36.1634C281.611 36.4332 281.757 36.7623 281.757 37.1506C281.757 37.5341 281.611 37.8632 281.317 38.1378C281.028 38.4077 280.678 38.5426 280.266 38.5426ZM288.947 51.2131C287.881 51.2131 286.958 50.9787 286.177 50.5099C285.396 50.0412 284.79 49.3854 284.359 48.5426C283.933 47.6998 283.719 46.715 283.719 45.5881C283.719 44.4612 283.933 43.474 284.359 42.6264C284.79 41.7789 285.396 41.1207 286.177 40.652C286.958 40.1832 287.881 39.9489 288.947 39.9489C290.012 39.9489 290.935 40.1832 291.717 40.652C292.498 41.1207 293.102 41.7789 293.528 42.6264C293.959 43.474 294.174 44.4612 294.174 45.5881C294.174 46.715 293.959 47.6998 293.528 48.5426C293.102 49.3854 292.498 50.0412 291.717 50.5099C290.935 50.9787 290.012 51.2131 288.947 51.2131ZM288.961 49.1534C289.539 49.1534 290.022 48.9948 290.41 48.6776C290.798 48.3556 291.087 47.9247 291.276 47.3849C291.47 46.8452 291.567 46.2438 291.567 45.581C291.567 44.9134 291.47 44.3097 291.276 43.7699C291.087 43.2254 290.798 42.7921 290.41 42.4702C290.022 42.1482 289.539 41.9872 288.961 41.9872C288.369 41.9872 287.877 42.1482 287.484 42.4702C287.095 42.7921 286.804 43.2254 286.61 43.7699C286.421 44.3097 286.326 44.9134 286.326 45.581C286.326 46.2438 286.421 46.8452 286.61 47.3849C286.804 47.9247 287.095 48.3556 287.484 48.6776C287.877 48.9948 288.369 49.1534 288.961 49.1534ZM306.36 51H301.431V36.4545H306.459C307.903 36.4545 309.144 36.7457 310.181 37.3281C311.222 37.9058 312.023 38.7367 312.581 39.821C313.14 40.9053 313.419 42.2027 313.419 43.7131C313.419 45.2282 313.138 46.5303 312.574 47.6193C312.016 48.7083 311.208 49.544 310.152 50.1264C309.101 50.7088 307.837 51 306.36 51ZM304.066 48.7202H306.232C307.245 48.7202 308.09 48.5355 308.767 48.1662C309.444 47.7921 309.953 47.2358 310.294 46.4972C310.635 45.7538 310.806 44.8258 310.806 43.7131C310.806 42.6004 310.635 41.6771 310.294 40.9432C309.953 40.2045 309.449 39.6529 308.782 39.2884C308.119 38.919 307.295 38.7344 306.31 38.7344H304.066V48.7202ZM315.809 51V40.0909H318.38V51H315.809ZM317.102 38.5426C316.695 38.5426 316.344 38.4077 316.051 38.1378C315.757 37.8632 315.61 37.5341 315.61 37.1506C315.61 36.7623 315.757 36.4332 316.051 36.1634C316.344 35.8887 316.695 35.7514 317.102 35.7514C317.514 35.7514 317.864 35.8887 318.153 36.1634C318.447 36.4332 318.593 36.7623 318.593 37.1506C318.593 37.5341 318.447 37.8632 318.153 38.1378C317.864 38.4077 317.514 38.5426 317.102 38.5426ZM329.646 42.9744L327.303 43.2301C327.236 42.9934 327.12 42.7708 326.955 42.5625C326.794 42.3542 326.576 42.1861 326.301 42.0582C326.027 41.9304 325.69 41.8665 325.293 41.8665C324.758 41.8665 324.308 41.9825 323.943 42.2145C323.583 42.4465 323.406 42.7472 323.411 43.1165C323.406 43.4337 323.522 43.6918 323.759 43.8906C324 44.0895 324.398 44.2528 324.952 44.3807L326.812 44.7784C327.845 45.0009 328.612 45.3537 329.114 45.8366C329.62 46.3196 329.876 46.9517 329.881 47.733C329.876 48.4195 329.675 49.0256 329.277 49.5511C328.884 50.072 328.337 50.4792 327.636 50.7727C326.936 51.0663 326.131 51.2131 325.222 51.2131C323.886 51.2131 322.812 50.9337 321.997 50.375C321.183 49.8116 320.697 49.0279 320.541 48.0241L323.048 47.7827C323.162 48.2751 323.403 48.6468 323.773 48.8977C324.142 49.1487 324.623 49.2741 325.214 49.2741C325.825 49.2741 326.315 49.1487 326.685 48.8977C327.059 48.6468 327.246 48.3366 327.246 47.9673C327.246 47.6548 327.125 47.3968 326.884 47.1932C326.647 46.9896 326.277 46.8333 325.776 46.7244L323.915 46.3338C322.868 46.116 322.094 45.7491 321.592 45.233C321.09 44.7121 320.842 44.054 320.847 43.2585C320.842 42.5862 321.024 42.0038 321.393 41.5114C321.768 41.0142 322.286 40.6307 322.949 40.3608C323.616 40.0862 324.386 39.9489 325.257 39.9489C326.536 39.9489 327.542 40.2211 328.276 40.7656C329.014 41.3101 329.471 42.0464 329.646 42.9744ZM340.623 42.9744L338.279 43.2301C338.213 42.9934 338.097 42.7708 337.931 42.5625C337.77 42.3542 337.552 42.1861 337.278 42.0582C337.003 41.9304 336.667 41.8665 336.269 41.8665C335.734 41.8665 335.284 41.9825 334.92 42.2145C334.56 42.4465 334.382 42.7472 334.387 43.1165C334.382 43.4337 334.498 43.6918 334.735 43.8906C334.977 44.0895 335.374 44.2528 335.928 44.3807L337.789 44.7784C338.821 45.0009 339.588 45.3537 340.09 45.8366C340.597 46.3196 340.853 46.9517 340.857 47.733C340.853 48.4195 340.651 49.0256 340.254 49.5511C339.861 50.072 339.314 50.4792 338.613 50.7727C337.912 51.0663 337.107 51.2131 336.198 51.2131C334.863 51.2131 333.788 50.9337 332.974 50.375C332.159 49.8116 331.674 49.0279 331.518 48.0241L334.025 47.7827C334.138 48.2751 334.38 48.6468 334.749 48.8977C335.119 49.1487 335.599 49.2741 336.191 49.2741C336.802 49.2741 337.292 49.1487 337.661 48.8977C338.035 48.6468 338.222 48.3366 338.222 47.9673C338.222 47.6548 338.102 47.3968 337.86 47.1932C337.623 46.9896 337.254 46.8333 336.752 46.7244L334.891 46.3338C333.845 46.116 333.071 45.7491 332.569 45.233C332.067 44.7121 331.818 44.054 331.823 43.2585C331.818 42.5862 332.001 42.0038 332.37 41.5114C332.744 41.0142 333.263 40.6307 333.925 40.3608C334.593 40.0862 335.362 39.9489 336.234 39.9489C337.512 39.9489 338.518 40.2211 339.252 40.7656C339.991 41.3101 340.448 42.0464 340.623 42.9744ZM347.736 51.2131C346.67 51.2131 345.747 50.9787 344.966 50.5099C344.185 50.0412 343.579 49.3854 343.148 48.5426C342.722 47.6998 342.509 46.715 342.509 45.5881C342.509 44.4612 342.722 43.474 343.148 42.6264C343.579 41.7789 344.185 41.1207 344.966 40.652C345.747 40.1832 346.67 39.9489 347.736 39.9489C348.801 39.9489 349.724 40.1832 350.506 40.652C351.287 41.1207 351.891 41.7789 352.317 42.6264C352.748 43.474 352.963 44.4612 352.963 45.5881C352.963 46.715 352.748 47.6998 352.317 48.5426C351.891 49.3854 351.287 50.0412 350.506 50.5099C349.724 50.9787 348.801 51.2131 347.736 51.2131ZM347.75 49.1534C348.328 49.1534 348.811 48.9948 349.199 48.6776C349.587 48.3556 349.876 47.9247 350.065 47.3849C350.259 46.8452 350.357 46.2438 350.357 45.581C350.357 44.9134 350.259 44.3097 350.065 43.7699C349.876 43.2254 349.587 42.7921 349.199 42.4702C348.811 42.1482 348.328 41.9872 347.75 41.9872C347.158 41.9872 346.666 42.1482 346.273 42.4702C345.884 42.7921 345.593 43.2254 345.399 43.7699C345.21 44.3097 345.115 44.9134 345.115 45.581C345.115 46.2438 345.21 46.8452 345.399 47.3849C345.593 47.9247 345.884 48.3556 346.273 48.6776C346.666 48.9948 347.158 49.1534 347.75 49.1534ZM357.716 36.4545V51H355.145V36.4545H357.716ZM370.104 40.0909L366.219 51H363.379L359.494 40.0909H362.235L364.742 48.1946H364.856L367.37 40.0909H370.104ZM371.884 51V40.0909H374.455V51H371.884ZM373.176 38.5426C372.769 38.5426 372.419 38.4077 372.125 38.1378C371.831 37.8632 371.685 37.5341 371.685 37.1506C371.685 36.7623 371.831 36.4332 372.125 36.1634C372.419 35.8887 372.769 35.7514 373.176 35.7514C373.588 35.7514 373.938 35.8887 374.227 36.1634C374.521 36.4332 374.668 36.7623 374.668 37.1506C374.668 37.5341 374.521 37.8632 374.227 38.1378C373.938 38.4077 373.588 38.5426 373.176 38.5426ZM381.147 51.1918C380.29 51.1918 379.523 50.9716 378.846 50.5312C378.168 50.0909 377.633 49.4517 377.24 48.6136C376.847 47.7756 376.651 46.7576 376.651 45.5597C376.651 44.3475 376.85 43.3248 377.248 42.4915C377.65 41.6534 378.192 41.0213 378.874 40.5952C379.556 40.1643 380.316 39.9489 381.154 39.9489C381.793 39.9489 382.319 40.0578 382.73 40.2756C383.142 40.4886 383.469 40.7467 383.711 41.0497C383.952 41.348 384.139 41.6297 384.272 41.8949H384.378V36.4545H386.956V51H384.428V49.2812H384.272C384.139 49.5464 383.947 49.8281 383.696 50.1264C383.445 50.42 383.114 50.6709 382.702 50.8793C382.29 51.0876 381.772 51.1918 381.147 51.1918ZM381.864 49.0824C382.408 49.0824 382.873 48.9356 383.256 48.642C383.64 48.3437 383.931 47.9295 384.13 47.3991C384.328 46.8688 384.428 46.2509 384.428 45.5455C384.428 44.84 384.328 44.2268 384.13 43.706C383.935 43.1851 383.647 42.7803 383.263 42.4915C382.884 42.2027 382.418 42.0582 381.864 42.0582C381.291 42.0582 380.813 42.2074 380.429 42.5057C380.046 42.804 379.757 43.2159 379.563 43.7415C379.369 44.267 379.272 44.8684 379.272 45.5455C379.272 46.2273 379.369 46.8357 379.563 47.3707C379.762 47.901 380.053 48.3201 380.436 48.6278C380.825 48.9309 381.301 49.0824 381.864 49.0824ZM394.455 51.2131C393.389 51.2131 392.466 50.9787 391.685 50.5099C390.903 50.0412 390.297 49.3854 389.866 48.5426C389.44 47.6998 389.227 46.715 389.227 45.5881C389.227 44.4612 389.44 43.474 389.866 42.6264C390.297 41.7789 390.903 41.1207 391.685 40.652C392.466 40.1832 393.389 39.9489 394.455 39.9489C395.52 39.9489 396.443 40.1832 397.224 40.652C398.006 41.1207 398.609 41.7789 399.036 42.6264C399.466 43.474 399.682 44.4612 399.682 45.5881C399.682 46.715 399.466 47.6998 399.036 48.5426C398.609 49.3854 398.006 50.0412 397.224 50.5099C396.443 50.9787 395.52 51.2131 394.455 51.2131ZM394.469 49.1534C395.046 49.1534 395.529 48.9948 395.918 48.6776C396.306 48.3556 396.595 47.9247 396.784 47.3849C396.978 46.8452 397.075 46.2438 397.075 45.581C397.075 44.9134 396.978 44.3097 396.784 43.7699C396.595 43.2254 396.306 42.7921 395.918 42.4702C395.529 42.1482 395.046 41.9872 394.469 41.9872C393.877 41.9872 393.384 42.1482 392.991 42.4702C392.603 42.7921 392.312 43.2254 392.118 43.7699C391.929 44.3097 391.834 44.9134 391.834 45.581C391.834 46.2438 391.929 46.8452 392.118 47.3849C392.312 47.9247 392.603 48.3556 392.991 48.6776C393.384 48.9948 393.877 49.1534 394.469 49.1534ZM407.464 43.7273C407.464 41.9517 407.699 40.3205 408.167 38.8338C408.641 37.3423 409.344 35.9645 410.277 34.7003H412.699C412.339 35.169 412.002 35.7443 411.69 36.4261C411.377 37.1032 411.105 37.8466 410.873 38.6562C410.646 39.4612 410.466 40.2969 410.333 41.1634C410.206 42.0298 410.142 42.8845 410.142 43.7273C410.142 44.8494 410.253 45.9858 410.475 47.1364C410.703 48.2869 411.008 49.3546 411.392 50.3395C411.78 51.3196 412.216 52.1222 412.699 52.7472H410.277C409.344 51.483 408.641 50.1075 408.167 48.6207C407.699 47.1293 407.464 45.4981 407.464 43.7273ZM419.739 51H414.81V36.4545H419.838C421.282 36.4545 422.523 36.7457 423.56 37.3281C424.601 37.9058 425.402 38.7367 425.96 39.821C426.519 40.9053 426.798 42.2027 426.798 43.7131C426.798 45.2282 426.517 46.5303 425.953 47.6193C425.394 48.7083 424.587 49.544 423.531 50.1264C422.48 50.7088 421.216 51 419.739 51ZM417.445 48.7202H419.611C420.624 48.7202 421.469 48.5355 422.146 48.1662C422.823 47.7921 423.332 47.2358 423.673 46.4972C424.014 45.7538 424.185 44.8258 424.185 43.7131C424.185 42.6004 424.014 41.6771 423.673 40.9432C423.332 40.2045 422.828 39.6529 422.161 39.2884C421.498 38.919 420.674 38.7344 419.689 38.7344H417.445V48.7202ZM442.299 43.7273C442.299 45.2945 442.005 46.6368 441.418 47.7543C440.836 48.867 440.04 49.7192 439.032 50.3111C438.028 50.9029 436.889 51.1989 435.616 51.1989C434.342 51.1989 433.201 50.9029 432.192 50.3111C431.189 49.7145 430.393 48.8598 429.806 47.7472C429.224 46.6297 428.933 45.2898 428.933 43.7273C428.933 42.16 429.224 40.8201 429.806 39.7074C430.393 38.59 431.189 37.7353 432.192 37.1435C433.201 36.5516 434.342 36.2557 435.616 36.2557C436.889 36.2557 438.028 36.5516 439.032 37.1435C440.04 37.7353 440.836 38.59 441.418 39.7074C442.005 40.8201 442.299 42.16 442.299 43.7273ZM439.65 43.7273C439.65 42.6241 439.477 41.6937 439.131 40.9361C438.79 40.1738 438.317 39.5985 437.711 39.2102C437.105 38.8172 436.406 38.6207 435.616 38.6207C434.825 38.6207 434.127 38.8172 433.521 39.2102C432.915 39.5985 432.439 40.1738 432.093 40.9361C431.752 41.6937 431.582 42.6241 431.582 43.7273C431.582 44.8305 431.752 45.7633 432.093 46.5256C432.439 47.2831 432.915 47.8584 433.521 48.2514C434.127 48.6397 434.825 48.8338 435.616 48.8338C436.406 48.8338 437.105 48.6397 437.711 48.2514C438.317 47.8584 438.79 47.2831 439.131 46.5256C439.477 45.7633 439.65 44.8305 439.65 43.7273ZM449.265 43.7273C449.265 45.4981 449.028 47.1293 448.554 48.6207C448.086 50.1075 447.385 51.483 446.452 52.7472H444.03C444.395 52.2784 444.731 51.7055 445.039 51.0284C445.351 50.3513 445.621 49.608 445.848 48.7983C446.08 47.9886 446.26 47.1506 446.388 46.2841C446.521 45.4176 446.587 44.5653 446.587 43.7273C446.587 42.6051 446.473 41.4687 446.246 40.3182C446.024 39.1676 445.718 38.0999 445.33 37.1151C444.946 36.1302 444.513 35.3253 444.03 34.7003H446.452C447.385 35.9645 448.086 37.3423 448.554 38.8338C449.028 40.3205 449.265 41.9517 449.265 43.7273Z" fill="white"/>
<path d="M212.756 424.663V422.455H224.362V424.663H219.866V437H217.252V424.663H212.756ZM229.733 437.213C228.639 437.213 227.694 436.986 226.899 436.531C226.108 436.072 225.5 435.423 225.074 434.585C224.647 433.742 224.434 432.75 224.434 431.609C224.434 430.487 224.647 429.502 225.074 428.655C225.504 427.803 226.106 427.14 226.877 426.666C227.649 426.188 228.556 425.949 229.598 425.949C230.27 425.949 230.904 426.058 231.501 426.276C232.102 426.489 232.633 426.82 233.092 427.27C233.556 427.72 233.921 428.293 234.186 428.989C234.451 429.68 234.583 430.504 234.583 431.46V432.249H225.642V430.516H232.119C232.114 430.023 232.008 429.585 231.799 429.202C231.591 428.813 231.3 428.508 230.926 428.286C230.556 428.063 230.126 427.952 229.633 427.952C229.108 427.952 228.646 428.08 228.248 428.335C227.85 428.586 227.54 428.918 227.318 429.33C227.1 429.737 226.989 430.184 226.984 430.672V432.185C226.984 432.819 227.1 433.364 227.332 433.818C227.564 434.268 227.888 434.614 228.305 434.855C228.722 435.092 229.209 435.21 229.768 435.21C230.142 435.21 230.481 435.158 230.784 435.054C231.087 434.945 231.35 434.786 231.572 434.578C231.795 434.37 231.963 434.112 232.076 433.804L234.477 434.074C234.325 434.708 234.037 435.262 233.61 435.736C233.189 436.205 232.649 436.569 231.991 436.83C231.333 437.085 230.58 437.213 229.733 437.213ZM236.759 437V426.091H239.216V427.945H239.344C239.571 427.32 239.947 426.832 240.473 426.482C240.999 426.126 241.626 425.949 242.355 425.949C243.094 425.949 243.716 426.129 244.223 426.489C244.734 426.844 245.094 427.329 245.303 427.945H245.416C245.658 427.339 246.065 426.856 246.638 426.496C247.215 426.131 247.9 425.949 248.69 425.949C249.694 425.949 250.513 426.266 251.148 426.901C251.782 427.535 252.099 428.461 252.099 429.678V437H249.521V430.075C249.521 429.398 249.341 428.903 248.982 428.591C248.622 428.274 248.181 428.115 247.661 428.115C247.04 428.115 246.555 428.309 246.205 428.697C245.859 429.081 245.686 429.58 245.686 430.196V437H243.165V429.969C243.165 429.405 242.994 428.955 242.653 428.619C242.317 428.283 241.877 428.115 241.332 428.115C240.963 428.115 240.627 428.21 240.324 428.399C240.021 428.584 239.779 428.847 239.599 429.188C239.42 429.524 239.33 429.917 239.33 430.366V437H236.759ZM254.708 441.091V426.091H257.236V427.895H257.385C257.518 427.63 257.705 427.348 257.946 427.05C258.188 426.747 258.515 426.489 258.926 426.276C259.338 426.058 259.864 425.949 260.503 425.949C261.346 425.949 262.106 426.164 262.783 426.595C263.465 427.021 264.005 427.653 264.402 428.491C264.805 429.325 265.006 430.348 265.006 431.56C265.006 432.758 264.81 433.776 264.417 434.614C264.024 435.452 263.489 436.091 262.811 436.531C262.134 436.972 261.367 437.192 260.51 437.192C259.885 437.192 259.367 437.088 258.955 436.879C258.543 436.671 258.212 436.42 257.961 436.126C257.714 435.828 257.523 435.546 257.385 435.281H257.279V441.091H254.708ZM257.229 431.545C257.229 432.251 257.328 432.869 257.527 433.399C257.731 433.929 258.022 434.344 258.401 434.642C258.784 434.936 259.248 435.082 259.793 435.082C260.361 435.082 260.837 434.931 261.221 434.628C261.604 434.32 261.893 433.901 262.087 433.371C262.286 432.836 262.385 432.227 262.385 431.545C262.385 430.868 262.288 430.267 262.094 429.741C261.9 429.216 261.611 428.804 261.228 428.506C260.844 428.207 260.366 428.058 259.793 428.058C259.244 428.058 258.777 428.203 258.394 428.491C258.01 428.78 257.719 429.185 257.52 429.706C257.326 430.227 257.229 430.84 257.229 431.545ZM271.966 437.213C270.901 437.213 269.978 436.979 269.196 436.51C268.415 436.041 267.809 435.385 267.378 434.543C266.952 433.7 266.739 432.715 266.739 431.588C266.739 430.461 266.952 429.474 267.378 428.626C267.809 427.779 268.415 427.121 269.196 426.652C269.978 426.183 270.901 425.949 271.966 425.949C273.032 425.949 273.955 426.183 274.736 426.652C275.517 427.121 276.121 427.779 276.547 428.626C276.978 429.474 277.194 430.461 277.194 431.588C277.194 432.715 276.978 433.7 276.547 434.543C276.121 435.385 275.517 436.041 274.736 436.51C273.955 436.979 273.032 437.213 271.966 437.213ZM271.98 435.153C272.558 435.153 273.041 434.995 273.429 434.678C273.818 434.356 274.106 433.925 274.296 433.385C274.49 432.845 274.587 432.244 274.587 431.581C274.587 430.913 274.49 430.31 274.296 429.77C274.106 429.225 273.818 428.792 273.429 428.47C273.041 428.148 272.558 427.987 271.98 427.987C271.389 427.987 270.896 428.148 270.503 428.47C270.115 428.792 269.824 429.225 269.63 429.77C269.44 430.31 269.346 430.913 269.346 431.581C269.346 432.244 269.44 432.845 269.63 433.385C269.824 433.925 270.115 434.356 270.503 434.678C270.896 434.995 271.389 435.153 271.98 435.153Z" fill="white"/>
<path d="M217.989 460.455C217.989 461.865 217.724 463.073 217.196 464.079C216.672 465.08 215.956 465.847 215.048 466.38C214.145 466.913 213.12 467.179 211.974 467.179C210.827 467.179 209.8 466.913 208.893 466.38C207.989 465.843 207.273 465.074 206.745 464.072C206.221 463.067 205.959 461.861 205.959 460.455C205.959 459.044 206.221 457.838 206.745 456.837C207.273 455.831 207.989 455.062 208.893 454.529C209.8 453.996 210.827 453.73 211.974 453.73C213.12 453.73 214.145 453.996 215.048 454.529C215.956 455.062 216.672 455.831 217.196 456.837C217.724 457.838 217.989 459.044 217.989 460.455ZM215.604 460.455C215.604 459.462 215.449 458.624 215.138 457.942C214.831 457.256 214.405 456.739 213.859 456.389C213.314 456.036 212.685 455.859 211.974 455.859C211.262 455.859 210.634 456.036 210.088 456.389C209.543 456.739 209.114 457.256 208.803 457.942C208.496 458.624 208.343 459.462 208.343 460.455C208.343 461.447 208.496 462.287 208.803 462.973C209.114 463.655 209.543 464.173 210.088 464.526C210.634 464.876 211.262 465.05 211.974 465.05C212.685 465.05 213.314 464.876 213.859 464.526C214.405 464.173 214.831 463.655 215.138 462.973C215.449 462.287 215.604 461.447 215.604 460.455ZM222.02 457.182L224.002 460.806L226.015 457.182H228.464L225.504 462.091L228.515 467H226.079L224.002 463.465L221.944 467H219.489L222.481 462.091L219.566 457.182H222.02ZM230.253 467V457.182H232.567V467H230.253ZM231.417 455.788C231.05 455.788 230.735 455.667 230.471 455.424C230.206 455.177 230.074 454.881 230.074 454.536C230.074 454.186 230.206 453.89 230.471 453.647C230.735 453.4 231.05 453.276 231.417 453.276C231.787 453.276 232.103 453.4 232.363 453.647C232.627 453.89 232.759 454.186 232.759 454.536C232.759 454.881 232.627 455.177 232.363 455.424C232.103 455.667 231.787 455.788 231.417 455.788ZM239.217 470.886C238.386 470.886 237.672 470.773 237.075 470.548C236.479 470.326 235.999 470.028 235.637 469.653C235.275 469.278 235.023 468.862 234.883 468.406L236.967 467.901C237.06 468.093 237.197 468.283 237.376 468.47C237.555 468.662 237.795 468.82 238.098 468.943C238.405 469.071 238.79 469.135 239.255 469.135C239.911 469.135 240.455 468.975 240.885 468.656C241.315 468.34 241.531 467.82 241.531 467.096V465.236H241.415C241.296 465.474 241.121 465.719 240.891 465.971C240.665 466.222 240.365 466.433 239.99 466.604C239.619 466.774 239.153 466.859 238.59 466.859C237.836 466.859 237.152 466.683 236.538 466.329C235.929 465.971 235.443 465.438 235.081 464.731C234.723 464.019 234.544 463.129 234.544 462.059C234.544 460.981 234.723 460.071 235.081 459.33C235.443 458.584 235.931 458.019 236.545 457.636C237.158 457.248 237.842 457.054 238.597 457.054C239.172 457.054 239.645 457.152 240.016 457.348C240.391 457.54 240.689 457.772 240.911 458.045C241.132 458.313 241.3 458.567 241.415 458.805H241.543V457.182H243.825V467.16C243.825 467.999 243.625 468.694 243.224 469.244C242.824 469.793 242.276 470.205 241.582 470.477C240.887 470.75 240.099 470.886 239.217 470.886ZM239.236 465.044C239.726 465.044 240.143 464.925 240.489 464.686C240.834 464.447 241.096 464.104 241.275 463.657C241.454 463.21 241.543 462.673 241.543 462.046C241.543 461.428 241.454 460.887 241.275 460.423C241.1 459.958 240.84 459.598 240.495 459.342C240.154 459.082 239.734 458.952 239.236 458.952C238.72 458.952 238.29 459.087 237.945 459.355C237.599 459.624 237.339 459.992 237.165 460.461C236.99 460.925 236.903 461.454 236.903 462.046C236.903 462.647 236.99 463.173 237.165 463.625C237.344 464.072 237.606 464.422 237.951 464.673C238.3 464.92 238.729 465.044 239.236 465.044ZM250.543 467.192C249.559 467.192 248.709 466.987 247.993 466.578C247.281 466.165 246.734 465.581 246.35 464.827C245.967 464.068 245.775 463.175 245.775 462.148C245.775 461.138 245.967 460.252 246.35 459.489C246.738 458.722 247.279 458.126 247.974 457.7C248.668 457.269 249.484 457.054 250.422 457.054C251.027 457.054 251.598 457.152 252.135 457.348C252.676 457.54 253.153 457.838 253.567 458.243C253.984 458.648 254.313 459.163 254.551 459.79C254.79 460.412 254.909 461.153 254.909 462.014V462.724H246.862V461.164H252.691C252.687 460.721 252.591 460.327 252.403 459.982C252.216 459.632 251.954 459.357 251.617 459.157C251.285 458.957 250.897 458.857 250.454 458.857C249.981 458.857 249.565 458.972 249.207 459.202C248.849 459.428 248.57 459.726 248.37 460.097C248.174 460.463 248.074 460.866 248.07 461.305V462.666C248.07 463.237 248.174 463.727 248.383 464.136C248.592 464.541 248.884 464.852 249.259 465.07C249.634 465.283 250.072 465.389 250.575 465.389C250.912 465.389 251.217 465.342 251.489 465.249C251.762 465.151 251.999 465.008 252.199 464.82C252.399 464.633 252.55 464.401 252.653 464.124L254.813 464.366C254.677 464.937 254.417 465.436 254.033 465.862C253.654 466.284 253.168 466.612 252.576 466.847C251.984 467.077 251.306 467.192 250.543 467.192ZM251.656 456.006L250.358 454.369L249.06 456.006H247.034V455.916L249.457 453.155H251.266L253.682 455.916V456.006H251.656ZM259.181 461.247V467H256.867V457.182H259.078V458.85H259.193C259.419 458.3 259.779 457.864 260.274 457.54C260.772 457.216 261.388 457.054 262.121 457.054C262.798 457.054 263.389 457.199 263.892 457.489C264.399 457.778 264.791 458.198 265.068 458.748C265.349 459.298 265.487 459.964 265.483 460.749V467H263.169V461.107C263.169 460.45 262.999 459.937 262.658 459.566C262.321 459.195 261.855 459.01 261.258 459.01C260.853 459.01 260.493 459.099 260.178 459.278C259.867 459.453 259.622 459.707 259.443 460.039C259.268 460.371 259.181 460.774 259.181 461.247ZM267.835 467V457.182H270.149V467H267.835ZM268.999 455.788C268.632 455.788 268.317 455.667 268.053 455.424C267.789 455.177 267.656 454.881 267.656 454.536C267.656 454.186 267.789 453.89 268.053 453.647C268.317 453.4 268.632 453.276 268.999 453.276C269.369 453.276 269.685 453.4 269.945 453.647C270.209 453.89 270.341 454.186 270.341 454.536C270.341 454.881 270.209 455.177 269.945 455.424C269.685 455.667 269.369 455.788 268.999 455.788ZM276.811 467.192C275.853 467.192 275.022 466.981 274.319 466.559C273.615 466.137 273.07 465.547 272.682 464.788C272.299 464.03 272.107 463.143 272.107 462.129C272.107 461.115 272.299 460.227 272.682 459.464C273.07 458.701 273.615 458.109 274.319 457.687C275.022 457.265 275.853 457.054 276.811 457.054C277.77 457.054 278.601 457.265 279.304 457.687C280.007 458.109 280.551 458.701 280.934 459.464C281.322 460.227 281.516 461.115 281.516 462.129C281.516 463.143 281.322 464.03 280.934 464.788C280.551 465.547 280.007 466.137 279.304 466.559C278.601 466.981 277.77 467.192 276.811 467.192ZM276.824 465.338C277.344 465.338 277.779 465.195 278.128 464.91C278.478 464.62 278.738 464.232 278.908 463.746C279.083 463.261 279.17 462.719 279.17 462.123C279.17 461.522 279.083 460.979 278.908 460.493C278.738 460.003 278.478 459.613 278.128 459.323C277.779 459.033 277.344 458.888 276.824 458.888C276.292 458.888 275.848 459.033 275.495 459.323C275.145 459.613 274.883 460.003 274.708 460.493C274.538 460.979 274.453 461.522 274.453 462.123C274.453 462.719 274.538 463.261 274.708 463.746C274.883 464.232 275.145 464.62 275.495 464.91C275.848 465.195 276.292 465.338 276.824 465.338Z" fill="white"/>
<path d="M84.5398 392.733C85.7934 387.264 87.8089 382.002 89.0211 376.514C90.5313 369.676 92.2456 362.944 94.0999 356.19C96.1277 348.804 98.1943 341.436 100.44 334.111C103.063 325.558 104.724 316.775 106.714 308.061C110.56 291.222 115.589 274.676 120.092 258.012C122.65 248.543 124.168 238.808 127.195 229.479C129.806 221.432 133.105 213.612 136.523 205.878C139.874 198.296 143.923 190.16 152.125 186.944C157.548 184.818 164.516 184.458 170.116 186.05C176.795 187.949 181.895 194.497 186.78 199.026C195.551 207.157 203.038 216.199 210.581 225.473C214.534 230.334 217.884 235.578 221.651 240.568C225.999 246.325 231.086 251.52 236.141 256.655C241.993 262.599 247.981 268.516 254.531 273.702C262.954 280.371 272.459 285.691 282.249 290.087C296.057 296.287 310.466 299.876 325.004 303.857C337.953 307.403 350.545 312.073 363.344 316.104C382.62 322.175 402.055 327.669 421.236 334.045" stroke="#00C6C3" stroke-width="3" stroke-linecap="round"/>
<line x1="83.3333" y1="263.396" x2="86.7221" y2="263.396" stroke="white"/>
<line x1="83.3333" y1="305.638" x2="86.7221" y2="305.638" stroke="white"/>
<line x1="83.3333" y1="349.569" x2="86.7221" y2="349.569" stroke="white"/>
<line x1="90.1086" y1="262.586" x2="434.085" y2="262.586" stroke="white" stroke-opacity="0.5" stroke-dasharray="1 1"/>
<line x1="90.1086" y1="132.483" x2="434.085" y2="132.483" stroke="white" stroke-opacity="0.5" stroke-dasharray="1 1"/>
<line x1="81.6389" y1="89.3621" x2="86.7223" y2="89.3621" stroke="white"/>
<line x1="81.6389" y1="133.293" x2="86.7223" y2="133.293" stroke="white"/>
<line x1="81.6389" y1="170.466" x2="86.7223" y2="170.466" stroke="white"/>
<line x1="81.6389" y1="216.086" x2="86.7223" y2="216.086" stroke="white"/>
<line x1="123.5" y1="395.69" x2="123.5" y2="390.621" stroke="white"/>
<line x1="165.861" y1="395.69" x2="165.861" y2="390.621" stroke="white"/>
<line x1="208.222" y1="395.69" x2="208.222" y2="390.621" stroke="white"/>
<line x1="248.889" y1="395.69" x2="248.889" y2="390.621" stroke="white"/>
<line x1="291.25" y1="395.69" x2="291.25" y2="390.621" stroke="white"/>
<line x1="333.611" y1="395.69" x2="333.611" y2="390.621" stroke="white"/>
<line x1="374.278" y1="395.69" x2="374.278" y2="390.621" stroke="white"/>
<line x1="418.333" y1="395.69" x2="418.333" y2="390.621" stroke="white"/>
<circle cx="195" cy="462" r="5" fill="#117D7C"/>
</svg>
