<svg width="505" height="504" viewBox="0 0 505 504" fill="none" xmlns="http://www.w3.org/2000/svg">
<rect x="1" y="1" width="503" height="502" rx="37" fill="#131627" stroke="black" stroke-width="2"/>
<path d="M137.179 36.0994C137.061 35.7159 136.897 35.3726 136.689 35.0696C136.485 34.7618 136.239 34.4991 135.95 34.2812C135.666 34.0634 135.339 33.9001 134.97 33.7912C134.601 33.6776 134.198 33.6207 133.763 33.6207C132.982 33.6207 132.286 33.8172 131.675 34.2102C131.064 34.6032 130.583 35.1809 130.233 35.9432C129.887 36.7008 129.714 37.6241 129.714 38.7131C129.714 39.8116 129.887 40.742 130.233 41.5043C130.579 42.2666 131.059 42.8466 131.675 43.2443C132.29 43.6373 133.005 43.8338 133.82 43.8338C134.558 43.8338 135.197 43.6918 135.737 43.4077C136.282 43.1236 136.701 42.7211 136.994 42.2003C137.288 41.6747 137.435 41.0592 137.435 40.3537L138.031 40.446H134.082V38.3864H139.984V40.1335C139.984 41.3788 139.719 42.456 139.189 43.3651C138.659 44.2741 137.929 44.9749 137.001 45.4673C136.073 45.955 135.008 46.1989 133.805 46.1989C132.465 46.1989 131.289 45.8982 130.276 45.2969C129.267 44.6908 128.479 43.8314 127.911 42.7188C127.347 41.6013 127.065 40.2756 127.065 38.7415C127.065 37.5672 127.231 36.5185 127.562 35.5952C127.899 34.6719 128.367 33.8883 128.969 33.2443C129.57 32.5956 130.276 32.1032 131.085 31.767C131.895 31.4261 132.776 31.2557 133.727 31.2557C134.532 31.2557 135.283 31.3741 135.979 31.6108C136.675 31.8428 137.293 32.1742 137.832 32.6051C138.377 33.036 138.824 33.5473 139.175 34.1392C139.525 34.7311 139.755 35.3845 139.864 36.0994H137.179ZM142.419 46V35.0909H144.912V36.9091H145.025C145.224 36.2794 145.565 35.794 146.048 35.4531C146.536 35.1075 147.092 34.9347 147.717 34.9347C147.859 34.9347 148.018 34.9418 148.193 34.956C148.373 34.9654 148.522 34.982 148.64 35.0057V37.3707C148.531 37.3329 148.359 37.2997 148.122 37.2713C147.89 37.2382 147.665 37.2216 147.447 37.2216C146.978 37.2216 146.557 37.3234 146.183 37.527C145.814 37.7259 145.522 38.0028 145.309 38.358C145.096 38.7131 144.99 39.1226 144.99 39.5866V46H142.419ZM153.292 46.2202C152.601 46.2202 151.978 46.0971 151.424 45.8509C150.875 45.5999 150.44 45.2306 150.118 44.7429C149.8 44.2552 149.642 43.6539 149.642 42.9389C149.642 42.3234 149.755 41.8144 149.983 41.4119C150.21 41.0095 150.52 40.6875 150.913 40.446C151.306 40.2045 151.749 40.0223 152.241 39.8991C152.738 39.7713 153.252 39.679 153.782 39.6222C154.422 39.5559 154.94 39.4967 155.338 39.4446C155.735 39.3878 156.024 39.3026 156.204 39.1889C156.389 39.0705 156.481 38.8883 156.481 38.642V38.5994C156.481 38.0644 156.323 37.6501 156.005 37.3565C155.688 37.063 155.231 36.9162 154.635 36.9162C154.005 36.9162 153.505 37.0535 153.136 37.3281C152.771 37.6027 152.525 37.9271 152.397 38.3011L149.997 37.9602C150.186 37.2973 150.499 36.7434 150.934 36.2983C151.37 35.8485 151.903 35.5123 152.532 35.2898C153.162 35.0625 153.858 34.9489 154.62 34.9489C155.146 34.9489 155.669 35.0104 156.19 35.1335C156.711 35.2566 157.187 35.4602 157.618 35.7443C158.048 36.0237 158.394 36.4048 158.654 36.8878C158.92 37.3707 159.052 37.9744 159.052 38.6989V46H156.581V44.5014H156.495C156.339 44.8045 156.119 45.0885 155.835 45.3537C155.556 45.6141 155.203 45.8248 154.777 45.9858C154.355 46.142 153.86 46.2202 153.292 46.2202ZM153.96 44.331C154.476 44.331 154.923 44.2292 155.302 44.0256C155.681 43.8172 155.972 43.5426 156.176 43.2017C156.384 42.8608 156.488 42.4891 156.488 42.0866V40.8011C156.408 40.8674 156.27 40.929 156.076 40.9858C155.887 41.0426 155.674 41.0923 155.437 41.1349C155.2 41.1776 154.966 41.2154 154.734 41.2486C154.502 41.2817 154.301 41.3101 154.13 41.3338C153.747 41.3859 153.404 41.4711 153.1 41.5895C152.797 41.7079 152.558 41.8736 152.383 42.0866C152.208 42.295 152.12 42.5649 152.12 42.8963C152.12 43.3698 152.293 43.7273 152.639 43.9688C152.984 44.2102 153.425 44.331 153.96 44.331ZM153.747 33.6562L155.338 30.4105H157.852L155.672 33.6562H153.747ZM167.163 35.0909V37.0795H160.714V35.0909H167.163ZM162.326 46V34.0611C162.326 33.3272 162.478 32.7164 162.781 32.2287C163.089 31.741 163.501 31.3764 164.017 31.1349C164.533 30.8935 165.106 30.7727 165.735 30.7727C166.181 30.7727 166.576 30.8082 166.922 30.8793C167.267 30.9503 167.523 31.0142 167.689 31.071L167.177 33.0597C167.068 33.0265 166.931 32.9934 166.765 32.9602C166.6 32.9223 166.415 32.9034 166.211 32.9034C165.733 32.9034 165.395 33.0194 165.196 33.2514C165.002 33.4787 164.904 33.8054 164.904 34.2315V46H162.326ZM169.176 46V35.0909H171.748V46H169.176ZM170.469 33.5426C170.062 33.5426 169.712 33.4077 169.418 33.1378C169.124 32.8632 168.978 32.5341 168.978 32.1506C168.978 31.7623 169.124 31.4332 169.418 31.1634C169.712 30.8887 170.062 30.7514 170.469 30.7514C170.881 30.7514 171.231 30.8887 171.52 31.1634C171.814 31.4332 171.961 31.7623 171.961 32.1506C171.961 32.5341 171.814 32.8632 171.52 33.1378C171.231 33.4077 170.881 33.5426 170.469 33.5426ZM179.15 46.2131C178.061 46.2131 177.126 45.974 176.344 45.4957C175.568 45.0175 174.969 44.357 174.548 43.5142C174.131 42.6667 173.923 41.6913 173.923 40.5881C173.923 39.4801 174.136 38.5024 174.562 37.6548C174.988 36.8026 175.589 36.1397 176.366 35.6662C177.147 35.188 178.07 34.9489 179.136 34.9489C180.021 34.9489 180.805 35.1122 181.487 35.4389C182.173 35.7609 182.72 36.2178 183.127 36.8097C183.534 37.3968 183.766 38.0833 183.823 38.8693H181.366C181.266 38.3437 181.03 37.9058 180.656 37.5554C180.286 37.2003 179.791 37.0227 179.171 37.0227C178.646 37.0227 178.184 37.1648 177.786 37.4489C177.388 37.7282 177.078 38.1307 176.856 38.6562C176.638 39.1818 176.529 39.8116 176.529 40.5455C176.529 41.2888 176.638 41.928 176.856 42.4631C177.074 42.9934 177.379 43.4029 177.772 43.6918C178.17 43.9759 178.636 44.1179 179.171 44.1179C179.55 44.1179 179.888 44.0469 180.187 43.9048C180.49 43.758 180.743 43.5473 180.947 43.2727C181.15 42.9981 181.29 42.6643 181.366 42.2713H183.823C183.762 43.0431 183.534 43.7273 183.141 44.3239C182.748 44.9157 182.213 45.3797 181.536 45.7159C180.859 46.0473 180.064 46.2131 179.15 46.2131ZM190.693 46.2131C189.627 46.2131 188.704 45.9787 187.923 45.5099C187.142 45.0412 186.536 44.3854 186.105 43.5426C185.679 42.6998 185.466 41.715 185.466 40.5881C185.466 39.4612 185.679 38.474 186.105 37.6264C186.536 36.7789 187.142 36.1207 187.923 35.652C188.704 35.1832 189.627 34.9489 190.693 34.9489C191.758 34.9489 192.681 35.1832 193.463 35.652C194.244 36.1207 194.848 36.7789 195.274 37.6264C195.705 38.474 195.92 39.4612 195.92 40.5881C195.92 41.715 195.705 42.6998 195.274 43.5426C194.848 44.3854 194.244 45.0412 193.463 45.5099C192.681 45.9787 191.758 46.2131 190.693 46.2131ZM190.707 44.1534C191.285 44.1534 191.768 43.9948 192.156 43.6776C192.544 43.3556 192.833 42.9247 193.022 42.3849C193.217 41.8452 193.314 41.2438 193.314 40.581C193.314 39.9134 193.217 39.3097 193.022 38.7699C192.833 38.2254 192.544 37.7921 192.156 37.4702C191.768 37.1482 191.285 36.9872 190.707 36.9872C190.115 36.9872 189.623 37.1482 189.23 37.4702C188.842 37.7921 188.55 38.2254 188.356 38.7699C188.167 39.3097 188.072 39.9134 188.072 40.581C188.072 41.2438 188.167 41.8452 188.356 42.3849C188.55 42.9247 188.842 43.3556 189.23 43.6776C189.623 43.9948 190.115 44.1534 190.707 44.1534ZM207.112 46.1918C206.254 46.1918 205.487 45.9716 204.81 45.5312C204.133 45.0909 203.598 44.4517 203.205 43.6136C202.812 42.7756 202.616 41.7576 202.616 40.5597C202.616 39.3475 202.815 38.3248 203.212 37.4915C203.615 36.6534 204.157 36.0213 204.839 35.5952C205.521 35.1643 206.281 34.9489 207.119 34.9489C207.758 34.9489 208.283 35.0578 208.695 35.2756C209.107 35.4886 209.434 35.7467 209.675 36.0497C209.917 36.348 210.104 36.6297 210.237 36.8949H210.343V31.4545H212.921V46H210.393V44.2812H210.237C210.104 44.5464 209.912 44.8281 209.661 45.1264C209.41 45.42 209.079 45.6709 208.667 45.8793C208.255 46.0876 207.737 46.1918 207.112 46.1918ZM207.829 44.0824C208.373 44.0824 208.837 43.9356 209.221 43.642C209.604 43.3437 209.896 42.9295 210.094 42.3991C210.293 41.8688 210.393 41.2509 210.393 40.5455C210.393 39.84 210.293 39.2268 210.094 38.706C209.9 38.1851 209.612 37.7803 209.228 37.4915C208.849 37.2027 208.383 37.0582 207.829 37.0582C207.256 37.0582 206.778 37.2074 206.394 37.5057C206.011 37.804 205.722 38.2159 205.528 38.7415C205.334 39.267 205.237 39.8684 205.237 40.5455C205.237 41.2273 205.334 41.8357 205.528 42.3707C205.727 42.901 206.018 43.3201 206.401 43.6278C206.79 43.9309 207.265 44.0824 207.829 44.0824ZM220.49 46.2131C219.397 46.2131 218.452 45.9858 217.657 45.5312C216.866 45.072 216.257 44.4233 215.831 43.5852C215.405 42.7424 215.192 41.7505 215.192 40.6094C215.192 39.4872 215.405 38.5024 215.831 37.6548C216.262 36.8026 216.864 36.1397 217.635 35.6662C218.407 35.188 219.314 34.9489 220.355 34.9489C221.028 34.9489 221.662 35.0578 222.259 35.2756C222.86 35.4886 223.391 35.8201 223.85 36.2699C224.314 36.7197 224.678 37.2926 224.944 37.9886C225.209 38.6799 225.341 39.5038 225.341 40.4602V41.2486H216.4V39.5156H222.877C222.872 39.0232 222.766 38.5852 222.557 38.2017C222.349 37.8134 222.058 37.508 221.684 37.2855C221.314 37.063 220.883 36.9517 220.391 36.9517C219.865 36.9517 219.404 37.0795 219.006 37.3352C218.608 37.5862 218.298 37.9176 218.076 38.3295C217.858 38.7367 217.747 39.1842 217.742 39.6719V41.1847C217.742 41.8191 217.858 42.3636 218.09 42.8182C218.322 43.268 218.646 43.6136 219.063 43.8551C219.48 44.0919 219.967 44.2102 220.526 44.2102C220.9 44.2102 221.239 44.1581 221.542 44.054C221.845 43.9451 222.107 43.7865 222.33 43.5781C222.552 43.3698 222.721 43.1117 222.834 42.804L225.235 43.0739C225.083 43.7083 224.794 44.2623 224.368 44.7358C223.947 45.2045 223.407 45.5691 222.749 45.8295C222.091 46.0852 221.338 46.2131 220.49 46.2131ZM231.952 33.6634V31.4545H243.557V33.6634H239.061V46H236.447V33.6634H231.952ZM248.928 46.2131C247.834 46.2131 246.89 45.9858 246.094 45.5312C245.303 45.072 244.695 44.4233 244.269 43.5852C243.843 42.7424 243.63 41.7505 243.63 40.6094C243.63 39.4872 243.843 38.5024 244.269 37.6548C244.7 36.8026 245.301 36.1397 246.073 35.6662C246.845 35.188 247.751 34.9489 248.793 34.9489C249.465 34.9489 250.1 35.0578 250.696 35.2756C251.298 35.4886 251.828 35.8201 252.287 36.2699C252.751 36.7197 253.116 37.2926 253.381 37.9886C253.646 38.6799 253.779 39.5038 253.779 40.4602V41.2486H244.837V39.5156H251.314C251.31 39.0232 251.203 38.5852 250.995 38.2017C250.786 37.8134 250.495 37.508 250.121 37.2855C249.752 37.063 249.321 36.9517 248.828 36.9517C248.303 36.9517 247.841 37.0795 247.444 37.3352C247.046 37.5862 246.736 37.9176 246.513 38.3295C246.295 38.7367 246.184 39.1842 246.179 39.6719V41.1847C246.179 41.8191 246.295 42.3636 246.527 42.8182C246.759 43.268 247.084 43.6136 247.5 43.8551C247.917 44.0919 248.405 44.2102 248.963 44.2102C249.337 44.2102 249.676 44.1581 249.979 44.054C250.282 43.9451 250.545 43.7865 250.767 43.5781C250.99 43.3698 251.158 43.1117 251.272 42.804L253.672 43.0739C253.521 43.7083 253.232 44.2623 252.806 44.7358C252.384 45.2045 251.845 45.5691 251.186 45.8295C250.528 46.0852 249.775 46.2131 248.928 46.2131ZM255.954 46V35.0909H258.411V36.9446H258.539C258.766 36.3196 259.143 35.8319 259.668 35.4815C260.194 35.1264 260.821 34.9489 261.55 34.9489C262.289 34.9489 262.912 35.1288 263.418 35.4886C263.93 35.8437 264.29 36.3291 264.498 36.9446H264.612C264.853 36.3385 265.26 35.8556 265.833 35.4957C266.411 35.1312 267.095 34.9489 267.886 34.9489C268.889 34.9489 269.709 35.2661 270.343 35.9006C270.978 36.535 271.295 37.4607 271.295 38.6776V46H268.717V39.0753C268.717 38.3982 268.537 37.9034 268.177 37.5909C267.817 37.2737 267.377 37.1151 266.856 37.1151C266.236 37.1151 265.75 37.3092 265.4 37.6974C265.054 38.081 264.881 38.5805 264.881 39.196V46H262.36V38.9688C262.36 38.4053 262.19 37.9555 261.849 37.6193C261.513 37.2831 261.072 37.1151 260.528 37.1151C260.158 37.1151 259.822 37.2098 259.519 37.3991C259.216 37.5838 258.975 37.8466 258.795 38.1875C258.615 38.5237 258.525 38.9167 258.525 39.3665V46H255.954ZM273.903 50.0909V35.0909H276.431V36.8949H276.581C276.713 36.6297 276.9 36.348 277.142 36.0497C277.383 35.7467 277.71 35.4886 278.122 35.2756C278.534 35.0578 279.059 34.9489 279.699 34.9489C280.541 34.9489 281.301 35.1643 281.978 35.5952C282.66 36.0213 283.2 36.6534 283.598 37.4915C284 38.3248 284.201 39.3475 284.201 40.5597C284.201 41.7576 284.005 42.7756 283.612 43.6136C283.219 44.4517 282.684 45.0909 282.007 45.5312C281.33 45.9716 280.563 46.1918 279.706 46.1918C279.081 46.1918 278.562 46.0876 278.15 45.8793C277.738 45.6709 277.407 45.42 277.156 45.1264C276.91 44.8281 276.718 44.5464 276.581 44.2812H276.474V50.0909H273.903ZM276.424 40.5455C276.424 41.2509 276.524 41.8688 276.723 42.3991C276.926 42.9295 277.217 43.3437 277.596 43.642C277.98 43.9356 278.444 44.0824 278.988 44.0824C279.556 44.0824 280.032 43.9309 280.416 43.6278C280.799 43.3201 281.088 42.901 281.282 42.3707C281.481 41.8357 281.581 41.2273 281.581 40.5455C281.581 39.8684 281.484 39.267 281.289 38.7415C281.095 38.2159 280.806 37.804 280.423 37.5057C280.039 37.2074 279.561 37.0582 278.988 37.0582C278.439 37.0582 277.973 37.2027 277.589 37.4915C277.206 37.7803 276.914 38.1851 276.716 38.706C276.521 39.2268 276.424 39.84 276.424 40.5455ZM291.233 46.2131C290.139 46.2131 289.194 45.9858 288.399 45.5312C287.608 45.072 287 44.4233 286.574 43.5852C286.147 42.7424 285.934 41.7505 285.934 40.6094C285.934 39.4872 286.147 38.5024 286.574 37.6548C287.004 36.8026 287.606 36.1397 288.377 35.6662C289.149 35.188 290.056 34.9489 291.098 34.9489C291.77 34.9489 292.404 35.0578 293.001 35.2756C293.602 35.4886 294.133 35.8201 294.592 36.2699C295.056 36.7197 295.421 37.2926 295.686 37.9886C295.951 38.6799 296.083 39.5038 296.083 40.4602V41.2486H287.142V39.5156H293.619C293.614 39.0232 293.508 38.5852 293.299 38.2017C293.091 37.8134 292.8 37.508 292.426 37.2855C292.056 37.063 291.626 36.9517 291.133 36.9517C290.608 36.9517 290.146 37.0795 289.748 37.3352C289.35 37.5862 289.04 37.9176 288.818 38.3295C288.6 38.7367 288.489 39.1842 288.484 39.6719V41.1847C288.484 41.8191 288.6 42.3636 288.832 42.8182C289.064 43.268 289.388 43.6136 289.805 43.8551C290.222 44.0919 290.709 44.2102 291.268 44.2102C291.642 44.2102 291.981 44.1581 292.284 44.054C292.587 43.9451 292.85 43.7865 293.072 43.5781C293.295 43.3698 293.463 43.1117 293.576 42.804L295.977 43.0739C295.825 43.7083 295.537 44.2623 295.11 44.7358C294.689 45.2045 294.149 45.5691 293.491 45.8295C292.833 46.0852 292.08 46.2131 291.233 46.2131ZM298.259 46V35.0909H300.751V36.9091H300.865C301.064 36.2794 301.405 35.794 301.888 35.4531C302.375 35.1075 302.932 34.9347 303.557 34.9347C303.699 34.9347 303.857 34.9418 304.033 34.956C304.213 34.9654 304.362 34.982 304.48 35.0057V37.3707C304.371 37.3329 304.198 37.2997 303.962 37.2713C303.73 37.2382 303.505 37.2216 303.287 37.2216C302.818 37.2216 302.397 37.3234 302.023 37.527C301.653 37.7259 301.362 38.0028 301.149 38.358C300.936 38.7131 300.83 39.1226 300.83 39.5866V46H298.259ZM309.132 46.2202C308.441 46.2202 307.818 46.0971 307.264 45.8509C306.715 45.5999 306.279 45.2306 305.957 44.7429C305.64 44.2552 305.482 43.6539 305.482 42.9389C305.482 42.3234 305.595 41.8144 305.822 41.4119C306.05 41.0095 306.36 40.6875 306.753 40.446C307.146 40.2045 307.589 40.0223 308.081 39.8991C308.578 39.7713 309.092 39.679 309.622 39.6222C310.261 39.5559 310.78 39.4967 311.178 39.4446C311.575 39.3878 311.864 39.3026 312.044 39.1889C312.229 39.0705 312.321 38.8883 312.321 38.642V38.5994C312.321 38.0644 312.162 37.6501 311.845 37.3565C311.528 37.063 311.071 36.9162 310.474 36.9162C309.845 36.9162 309.345 37.0535 308.976 37.3281C308.611 37.6027 308.365 37.9271 308.237 38.3011L305.837 37.9602C306.026 37.2973 306.339 36.7434 306.774 36.2983C307.21 35.8485 307.742 35.5123 308.372 35.2898C309.002 35.0625 309.698 34.9489 310.46 34.9489C310.986 34.9489 311.509 35.0104 312.03 35.1335C312.551 35.2566 313.027 35.4602 313.457 35.7443C313.888 36.0237 314.234 36.4048 314.494 36.8878C314.759 37.3707 314.892 37.9744 314.892 38.6989V46H312.42V44.5014H312.335C312.179 44.8045 311.959 45.0885 311.675 45.3537C311.395 45.6141 311.043 45.8248 310.616 45.9858C310.195 46.142 309.7 46.2202 309.132 46.2202ZM309.8 44.331C310.316 44.331 310.763 44.2292 311.142 44.0256C311.521 43.8172 311.812 43.5426 312.016 43.2017C312.224 42.8608 312.328 42.4891 312.328 42.0866V40.8011C312.248 40.8674 312.11 40.929 311.916 40.9858C311.727 41.0426 311.514 41.0923 311.277 41.1349C311.04 41.1776 310.806 41.2154 310.574 41.2486C310.342 41.2817 310.141 41.3101 309.97 41.3338C309.587 41.3859 309.243 41.4711 308.94 41.5895C308.637 41.7079 308.398 41.8736 308.223 42.0866C308.048 42.295 307.96 42.5649 307.96 42.8963C307.96 43.3698 308.133 43.7273 308.479 43.9688C308.824 44.2102 309.265 44.331 309.8 44.331ZM322.925 35.0909V37.0795H316.653V35.0909H322.925ZM318.202 32.4773H320.773V42.7188C320.773 43.0644 320.825 43.3295 320.929 43.5142C321.038 43.6941 321.18 43.8172 321.355 43.8835C321.53 43.9498 321.724 43.983 321.938 43.983C322.098 43.983 322.245 43.9711 322.378 43.9474C322.515 43.9238 322.619 43.9025 322.69 43.8835L323.124 45.8935C322.986 45.9408 322.79 45.9929 322.534 46.0497C322.283 46.1065 321.975 46.1397 321.611 46.1491C320.967 46.1681 320.387 46.071 319.871 45.858C319.355 45.6402 318.945 45.304 318.642 44.8494C318.344 44.3949 318.197 43.8267 318.202 43.1449V32.4773ZM332.028 41.4119V35.0909H334.599V46H332.106V44.0611H331.993C331.746 44.6719 331.342 45.1714 330.778 45.5597C330.219 45.9479 329.53 46.142 328.711 46.142C327.996 46.142 327.364 45.9834 326.815 45.6662C326.27 45.3442 325.844 44.8778 325.537 44.267C325.229 43.6515 325.075 42.9081 325.075 42.0369V35.0909H327.646V41.6392C327.646 42.3305 327.835 42.8797 328.214 43.2869C328.593 43.6941 329.09 43.8977 329.706 43.8977C330.084 43.8977 330.451 43.8054 330.806 43.6207C331.162 43.4361 331.453 43.1615 331.68 42.7969C331.912 42.4276 332.028 41.9659 332.028 41.4119ZM337.243 46V35.0909H339.736V36.9091H339.849C340.048 36.2794 340.389 35.794 340.872 35.4531C341.36 35.1075 341.916 34.9347 342.541 34.9347C342.683 34.9347 342.842 34.9418 343.017 34.956C343.197 34.9654 343.346 34.982 343.464 35.0057V37.3707C343.356 37.3329 343.183 37.2997 342.946 37.2713C342.714 37.2382 342.489 37.2216 342.271 37.2216C341.803 37.2216 341.381 37.3234 341.007 37.527C340.638 37.7259 340.347 38.0028 340.134 38.358C339.92 38.7131 339.814 39.1226 339.814 39.5866V46H337.243ZM348.116 46.2202C347.425 46.2202 346.803 46.0971 346.249 45.8509C345.699 45.5999 345.264 45.2306 344.942 44.7429C344.625 44.2552 344.466 43.6539 344.466 42.9389C344.466 42.3234 344.58 41.8144 344.807 41.4119C345.034 41.0095 345.344 40.6875 345.737 40.446C346.13 40.2045 346.573 40.0223 347.065 39.8991C347.563 39.7713 348.076 39.679 348.607 39.6222C349.246 39.5559 349.764 39.4967 350.162 39.4446C350.56 39.3878 350.848 39.3026 351.028 39.1889C351.213 39.0705 351.305 38.8883 351.305 38.642V38.5994C351.305 38.0644 351.147 37.6501 350.83 37.3565C350.512 37.063 350.055 36.9162 349.459 36.9162C348.829 36.9162 348.33 37.0535 347.96 37.3281C347.596 37.6027 347.349 37.9271 347.222 38.3011L344.821 37.9602C345.01 37.2973 345.323 36.7434 345.759 36.2983C346.194 35.8485 346.727 35.5123 347.357 35.2898C347.986 35.0625 348.682 34.9489 349.445 34.9489C349.97 34.9489 350.493 35.0104 351.014 35.1335C351.535 35.2566 352.011 35.4602 352.442 35.7443C352.873 36.0237 353.218 36.4048 353.479 36.8878C353.744 37.3707 353.876 37.9744 353.876 38.6989V46H351.405V44.5014H351.32C351.163 44.8045 350.943 45.0885 350.659 45.3537C350.38 45.6141 350.027 45.8248 349.601 45.9858C349.179 46.142 348.685 46.2202 348.116 46.2202ZM348.784 44.331C349.3 44.331 349.748 44.2292 350.126 44.0256C350.505 43.8172 350.796 43.5426 351 43.2017C351.208 42.8608 351.312 42.4891 351.312 42.0866V40.8011C351.232 40.8674 351.095 40.929 350.901 40.9858C350.711 41.0426 350.498 41.0923 350.261 41.1349C350.025 41.1776 349.79 41.2154 349.558 41.2486C349.326 41.2817 349.125 41.3101 348.955 41.3338C348.571 41.3859 348.228 41.4711 347.925 41.5895C347.622 41.7079 347.383 41.8736 347.207 42.0866C347.032 42.295 346.945 42.5649 346.945 42.8963C346.945 43.3698 347.117 43.7273 347.463 43.9688C347.809 44.2102 348.249 44.331 348.784 44.331ZM365.471 46.1918C364.614 46.1918 363.847 45.9716 363.17 45.5312C362.493 45.0909 361.958 44.4517 361.565 43.6136C361.172 42.7756 360.975 41.7576 360.975 40.5597C360.975 39.3475 361.174 38.3248 361.572 37.4915C361.974 36.6534 362.516 36.0213 363.198 35.5952C363.88 35.1643 364.64 34.9489 365.478 34.9489C366.117 34.9489 366.643 35.0578 367.055 35.2756C367.467 35.4886 367.793 35.7467 368.035 36.0497C368.276 36.348 368.463 36.6297 368.596 36.8949H368.702V31.4545H371.281V46H368.752V44.2812H368.596C368.463 44.5464 368.272 44.8281 368.021 45.1264C367.77 45.42 367.438 45.6709 367.026 45.8793C366.614 46.0876 366.096 46.1918 365.471 46.1918ZM366.188 44.0824C366.733 44.0824 367.197 43.9356 367.58 43.642C367.964 43.3437 368.255 42.9295 368.454 42.3991C368.653 41.8688 368.752 41.2509 368.752 40.5455C368.752 39.84 368.653 39.2268 368.454 38.706C368.26 38.1851 367.971 37.7803 367.587 37.4915C367.209 37.2027 366.742 37.0582 366.188 37.0582C365.615 37.0582 365.137 37.2074 364.754 37.5057C364.37 37.804 364.081 38.2159 363.887 38.7415C363.693 39.267 363.596 39.8684 363.596 40.5455C363.596 41.2273 363.693 41.8357 363.887 42.3707C364.086 42.901 364.377 43.3201 364.761 43.6278C365.149 43.9309 365.625 44.0824 366.188 44.0824ZM377.159 46.2202C376.468 46.2202 375.846 46.0971 375.292 45.8509C374.742 45.5999 374.307 45.2306 373.985 44.7429C373.667 44.2552 373.509 43.6539 373.509 42.9389C373.509 42.3234 373.623 41.8144 373.85 41.4119C374.077 41.0095 374.387 40.6875 374.78 40.446C375.173 40.2045 375.616 40.0223 376.108 39.8991C376.605 39.7713 377.119 39.679 377.65 39.6222C378.289 39.5559 378.807 39.4967 379.205 39.4446C379.603 39.3878 379.891 39.3026 380.071 39.1889C380.256 39.0705 380.348 38.8883 380.348 38.642V38.5994C380.348 38.0644 380.19 37.6501 379.873 37.3565C379.555 37.063 379.098 36.9162 378.502 36.9162C377.872 36.9162 377.373 37.0535 377.003 37.3281C376.639 37.6027 376.392 37.9271 376.265 38.3011L373.864 37.9602C374.053 37.2973 374.366 36.7434 374.801 36.2983C375.237 35.8485 375.77 35.5123 376.4 35.2898C377.029 35.0625 377.725 34.9489 378.488 34.9489C379.013 34.9489 379.536 35.0104 380.057 35.1335C380.578 35.2566 381.054 35.4602 381.485 35.7443C381.916 36.0237 382.261 36.4048 382.522 36.8878C382.787 37.3707 382.919 37.9744 382.919 38.6989V46H380.448V44.5014H380.363C380.206 44.8045 379.986 45.0885 379.702 45.3537C379.423 45.6141 379.07 45.8248 378.644 45.9858C378.222 46.142 377.728 46.2202 377.159 46.2202ZM377.827 44.331C378.343 44.331 378.791 44.2292 379.169 44.0256C379.548 43.8172 379.839 43.5426 380.043 43.2017C380.251 42.8608 380.355 42.4891 380.355 42.0866V40.8011C380.275 40.8674 380.138 40.929 379.944 40.9858C379.754 41.0426 379.541 41.0923 379.304 41.1349C379.068 41.1776 378.833 41.2154 378.601 41.2486C378.369 41.2817 378.168 41.3101 377.998 41.3338C377.614 41.3859 377.271 41.4711 376.968 41.5895C376.665 41.7079 376.426 41.8736 376.25 42.0866C376.075 42.295 375.988 42.5649 375.988 42.8963C375.988 43.3698 376.16 43.7273 376.506 43.9688C376.852 44.2102 377.292 44.331 377.827 44.331ZM392.447 46H389.635L394.755 31.4545H398.008L403.136 46H400.324L396.439 34.4375H396.325L392.447 46ZM392.539 40.2969H400.21V42.4134H392.539V40.2969ZM395.395 30.0199L396.985 26.7741H399.5L397.319 30.0199H395.395ZM409.35 50.3182C408.427 50.3182 407.634 50.1927 406.971 49.9418C406.308 49.6955 405.776 49.3641 405.373 48.9474C404.971 48.5308 404.691 48.0691 404.535 47.5625L406.85 47.0014C406.955 47.2145 407.106 47.4252 407.305 47.6335C407.504 47.8466 407.771 48.0218 408.108 48.1591C408.449 48.3011 408.877 48.3722 409.393 48.3722C410.122 48.3722 410.726 48.1946 411.204 47.8395C411.682 47.4891 411.922 46.9115 411.922 46.1065V44.0398H411.794C411.661 44.3049 411.467 44.5772 411.211 44.8565C410.96 45.1359 410.627 45.3703 410.21 45.5597C409.798 45.7491 409.279 45.8438 408.654 45.8438C407.816 45.8438 407.056 45.6473 406.375 45.2543C405.698 44.8565 405.158 44.2647 404.755 43.4787C404.358 42.688 404.159 41.6984 404.159 40.5099C404.159 39.312 404.358 38.3011 404.755 37.4773C405.158 36.6487 405.7 36.0213 406.382 35.5952C407.064 35.1643 407.824 34.9489 408.662 34.9489C409.301 34.9489 409.826 35.0578 410.238 35.2756C410.655 35.4886 410.986 35.7467 411.233 36.0497C411.479 36.348 411.666 36.6297 411.794 36.8949H411.936V35.0909H414.471V46.1776C414.471 47.1103 414.249 47.8821 413.804 48.4929C413.359 49.1037 412.75 49.5606 411.978 49.8636C411.207 50.1667 410.331 50.3182 409.35 50.3182ZM409.372 43.8267C409.916 43.8267 410.38 43.6941 410.764 43.429C411.147 43.1638 411.439 42.7827 411.637 42.2855C411.836 41.7884 411.936 41.1918 411.936 40.4957C411.936 39.8092 411.836 39.2079 411.637 38.6918C411.443 38.1757 411.154 37.7756 410.771 37.4915C410.392 37.2027 409.926 37.0582 409.372 37.0582C408.799 37.0582 408.321 37.2074 407.937 37.5057C407.554 37.804 407.265 38.2135 407.071 38.7344C406.877 39.2505 406.779 39.8376 406.779 40.4957C406.779 41.1634 406.877 41.7481 407.071 42.25C407.27 42.7472 407.561 43.1354 407.944 43.4148C408.333 43.6894 408.808 43.8267 409.372 43.8267ZM424.059 41.4119V35.0909H426.63V46H424.137V44.0611H424.024C423.778 44.6719 423.373 45.1714 422.809 45.5597C422.251 45.9479 421.562 46.142 420.743 46.142C420.028 46.142 419.395 45.9834 418.846 45.6662C418.302 45.3442 417.876 44.8778 417.568 44.267C417.26 43.6515 417.106 42.9081 417.106 42.0369V35.0909H419.677V41.6392C419.677 42.3305 419.867 42.8797 420.245 43.2869C420.624 43.6941 421.121 43.8977 421.737 43.8977C422.116 43.8977 422.483 43.8054 422.838 43.6207C423.193 43.4361 423.484 43.1615 423.711 42.7969C423.943 42.4276 424.059 41.9659 424.059 41.4119ZM432.413 46.2202C431.722 46.2202 431.099 46.0971 430.545 45.8509C429.996 45.5999 429.561 45.2306 429.239 44.7429C428.921 44.2552 428.763 43.6539 428.763 42.9389C428.763 42.3234 428.876 41.8144 429.104 41.4119C429.331 41.0095 429.641 40.6875 430.034 40.446C430.427 40.2045 430.87 40.0223 431.362 39.8991C431.859 39.7713 432.373 39.679 432.903 39.6222C433.543 39.5559 434.061 39.4967 434.459 39.4446C434.857 39.3878 435.145 39.3026 435.325 39.1889C435.51 39.0705 435.602 38.8883 435.602 38.642V38.5994C435.602 38.0644 435.444 37.6501 435.126 37.3565C434.809 37.063 434.352 36.9162 433.756 36.9162C433.126 36.9162 432.626 37.0535 432.257 37.3281C431.893 37.6027 431.646 37.9271 431.518 38.3011L429.118 37.9602C429.307 37.2973 429.62 36.7434 430.055 36.2983C430.491 35.8485 431.024 35.5123 431.653 35.2898C432.283 35.0625 432.979 34.9489 433.741 34.9489C434.267 34.9489 434.79 35.0104 435.311 35.1335C435.832 35.2566 436.308 35.4602 436.739 35.7443C437.17 36.0237 437.515 36.4048 437.776 36.8878C438.041 37.3707 438.173 37.9744 438.173 38.6989V46H435.702V44.5014H435.616C435.46 44.8045 435.24 45.0885 434.956 45.3537C434.677 45.6141 434.324 45.8248 433.898 45.9858C433.476 46.142 432.982 46.2202 432.413 46.2202ZM433.081 44.331C433.597 44.331 434.045 44.2292 434.423 44.0256C434.802 43.8172 435.093 43.5426 435.297 43.2017C435.505 42.8608 435.609 42.4891 435.609 42.0866V40.8011C435.529 40.8674 435.392 40.929 435.197 40.9858C435.008 41.0426 434.795 41.0923 434.558 41.1349C434.321 41.1776 434.087 41.2154 433.855 41.2486C433.623 41.2817 433.422 41.3101 433.251 41.3338C432.868 41.3859 432.525 41.4711 432.222 41.5895C431.919 41.7079 431.679 41.8736 431.504 42.0866C431.329 42.295 431.241 42.5649 431.241 42.8963C431.241 43.3698 431.414 43.7273 431.76 43.9688C432.106 44.2102 432.546 44.331 433.081 44.331Z" fill="white"/>
<path d="M76.8075 100.666C75.9888 100.666 75.2862 100.458 74.6995 100.044C74.1162 99.6265 73.6671 99.0249 73.3522 98.2394C73.0407 97.4506 72.8849 96.501 72.8849 95.3907C72.8882 94.2804 73.0456 93.3358 73.3572 92.5569C73.6721 91.7747 74.1212 91.1781 74.7045 90.7671C75.2911 90.3561 75.9921 90.1507 76.8075 90.1507C77.6228 90.1507 78.3238 90.3561 78.9105 90.7671C79.4971 91.1781 79.9462 91.7747 80.2578 92.5569C80.5726 93.3391 80.7301 94.2837 80.7301 95.3907C80.7301 96.5043 80.5726 97.4556 80.2578 98.2444C79.9462 99.0299 79.4971 99.6298 78.9105 100.044C78.3271 100.458 77.6261 100.666 76.8075 100.666ZM76.8075 99.1095C77.4438 99.1095 77.946 98.7963 78.3139 98.1698C78.6851 97.5401 78.8707 96.6137 78.8707 95.3907C78.8707 94.582 78.7862 93.9026 78.6171 93.3524C78.4481 92.8022 78.2095 92.3879 77.9012 92.1095C77.593 91.8277 77.2284 91.6869 76.8075 91.6869C76.1744 91.6869 75.674 92.0017 75.3061 92.6315C74.9382 93.2579 74.7526 94.1776 74.7492 95.3907C74.7459 96.2027 74.8271 96.8855 74.9929 97.439C75.1619 97.9925 75.4005 98.4101 75.7088 98.6919C76.017 98.9703 76.3832 99.1095 76.8075 99.1095ZM84.1182 99.0796L84.0536 99.6265C84.0072 100.044 83.9243 100.468 83.805 100.899C83.689 101.333 83.5664 101.733 83.4371 102.097C83.3078 102.462 83.2034 102.749 83.1239 102.957H81.9108C81.9572 102.755 82.0202 102.48 82.0997 102.132C82.1826 101.784 82.2621 101.393 82.3384 100.959C82.4146 100.525 82.466 100.084 82.4925 99.6365L82.5273 99.0796H84.1182ZM89.3508 100.611C88.6117 100.611 87.9554 100.487 87.3821 100.238C86.812 99.9894 86.3645 99.6497 86.0397 99.2188C85.7182 98.7847 85.5591 98.2925 85.5625 97.7423C85.5591 97.3147 85.6519 96.922 85.8409 96.564C86.0298 96.2061 86.285 95.9078 86.6065 95.6691C86.9313 95.4272 87.2926 95.2731 87.6903 95.2068V95.1372C87.1666 95.0212 86.7424 94.7544 86.4176 94.3367C86.0961 93.9158 85.937 93.4302 85.9403 92.8801C85.937 92.3564 86.0828 91.8891 86.3778 91.4781C86.6728 91.0671 87.0771 90.7439 87.5909 90.5086C88.1046 90.27 88.6912 90.1507 89.3508 90.1507C90.0037 90.1507 90.5854 90.27 91.0958 90.5086C91.6096 90.7439 92.0139 91.0671 92.3089 91.4781C92.6072 91.8891 92.7563 92.3564 92.7563 92.8801C92.7563 93.4302 92.5923 93.9158 92.2642 94.3367C91.9393 94.7544 91.5201 95.0212 91.0063 95.1372V95.2068C91.4041 95.2731 91.762 95.4272 92.0802 95.6691C92.4017 95.9078 92.6569 96.2061 92.8458 96.564C93.0381 96.922 93.1342 97.3147 93.1342 97.7423C93.1342 98.2925 92.9718 98.7847 92.647 99.2188C92.3222 99.6497 91.8747 99.9894 91.3046 100.238C90.7379 100.487 90.0866 100.611 89.3508 100.611ZM89.3508 99.189C89.732 99.189 90.0634 99.1244 90.3451 98.9951C90.6268 98.8625 90.8456 98.6769 91.0014 98.4383C91.1572 98.1997 91.2367 97.9246 91.24 97.613C91.2367 97.2882 91.1522 97.0015 90.9865 96.7529C90.8241 96.501 90.6003 96.3038 90.3153 96.1613C90.0336 96.0188 89.7121 95.9475 89.3508 95.9475C88.9862 95.9475 88.6614 96.0188 88.3764 96.1613C88.0913 96.3038 87.866 96.501 87.7002 96.7529C87.5378 97.0015 87.4583 97.2882 87.4616 97.613C87.4583 97.9246 87.5345 98.1997 87.6903 98.4383C87.8461 98.6736 88.0648 98.8576 88.3465 98.9901C88.6316 99.1227 88.9663 99.189 89.3508 99.189ZM89.3508 94.5505C89.6624 94.5505 89.9375 94.4875 90.1761 94.3616C90.418 94.2356 90.6086 94.06 90.7478 93.8346C90.887 93.6092 90.9583 93.349 90.9616 93.0541C90.9583 92.7624 90.8887 92.5072 90.7528 92.2884C90.6169 92.0664 90.428 91.8957 90.186 91.7764C89.9441 91.6537 89.6657 91.5924 89.3508 91.5924C89.0293 91.5924 88.7459 91.6537 88.5007 91.7764C88.2587 91.8957 88.0698 92.0664 87.9339 92.2884C87.8013 92.5072 87.7367 92.7624 87.74 93.0541C87.7367 93.349 87.803 93.6092 87.9389 93.8346C88.0781 94.0567 88.2687 94.2323 88.5106 94.3616C88.7559 94.4875 89.0359 94.5505 89.3508 94.5505Z" fill="white"/>
<path d="M76.8075 136.477C75.9888 136.477 75.2862 136.27 74.6995 135.855C74.1162 135.438 73.6671 134.836 73.3522 134.051C73.0407 133.262 72.8849 132.312 72.8849 131.202C72.8882 130.092 73.0456 129.147 73.3572 128.368C73.6721 127.586 74.1212 126.989 74.7045 126.578C75.2911 126.167 75.9921 125.962 76.8075 125.962C77.6228 125.962 78.3238 126.167 78.9105 126.578C79.4971 126.989 79.9462 127.586 80.2578 128.368C80.5726 129.15 80.7301 130.095 80.7301 131.202C80.7301 132.316 80.5726 133.267 80.2578 134.056C79.9462 134.841 79.4971 135.441 78.9105 135.855C78.3271 136.27 77.6261 136.477 76.8075 136.477ZM76.8075 134.921C77.4438 134.921 77.946 134.608 78.3139 133.981C78.6851 133.351 78.8707 132.425 78.8707 131.202C78.8707 130.393 78.7862 129.714 78.6171 129.164C78.4481 128.613 78.2095 128.199 77.9012 127.921C77.593 127.639 77.2284 127.498 76.8075 127.498C76.1744 127.498 75.674 127.813 75.3061 128.443C74.9382 129.069 74.7526 129.989 74.7492 131.202C74.7459 132.014 74.8271 132.697 74.9929 133.25C75.1619 133.804 75.4005 134.221 75.7088 134.503C76.017 134.782 76.3832 134.921 76.8075 134.921ZM84.1182 134.891L84.0536 135.438C84.0072 135.855 83.9243 136.28 83.805 136.711C83.689 137.145 83.5664 137.544 83.4371 137.909C83.3078 138.273 83.2034 138.56 83.1239 138.769H81.9108C81.9572 138.567 82.0202 138.291 82.0997 137.943C82.1826 137.595 82.2621 137.204 82.3384 136.77C82.4146 136.336 82.466 135.895 82.4925 135.448L82.5273 134.891H84.1182ZM86.159 136.283L90.4893 127.712V127.642H85.463V126.101H92.3984V127.677L88.0731 136.283H86.159Z" fill="white"/>
<path d="M76.8075 172.288C75.9888 172.288 75.2862 172.081 74.6995 171.667C74.1162 171.249 73.6671 170.648 73.3522 169.862C73.0407 169.073 72.8849 168.124 72.8849 167.013C72.8882 165.903 73.0456 164.958 73.3572 164.18C73.6721 163.397 74.1212 162.801 74.7045 162.39C75.2911 161.979 75.9921 161.773 76.8075 161.773C77.6228 161.773 78.3238 161.979 78.9105 162.39C79.4971 162.801 79.9462 163.397 80.2578 164.18C80.5726 164.962 80.7301 165.906 80.7301 167.013C80.7301 168.127 80.5726 169.078 80.2578 169.867C79.9462 170.653 79.4971 171.253 78.9105 171.667C78.3271 172.081 77.6261 172.288 76.8075 172.288ZM76.8075 170.732C77.4438 170.732 77.946 170.419 78.3139 169.793C78.6851 169.163 78.8707 168.236 78.8707 167.013C78.8707 166.205 78.7862 165.525 78.6171 164.975C78.4481 164.425 78.2095 164.011 77.9012 163.732C77.593 163.45 77.2284 163.31 76.8075 163.31C76.1744 163.31 75.674 163.624 75.3061 164.254C74.9382 164.881 74.7526 165.8 74.7492 167.013C74.7459 167.825 74.8271 168.508 74.9929 169.062C75.1619 169.615 75.4005 170.033 75.7088 170.315C76.017 170.593 76.3832 170.732 76.8075 170.732ZM84.1182 170.702L84.0536 171.249C84.0072 171.667 83.9243 172.091 83.805 172.522C83.689 172.956 83.5664 173.355 83.4371 173.72C83.3078 174.085 83.2034 174.371 83.1239 174.58H81.9108C81.9572 174.378 82.0202 174.103 82.0997 173.755C82.1826 173.407 82.2621 173.016 82.3384 172.582C82.4146 172.147 82.466 171.707 82.4925 171.259L82.5273 170.702H84.1182ZM89.4465 172.234C88.9593 172.23 88.4837 172.146 88.0197 171.98C87.5556 171.811 87.138 171.538 86.7668 171.16C86.3956 170.779 86.1006 170.273 85.8819 169.643C85.6631 169.01 85.5554 168.226 85.5587 167.292C85.5587 166.42 85.6515 165.643 85.8371 164.96C86.0227 164.277 86.2896 163.701 86.6376 163.23C86.9856 162.756 87.4048 162.395 87.8954 162.146C88.3892 161.898 88.9411 161.773 89.5509 161.773C90.1906 161.773 90.7574 161.899 91.2512 162.151C91.7484 162.403 92.1494 162.748 92.4543 163.185C92.7592 163.619 92.9482 164.11 93.0211 164.657H91.2065C91.1137 164.266 90.9231 163.954 90.6347 163.722C90.3497 163.487 89.9884 163.369 89.5509 163.369C88.8449 163.369 88.3014 163.676 87.9202 164.289C87.5424 164.902 87.3518 165.744 87.3485 166.815H87.4181C87.5805 166.523 87.791 166.273 88.0495 166.064C88.308 165.855 88.5997 165.694 88.9245 165.582C89.2526 165.466 89.599 165.408 89.9636 165.408C90.5601 165.408 91.0954 165.55 91.5694 165.835C92.0467 166.12 92.4245 166.513 92.7029 167.013C92.9813 167.511 93.1189 168.081 93.1155 168.724C93.1189 169.393 92.9664 169.995 92.6582 170.528C92.3499 171.059 91.9207 171.476 91.3705 171.781C90.8203 172.086 90.179 172.237 89.4465 172.234ZM89.4366 170.742C89.7978 170.742 90.121 170.654 90.406 170.479C90.6911 170.303 90.9164 170.066 91.0822 169.768C91.2479 169.469 91.3291 169.135 91.3258 168.763C91.3291 168.399 91.2495 168.069 91.0871 167.774C90.928 167.479 90.7076 167.245 90.4259 167.073C90.1442 166.901 89.8227 166.815 89.4614 166.815C89.193 166.815 88.9427 166.866 88.7107 166.969C88.4787 167.071 88.2765 167.214 88.1042 167.396C87.9318 167.575 87.7959 167.784 87.6965 168.023C87.6004 168.258 87.5507 168.51 87.5474 168.778C87.5507 169.133 87.6335 169.459 87.7959 169.758C87.9583 170.056 88.1821 170.295 88.4671 170.474C88.7521 170.653 89.0753 170.742 89.4366 170.742Z" fill="white"/>
<path d="M76.8075 208.1C75.9888 208.1 75.2862 207.892 74.6995 207.478C74.1162 207.06 73.6671 206.459 73.3522 205.673C73.0407 204.885 72.8849 203.935 72.8849 202.825C72.8882 201.714 73.0456 200.77 73.3572 199.991C73.6721 199.209 74.1212 198.612 74.7045 198.201C75.2911 197.79 75.9921 197.585 76.8075 197.585C77.6228 197.585 78.3238 197.79 78.9105 198.201C79.4971 198.612 79.9462 199.209 80.2578 199.991C80.5726 200.773 80.7301 201.718 80.7301 202.825C80.7301 203.938 80.5726 204.89 80.2578 205.678C79.9462 206.464 79.4971 207.064 78.9105 207.478C78.3271 207.892 77.6261 208.1 76.8075 208.1ZM76.8075 206.543C77.4438 206.543 77.946 206.23 78.3139 205.604C78.6851 204.974 78.8707 204.048 78.8707 202.825C78.8707 202.016 78.7862 201.337 78.6171 200.786C78.4481 200.236 78.2095 199.822 77.9012 199.543C77.593 199.262 77.2284 199.121 76.8075 199.121C76.1744 199.121 75.674 199.436 75.3061 200.065C74.9382 200.692 74.7526 201.612 74.7492 202.825C74.7459 203.637 74.8271 204.319 74.9929 204.873C75.1619 205.426 75.4005 205.844 75.7088 206.126C76.017 206.404 76.3832 206.543 76.8075 206.543ZM84.1182 206.514L84.0536 207.06C84.0072 207.478 83.9243 207.902 83.805 208.333C83.689 208.767 83.5664 209.167 83.4371 209.531C83.3078 209.896 83.2034 210.183 83.1239 210.391H81.9108C81.9572 210.189 82.0202 209.914 82.0997 209.566C82.1826 209.218 82.2621 208.827 82.3384 208.393C82.4146 207.959 82.466 207.518 82.4925 207.07L82.5273 206.514H84.1182ZM89.531 208.045C88.8681 208.045 88.2749 207.921 87.7512 207.672C87.2275 207.42 86.8116 207.075 86.5033 206.638C86.1984 206.2 86.036 205.7 86.0161 205.136H87.8059C87.839 205.554 88.0197 205.895 88.3478 206.161C88.6759 206.422 89.0703 206.553 89.531 206.553C89.8923 206.553 90.2138 206.471 90.4955 206.305C90.7772 206.139 90.9993 205.909 91.1617 205.614C91.3241 205.319 91.4037 204.982 91.4003 204.605C91.4037 204.22 91.3225 203.879 91.1567 203.58C90.991 203.282 90.764 203.048 90.4756 202.879C90.1873 202.707 89.8558 202.621 89.4813 202.621C89.1764 202.618 88.8764 202.674 88.5815 202.79C88.2865 202.906 88.0528 203.058 87.8805 203.247L86.215 202.974L86.7469 197.724H92.6532V199.265H88.2732L87.9799 201.965H88.0396C88.2285 201.743 88.4953 201.559 88.84 201.413C89.1847 201.264 89.5625 201.189 89.9735 201.189C90.59 201.189 91.1402 201.335 91.6241 201.627C92.108 201.915 92.4891 202.313 92.7675 202.82C93.0459 203.327 93.1851 203.907 93.1851 204.56C93.1851 205.233 93.0294 205.832 92.7178 206.359C92.4096 206.883 91.9804 207.296 91.4302 207.597C90.8833 207.896 90.2503 208.045 89.531 208.045Z" fill="white"/>
<path d="M75.4525 243.911C74.6338 243.911 73.9312 243.704 73.3445 243.289C72.7612 242.872 72.3121 242.27 71.9972 241.485C71.6857 240.696 71.5299 239.746 71.5299 238.636C71.5332 237.526 71.6907 236.581 72.0022 235.802C72.3171 235.02 72.7662 234.423 73.3495 234.012C73.9362 233.602 74.6372 233.396 75.4525 233.396C76.2678 233.396 76.9688 233.602 77.5555 234.012C78.1421 234.423 78.5912 235.02 78.9028 235.802C79.2177 236.584 79.3751 237.529 79.3751 238.636C79.3751 239.75 79.2177 240.701 78.9028 241.49C78.5912 242.275 78.1421 242.875 77.5555 243.289C76.9722 243.704 76.2712 243.911 75.4525 243.911ZM75.4525 242.355C76.0889 242.355 76.591 242.042 76.9589 241.415C77.3301 240.785 77.5157 239.859 77.5157 238.636C77.5157 237.827 77.4312 237.148 77.2622 236.598C77.0931 236.048 76.8545 235.633 76.5463 235.355C76.238 235.073 75.8734 234.932 75.4525 234.932C74.8195 234.932 74.319 235.247 73.9511 235.877C73.5832 236.503 73.3976 237.423 73.3943 238.636C73.391 239.448 73.4722 240.131 73.6379 240.684C73.8069 241.238 74.0455 241.655 74.3538 241.937C74.662 242.216 75.0283 242.355 75.4525 242.355ZM82.7632 242.325L82.6986 242.872C82.6522 243.289 82.5693 243.714 82.45 244.145C82.334 244.579 82.2114 244.978 82.0821 245.343C81.9529 245.707 81.8485 245.994 81.7689 246.203H80.5558C80.6022 246.001 80.6652 245.726 80.7448 245.378C80.8276 245.03 80.9072 244.638 80.9834 244.204C81.0596 243.77 81.111 243.329 81.1375 242.882L81.1723 242.325H82.7632ZM84.5754 241.828V240.361L88.8957 233.535H90.1187V235.623H89.373L86.4646 240.232V240.312H92.4951V241.828H84.5754ZM89.4326 243.717V241.38L89.4525 240.724V233.535H91.1926V243.717H89.4326Z" fill="white"/>
<path d="M75.8075 281.722C74.9888 281.722 74.2862 281.515 73.6995 281.101C73.1162 280.683 72.6671 280.082 72.3522 279.296C72.0407 278.507 71.8849 277.558 71.8849 276.447C71.8882 275.337 72.0456 274.392 72.3572 273.614C72.6721 272.831 73.1212 272.235 73.7045 271.824C74.2911 271.413 74.9921 271.207 75.8075 271.207C76.6228 271.207 77.3238 271.413 77.9105 271.824C78.4971 272.235 78.9462 272.831 79.2578 273.614C79.5726 274.396 79.7301 275.34 79.7301 276.447C79.7301 277.561 79.5726 278.512 79.2578 279.301C78.9462 280.087 78.4971 280.686 77.9105 281.101C77.3271 281.515 76.6261 281.722 75.8075 281.722ZM75.8075 280.166C76.4438 280.166 76.946 279.853 77.3139 279.226C77.6851 278.597 77.8707 277.67 77.8707 276.447C77.8707 275.639 77.7862 274.959 77.6171 274.409C77.4481 273.859 77.2095 273.445 76.9012 273.166C76.593 272.884 76.2284 272.744 75.8075 272.744C75.1744 272.744 74.674 273.058 74.3061 273.688C73.9382 274.315 73.7526 275.234 73.7492 276.447C73.7459 277.259 73.8271 277.942 73.9929 278.496C74.1619 279.049 74.4005 279.467 74.7088 279.748C75.017 280.027 75.3832 280.166 75.8075 280.166ZM83.1182 280.136L83.0536 280.683C83.0072 281.101 82.9243 281.525 82.805 281.956C82.689 282.39 82.5664 282.789 82.4371 283.154C82.3078 283.519 82.2034 283.805 82.1239 284.014H80.9108C80.9572 283.812 81.0202 283.537 81.0997 283.189C81.1826 282.841 81.2621 282.45 81.3384 282.016C81.4146 281.581 81.466 281.141 81.4925 280.693L81.5273 280.136H83.1182ZM88.4266 281.668C87.7107 281.668 87.0744 281.545 86.5175 281.3C85.964 281.054 85.5265 280.713 85.205 280.275C84.8835 279.838 84.7128 279.333 84.693 278.759H86.5623C86.5789 279.034 86.67 279.275 86.8357 279.48C87.0014 279.682 87.2218 279.84 87.4969 279.952C87.772 280.065 88.0803 280.121 88.4217 280.121C88.7862 280.121 89.1094 280.058 89.3911 279.932C89.6728 279.803 89.8932 279.624 90.0523 279.396C90.2114 279.167 90.2893 278.903 90.286 278.605C90.2893 278.297 90.2098 278.025 90.0474 277.79C89.885 277.554 89.6496 277.37 89.3414 277.238C89.0365 277.105 88.6686 277.039 88.2377 277.039H87.3378V275.617H88.2377C88.5923 275.617 88.9022 275.556 89.1674 275.433C89.4359 275.311 89.6463 275.138 89.7988 274.916C89.9512 274.691 90.0258 274.431 90.0225 274.136C90.0258 273.847 89.9612 273.597 89.8286 273.385C89.6994 273.169 89.5154 273.002 89.2768 272.883C89.0414 272.763 88.7647 272.704 88.4465 272.704C88.135 272.704 87.8466 272.76 87.5815 272.873C87.3163 272.985 87.1025 273.146 86.9401 273.355C86.7777 273.561 86.6915 273.806 86.6816 274.091H84.9067C84.92 273.521 85.0841 273.02 85.3989 272.589C85.7171 272.155 86.1414 271.817 86.6717 271.575C87.202 271.33 87.7969 271.207 88.4565 271.207C89.1359 271.207 89.7259 271.335 90.2263 271.59C90.7301 271.842 91.1196 272.182 91.3947 272.609C91.6698 273.037 91.8073 273.509 91.8073 274.026C91.8106 274.6 91.6416 275.08 91.3002 275.468C90.9621 275.856 90.518 276.109 89.9678 276.229V276.308C90.6837 276.408 91.2323 276.673 91.6134 277.104C91.9979 277.531 92.1885 278.063 92.1851 278.699C92.1851 279.27 92.0227 279.78 91.6979 280.231C91.3764 280.678 90.9323 281.03 90.3655 281.285C89.8021 281.54 89.1558 281.668 88.4266 281.668Z" fill="white"/>
<path d="M75.4525 316.533C74.6338 316.533 73.9312 316.326 73.3445 315.912C72.7612 315.494 72.3121 314.893 71.9972 314.107C71.6857 313.319 71.5299 312.369 71.5299 311.259C71.5332 310.148 71.6907 309.204 72.0022 308.425C72.3171 307.643 72.7662 307.046 73.3495 306.635C73.9362 306.224 74.6372 306.019 75.4525 306.019C76.2678 306.019 76.9688 306.224 77.5555 306.635C78.1421 307.046 78.5912 307.643 78.9028 308.425C79.2177 309.207 79.3751 310.152 79.3751 311.259C79.3751 312.372 79.2177 313.324 78.9028 314.112C78.5912 314.898 78.1421 315.498 77.5555 315.912C76.9722 316.326 76.2712 316.533 75.4525 316.533ZM75.4525 314.977C76.0889 314.977 76.591 314.664 76.9589 314.038C77.3301 313.408 77.5157 312.482 77.5157 311.259C77.5157 310.45 77.4312 309.77 77.2622 309.22C77.0931 308.67 76.8545 308.256 76.5463 307.977C76.238 307.696 75.8734 307.555 75.4525 307.555C74.8195 307.555 74.319 307.87 73.9511 308.499C73.5832 309.126 73.3976 310.046 73.3943 311.259C73.391 312.071 73.4722 312.753 73.6379 313.307C73.8069 313.86 74.0455 314.278 74.3538 314.56C74.662 314.838 75.0283 314.977 75.4525 314.977ZM82.7632 314.948L82.6986 315.494C82.6522 315.912 82.5693 316.336 82.45 316.767C82.334 317.201 82.2114 317.601 82.0821 317.965C81.9529 318.33 81.8485 318.617 81.7689 318.825H80.5558C80.6022 318.623 80.6652 318.348 80.7448 318C80.8276 317.652 80.9072 317.261 80.9834 316.827C81.0596 316.393 81.111 315.952 81.1375 315.504L81.1723 314.948H82.7632ZM84.7593 316.34V315.007L88.2941 311.542C88.6322 311.201 88.9139 310.897 89.1393 310.632C89.3647 310.367 89.5337 310.11 89.6464 309.862C89.7591 309.613 89.8154 309.348 89.8154 309.066C89.8154 308.745 89.7425 308.47 89.5967 308.241C89.4508 308.009 89.2503 307.83 88.9951 307.704C88.7399 307.578 88.4499 307.515 88.1251 307.515C87.7903 307.515 87.497 307.585 87.2451 307.724C86.9932 307.86 86.7977 308.054 86.6585 308.306C86.5226 308.557 86.4546 308.857 86.4546 309.205H84.6997C84.6997 308.559 84.8472 307.997 85.1421 307.52C85.4371 307.043 85.8431 306.673 86.3602 306.411C86.8805 306.149 87.4771 306.019 88.1499 306.019C88.8327 306.019 89.4326 306.146 89.9497 306.401C90.4667 306.657 90.8677 307.006 91.1528 307.45C91.4411 307.895 91.5853 308.402 91.5853 308.972C91.5853 309.353 91.5124 309.727 91.3666 310.095C91.2207 310.463 90.9639 310.871 90.596 311.318C90.2314 311.766 89.7193 312.308 89.0597 312.944L87.3048 314.729V314.798H91.7394V316.34H84.7593Z" fill="white"/>
<line x1="102.952" y1="92.3585" x2="102.952" y2="384.359" stroke="white" stroke-width="2"/>
<line x1="101.95" y1="383.69" x2="475.963" y2="383.69" stroke="white" stroke-width="2"/>
<line x1="110" y1="94.5" x2="473" y2="94.5" stroke="white" stroke-opacity="0.5"/>
<line x1="110" y1="131.5" x2="473" y2="131.5" stroke="white" stroke-opacity="0.5"/>
<line x1="110" y1="167.5" x2="473" y2="167.5" stroke="white" stroke-opacity="0.5"/>
<line x1="110" y1="203.5" x2="473" y2="203.5" stroke="white" stroke-opacity="0.5"/>
<line x1="110" y1="240.5" x2="473" y2="240.5" stroke="white" stroke-opacity="0.5"/>
<line x1="110" y1="276.5" x2="473" y2="276.5" stroke="white" stroke-opacity="0.5"/>
<line x1="111.438" y1="312.236" x2="473.255" y2="312.236" stroke="white" stroke-opacity="0.5"/>
<line x1="111.438" y1="349.425" x2="473.255" y2="349.425" stroke="white" stroke-opacity="0.5"/>
<line x1="472.398" y1="93.7358" x2="472.398" y2="377.472" stroke="white" stroke-opacity="0.5"/>
<line x1="426.324" y1="93.7358" x2="426.324" y2="377.472" stroke="white" stroke-opacity="0.5"/>
<line x1="380.25" y1="93.7358" x2="380.25" y2="377.472" stroke="white" stroke-opacity="0.5"/>
<line x1="334.176" y1="93.7358" x2="334.176" y2="377.472" stroke="white" stroke-opacity="0.5"/>
<line x1="286.747" y1="93.7358" x2="286.747" y2="377.472" stroke="white" stroke-opacity="0.5"/>
<line x1="240.673" y1="93.7358" x2="240.673" y2="377.472" stroke="white" stroke-opacity="0.5"/>
<line x1="194.599" y1="93.7358" x2="194.599" y2="377.472" stroke="white" stroke-opacity="0.5"/>
<line x1="148.526" y1="93.7358" x2="148.526" y2="377.472" stroke="white" stroke-opacity="0.5"/>
<line x1="107" y1="113.5" x2="472" y2="113.5" stroke="white" stroke-opacity="0.5"/>
<line x1="107" y1="149.5" x2="472" y2="149.5" stroke="white" stroke-opacity="0.5"/>
<line x1="107" y1="185.5" x2="472" y2="185.5" stroke="white" stroke-opacity="0.5"/>
<line x1="107" y1="221.5" x2="472" y2="221.5" stroke="white" stroke-opacity="0.5"/>
<line x1="107" y1="258.5" x2="472" y2="258.5" stroke="white" stroke-opacity="0.5"/>
<line x1="108.727" y1="294.33" x2="471.898" y2="294.33" stroke="white" stroke-opacity="0.5"/>
<line x1="108.727" y1="330.141" x2="471.898" y2="330.141" stroke="white" stroke-opacity="0.5"/>
<line x1="108.727" y1="367.33" x2="471.898" y2="367.33" stroke="white" stroke-opacity="0.5"/>
<line x1="449.716" y1="378.849" x2="449.716" y2="93.7359" stroke="white" stroke-opacity="0.5"/>
<line x1="403.642" y1="378.849" x2="403.642" y2="93.7359" stroke="white" stroke-opacity="0.5"/>
<line x1="357.568" y1="378.849" x2="357.568" y2="93.7359" stroke="white" stroke-opacity="0.5"/>
<line x1="311.495" y1="378.849" x2="311.495" y2="93.7359" stroke="white" stroke-opacity="0.5"/>
<line x1="264.065" y1="378.849" x2="264.065" y2="93.7359" stroke="white" stroke-opacity="0.5"/>
<line x1="217.992" y1="378.849" x2="217.992" y2="93.7359" stroke="white" stroke-opacity="0.5"/>
<line x1="171.918" y1="378.849" x2="171.918" y2="93.7359" stroke="white" stroke-opacity="0.5"/>
<line x1="125.844" y1="378.849" x2="125.844" y2="93.7359" stroke="white" stroke-opacity="0.5"/>
<path d="M146.961 342.94C147.935 344.044 149.607 344.136 150.696 343.144C151.785 342.153 151.878 340.453 150.904 339.349C149.93 338.244 148.258 338.152 147.169 339.144C146.08 340.135 145.987 341.835 146.961 342.94ZM106.348 380.602L149.263 341.519L148.602 340.769L105.686 379.851L106.348 380.602Z" fill="#00C6C3"/>
<path d="M192.979 304.274C193.906 305.419 195.573 305.58 196.703 304.635C197.832 303.689 197.996 301.995 197.069 300.851C196.142 299.707 194.474 299.545 193.345 300.491C192.216 301.436 192.052 303.13 192.979 304.274ZM149.265 341.517L195.339 302.951L194.709 302.174L148.635 340.74L149.265 341.517Z" fill="#00C6C3"/>
<path d="M239.032 267.041C239.939 268.202 241.603 268.393 242.749 267.468C243.895 266.543 244.089 264.852 243.182 263.691C242.275 262.531 240.611 262.34 239.465 263.265C238.319 264.19 238.125 265.881 239.032 267.041ZM195.341 302.949L241.415 265.76L240.799 264.972L194.725 302.161L195.341 302.949Z" fill="#00C6C3"/>
<path d="M286.526 223.099C287.494 224.209 289.166 224.311 290.26 223.325C291.355 222.34 291.458 220.641 290.49 219.531C289.523 218.42 287.851 218.319 286.756 219.304C285.662 220.29 285.559 221.989 286.526 223.099ZM241.408 264.39L288.837 221.692L288.18 220.938L240.751 263.636L241.408 264.39Z" fill="#00C6C3"/>
<path d="M331.203 187.163C332.119 188.317 333.785 188.494 334.923 187.56C336.062 186.626 336.242 184.933 335.326 183.78C334.41 182.627 332.745 182.449 331.606 183.384C330.468 184.318 330.287 186.01 331.203 187.163ZM289.269 222.222L333.576 185.863L332.954 185.08L288.647 221.439L289.269 222.222Z" fill="#00C6C3"/>
<path d="M377.273 148.612C378.193 149.762 379.859 149.934 380.995 148.996C382.13 148.058 382.304 146.365 381.384 145.215C380.464 144.065 378.798 143.893 377.663 144.831C376.528 145.769 376.353 147.462 377.273 148.612ZM333.989 185.032L379.641 147.304L379.017 146.523L333.364 184.251L333.989 185.032Z" fill="#00C6C3"/>
<path d="M424.687 110.031C425.598 111.189 427.262 111.374 428.405 110.445C429.548 109.515 429.736 107.824 428.825 106.667C427.914 105.509 426.249 105.325 425.106 106.254C423.964 107.183 423.776 108.874 424.687 110.031ZM379.636 147.308L427.065 108.742L426.446 107.956L379.017 146.522L379.636 147.308Z" fill="#00C6C3"/>
<line y1="-0.5" x2="19.3221" y2="-0.5" transform="matrix(0.701327 -0.712839 0.701327 0.712839 427.179 108.887)" stroke="#00C6C3"/>
<rect x="469.188" y="377.472" width="6.77557" height="5.50943" fill="white"/>
<rect x="446.151" y="378.849" width="6.77557" height="4.13208" fill="white"/>
<rect x="423.114" y="377.472" width="5.42046" height="5.50943" fill="white"/>
<rect x="400.077" y="378.849" width="6.77557" height="4.13208" fill="white"/>
<rect x="377.04" y="377.472" width="5.42046" height="5.50943" fill="white"/>
<rect x="354.003" y="378.849" width="5.42046" height="4.13208" fill="white"/>
<rect x="330.966" y="377.472" width="5.42046" height="5.50943" fill="white"/>
<rect x="307.929" y="378.849" width="5.42046" height="4.13208" fill="white"/>
<rect x="284.892" y="377.472" width="5.42046" height="5.50943" fill="white"/>
<rect x="261.855" y="378.849" width="5.42046" height="4.13208" fill="#FFFCFC"/>
<rect x="238.818" y="377.472" width="5.42046" height="5.50943" fill="white"/>
<rect x="215.781" y="378.849" width="5.42046" height="4.13208" fill="white"/>
<rect x="192.744" y="377.472" width="5.42046" height="5.50943" fill="white"/>
<rect x="168.352" y="378.849" width="6.77557" height="4.13208" fill="white"/>
<rect x="146.671" y="377.472" width="5.42046" height="5.50943" fill="white"/>
<rect x="122.278" y="378.849" width="6.77557" height="4.13208" fill="white"/>
<rect x="103.307" y="363.698" width="5.42046" height="6.88679" fill="white"/>
<rect x="103.307" y="345.792" width="8.13069" height="5.50943" fill="white"/>
<rect x="103.307" y="327.887" width="5.42046" height="5.50943" fill="white"/>
<rect x="103.307" y="309.981" width="8.13069" height="5.50943" fill="white"/>
<rect x="103.307" y="290.698" width="5.42046" height="6.88679" fill="white"/>
<rect x="103.662" y="272.792" width="6.77557" height="6.88679" fill="white"/>
<rect x="103.662" y="254.887" width="4.06534" height="6.88679" fill="white"/>
<rect x="103.662" y="236.981" width="6.77557" height="5.50943" fill="white"/>
<rect x="103.662" y="219.075" width="4.06534" height="5.50943" fill="white"/>
<rect x="103.662" y="201.17" width="6.77557" height="5.50943" fill="white"/>
<rect x="103.662" y="183.264" width="4.06534" height="5.50943" fill="white"/>
<rect x="103.662" y="163.981" width="6.77557" height="6.88679" fill="white"/>
<rect x="103.662" y="146.075" width="4.06534" height="6.88679" fill="white"/>
<rect x="103.662" y="128.17" width="6.77557" height="5.50943" fill="white"/>
<rect x="103.662" y="110.264" width="4.06534" height="5.50943" fill="white"/>
<rect x="103.662" y="92.3585" width="6.77557" height="5.50943" fill="white"/>
<path d="M106.555 404.062C105.736 404.062 105.033 403.855 104.447 403.44C103.864 403.023 103.414 402.421 103.1 401.636C102.788 400.847 102.632 399.897 102.632 398.787C102.636 397.677 102.793 396.732 103.105 395.953C103.419 395.171 103.868 394.574 104.452 394.163C105.038 393.752 105.739 393.547 106.555 393.547C107.37 393.547 108.071 393.752 108.658 394.163C109.244 394.574 109.694 395.171 110.005 395.953C110.32 396.735 110.477 397.68 110.477 398.787C110.477 399.901 110.32 400.852 110.005 401.641C109.694 402.426 109.244 403.026 108.658 403.44C108.074 403.855 107.373 404.062 106.555 404.062ZM106.555 402.506C107.191 402.506 107.693 402.192 108.061 401.566C108.432 400.936 108.618 400.01 108.618 398.787C108.618 397.978 108.533 397.299 108.364 396.749C108.195 396.198 107.957 395.784 107.649 395.506C107.34 395.224 106.976 395.083 106.555 395.083C105.922 395.083 105.421 395.398 105.053 396.028C104.685 396.654 104.5 397.574 104.497 398.787C104.493 399.599 104.574 400.282 104.74 400.835C104.909 401.389 105.148 401.806 105.456 402.088C105.764 402.366 106.131 402.506 106.555 402.506Z" fill="white"/>
<path d="M150.362 393.686V403.868H148.517V395.481H148.457L146.076 397.002V395.312L148.607 393.686H150.362Z" fill="white"/>
<path d="M192.294 403.868V402.536L195.829 399.07C196.167 398.729 196.449 398.426 196.674 398.161C196.899 397.895 197.068 397.639 197.181 397.39C197.294 397.141 197.35 396.876 197.35 396.594C197.35 396.273 197.277 395.998 197.131 395.769C196.986 395.537 196.785 395.358 196.53 395.232C196.275 395.106 195.985 395.043 195.66 395.043C195.325 395.043 195.032 395.113 194.78 395.252C194.528 395.388 194.332 395.582 194.193 395.834C194.057 396.086 193.989 396.386 193.989 396.734H192.234C192.234 396.087 192.382 395.526 192.677 395.048C192.972 394.571 193.378 394.201 193.895 393.94C194.415 393.678 195.012 393.547 195.685 393.547C196.368 393.547 196.967 393.675 197.484 393.93C198.001 394.185 198.403 394.535 198.688 394.979C198.976 395.423 199.12 395.93 199.12 396.5C199.12 396.881 199.047 397.256 198.901 397.624C198.756 397.991 198.499 398.399 198.131 398.847C197.766 399.294 197.254 399.836 196.595 400.472L194.84 402.257V402.327H199.274V403.868H192.294Z" fill="white"/>
<path d="M240.667 404.007C239.951 404.007 239.315 403.884 238.758 403.639C238.204 403.394 237.767 403.053 237.445 402.615C237.124 402.178 236.953 401.672 236.933 401.099H238.803C238.819 401.374 238.91 401.614 239.076 401.82C239.242 402.022 239.462 402.179 239.737 402.292C240.012 402.405 240.321 402.461 240.662 402.461C241.027 402.461 241.35 402.398 241.631 402.272C241.913 402.143 242.134 401.964 242.293 401.735C242.452 401.506 242.53 401.243 242.526 400.945C242.53 400.636 242.45 400.365 242.288 400.129C242.125 399.894 241.89 399.71 241.582 399.577C241.277 399.445 240.909 399.379 240.478 399.379H239.578V397.957H240.478C240.833 397.957 241.143 397.895 241.408 397.773C241.676 397.65 241.887 397.478 242.039 397.256C242.192 397.03 242.266 396.77 242.263 396.475C242.266 396.187 242.202 395.937 242.069 395.724C241.94 395.509 241.756 395.342 241.517 395.222C241.282 395.103 241.005 395.043 240.687 395.043C240.375 395.043 240.087 395.1 239.822 395.212C239.557 395.325 239.343 395.486 239.18 395.695C239.018 395.9 238.932 396.145 238.922 396.43H237.147C237.16 395.86 237.324 395.36 237.639 394.929C237.957 394.495 238.382 394.157 238.912 393.915C239.442 393.67 240.037 393.547 240.697 393.547C241.376 393.547 241.966 393.675 242.467 393.93C242.97 394.182 243.36 394.521 243.635 394.949C243.91 395.376 244.048 395.849 244.048 396.366C244.051 396.939 243.882 397.42 243.541 397.808C243.202 398.195 242.758 398.449 242.208 398.568V398.648C242.924 398.747 243.473 399.012 243.854 399.443C244.238 399.871 244.429 400.403 244.426 401.039C244.426 401.609 244.263 402.12 243.938 402.57C243.617 403.018 243.173 403.369 242.606 403.624C242.042 403.88 241.396 404.007 240.667 404.007Z" fill="white"/>
<path d="M282.903 401.979V400.512L287.223 393.686H288.446V395.774H287.7L284.792 400.383V400.462H290.823V401.979H282.903ZM287.76 403.868V401.531L287.78 400.875V393.686H289.52V403.868H287.76Z" fill="white"/>
<path d="M332.7 404.007C332.038 404.007 331.444 403.883 330.921 403.634C330.397 403.382 329.981 403.038 329.673 402.6C329.368 402.163 329.205 401.662 329.186 401.099H330.975C331.008 401.516 331.189 401.858 331.517 402.123C331.845 402.385 332.24 402.516 332.7 402.516C333.062 402.516 333.383 402.433 333.665 402.267C333.947 402.101 334.169 401.871 334.331 401.576C334.494 401.281 334.573 400.945 334.57 400.567C334.573 400.182 334.492 399.841 334.326 399.543C334.16 399.244 333.933 399.011 333.645 398.842C333.357 398.669 333.025 398.583 332.651 398.583C332.346 398.58 332.046 398.636 331.751 398.752C331.456 398.868 331.222 399.021 331.05 399.21L329.384 398.936L329.916 393.686H335.823V395.227H331.443L331.149 397.927H331.209C331.398 397.705 331.665 397.521 332.009 397.375C332.354 397.226 332.732 397.151 333.143 397.151C333.759 397.151 334.31 397.297 334.794 397.589C335.277 397.877 335.659 398.275 335.937 398.782C336.215 399.289 336.355 399.869 336.355 400.522C336.355 401.195 336.199 401.795 335.887 402.322C335.579 402.845 335.15 403.258 334.6 403.56C334.053 403.858 333.42 404.007 332.7 404.007Z" fill="white"/>
<path d="M380.318 404.007C379.831 404.004 379.356 403.919 378.891 403.754C378.427 403.585 378.01 403.311 377.639 402.933C377.267 402.552 376.972 402.047 376.754 401.417C376.535 400.784 376.427 400 376.431 399.065C376.431 398.194 376.523 397.416 376.709 396.734C376.895 396.051 377.161 395.474 377.509 395.004C377.857 394.53 378.277 394.168 378.767 393.92C379.261 393.671 379.813 393.547 380.423 393.547C381.062 393.547 381.629 393.673 382.123 393.925C382.62 394.177 383.021 394.521 383.326 394.959C383.631 395.393 383.82 395.884 383.893 396.43H382.078C381.985 396.039 381.795 395.728 381.507 395.496C381.222 395.26 380.86 395.143 380.423 395.143C379.717 395.143 379.173 395.449 378.792 396.063C378.414 396.676 378.224 397.518 378.22 398.588H378.29C378.452 398.296 378.663 398.046 378.921 397.837C379.18 397.629 379.472 397.468 379.796 397.355C380.124 397.239 380.471 397.181 380.835 397.181C381.432 397.181 381.967 397.324 382.441 397.609C382.918 397.894 383.296 398.286 383.575 398.787C383.853 399.284 383.991 399.854 383.987 400.497C383.991 401.167 383.838 401.768 383.53 402.302C383.222 402.832 382.793 403.25 382.242 403.555C381.692 403.86 381.051 404.01 380.318 404.007ZM380.308 402.516C380.67 402.516 380.993 402.428 381.278 402.252C381.563 402.076 381.788 401.84 381.954 401.541C382.12 401.243 382.201 400.908 382.198 400.537C382.201 400.172 382.121 399.843 381.959 399.548C381.8 399.253 381.579 399.019 381.298 398.847C381.016 398.674 380.695 398.588 380.333 398.588C380.065 398.588 379.815 398.639 379.583 398.742C379.351 398.845 379.148 398.987 378.976 399.17C378.804 399.349 378.668 399.558 378.568 399.796C378.472 400.032 378.423 400.283 378.419 400.552C378.423 400.907 378.505 401.233 378.668 401.531C378.83 401.83 379.054 402.068 379.339 402.247C379.624 402.426 379.947 402.516 380.308 402.516Z" fill="white"/>
<path d="M423.036 403.868L427.367 395.297V395.227H422.34V393.686H429.276V395.262L424.951 403.868H423.036Z" fill="white"/>
<path d="M472.357 404.007C471.618 404.007 470.961 403.883 470.388 403.634C469.818 403.386 469.371 403.046 469.046 402.615C468.724 402.181 468.565 401.689 468.568 401.139C468.565 400.711 468.658 400.318 468.847 399.96C469.036 399.602 469.291 399.304 469.612 399.065C469.937 398.823 470.299 398.669 470.696 398.603V398.533C470.173 398.417 469.748 398.151 469.424 397.733C469.102 397.312 468.943 396.826 468.946 396.276C468.943 395.753 469.089 395.285 469.384 394.874C469.679 394.463 470.083 394.14 470.597 393.905C471.111 393.666 471.697 393.547 472.357 393.547C473.01 393.547 473.591 393.666 474.102 393.905C474.616 394.14 475.02 394.463 475.315 394.874C475.613 395.285 475.762 395.753 475.762 396.276C475.762 396.826 475.598 397.312 475.27 397.733C474.945 398.151 474.526 398.417 474.012 398.533V398.603C474.41 398.669 474.768 398.823 475.086 399.065C475.408 399.304 475.663 399.602 475.852 399.96C476.044 400.318 476.14 400.711 476.14 401.139C476.14 401.689 475.978 402.181 475.653 402.615C475.328 403.046 474.881 403.386 474.311 403.634C473.744 403.883 473.093 404.007 472.357 404.007ZM472.357 402.585C472.738 402.585 473.069 402.521 473.351 402.391C473.633 402.259 473.852 402.073 474.007 401.835C474.163 401.596 474.243 401.321 474.246 401.009C474.243 400.684 474.158 400.398 473.992 400.149C473.83 399.897 473.606 399.7 473.321 399.558C473.04 399.415 472.718 399.344 472.357 399.344C471.992 399.344 471.667 399.415 471.382 399.558C471.097 399.7 470.872 399.897 470.706 400.149C470.544 400.398 470.464 400.684 470.468 401.009C470.464 401.321 470.541 401.596 470.696 401.835C470.852 402.07 471.071 402.254 471.353 402.386C471.638 402.519 471.972 402.585 472.357 402.585ZM472.357 397.947C472.668 397.947 472.943 397.884 473.182 397.758C473.424 397.632 473.615 397.456 473.754 397.231C473.893 397.005 473.964 396.745 473.968 396.45C473.964 396.159 473.895 395.903 473.759 395.685C473.623 395.463 473.434 395.292 473.192 395.173C472.95 395.05 472.672 394.989 472.357 394.989C472.035 394.989 471.752 395.05 471.507 395.173C471.265 395.292 471.076 395.463 470.94 395.685C470.807 395.903 470.743 396.159 470.746 396.45C470.743 396.745 470.809 397.005 470.945 397.231C471.084 397.453 471.275 397.629 471.517 397.758C471.762 397.884 472.042 397.947 472.357 397.947Z" fill="white"/>
<path d="M79.5177 354.345C78.699 354.345 77.9964 354.138 77.4097 353.723C76.8264 353.306 76.3773 352.704 76.0624 351.919C75.7509 351.13 75.5951 350.18 75.5951 349.07C75.5984 347.96 75.7559 347.015 76.0674 346.236C76.3823 345.454 76.8314 344.857 77.4147 344.446C78.0014 344.035 78.7023 343.83 79.5177 343.83C80.333 343.83 81.034 344.035 81.6207 344.446C82.2073 344.857 82.6564 345.454 82.968 346.236C83.2828 347.018 83.4403 347.963 83.4403 349.07C83.4403 350.184 83.2828 351.135 82.968 351.924C82.6564 352.709 82.2073 353.309 81.6207 353.723C81.0373 354.138 80.3363 354.345 79.5177 354.345ZM79.5177 352.789C80.1541 352.789 80.6562 352.475 81.0241 351.849C81.3953 351.219 81.5809 350.293 81.5809 349.07C81.5809 348.261 81.4964 347.582 81.3273 347.032C81.1583 346.481 80.9197 346.067 80.6114 345.789C80.3032 345.507 79.9386 345.366 79.5177 345.366C78.8846 345.366 78.3842 345.681 78.0163 346.311C77.6484 346.937 77.4628 347.857 77.4595 349.07C77.4561 349.882 77.5373 350.565 77.7031 351.118C77.8721 351.672 78.1107 352.089 78.419 352.371C78.7272 352.649 79.0934 352.789 79.5177 352.789ZM86.8284 352.759L86.7638 353.306C86.7174 353.723 86.6345 354.148 86.5152 354.578C86.3992 355.013 86.2766 355.412 86.1473 355.777C86.018 356.141 85.9136 356.428 85.8341 356.637H84.621C84.6674 356.434 84.7304 356.159 84.8099 355.811C84.8928 355.463 84.9724 355.072 85.0486 354.638C85.1248 354.204 85.1762 353.763 85.2027 353.316L85.2375 352.759H86.8284ZM91.708 343.969V354.151H89.8636V345.764H89.8039L87.4225 347.285V345.595L89.9531 343.969H91.708Z" fill="white"/>
<path d="M87.6485 383.533C86.8299 383.533 86.1272 383.326 85.5406 382.912C84.9573 382.494 84.5082 381.893 84.1933 381.107C83.8817 380.319 83.726 379.369 83.726 378.259C83.7293 377.148 83.8867 376.204 84.1983 375.425C84.5131 374.643 84.9622 374.046 85.5456 373.635C86.1322 373.224 86.8332 373.019 87.6485 373.019C88.4639 373.019 89.1649 373.224 89.7515 373.635C90.3382 374.046 90.7873 374.643 91.0988 375.425C91.4137 376.207 91.5711 377.152 91.5711 378.259C91.5711 379.372 91.4137 380.324 91.0988 381.112C90.7873 381.898 90.3382 382.498 89.7515 382.912C89.1682 383.326 88.4672 383.533 87.6485 383.533ZM87.6485 381.977C88.2849 381.977 88.787 381.664 89.1549 381.038C89.5262 380.408 89.7118 379.482 89.7118 378.259C89.7118 377.45 89.6272 376.77 89.4582 376.22C89.2892 375.67 89.0505 375.256 88.7423 374.977C88.4341 374.696 88.0695 374.555 87.6485 374.555C87.0155 374.555 86.515 374.87 86.1471 375.499C85.7792 376.126 85.5936 377.046 85.5903 378.259C85.587 379.071 85.6682 379.753 85.8339 380.307C86.003 380.86 86.2416 381.278 86.5498 381.56C86.8581 381.838 87.2243 381.977 87.6485 381.977Z" fill="white"/>
<path d="M236.795 432.663V430.455H248.401V432.663H243.905V445H241.291V432.663H236.795ZM253.772 445.213C252.678 445.213 251.733 444.986 250.938 444.531C250.147 444.072 249.539 443.423 249.113 442.585C248.686 441.742 248.473 440.75 248.473 439.609C248.473 438.487 248.686 437.502 249.113 436.655C249.543 435.803 250.145 435.14 250.917 434.666C251.688 434.188 252.595 433.949 253.637 433.949C254.309 433.949 254.944 434.058 255.54 434.276C256.141 434.489 256.672 434.82 257.131 435.27C257.595 435.72 257.96 436.293 258.225 436.989C258.49 437.68 258.623 438.504 258.623 439.46V440.249H249.681V438.516H256.158C256.153 438.023 256.047 437.585 255.838 437.202C255.63 436.813 255.339 436.508 254.965 436.286C254.596 436.063 254.165 435.952 253.672 435.952C253.147 435.952 252.685 436.08 252.287 436.335C251.89 436.586 251.579 436.918 251.357 437.33C251.139 437.737 251.028 438.184 251.023 438.672V440.185C251.023 440.819 251.139 441.364 251.371 441.818C251.603 442.268 251.927 442.614 252.344 442.855C252.761 443.092 253.248 443.21 253.807 443.21C254.181 443.21 254.52 443.158 254.823 443.054C255.126 442.945 255.389 442.786 255.611 442.578C255.834 442.37 256.002 442.112 256.115 441.804L258.516 442.074C258.364 442.708 258.076 443.262 257.65 443.736C257.228 444.205 256.688 444.569 256.03 444.83C255.372 445.085 254.619 445.213 253.772 445.213ZM260.798 445V434.091H263.255V435.945H263.383C263.61 435.32 263.987 434.832 264.512 434.482C265.038 434.126 265.665 433.949 266.394 433.949C267.133 433.949 267.755 434.129 268.262 434.489C268.773 434.844 269.133 435.329 269.342 435.945H269.455C269.697 435.339 270.104 434.856 270.677 434.496C271.254 434.131 271.939 433.949 272.729 433.949C273.733 433.949 274.552 434.266 275.187 434.901C275.821 435.535 276.138 436.461 276.138 437.678V445H273.56V438.075C273.56 437.398 273.38 436.903 273.021 436.591C272.661 436.274 272.22 436.115 271.7 436.115C271.079 436.115 270.594 436.309 270.244 436.697C269.898 437.081 269.725 437.58 269.725 438.196V445H267.204V437.969C267.204 437.405 267.033 436.955 266.692 436.619C266.356 436.283 265.916 436.115 265.371 436.115C265.002 436.115 264.666 436.21 264.363 436.399C264.06 436.584 263.818 436.847 263.638 437.188C263.459 437.524 263.369 437.917 263.369 438.366V445H260.798ZM278.747 449.091V434.091H281.275V435.895H281.424C281.557 435.63 281.744 435.348 281.985 435.05C282.227 434.747 282.554 434.489 282.966 434.276C283.377 434.058 283.903 433.949 284.542 433.949C285.385 433.949 286.145 434.164 286.822 434.595C287.504 435.021 288.044 435.653 288.441 436.491C288.844 437.325 289.045 438.348 289.045 439.56C289.045 440.758 288.849 441.776 288.456 442.614C288.063 443.452 287.528 444.091 286.85 444.531C286.173 444.972 285.406 445.192 284.549 445.192C283.924 445.192 283.406 445.088 282.994 444.879C282.582 444.671 282.251 444.42 282 444.126C281.753 443.828 281.562 443.546 281.424 443.281H281.318V449.091H278.747ZM281.268 439.545C281.268 440.251 281.368 440.869 281.566 441.399C281.77 441.929 282.061 442.344 282.44 442.642C282.824 442.936 283.288 443.082 283.832 443.082C284.4 443.082 284.876 442.931 285.26 442.628C285.643 442.32 285.932 441.901 286.126 441.371C286.325 440.836 286.424 440.227 286.424 439.545C286.424 438.868 286.327 438.267 286.133 437.741C285.939 437.216 285.65 436.804 285.267 436.506C284.883 436.207 284.405 436.058 283.832 436.058C283.283 436.058 282.816 436.203 282.433 436.491C282.049 436.78 281.758 437.185 281.559 437.706C281.365 438.227 281.268 438.84 281.268 439.545ZM296.005 445.213C294.94 445.213 294.017 444.979 293.235 444.51C292.454 444.041 291.848 443.385 291.417 442.543C290.991 441.7 290.778 440.715 290.778 439.588C290.778 438.461 290.991 437.474 291.417 436.626C291.848 435.779 292.454 435.121 293.235 434.652C294.017 434.183 294.94 433.949 296.005 433.949C297.071 433.949 297.994 434.183 298.775 434.652C299.556 435.121 300.16 435.779 300.586 436.626C301.017 437.474 301.233 438.461 301.233 439.588C301.233 440.715 301.017 441.7 300.586 442.543C300.16 443.385 299.556 444.041 298.775 444.51C297.994 444.979 297.071 445.213 296.005 445.213ZM296.02 443.153C296.597 443.153 297.08 442.995 297.468 442.678C297.857 442.356 298.145 441.925 298.335 441.385C298.529 440.845 298.626 440.244 298.626 439.581C298.626 438.913 298.529 438.31 298.335 437.77C298.145 437.225 297.857 436.792 297.468 436.47C297.08 436.148 296.597 435.987 296.02 435.987C295.428 435.987 294.935 436.148 294.542 436.47C294.154 436.792 293.863 437.225 293.669 437.77C293.479 438.31 293.385 438.913 293.385 439.581C293.385 440.244 293.479 440.845 293.669 441.385C293.863 441.925 294.154 442.356 294.542 442.678C294.935 442.995 295.428 443.153 296.02 443.153Z" fill="white"/>
</svg>
