<svg width="492" height="504" viewBox="0 0 492 504" fill="none" xmlns="http://www.w3.org/2000/svg">
<rect x="1" y="1" width="490" height="502" rx="37" fill="#131627" stroke="black" stroke-width="2"/>
<path d="M119.434 403.69V402.928L121.454 400.948C121.647 400.753 121.808 400.58 121.937 400.428C122.065 400.277 122.162 400.13 122.226 399.988C122.291 399.846 122.323 399.694 122.323 399.533C122.323 399.35 122.281 399.193 122.198 399.062C122.115 398.929 122 398.827 121.854 398.755C121.708 398.683 121.543 398.647 121.357 398.647C121.166 398.647 120.998 398.687 120.854 398.766C120.71 398.844 120.599 398.955 120.519 399.099C120.441 399.243 120.403 399.414 120.403 399.613H119.4C119.4 399.244 119.484 398.923 119.653 398.65C119.821 398.377 120.053 398.166 120.349 398.016C120.646 397.867 120.987 397.792 121.371 397.792C121.761 397.792 122.104 397.865 122.4 398.011C122.695 398.157 122.924 398.356 123.087 398.61C123.252 398.864 123.334 399.154 123.334 399.479C123.334 399.697 123.293 399.911 123.209 400.121C123.126 400.332 122.979 400.565 122.769 400.82C122.561 401.076 122.268 401.386 121.891 401.749L120.888 402.769V402.809H123.422V403.69H119.434Z" fill="white"/>
<path d="M71.9892 349.621V348.859L74.0091 346.879C74.2023 346.684 74.3633 346.511 74.4921 346.359C74.6208 346.208 74.7174 346.061 74.7818 345.919C74.8462 345.777 74.8784 345.625 74.8784 345.464C74.8784 345.281 74.8368 345.124 74.7534 344.993C74.6701 344.86 74.5555 344.758 74.4097 344.686C74.2638 344.614 74.0981 344.578 73.9125 344.578C73.7212 344.578 73.5536 344.618 73.4097 344.697C73.2657 344.775 73.154 344.886 73.0744 345.03C72.9968 345.174 72.958 345.345 72.958 345.544H71.9551C71.9551 345.175 72.0394 344.854 72.208 344.581C72.3765 344.308 72.6085 344.097 72.904 343.947C73.2013 343.798 73.5422 343.723 73.9267 343.723C74.3169 343.723 74.6597 343.796 74.9551 343.942C75.2506 344.088 75.4797 344.287 75.6426 344.541C75.8074 344.795 75.8898 345.085 75.8898 345.41C75.8898 345.628 75.8481 345.842 75.7648 346.053C75.6814 346.263 75.5347 346.496 75.3244 346.751C75.1161 347.007 74.8235 347.317 74.4466 347.68L73.4438 348.7V348.74H75.9778V349.621H71.9892Z" fill="white"/>
<path d="M161.69 402.61V401.772L164.159 397.871H164.857V399.065H164.431L162.769 401.698V401.744H166.215V402.61H161.69ZM164.465 403.69V402.354L164.477 401.979V397.871H165.471V403.69H164.465Z" fill="white"/>
<path d="M70.1898 304.61V303.772L72.6585 299.871H73.3574V301.065H72.9312L71.2693 303.698V303.744H74.7153V304.61H70.1898ZM72.9653 305.69V304.354L72.9767 303.979V299.871H73.971V305.69H72.9653Z" fill="white"/>
<path d="M206.287 403.769C206.008 403.767 205.736 403.719 205.471 403.624C205.206 403.528 204.968 403.371 204.755 403.156C204.543 402.938 204.375 402.649 204.25 402.289C204.125 401.927 204.063 401.479 204.065 400.945C204.065 400.447 204.118 400.003 204.224 399.613C204.33 399.223 204.483 398.893 204.682 398.624C204.88 398.353 205.12 398.147 205.4 398.005C205.682 397.863 205.998 397.792 206.346 397.792C206.712 397.792 207.036 397.864 207.318 398.008C207.602 398.152 207.831 398.349 208.005 398.599C208.18 398.847 208.288 399.127 208.329 399.44H207.292C207.239 399.216 207.13 399.038 206.966 398.906C206.803 398.771 206.596 398.704 206.346 398.704C205.943 398.704 205.632 398.879 205.414 399.229C205.199 399.58 205.09 400.061 205.088 400.673H205.128C205.22 400.506 205.341 400.363 205.488 400.244C205.636 400.124 205.803 400.032 205.988 399.968C206.176 399.902 206.374 399.869 206.582 399.869C206.923 399.869 207.229 399.95 207.5 400.113C207.772 400.276 207.988 400.5 208.147 400.786C208.307 401.07 208.385 401.396 208.383 401.764C208.385 402.146 208.298 402.49 208.122 402.795C207.946 403.098 207.7 403.336 207.386 403.511C207.072 403.685 206.705 403.771 206.287 403.769ZM206.281 402.917C206.487 402.917 206.672 402.867 206.835 402.766C206.998 402.666 207.127 402.531 207.221 402.36C207.316 402.19 207.362 401.998 207.361 401.786C207.362 401.578 207.317 401.389 207.224 401.221C207.133 401.052 207.007 400.919 206.846 400.82C206.685 400.722 206.502 400.673 206.295 400.673C206.142 400.673 205.999 400.702 205.866 400.761C205.734 400.819 205.618 400.901 205.52 401.005C205.421 401.107 205.343 401.227 205.287 401.363C205.232 401.497 205.203 401.641 205.201 401.795C205.203 401.997 205.251 402.184 205.343 402.354C205.436 402.525 205.564 402.661 205.727 402.764C205.89 402.866 206.075 402.917 206.281 402.917Z" fill="white"/>
<path d="M72.4256 263.528C72.1472 263.526 71.8754 263.478 71.6102 263.383C71.3451 263.286 71.1064 263.13 70.8943 262.914C70.6822 262.696 70.5136 262.408 70.3886 262.048C70.2636 261.686 70.2021 261.238 70.204 260.704C70.204 260.206 70.257 259.762 70.3631 259.372C70.4691 258.981 70.6216 258.652 70.8204 258.383C71.0193 258.112 71.2589 257.906 71.5392 257.764C71.8214 257.622 72.1367 257.551 72.4852 257.551C72.8507 257.551 73.1746 257.623 73.4568 257.766C73.7409 257.91 73.9701 258.107 74.1443 258.357C74.3186 258.606 74.4265 258.886 74.4682 259.198H73.4312C73.3782 258.975 73.2693 258.797 73.1045 258.664C72.9417 258.53 72.7352 258.463 72.4852 258.463C72.0818 258.463 71.7712 258.638 71.5534 258.988C71.3375 259.338 71.2286 259.82 71.2267 260.431H71.2665C71.3593 260.265 71.4795 260.122 71.6273 260.002C71.775 259.883 71.9417 259.791 72.1273 259.727C72.3148 259.66 72.5127 259.627 72.721 259.627C73.0619 259.627 73.3678 259.709 73.6386 259.872C73.9114 260.034 74.1273 260.259 74.2864 260.545C74.4454 260.829 74.524 261.155 74.5222 261.522C74.524 261.905 74.4369 262.248 74.2608 262.553C74.0847 262.856 73.8394 263.095 73.525 263.269C73.2106 263.444 72.8441 263.53 72.4256 263.528ZM72.4199 262.676C72.6263 262.676 72.811 262.625 72.9739 262.525C73.1367 262.425 73.2655 262.289 73.3602 262.119C73.4549 261.948 73.5013 261.757 73.4994 261.545C73.5013 261.337 73.4559 261.148 73.3631 260.98C73.2722 260.811 73.1462 260.677 72.9852 260.579C72.8242 260.481 72.6405 260.431 72.4341 260.431C72.2807 260.431 72.1377 260.461 72.0051 260.519C71.8725 260.578 71.757 260.659 71.6585 260.764C71.56 260.866 71.4824 260.985 71.4256 261.122C71.3706 261.256 71.3422 261.4 71.3403 261.553C71.3422 261.756 71.3896 261.943 71.4824 262.113C71.5752 262.284 71.703 262.42 71.8659 262.522C72.0288 262.624 72.2134 262.676 72.4199 262.676Z" fill="white"/>
<path d="M246.891 403.769C246.468 403.769 246.093 403.698 245.766 403.556C245.44 403.414 245.184 403.22 244.999 402.974C244.815 402.726 244.724 402.444 244.726 402.13C244.724 401.886 244.777 401.661 244.885 401.457C244.993 401.252 245.139 401.082 245.322 400.945C245.508 400.807 245.715 400.719 245.942 400.681V400.641C245.643 400.575 245.4 400.423 245.215 400.184C245.031 399.943 244.94 399.666 244.942 399.352C244.94 399.052 245.023 398.785 245.192 398.55C245.36 398.316 245.591 398.131 245.885 397.996C246.179 397.86 246.514 397.792 246.891 397.792C247.264 397.792 247.596 397.86 247.888 397.996C248.181 398.131 248.412 398.316 248.581 398.55C248.751 398.785 248.837 399.052 248.837 399.352C248.837 399.666 248.743 399.943 248.555 400.184C248.37 400.423 248.13 400.575 247.837 400.641V400.681C248.064 400.719 248.268 400.807 248.45 400.945C248.634 401.082 248.78 401.252 248.888 401.457C248.998 401.661 249.053 401.886 249.053 402.13C249.053 402.444 248.96 402.726 248.774 402.974C248.589 403.22 248.333 403.414 248.007 403.556C247.683 403.698 247.311 403.769 246.891 403.769ZM246.891 402.957C247.108 402.957 247.298 402.92 247.459 402.846C247.62 402.77 247.745 402.664 247.834 402.528C247.923 402.391 247.968 402.234 247.97 402.056C247.968 401.871 247.92 401.707 247.825 401.565C247.733 401.421 247.605 401.308 247.442 401.227C247.281 401.145 247.097 401.104 246.891 401.104C246.682 401.104 246.497 401.145 246.334 401.227C246.171 401.308 246.042 401.421 245.947 401.565C245.855 401.707 245.809 401.871 245.811 402.056C245.809 402.234 245.853 402.391 245.942 402.528C246.031 402.662 246.156 402.767 246.317 402.843C246.48 402.919 246.671 402.957 246.891 402.957ZM246.891 400.306C247.069 400.306 247.226 400.27 247.362 400.198C247.5 400.126 247.609 400.026 247.689 399.897C247.768 399.768 247.809 399.62 247.811 399.451C247.809 399.284 247.769 399.139 247.692 399.014C247.614 398.887 247.506 398.789 247.368 398.721C247.23 398.651 247.071 398.616 246.891 398.616C246.707 398.616 246.545 398.651 246.405 398.721C246.267 398.789 246.159 398.887 246.081 399.014C246.005 399.139 245.968 399.284 245.97 399.451C245.968 399.62 246.006 399.768 246.084 399.897C246.163 400.024 246.272 400.124 246.411 400.198C246.551 400.27 246.711 400.306 246.891 400.306Z" fill="white"/>
<path d="M72.3631 216.217C71.9407 216.217 71.5657 216.146 71.2381 216.004C70.9123 215.862 70.6566 215.668 70.471 215.422C70.2873 215.174 70.1964 214.893 70.1983 214.578C70.1964 214.334 70.2494 214.11 70.3574 213.905C70.4653 213.7 70.6112 213.53 70.7949 213.394C70.9805 213.255 71.1869 213.167 71.4142 213.129V213.09C71.115 213.023 70.8725 212.871 70.6869 212.632C70.5032 212.392 70.4123 212.114 70.4142 211.8C70.4123 211.501 70.4956 211.234 70.6642 210.999C70.8328 210.764 71.0638 210.579 71.3574 210.445C71.6509 210.308 71.9862 210.24 72.3631 210.24C72.7362 210.24 73.0686 210.308 73.3602 210.445C73.6538 210.579 73.8848 210.764 74.0534 210.999C74.2239 211.234 74.3091 211.501 74.3091 211.8C74.3091 212.114 74.2153 212.392 74.0278 212.632C73.8422 212.871 73.6026 213.023 73.3091 213.09V213.129C73.5364 213.167 73.7409 213.255 73.9227 213.394C74.1064 213.53 74.2523 213.7 74.3602 213.905C74.4701 214.11 74.525 214.334 74.525 214.578C74.525 214.893 74.4322 215.174 74.2466 215.422C74.061 215.668 73.8053 215.862 73.4795 216.004C73.1557 216.146 72.7835 216.217 72.3631 216.217ZM72.3631 215.405C72.5809 215.405 72.7703 215.368 72.9312 215.294C73.0922 215.218 73.2172 215.112 73.3062 214.976C73.3953 214.84 73.4407 214.682 73.4426 214.504C73.4407 214.319 73.3924 214.155 73.2977 214.013C73.2049 213.869 73.0771 213.756 72.9142 213.675C72.7532 213.593 72.5695 213.553 72.3631 213.553C72.1547 213.553 71.9691 213.593 71.8062 213.675C71.6434 213.756 71.5146 213.869 71.4199 214.013C71.3271 214.155 71.2816 214.319 71.2835 214.504C71.2816 214.682 71.3252 214.84 71.4142 214.976C71.5032 215.11 71.6282 215.216 71.7892 215.291C71.9521 215.367 72.1434 215.405 72.3631 215.405ZM72.3631 212.754C72.5411 212.754 72.6983 212.718 72.8347 212.646C72.9729 212.574 73.0818 212.474 73.1614 212.345C73.2409 212.217 73.2816 212.068 73.2835 211.899C73.2816 211.733 73.2418 211.587 73.1642 211.462C73.0865 211.335 72.9786 211.237 72.8403 211.169C72.7021 211.099 72.543 211.064 72.3631 211.064C72.1793 211.064 72.0174 211.099 71.8773 211.169C71.739 211.237 71.6311 211.335 71.5534 211.462C71.4776 211.587 71.4407 211.733 71.4426 211.899C71.4407 212.068 71.4786 212.217 71.5562 212.345C71.6358 212.472 71.7447 212.573 71.8829 212.646C72.0231 212.718 72.1831 212.754 72.3631 212.754Z" fill="white"/>
<path d="M286.161 397.871V403.69H285.107V398.897H285.073L283.712 399.766V398.8L285.159 397.871H286.161ZM289.789 403.8C289.321 403.8 288.92 403.682 288.585 403.445C288.251 403.207 287.995 402.863 287.815 402.414C287.637 401.963 287.548 401.421 287.548 400.786C287.55 400.152 287.64 399.612 287.818 399.167C287.998 398.72 288.254 398.379 288.587 398.144C288.923 397.909 289.323 397.792 289.789 397.792C290.255 397.792 290.656 397.909 290.991 398.144C291.326 398.379 291.583 398.72 291.761 399.167C291.941 399.614 292.031 400.154 292.031 400.786C292.031 401.423 291.941 401.966 291.761 402.417C291.583 402.866 291.326 403.209 290.991 403.445C290.658 403.682 290.257 403.8 289.789 403.8ZM289.789 402.911C290.153 402.911 290.44 402.732 290.65 402.374C290.862 402.014 290.968 401.485 290.968 400.786C290.968 400.324 290.92 399.936 290.823 399.621C290.727 399.307 290.59 399.07 290.414 398.911C290.238 398.75 290.03 398.67 289.789 398.67C289.427 398.67 289.141 398.85 288.931 399.21C288.721 399.568 288.615 400.093 288.613 400.786C288.611 401.25 288.658 401.64 288.752 401.957C288.849 402.273 288.985 402.512 289.161 402.673C289.337 402.832 289.547 402.911 289.789 402.911Z" fill="white"/>
<path d="M65.8835 164.699V170.517H64.8295V165.725H64.7955L63.4347 166.594V165.628L64.8807 164.699H65.8835ZM69.5114 170.628C69.0436 170.628 68.642 170.51 68.3068 170.273C67.9735 170.034 67.7169 169.691 67.5369 169.242C67.3589 168.791 67.2699 168.248 67.2699 167.614C67.2718 166.979 67.3617 166.44 67.5398 165.995C67.7197 165.548 67.9763 165.207 68.3097 164.972C68.6449 164.737 69.0455 164.62 69.5114 164.62C69.9773 164.62 70.3778 164.737 70.7131 164.972C71.0483 165.207 71.3049 165.548 71.483 165.995C71.6629 166.442 71.7528 166.981 71.7528 167.614C71.7528 168.25 71.6629 168.794 71.483 169.245C71.3049 169.693 71.0483 170.036 70.7131 170.273C70.3797 170.51 69.9792 170.628 69.5114 170.628ZM69.5114 169.739C69.875 169.739 70.1619 169.56 70.3722 169.202C70.5843 168.842 70.6903 168.313 70.6903 167.614C70.6903 167.152 70.642 166.763 70.5455 166.449C70.4489 166.135 70.3125 165.898 70.1364 165.739C69.9602 165.578 69.7519 165.497 69.5114 165.497C69.1496 165.497 68.8636 165.677 68.6534 166.037C68.4432 166.395 68.3371 166.921 68.3352 167.614C68.3333 168.078 68.3797 168.468 68.4744 168.784C68.571 169.101 68.7074 169.339 68.8835 169.5C69.0597 169.659 69.2689 169.739 69.5114 169.739Z" fill="white"/>
<path d="M326.828 397.871V403.69H325.774V398.897H325.74L324.379 399.766V398.8L325.825 397.871H326.828ZM328.305 403.69V402.928L330.325 400.948C330.518 400.753 330.679 400.58 330.808 400.428C330.937 400.277 331.034 400.13 331.098 399.988C331.162 399.846 331.195 399.694 331.195 399.533C331.195 399.35 331.153 399.193 331.07 399.062C330.986 398.929 330.872 398.827 330.726 398.755C330.58 398.683 330.414 398.647 330.229 398.647C330.037 398.647 329.87 398.687 329.726 398.766C329.582 398.844 329.47 398.955 329.391 399.099C329.313 399.243 329.274 399.414 329.274 399.613H328.271C328.271 399.244 328.356 398.923 328.524 398.65C328.693 398.377 328.925 398.166 329.22 398.016C329.517 397.867 329.858 397.792 330.243 397.792C330.633 397.792 330.976 397.865 331.271 398.011C331.567 398.157 331.796 398.356 331.959 398.61C332.124 398.864 332.206 399.154 332.206 399.479C332.206 399.697 332.164 399.911 332.081 400.121C331.998 400.332 331.851 400.565 331.641 400.82C331.432 401.076 331.14 401.386 330.763 401.749L329.76 402.769V402.809H332.294V403.69H328.305Z" fill="white"/>
<path d="M67.5781 127.527V133.345H66.5241V128.552H66.49L65.1292 129.422V128.456L66.5753 127.527H67.5781ZM69.0554 133.345V132.583L71.0753 130.603C71.2684 130.408 71.4294 130.235 71.5582 130.083C71.687 129.932 71.7836 129.785 71.848 129.643C71.9124 129.501 71.9446 129.35 71.9446 129.189C71.9446 129.005 71.9029 128.848 71.8196 128.717C71.7362 128.584 71.6217 128.482 71.4758 128.41C71.33 128.338 71.1643 128.302 70.9787 128.302C70.7874 128.302 70.6198 128.342 70.4758 128.422C70.3319 128.499 70.2201 128.61 70.1406 128.754C70.063 128.898 70.0241 129.069 70.0241 129.268H69.0213C69.0213 128.899 69.1056 128.578 69.2741 128.305C69.4427 128.032 69.6747 127.821 69.9701 127.672C70.2675 127.522 70.6084 127.447 70.9929 127.447C71.383 127.447 71.7258 127.52 72.0213 127.666C72.3167 127.812 72.5459 128.011 72.7088 128.265C72.8736 128.519 72.9559 128.809 72.9559 129.135C72.9559 129.352 72.9143 129.566 72.8309 129.777C72.7476 129.987 72.6008 130.22 72.3906 130.475C72.1823 130.731 71.8897 131.041 71.5128 131.404L70.5099 132.424V132.464H73.044V133.345H69.0554Z" fill="white"/>
<path d="M369.189 397.871V403.69H368.135V398.897H368.101L366.74 399.766V398.8L368.186 397.871H369.189ZM370.561 402.61V401.772L373.03 397.871H373.729V399.065H373.303L371.641 401.698V401.744H375.087V402.61H370.561ZM373.337 403.69V402.354L373.348 401.979V397.871H374.342V403.69H373.337Z" fill="white"/>
<path d="M65.8835 83.5956V89.4138H64.8295V84.6212H64.7955L63.4347 85.4905V84.5246L64.8807 83.5956H65.8835ZM67.2557 88.3342V87.4962L69.7244 83.5956H70.4233V84.7888H69.9972L68.3352 87.4223V87.4678H71.7812V88.3342H67.2557ZM70.0312 89.4138V88.0786L70.0426 87.7036V83.5956H71.0369V89.4138H70.0312Z" fill="white"/>
<path d="M411.55 397.871V403.69H410.496V398.897H410.462L409.101 399.766V398.8L410.547 397.871H411.55ZM415.158 403.769C414.88 403.767 414.608 403.719 414.343 403.624C414.078 403.528 413.839 403.371 413.627 403.156C413.415 402.938 413.246 402.649 413.121 402.289C412.996 401.927 412.935 401.479 412.937 400.945C412.937 400.447 412.99 400.003 413.096 399.613C413.202 399.223 413.354 398.893 413.553 398.624C413.752 398.353 413.992 398.147 414.272 398.005C414.554 397.863 414.869 397.792 415.218 397.792C415.583 397.792 415.907 397.864 416.189 398.008C416.474 398.152 416.703 398.349 416.877 398.599C417.051 398.847 417.159 399.127 417.201 399.44H416.164C416.111 399.216 416.002 399.038 415.837 398.906C415.674 398.771 415.468 398.704 415.218 398.704C414.814 398.704 414.504 398.879 414.286 399.229C414.07 399.58 413.961 400.061 413.959 400.673H413.999C414.092 400.506 414.212 400.363 414.36 400.244C414.508 400.124 414.674 400.032 414.86 399.968C415.047 399.902 415.245 399.869 415.454 399.869C415.795 399.869 416.1 399.95 416.371 400.113C416.644 400.276 416.86 400.5 417.019 400.786C417.178 401.07 417.257 401.396 417.255 401.764C417.257 402.146 417.17 402.49 416.993 402.795C416.817 403.098 416.572 403.336 416.258 403.511C415.943 403.685 415.577 403.771 415.158 403.769ZM415.153 402.917C415.359 402.917 415.544 402.867 415.707 402.766C415.869 402.666 415.998 402.531 416.093 402.36C416.188 402.19 416.234 401.998 416.232 401.786C416.234 401.578 416.189 401.389 416.096 401.221C416.005 401.052 415.879 400.919 415.718 400.82C415.557 400.722 415.373 400.673 415.167 400.673C415.013 400.673 414.87 400.702 414.738 400.761C414.605 400.819 414.49 400.901 414.391 401.005C414.293 401.107 414.215 401.227 414.158 401.363C414.103 401.497 414.075 401.641 414.073 401.795C414.075 401.997 414.122 402.184 414.215 402.354C414.308 402.525 414.436 402.661 414.599 402.764C414.761 402.866 414.946 402.917 415.153 402.917Z" fill="white"/>
<line x1="82.1389" y1="69.5862" x2="82.1389" y2="394" stroke="white"/>
<line x1="435.778" y1="394.5" x2="81.6387" y2="394.5" stroke="white"/>
<path d="M189.179 41.0994C189.061 40.7159 188.897 40.3726 188.689 40.0696C188.485 39.7618 188.239 39.4991 187.95 39.2812C187.666 39.0634 187.339 38.9001 186.97 38.7912C186.601 38.6776 186.198 38.6207 185.763 38.6207C184.982 38.6207 184.286 38.8172 183.675 39.2102C183.064 39.6032 182.583 40.1809 182.233 40.9432C181.887 41.7008 181.714 42.6241 181.714 43.7131C181.714 44.8116 181.887 45.742 182.233 46.5043C182.579 47.2666 183.059 47.8466 183.675 48.2443C184.29 48.6373 185.005 48.8338 185.82 48.8338C186.558 48.8338 187.197 48.6918 187.737 48.4077C188.282 48.1236 188.701 47.7211 188.994 47.2003C189.288 46.6747 189.435 46.0592 189.435 45.3537L190.031 45.446H186.082V43.3864H191.984V45.1335C191.984 46.3788 191.719 47.456 191.189 48.3651C190.659 49.2741 189.929 49.9749 189.001 50.4673C188.073 50.955 187.008 51.1989 185.805 51.1989C184.465 51.1989 183.289 50.8982 182.276 50.2969C181.267 49.6908 180.479 48.8314 179.911 47.7188C179.347 46.6013 179.065 45.2756 179.065 43.7415C179.065 42.5672 179.231 41.5185 179.562 40.5952C179.899 39.6719 180.367 38.8883 180.969 38.2443C181.57 37.5956 182.276 37.1032 183.085 36.767C183.895 36.4261 184.776 36.2557 185.727 36.2557C186.532 36.2557 187.283 36.3741 187.979 36.6108C188.675 36.8428 189.293 37.1742 189.832 37.6051C190.377 38.036 190.824 38.5473 191.175 39.1392C191.525 39.7311 191.755 40.3845 191.864 41.0994H189.179ZM194.419 51V40.0909H196.912V41.9091H197.025C197.224 41.2794 197.565 40.794 198.048 40.4531C198.536 40.1075 199.092 39.9347 199.717 39.9347C199.859 39.9347 200.018 39.9418 200.193 39.956C200.373 39.9654 200.522 39.982 200.64 40.0057V42.3707C200.531 42.3329 200.359 42.2997 200.122 42.2713C199.89 42.2382 199.665 42.2216 199.447 42.2216C198.978 42.2216 198.557 42.3234 198.183 42.527C197.814 42.7259 197.522 43.0028 197.309 43.358C197.096 43.7131 196.99 44.1226 196.99 44.5866V51H194.419ZM205.292 51.2202C204.601 51.2202 203.978 51.0971 203.424 50.8509C202.875 50.5999 202.44 50.2306 202.118 49.7429C201.8 49.2552 201.642 48.6539 201.642 47.9389C201.642 47.3234 201.755 46.8144 201.983 46.4119C202.21 46.0095 202.52 45.6875 202.913 45.446C203.306 45.2045 203.749 45.0223 204.241 44.8991C204.738 44.7713 205.252 44.679 205.782 44.6222C206.422 44.5559 206.94 44.4967 207.338 44.4446C207.735 44.3878 208.024 44.3026 208.204 44.1889C208.389 44.0705 208.481 43.8883 208.481 43.642V43.5994C208.481 43.0644 208.323 42.6501 208.005 42.3565C207.688 42.063 207.231 41.9162 206.635 41.9162C206.005 41.9162 205.505 42.0535 205.136 42.3281C204.771 42.6027 204.525 42.9271 204.397 43.3011L201.997 42.9602C202.186 42.2973 202.499 41.7434 202.934 41.2983C203.37 40.8485 203.903 40.5123 204.532 40.2898C205.162 40.0625 205.858 39.9489 206.62 39.9489C207.146 39.9489 207.669 40.0104 208.19 40.1335C208.711 40.2566 209.187 40.4602 209.618 40.7443C210.048 41.0237 210.394 41.4048 210.654 41.8878C210.92 42.3707 211.052 42.9744 211.052 43.6989V51H208.581V49.5014H208.495C208.339 49.8045 208.119 50.0885 207.835 50.3537C207.556 50.6141 207.203 50.8248 206.777 50.9858C206.355 51.142 205.86 51.2202 205.292 51.2202ZM205.96 49.331C206.476 49.331 206.923 49.2292 207.302 49.0256C207.681 48.8172 207.972 48.5426 208.176 48.2017C208.384 47.8608 208.488 47.4891 208.488 47.0866V45.8011C208.408 45.8674 208.27 45.929 208.076 45.9858C207.887 46.0426 207.674 46.0923 207.437 46.1349C207.2 46.1776 206.966 46.2154 206.734 46.2486C206.502 46.2817 206.301 46.3101 206.13 46.3338C205.747 46.3859 205.404 46.4711 205.1 46.5895C204.797 46.7079 204.558 46.8736 204.383 47.0866C204.208 47.295 204.12 47.5649 204.12 47.8963C204.12 48.3698 204.293 48.7273 204.639 48.9688C204.984 49.2102 205.425 49.331 205.96 49.331ZM205.747 38.6562L207.338 35.4105H209.852L207.672 38.6562H205.747ZM219.163 40.0909V42.0795H212.714V40.0909H219.163ZM214.326 51V39.0611C214.326 38.3272 214.478 37.7164 214.781 37.2287C215.089 36.741 215.501 36.3764 216.017 36.1349C216.533 35.8935 217.106 35.7727 217.735 35.7727C218.181 35.7727 218.576 35.8082 218.922 35.8793C219.267 35.9503 219.523 36.0142 219.689 36.071L219.177 38.0597C219.068 38.0265 218.931 37.9934 218.765 37.9602C218.6 37.9223 218.415 37.9034 218.211 37.9034C217.733 37.9034 217.395 38.0194 217.196 38.2514C217.002 38.4787 216.904 38.8054 216.904 39.2315V51H214.326ZM221.176 51V40.0909H223.748V51H221.176ZM222.469 38.5426C222.062 38.5426 221.712 38.4077 221.418 38.1378C221.124 37.8632 220.978 37.5341 220.978 37.1506C220.978 36.7623 221.124 36.4332 221.418 36.1634C221.712 35.8887 222.062 35.7514 222.469 35.7514C222.881 35.7514 223.231 35.8887 223.52 36.1634C223.814 36.4332 223.961 36.7623 223.961 37.1506C223.961 37.5341 223.814 37.8632 223.52 38.1378C223.231 38.4077 222.881 38.5426 222.469 38.5426ZM231.15 51.2131C230.061 51.2131 229.126 50.974 228.344 50.4957C227.568 50.0175 226.969 49.357 226.548 48.5142C226.131 47.6667 225.923 46.6913 225.923 45.5881C225.923 44.4801 226.136 43.5024 226.562 42.6548C226.988 41.8026 227.589 41.1397 228.366 40.6662C229.147 40.188 230.07 39.9489 231.136 39.9489C232.021 39.9489 232.805 40.1122 233.487 40.4389C234.173 40.7609 234.72 41.2178 235.127 41.8097C235.534 42.3968 235.766 43.0833 235.823 43.8693H233.366C233.266 43.3437 233.03 42.9058 232.656 42.5554C232.286 42.2003 231.791 42.0227 231.171 42.0227C230.646 42.0227 230.184 42.1648 229.786 42.4489C229.388 42.7282 229.078 43.1307 228.856 43.6562C228.638 44.1818 228.529 44.8116 228.529 45.5455C228.529 46.2888 228.638 46.928 228.856 47.4631C229.074 47.9934 229.379 48.4029 229.772 48.6918C230.17 48.9759 230.636 49.1179 231.171 49.1179C231.55 49.1179 231.888 49.0469 232.187 48.9048C232.49 48.758 232.743 48.5473 232.947 48.2727C233.15 47.9981 233.29 47.6643 233.366 47.2713H235.823C235.762 48.0431 235.534 48.7273 235.141 49.3239C234.748 49.9157 234.213 50.3797 233.536 50.7159C232.859 51.0473 232.064 51.2131 231.15 51.2131ZM242.693 51.2131C241.627 51.2131 240.704 50.9787 239.923 50.5099C239.142 50.0412 238.536 49.3854 238.105 48.5426C237.679 47.6998 237.466 46.715 237.466 45.5881C237.466 44.4612 237.679 43.474 238.105 42.6264C238.536 41.7789 239.142 41.1207 239.923 40.652C240.704 40.1832 241.627 39.9489 242.693 39.9489C243.758 39.9489 244.681 40.1832 245.463 40.652C246.244 41.1207 246.848 41.7789 247.274 42.6264C247.705 43.474 247.92 44.4612 247.92 45.5881C247.92 46.715 247.705 47.6998 247.274 48.5426C246.848 49.3854 246.244 50.0412 245.463 50.5099C244.681 50.9787 243.758 51.2131 242.693 51.2131ZM242.707 49.1534C243.285 49.1534 243.768 48.9948 244.156 48.6776C244.544 48.3556 244.833 47.9247 245.022 47.3849C245.217 46.8452 245.314 46.2438 245.314 45.581C245.314 44.9134 245.217 44.3097 245.022 43.7699C244.833 43.2254 244.544 42.7921 244.156 42.4702C243.768 42.1482 243.285 41.9872 242.707 41.9872C242.115 41.9872 241.623 42.1482 241.23 42.4702C240.842 42.7921 240.55 43.2254 240.356 43.7699C240.167 44.3097 240.072 44.9134 240.072 45.581C240.072 46.2438 240.167 46.8452 240.356 47.3849C240.55 47.9247 240.842 48.3556 241.23 48.6776C241.623 48.9948 242.115 49.1534 242.707 49.1534ZM259.112 51.1918C258.254 51.1918 257.487 50.9716 256.81 50.5312C256.133 50.0909 255.598 49.4517 255.205 48.6136C254.812 47.7756 254.616 46.7576 254.616 45.5597C254.616 44.3475 254.815 43.3248 255.212 42.4915C255.615 41.6534 256.157 41.0213 256.839 40.5952C257.521 40.1643 258.281 39.9489 259.119 39.9489C259.758 39.9489 260.283 40.0578 260.695 40.2756C261.107 40.4886 261.434 40.7467 261.675 41.0497C261.917 41.348 262.104 41.6297 262.237 41.8949H262.343V36.4545H264.921V51H262.393V49.2812H262.237C262.104 49.5464 261.912 49.8281 261.661 50.1264C261.41 50.42 261.079 50.6709 260.667 50.8793C260.255 51.0876 259.737 51.1918 259.112 51.1918ZM259.829 49.0824C260.373 49.0824 260.837 48.9356 261.221 48.642C261.604 48.3437 261.896 47.9295 262.094 47.3991C262.293 46.8688 262.393 46.2509 262.393 45.5455C262.393 44.84 262.293 44.2268 262.094 43.706C261.9 43.1851 261.612 42.7803 261.228 42.4915C260.849 42.2027 260.383 42.0582 259.829 42.0582C259.256 42.0582 258.778 42.2074 258.394 42.5057C258.011 42.804 257.722 43.2159 257.528 43.7415C257.334 44.267 257.237 44.8684 257.237 45.5455C257.237 46.2273 257.334 46.8357 257.528 47.3707C257.727 47.901 258.018 48.3201 258.401 48.6278C258.79 48.9309 259.265 49.0824 259.829 49.0824ZM272.49 51.2131C271.397 51.2131 270.452 50.9858 269.657 50.5312C268.866 50.072 268.257 49.4233 267.831 48.5852C267.405 47.7424 267.192 46.7505 267.192 45.6094C267.192 44.4872 267.405 43.5024 267.831 42.6548C268.262 41.8026 268.864 41.1397 269.635 40.6662C270.407 40.188 271.314 39.9489 272.355 39.9489C273.028 39.9489 273.662 40.0578 274.259 40.2756C274.86 40.4886 275.391 40.8201 275.85 41.2699C276.314 41.7197 276.678 42.2926 276.944 42.9886C277.209 43.6799 277.341 44.5038 277.341 45.4602V46.2486H268.4V44.5156H274.877C274.872 44.0232 274.766 43.5852 274.557 43.2017C274.349 42.8134 274.058 42.508 273.684 42.2855C273.314 42.063 272.883 41.9517 272.391 41.9517C271.865 41.9517 271.404 42.0795 271.006 42.3352C270.608 42.5862 270.298 42.9176 270.076 43.3295C269.858 43.7367 269.747 44.1842 269.742 44.6719V46.1847C269.742 46.8191 269.858 47.3636 270.09 47.8182C270.322 48.268 270.646 48.6136 271.063 48.8551C271.48 49.0919 271.967 49.2102 272.526 49.2102C272.9 49.2102 273.239 49.1581 273.542 49.054C273.845 48.9451 274.107 48.7865 274.33 48.5781C274.552 48.3698 274.721 48.1117 274.834 47.804L277.235 48.0739C277.083 48.7083 276.794 49.2623 276.368 49.7358C275.947 50.2045 275.407 50.5691 274.749 50.8295C274.091 51.0852 273.338 51.2131 272.49 51.2131ZM284.477 55.0909V40.0909H287.006V41.8949H287.155C287.287 41.6297 287.474 41.348 287.716 41.0497C287.957 40.7467 288.284 40.4886 288.696 40.2756C289.108 40.0578 289.634 39.9489 290.273 39.9489C291.116 39.9489 291.875 40.1643 292.553 40.5952C293.234 41.0213 293.774 41.6534 294.172 42.4915C294.574 43.3248 294.776 44.3475 294.776 45.5597C294.776 46.7576 294.579 47.7756 294.186 48.6136C293.793 49.4517 293.258 50.0909 292.581 50.5312C291.904 50.9716 291.137 51.1918 290.28 51.1918C289.655 51.1918 289.136 51.0876 288.724 50.8793C288.313 50.6709 287.981 50.42 287.73 50.1264C287.484 49.8281 287.292 49.5464 287.155 49.2812H287.048V55.0909H284.477ZM286.999 45.5455C286.999 46.2509 287.098 46.8688 287.297 47.3991C287.5 47.9295 287.792 48.3437 288.17 48.642C288.554 48.9356 289.018 49.0824 289.562 49.0824C290.131 49.0824 290.607 48.9309 290.99 48.6278C291.374 48.3201 291.662 47.901 291.857 47.3707C292.055 46.8357 292.155 46.2273 292.155 45.5455C292.155 44.8684 292.058 44.267 291.864 43.7415C291.67 43.2159 291.381 42.804 290.997 42.5057C290.614 42.2074 290.135 42.0582 289.562 42.0582C289.013 42.0582 288.547 42.2027 288.163 42.4915C287.78 42.7803 287.489 43.1851 287.29 43.706C287.096 44.2268 286.999 44.84 286.999 45.5455ZM297.091 51V36.4545H299.726V42.6122H306.466V36.4545H309.108V51H306.466V44.821H299.726V51H297.091Z" fill="white"/>
<path d="M212.756 424.663V422.455H224.362V424.663H219.866V437H217.252V424.663H212.756ZM229.733 437.213C228.639 437.213 227.694 436.986 226.899 436.531C226.108 436.072 225.5 435.423 225.074 434.585C224.647 433.742 224.434 432.75 224.434 431.609C224.434 430.487 224.647 429.502 225.074 428.655C225.504 427.803 226.106 427.14 226.877 426.666C227.649 426.188 228.556 425.949 229.598 425.949C230.27 425.949 230.904 426.058 231.501 426.276C232.102 426.489 232.633 426.82 233.092 427.27C233.556 427.72 233.921 428.293 234.186 428.989C234.451 429.68 234.583 430.504 234.583 431.46V432.249H225.642V430.516H232.119C232.114 430.023 232.008 429.585 231.799 429.202C231.591 428.813 231.3 428.508 230.926 428.286C230.556 428.063 230.126 427.952 229.633 427.952C229.108 427.952 228.646 428.08 228.248 428.335C227.85 428.586 227.54 428.918 227.318 429.33C227.1 429.737 226.989 430.184 226.984 430.672V432.185C226.984 432.819 227.1 433.364 227.332 433.818C227.564 434.268 227.888 434.614 228.305 434.855C228.722 435.092 229.209 435.21 229.768 435.21C230.142 435.21 230.481 435.158 230.784 435.054C231.087 434.945 231.35 434.786 231.572 434.578C231.795 434.37 231.963 434.112 232.076 433.804L234.477 434.074C234.325 434.708 234.037 435.262 233.61 435.736C233.189 436.205 232.649 436.569 231.991 436.83C231.333 437.085 230.58 437.213 229.733 437.213ZM236.759 437V426.091H239.216V427.945H239.344C239.571 427.32 239.947 426.832 240.473 426.482C240.999 426.126 241.626 425.949 242.355 425.949C243.094 425.949 243.716 426.129 244.223 426.489C244.734 426.844 245.094 427.329 245.303 427.945H245.416C245.658 427.339 246.065 426.856 246.638 426.496C247.215 426.131 247.9 425.949 248.69 425.949C249.694 425.949 250.513 426.266 251.148 426.901C251.782 427.535 252.099 428.461 252.099 429.678V437H249.521V430.075C249.521 429.398 249.341 428.903 248.982 428.591C248.622 428.274 248.181 428.115 247.661 428.115C247.04 428.115 246.555 428.309 246.205 428.697C245.859 429.081 245.686 429.58 245.686 430.196V437H243.165V429.969C243.165 429.405 242.994 428.955 242.653 428.619C242.317 428.283 241.877 428.115 241.332 428.115C240.963 428.115 240.627 428.21 240.324 428.399C240.021 428.584 239.779 428.847 239.599 429.188C239.42 429.524 239.33 429.917 239.33 430.366V437H236.759ZM254.708 441.091V426.091H257.236V427.895H257.385C257.518 427.63 257.705 427.348 257.946 427.05C258.188 426.747 258.515 426.489 258.926 426.276C259.338 426.058 259.864 425.949 260.503 425.949C261.346 425.949 262.106 426.164 262.783 426.595C263.465 427.021 264.005 427.653 264.402 428.491C264.805 429.325 265.006 430.348 265.006 431.56C265.006 432.758 264.81 433.776 264.417 434.614C264.024 435.452 263.489 436.091 262.811 436.531C262.134 436.972 261.367 437.192 260.51 437.192C259.885 437.192 259.367 437.088 258.955 436.879C258.543 436.671 258.212 436.42 257.961 436.126C257.714 435.828 257.523 435.546 257.385 435.281H257.279V441.091H254.708ZM257.229 431.545C257.229 432.251 257.328 432.869 257.527 433.399C257.731 433.929 258.022 434.344 258.401 434.642C258.784 434.936 259.248 435.082 259.793 435.082C260.361 435.082 260.837 434.931 261.221 434.628C261.604 434.32 261.893 433.901 262.087 433.371C262.286 432.836 262.385 432.227 262.385 431.545C262.385 430.868 262.288 430.267 262.094 429.741C261.9 429.216 261.611 428.804 261.228 428.506C260.844 428.207 260.366 428.058 259.793 428.058C259.244 428.058 258.777 428.203 258.394 428.491C258.01 428.78 257.719 429.185 257.52 429.706C257.326 430.227 257.229 430.84 257.229 431.545ZM271.966 437.213C270.901 437.213 269.978 436.979 269.196 436.51C268.415 436.041 267.809 435.385 267.378 434.543C266.952 433.7 266.739 432.715 266.739 431.588C266.739 430.461 266.952 429.474 267.378 428.626C267.809 427.779 268.415 427.121 269.196 426.652C269.978 426.183 270.901 425.949 271.966 425.949C273.032 425.949 273.955 426.183 274.736 426.652C275.517 427.121 276.121 427.779 276.547 428.626C276.978 429.474 277.194 430.461 277.194 431.588C277.194 432.715 276.978 433.7 276.547 434.543C276.121 435.385 275.517 436.041 274.736 436.51C273.955 436.979 273.032 437.213 271.966 437.213ZM271.98 435.153C272.558 435.153 273.041 434.995 273.429 434.678C273.818 434.356 274.106 433.925 274.296 433.385C274.49 432.845 274.587 432.244 274.587 431.581C274.587 430.913 274.49 430.31 274.296 429.77C274.106 429.225 273.818 428.792 273.429 428.47C273.041 428.148 272.558 427.987 271.98 427.987C271.389 427.987 270.896 428.148 270.503 428.47C270.115 428.792 269.824 429.225 269.63 429.77C269.44 430.31 269.346 430.913 269.346 431.581C269.346 432.244 269.44 432.845 269.63 433.385C269.824 433.925 270.115 434.356 270.503 434.678C270.896 434.995 271.389 435.153 271.98 435.153Z" fill="white"/>
<path d="M84.1889 467.682V454.182H86.4645V455.805H86.5987C86.718 455.567 86.8864 455.313 87.1037 455.045C87.321 454.772 87.6151 454.54 87.9858 454.348C88.3565 454.152 88.8295 454.054 89.4048 454.054C90.1634 454.054 90.8473 454.248 91.4567 454.636C92.0703 455.019 92.5561 455.588 92.9141 456.342C93.2763 457.092 93.4574 458.013 93.4574 459.104C93.4574 460.182 93.2805 461.098 92.9268 461.852C92.5732 462.607 92.0916 463.182 91.4822 463.578C90.8729 463.974 90.1825 464.173 89.4112 464.173C88.8487 464.173 88.3821 464.079 88.0114 463.891C87.6406 463.704 87.3423 463.478 87.1165 463.214C86.8949 462.945 86.7223 462.692 86.5987 462.453H86.5028V467.682H84.1889ZM86.4581 459.091C86.4581 459.726 86.5476 460.282 86.7266 460.759C86.9098 461.237 87.1719 461.609 87.5128 461.878C87.858 462.142 88.2756 462.274 88.7656 462.274C89.277 462.274 89.7053 462.138 90.0504 461.865C90.3956 461.588 90.6555 461.211 90.8303 460.734C91.0092 460.252 91.0987 459.705 91.0987 459.091C91.0987 458.482 91.0114 457.94 90.8366 457.467C90.6619 456.994 90.402 456.624 90.0568 456.355C89.7116 456.087 89.2812 455.952 88.7656 455.952C88.2713 455.952 87.8516 456.082 87.5064 456.342C87.1612 456.602 86.8991 456.967 86.7202 457.435C86.5455 457.904 86.4581 458.456 86.4581 459.091ZM95.5412 464V450.909H97.9126V456.451H103.979V450.909H106.357V464H103.979V458.439H97.9126V464H95.5412ZM113.874 458.663C113.874 457.065 114.085 455.597 114.506 454.259C114.933 452.916 115.565 451.676 116.405 450.538H118.585C118.261 450.96 117.958 451.478 117.677 452.092C117.396 452.701 117.151 453.37 116.942 454.099C116.737 454.823 116.575 455.575 116.456 456.355C116.341 457.135 116.283 457.904 116.283 458.663C116.283 459.673 116.384 460.695 116.584 461.731C116.788 462.766 117.063 463.725 117.408 464.607C117.758 465.494 118.15 466.218 118.585 466.781H116.405C115.565 465.643 114.933 464.405 114.506 463.067C114.085 461.724 113.874 460.256 113.874 458.663ZM124.542 464.192C123.583 464.192 122.752 463.981 122.049 463.559C121.346 463.137 120.8 462.547 120.413 461.788C120.029 461.03 119.837 460.143 119.837 459.129C119.837 458.115 120.029 457.227 120.413 456.464C120.8 455.701 121.346 455.109 122.049 454.687C122.752 454.265 123.583 454.054 124.542 454.054C125.501 454.054 126.332 454.265 127.035 454.687C127.738 455.109 128.281 455.701 128.665 456.464C129.053 457.227 129.246 458.115 129.246 459.129C129.246 460.143 129.053 461.03 128.665 461.788C128.281 462.547 127.738 463.137 127.035 463.559C126.332 463.981 125.501 464.192 124.542 464.192ZM124.555 462.338C125.075 462.338 125.509 462.195 125.859 461.91C126.208 461.62 126.468 461.232 126.638 460.746C126.813 460.261 126.901 459.719 126.901 459.123C126.901 458.522 126.813 457.979 126.638 457.493C126.468 457.003 126.208 456.613 125.859 456.323C125.509 456.033 125.075 455.888 124.555 455.888C124.022 455.888 123.579 456.033 123.225 456.323C122.876 456.613 122.614 457.003 122.439 457.493C122.268 457.979 122.183 458.522 122.183 459.123C122.183 459.719 122.268 460.261 122.439 460.746C122.614 461.232 122.876 461.62 123.225 461.91C123.579 462.195 124.022 462.338 124.555 462.338ZM138.97 456.777L136.861 457.007C136.801 456.794 136.697 456.594 136.548 456.406C136.403 456.219 136.207 456.067 135.96 455.952C135.713 455.837 135.41 455.78 135.052 455.78C134.57 455.78 134.166 455.884 133.838 456.093C133.514 456.302 133.354 456.572 133.358 456.905C133.354 457.19 133.458 457.423 133.671 457.602C133.889 457.781 134.247 457.928 134.745 458.043L136.42 458.401C137.349 458.601 138.039 458.918 138.491 459.353C138.947 459.788 139.177 460.357 139.181 461.06C139.177 461.678 138.996 462.223 138.638 462.696C138.284 463.165 137.792 463.531 137.161 463.795C136.531 464.06 135.806 464.192 134.988 464.192C133.786 464.192 132.819 463.94 132.086 463.438C131.353 462.93 130.916 462.225 130.776 461.322L133.032 461.104C133.134 461.548 133.352 461.882 133.684 462.108C134.017 462.334 134.449 462.447 134.982 462.447C135.531 462.447 135.972 462.334 136.305 462.108C136.642 461.882 136.81 461.603 136.81 461.271C136.81 460.989 136.701 460.757 136.484 460.574C136.271 460.391 135.938 460.25 135.487 460.152L133.812 459.8C132.87 459.604 132.173 459.274 131.722 458.81C131.27 458.341 131.046 457.749 131.051 457.033C131.046 456.428 131.21 455.903 131.543 455.46C131.879 455.013 132.346 454.668 132.943 454.425C133.544 454.178 134.236 454.054 135.02 454.054C136.171 454.054 137.076 454.299 137.737 454.789C138.401 455.279 138.813 455.942 138.97 456.777ZM145.372 464.192C144.392 464.192 143.55 463.977 142.847 463.546C142.148 463.116 141.609 462.521 141.23 461.763C140.855 461 140.667 460.122 140.667 459.129C140.667 458.132 140.859 457.252 141.243 456.489C141.626 455.722 142.167 455.126 142.866 454.7C143.569 454.269 144.4 454.054 145.359 454.054C146.156 454.054 146.861 454.201 147.475 454.495C148.093 454.785 148.585 455.196 148.952 455.729C149.318 456.257 149.527 456.875 149.578 457.582H147.366C147.277 457.109 147.064 456.715 146.727 456.4C146.395 456.08 145.949 455.92 145.391 455.92C144.918 455.92 144.503 456.048 144.145 456.304C143.787 456.555 143.508 456.918 143.307 457.391C143.111 457.864 143.013 458.43 143.013 459.091C143.013 459.76 143.111 460.335 143.307 460.817C143.503 461.294 143.778 461.663 144.132 461.923C144.49 462.178 144.91 462.306 145.391 462.306C145.732 462.306 146.037 462.242 146.305 462.114C146.578 461.982 146.806 461.793 146.989 461.545C147.172 461.298 147.298 460.998 147.366 460.644H149.578C149.523 461.339 149.318 461.955 148.964 462.491C148.611 463.024 148.129 463.442 147.52 463.744C146.91 464.043 146.194 464.192 145.372 464.192ZM151.478 464V454.182H153.792V464H151.478ZM152.641 452.788C152.275 452.788 151.96 452.667 151.695 452.424C151.431 452.177 151.299 451.881 151.299 451.536C151.299 451.186 151.431 450.89 151.695 450.647C151.96 450.4 152.275 450.276 152.641 450.276C153.012 450.276 153.327 450.4 153.587 450.647C153.852 450.89 153.984 451.186 153.984 451.536C153.984 451.881 153.852 452.177 153.587 452.424C153.327 452.667 153.012 452.788 152.641 452.788ZM158.485 450.909V464H156.171V450.909H158.485ZM163.69 464.198C163.068 464.198 162.507 464.087 162.009 463.866C161.515 463.64 161.123 463.308 160.833 462.869C160.547 462.43 160.404 461.888 160.404 461.245C160.404 460.691 160.507 460.233 160.711 459.871C160.916 459.509 161.195 459.219 161.549 459.001C161.902 458.784 162.301 458.62 162.744 458.509C163.191 458.394 163.654 458.311 164.131 458.26C164.706 458.2 165.173 458.147 165.531 458.1C165.889 458.049 166.149 457.972 166.311 457.87C166.477 457.763 166.56 457.599 166.56 457.378V457.339C166.56 456.858 166.417 456.485 166.132 456.221C165.846 455.957 165.435 455.825 164.898 455.825C164.331 455.825 163.882 455.948 163.549 456.195C163.221 456.442 163 456.734 162.885 457.071L160.724 456.764C160.895 456.168 161.176 455.669 161.568 455.268C161.96 454.864 162.439 454.561 163.006 454.361C163.573 454.156 164.199 454.054 164.885 454.054C165.358 454.054 165.829 454.109 166.298 454.22C166.767 454.331 167.195 454.514 167.583 454.77C167.971 455.021 168.282 455.364 168.516 455.799C168.755 456.234 168.874 456.777 168.874 457.429V464H166.65V462.651H166.573C166.432 462.924 166.234 463.18 165.978 463.418C165.727 463.653 165.409 463.842 165.026 463.987C164.647 464.128 164.201 464.198 163.69 464.198ZM164.291 462.498C164.755 462.498 165.158 462.406 165.499 462.223C165.84 462.036 166.102 461.788 166.285 461.482C166.473 461.175 166.566 460.84 166.566 460.478V459.321C166.494 459.381 166.37 459.436 166.196 459.487C166.025 459.538 165.833 459.583 165.62 459.621C165.407 459.66 165.196 459.694 164.988 459.724C164.779 459.754 164.598 459.779 164.444 459.8C164.099 459.847 163.79 459.924 163.517 460.031C163.245 460.137 163.029 460.286 162.872 460.478C162.714 460.665 162.635 460.908 162.635 461.207C162.635 461.633 162.791 461.955 163.102 462.172C163.413 462.389 163.809 462.498 164.291 462.498ZM173.515 458.247V464H171.201V454.182H173.412V455.85H173.527C173.753 455.3 174.113 454.864 174.608 454.54C175.106 454.216 175.722 454.054 176.455 454.054C177.132 454.054 177.723 454.199 178.225 454.489C178.733 454.778 179.125 455.198 179.402 455.748C179.683 456.298 179.821 456.964 179.817 457.749V464H177.503V458.107C177.503 457.45 177.333 456.937 176.992 456.566C176.655 456.195 176.189 456.01 175.592 456.01C175.187 456.01 174.827 456.099 174.512 456.278C174.201 456.453 173.956 456.707 173.777 457.039C173.602 457.371 173.515 457.774 173.515 458.247ZM185.813 464.173C185.042 464.173 184.351 463.974 183.742 463.578C183.132 463.182 182.651 462.607 182.297 461.852C181.944 461.098 181.767 460.182 181.767 459.104C181.767 458.013 181.946 457.092 182.304 456.342C182.666 455.588 183.154 455.019 183.767 454.636C184.381 454.248 185.065 454.054 185.819 454.054C186.395 454.054 186.868 454.152 187.238 454.348C187.609 454.54 187.903 454.772 188.12 455.045C188.338 455.313 188.506 455.567 188.625 455.805H188.721V450.909H191.042V464H188.766V462.453H188.625C188.506 462.692 188.333 462.945 188.108 463.214C187.882 463.478 187.583 463.704 187.213 463.891C186.842 464.079 186.375 464.173 185.813 464.173ZM186.458 462.274C186.949 462.274 187.366 462.142 187.711 461.878C188.056 461.609 188.319 461.237 188.498 460.759C188.676 460.282 188.766 459.726 188.766 459.091C188.766 458.456 188.676 457.904 188.498 457.435C188.323 456.967 188.063 456.602 187.718 456.342C187.377 456.082 186.957 455.952 186.458 455.952C185.943 455.952 185.512 456.087 185.167 456.355C184.822 456.624 184.562 456.994 184.387 457.467C184.213 457.94 184.125 458.482 184.125 459.091C184.125 459.705 184.213 460.252 184.387 460.734C184.566 461.211 184.828 461.588 185.174 461.865C185.523 462.138 185.951 462.274 186.458 462.274ZM197.79 464.192C196.831 464.192 196 463.981 195.297 463.559C194.594 463.137 194.048 462.547 193.661 461.788C193.277 461.03 193.085 460.143 193.085 459.129C193.085 458.115 193.277 457.227 193.661 456.464C194.048 455.701 194.594 455.109 195.297 454.687C196 454.265 196.831 454.054 197.79 454.054C198.749 454.054 199.58 454.265 200.283 454.687C200.986 455.109 201.529 455.701 201.913 456.464C202.301 457.227 202.494 458.115 202.494 459.129C202.494 460.143 202.301 461.03 201.913 461.788C201.529 462.547 200.986 463.137 200.283 463.559C199.58 463.981 198.749 464.192 197.79 464.192ZM197.803 462.338C198.323 462.338 198.757 462.195 199.107 461.91C199.456 461.62 199.716 461.232 199.887 460.746C200.061 460.261 200.149 459.719 200.149 459.123C200.149 458.522 200.061 457.979 199.887 457.493C199.716 457.003 199.456 456.613 199.107 456.323C198.757 456.033 198.323 455.888 197.803 455.888C197.27 455.888 196.827 456.033 196.473 456.323C196.124 456.613 195.862 457.003 195.687 457.493C195.517 457.979 195.431 458.522 195.431 459.123C195.431 459.719 195.517 460.261 195.687 460.746C195.862 461.232 196.124 461.62 196.473 461.91C196.827 462.195 197.27 462.338 197.803 462.338ZM208.359 458.663C208.359 460.256 208.146 461.724 207.72 463.067C207.298 464.405 206.667 465.643 205.828 466.781H203.648C203.976 466.359 204.279 465.843 204.556 465.234C204.837 464.624 205.08 463.955 205.285 463.227C205.493 462.498 205.655 461.744 205.77 460.964C205.89 460.184 205.949 459.417 205.949 458.663C205.949 457.653 205.847 456.63 205.643 455.594C205.442 454.559 205.167 453.598 204.818 452.712C204.473 451.825 204.083 451.101 203.648 450.538H205.828C206.667 451.676 207.298 452.916 207.72 454.259C208.146 455.597 208.359 457.065 208.359 458.663Z" fill="white"/>
<path d="M285.291 466V452.909H290.2C291.206 452.909 292.05 453.097 292.732 453.472C293.418 453.847 293.935 454.362 294.285 455.018C294.638 455.67 294.815 456.412 294.815 457.243C294.815 458.082 294.638 458.828 294.285 459.48C293.931 460.132 293.409 460.646 292.719 461.021C292.028 461.391 291.178 461.577 290.168 461.577H286.915V459.627H289.849C290.437 459.627 290.918 459.525 291.293 459.32C291.668 459.116 291.945 458.835 292.124 458.477C292.308 458.119 292.399 457.707 292.399 457.243C292.399 456.778 292.308 456.369 292.124 456.016C291.945 455.662 291.666 455.387 291.287 455.191C290.912 454.991 290.428 454.891 289.836 454.891H287.663V466H285.291ZM296.773 466V456.182H299.017V457.818H299.119C299.298 457.251 299.605 456.815 300.039 456.508C300.478 456.197 300.979 456.041 301.541 456.041C301.669 456.041 301.812 456.048 301.97 456.06C302.132 456.069 302.266 456.084 302.372 456.105V458.234C302.274 458.2 302.119 458.17 301.906 458.144C301.697 458.114 301.494 458.099 301.298 458.099C300.877 458.099 300.497 458.191 300.161 458.374C299.828 458.553 299.566 458.803 299.374 459.122C299.183 459.442 299.087 459.81 299.087 460.228V466H296.773ZM307.788 466.192C306.829 466.192 305.998 465.981 305.295 465.559C304.592 465.137 304.047 464.547 303.659 463.788C303.275 463.03 303.083 462.143 303.083 461.129C303.083 460.115 303.275 459.227 303.659 458.464C304.047 457.701 304.592 457.109 305.295 456.687C305.998 456.265 306.829 456.054 307.788 456.054C308.747 456.054 309.578 456.265 310.281 456.687C310.984 457.109 311.527 457.701 311.911 458.464C312.299 459.227 312.493 460.115 312.493 461.129C312.493 462.143 312.299 463.03 311.911 463.788C311.527 464.547 310.984 465.137 310.281 465.559C309.578 465.981 308.747 466.192 307.788 466.192ZM307.801 464.338C308.321 464.338 308.755 464.195 309.105 463.91C309.454 463.62 309.714 463.232 309.885 462.746C310.059 462.261 310.147 461.719 310.147 461.123C310.147 460.522 310.059 459.979 309.885 459.493C309.714 459.003 309.454 458.613 309.105 458.323C308.755 458.033 308.321 457.888 307.801 457.888C307.268 457.888 306.825 458.033 306.471 458.323C306.122 458.613 305.86 459.003 305.685 459.493C305.515 459.979 305.429 460.522 305.429 461.123C305.429 461.719 305.515 462.261 305.685 462.746C305.86 463.232 306.122 463.62 306.471 463.91C306.825 464.195 307.268 464.338 307.801 464.338ZM318.1 466.173C317.329 466.173 316.638 465.974 316.029 465.578C315.42 465.182 314.938 464.607 314.584 463.852C314.231 463.098 314.054 462.182 314.054 461.104C314.054 460.013 314.233 459.092 314.591 458.342C314.953 457.588 315.441 457.019 316.055 456.636C316.668 456.248 317.352 456.054 318.106 456.054C318.682 456.054 319.155 456.152 319.525 456.348C319.896 456.54 320.19 456.772 320.407 457.045C320.625 457.313 320.793 457.567 320.912 457.805H321.008V452.909H323.329V466H321.053V464.453H320.912C320.793 464.692 320.621 464.945 320.395 465.214C320.169 465.478 319.871 465.704 319.5 465.891C319.129 466.079 318.662 466.173 318.1 466.173ZM318.746 464.274C319.236 464.274 319.653 464.142 319.998 463.878C320.344 463.609 320.606 463.237 320.785 462.759C320.964 462.282 321.053 461.726 321.053 461.091C321.053 460.456 320.964 459.904 320.785 459.435C320.61 458.967 320.35 458.602 320.005 458.342C319.664 458.082 319.244 457.952 318.746 457.952C318.23 457.952 317.8 458.087 317.454 458.355C317.109 458.624 316.849 458.994 316.675 459.467C316.5 459.94 316.412 460.482 316.412 461.091C316.412 461.705 316.5 462.252 316.675 462.734C316.854 463.211 317.116 463.588 317.461 463.865C317.81 464.138 318.238 464.274 318.746 464.274ZM332.052 461.871V456.182H334.366V466H332.123V464.255H332.02C331.799 464.805 331.434 465.254 330.927 465.604C330.424 465.953 329.804 466.128 329.067 466.128C328.424 466.128 327.855 465.985 327.36 465.7C326.87 465.41 326.487 464.99 326.21 464.44C325.933 463.886 325.794 463.217 325.794 462.433V456.182H328.108V462.075C328.108 462.697 328.279 463.192 328.62 463.558C328.961 463.925 329.408 464.108 329.962 464.108C330.303 464.108 330.633 464.025 330.953 463.859C331.272 463.692 331.534 463.445 331.739 463.117C331.948 462.785 332.052 462.369 332.052 461.871ZM341.648 456.182V457.972H336.004V456.182H341.648ZM337.398 453.83H339.711V463.047C339.711 463.358 339.758 463.597 339.852 463.763C339.95 463.925 340.078 464.036 340.236 464.095C340.393 464.155 340.568 464.185 340.76 464.185C340.905 464.185 341.037 464.174 341.156 464.153C341.28 464.131 341.373 464.112 341.437 464.095L341.827 465.904C341.704 465.947 341.527 465.994 341.297 466.045C341.071 466.096 340.794 466.126 340.466 466.134C339.886 466.151 339.364 466.064 338.9 465.872C338.435 465.676 338.067 465.374 337.794 464.964C337.525 464.555 337.393 464.044 337.398 463.43V453.83ZM347.761 466.192C346.802 466.192 345.971 465.981 345.268 465.559C344.565 465.137 344.019 464.547 343.631 463.788C343.248 463.03 343.056 462.143 343.056 461.129C343.056 460.115 343.248 459.227 343.631 458.464C344.019 457.701 344.565 457.109 345.268 456.687C345.971 456.265 346.802 456.054 347.761 456.054C348.719 456.054 349.55 456.265 350.254 456.687C350.957 457.109 351.5 457.701 351.884 458.464C352.271 459.227 352.465 460.115 352.465 461.129C352.465 462.143 352.271 463.03 351.884 463.788C351.5 464.547 350.957 465.137 350.254 465.559C349.55 465.981 348.719 466.192 347.761 466.192ZM347.773 464.338C348.293 464.338 348.728 464.195 349.077 463.91C349.427 463.62 349.687 463.232 349.857 462.746C350.032 462.261 350.119 461.719 350.119 461.123C350.119 460.522 350.032 459.979 349.857 459.493C349.687 459.003 349.427 458.613 349.077 458.323C348.728 458.033 348.293 457.888 347.773 457.888C347.241 457.888 346.798 458.033 346.444 458.323C346.094 458.613 345.832 459.003 345.658 459.493C345.487 459.979 345.402 460.522 345.402 461.123C345.402 461.719 345.487 462.261 345.658 462.746C345.832 463.232 346.094 463.62 346.444 463.91C346.798 464.195 347.241 464.338 347.773 464.338ZM365.446 469.682V464.453H365.35C365.231 464.692 365.058 464.945 364.832 465.214C364.606 465.478 364.308 465.704 363.937 465.891C363.567 466.079 363.1 466.173 362.537 466.173C361.766 466.173 361.076 465.974 360.466 465.578C359.857 465.182 359.376 464.607 359.022 463.852C358.668 463.098 358.491 462.182 358.491 461.104C358.491 460.013 358.67 459.092 359.028 458.342C359.39 457.588 359.878 457.019 360.492 456.636C361.106 456.248 361.79 456.054 362.544 456.054C363.119 456.054 363.592 456.152 363.963 456.348C364.334 456.54 364.628 456.772 364.845 457.045C365.062 457.313 365.231 457.567 365.35 457.805H365.491V456.182H367.766V469.682H365.446ZM363.183 464.274C363.673 464.274 364.091 464.142 364.436 463.878C364.781 463.609 365.043 463.237 365.222 462.759C365.401 462.282 365.491 461.726 365.491 461.091C365.491 460.456 365.401 459.904 365.222 459.435C365.047 458.967 364.787 458.602 364.442 458.342C364.101 458.082 363.682 457.952 363.183 457.952C362.667 457.952 362.237 458.087 361.892 458.355C361.547 458.624 361.287 458.994 361.112 459.467C360.937 459.94 360.85 460.482 360.85 461.091C360.85 461.705 360.937 462.252 361.112 462.734C361.291 463.211 361.553 463.588 361.898 463.865C362.248 464.138 362.676 464.274 363.183 464.274ZM376.402 461.871V456.182H378.716V466H376.472V464.255H376.37C376.148 464.805 375.784 465.254 375.277 465.604C374.774 465.953 374.154 466.128 373.417 466.128C372.773 466.128 372.204 465.985 371.71 465.7C371.22 465.41 370.836 464.99 370.559 464.44C370.282 463.886 370.144 463.217 370.144 462.433V456.182H372.458V462.075C372.458 462.697 372.628 463.192 372.969 463.558C373.31 463.925 373.758 464.108 374.312 464.108C374.653 464.108 374.983 464.025 375.302 463.859C375.622 463.692 375.884 463.445 376.089 463.117C376.297 462.785 376.402 462.369 376.402 461.871ZM381.095 466V456.182H383.409V466H381.095ZM381.37 454.891L382.802 451.969H385.065L383.102 454.891H381.37ZM385.789 466V456.182H388V457.85H388.115C388.32 457.288 388.659 456.849 389.132 456.533C389.605 456.214 390.169 456.054 390.825 456.054C391.49 456.054 392.051 456.216 392.507 456.54C392.967 456.859 393.291 457.296 393.478 457.85H393.58C393.798 457.305 394.164 456.87 394.68 456.546C395.2 456.218 395.816 456.054 396.527 456.054C397.431 456.054 398.168 456.339 398.739 456.911C399.31 457.482 399.595 458.315 399.595 459.41V466H397.275V459.768C397.275 459.158 397.113 458.713 396.789 458.432C396.465 458.146 396.069 458.004 395.6 458.004C395.042 458.004 394.605 458.178 394.29 458.528C393.979 458.873 393.823 459.322 393.823 459.876V466H391.554V459.672C391.554 459.165 391.401 458.76 391.094 458.457C390.791 458.155 390.395 458.004 389.905 458.004C389.573 458.004 389.27 458.089 388.997 458.259C388.725 458.425 388.507 458.662 388.345 458.969C388.183 459.271 388.102 459.625 388.102 460.03V466H385.789ZM401.943 466V456.182H404.257V466H401.943ZM403.106 454.788C402.74 454.788 402.424 454.667 402.16 454.424C401.896 454.177 401.764 453.881 401.764 453.536C401.764 453.186 401.896 452.89 402.16 452.647C402.424 452.4 402.74 452.276 403.106 452.276C403.477 452.276 403.792 452.4 404.052 452.647C404.316 452.89 404.449 453.186 404.449 453.536C404.449 453.881 404.316 454.177 404.052 454.424C403.792 454.667 403.477 454.788 403.106 454.788ZM410.919 466.192C409.939 466.192 409.097 465.977 408.394 465.546C407.695 465.116 407.156 464.521 406.777 463.763C406.402 463 406.214 462.122 406.214 461.129C406.214 460.132 406.406 459.252 406.79 458.489C407.173 457.722 407.714 457.126 408.413 456.7C409.116 456.269 409.947 456.054 410.906 456.054C411.703 456.054 412.408 456.201 413.022 456.495C413.64 456.785 414.132 457.196 414.498 457.729C414.865 458.257 415.074 458.875 415.125 459.582H412.913C412.824 459.109 412.611 458.715 412.274 458.4C411.942 458.08 411.496 457.92 410.938 457.92C410.465 457.92 410.05 458.048 409.692 458.304C409.334 458.555 409.055 458.918 408.854 459.391C408.658 459.864 408.56 460.43 408.56 461.091C408.56 461.76 408.658 462.335 408.854 462.817C409.05 463.294 409.325 463.663 409.679 463.923C410.037 464.178 410.456 464.306 410.938 464.306C411.279 464.306 411.584 464.242 411.852 464.114C412.125 463.982 412.353 463.793 412.536 463.545C412.719 463.298 412.845 462.998 412.913 462.644H415.125C415.069 463.339 414.865 463.955 414.511 464.491C414.157 465.024 413.676 465.442 413.067 465.744C412.457 466.043 411.741 466.192 410.919 466.192ZM421.308 466.192C420.349 466.192 419.518 465.981 418.815 465.559C418.112 465.137 417.566 464.547 417.178 463.788C416.795 463.03 416.603 462.143 416.603 461.129C416.603 460.115 416.795 459.227 417.178 458.464C417.566 457.701 418.112 457.109 418.815 456.687C419.518 456.265 420.349 456.054 421.308 456.054C422.266 456.054 423.097 456.265 423.8 456.687C424.504 457.109 425.047 457.701 425.43 458.464C425.818 459.227 426.012 460.115 426.012 461.129C426.012 462.143 425.818 463.03 425.43 463.788C425.047 464.547 424.504 465.137 423.8 465.559C423.097 465.981 422.266 466.192 421.308 466.192ZM421.32 464.338C421.84 464.338 422.275 464.195 422.624 463.91C422.974 463.62 423.234 463.232 423.404 462.746C423.579 462.261 423.666 461.719 423.666 461.123C423.666 460.522 423.579 459.979 423.404 459.493C423.234 459.003 422.974 458.613 422.624 458.323C422.275 458.033 421.84 457.888 421.32 457.888C420.788 457.888 420.344 458.033 419.991 458.323C419.641 458.613 419.379 459.003 419.205 459.493C419.034 459.979 418.949 460.522 418.949 461.123C418.949 461.719 419.034 462.261 419.205 462.746C419.379 463.232 419.641 463.62 419.991 463.91C420.344 464.195 420.788 464.338 421.32 464.338Z" fill="white"/>
<path d="M36.4545 353.619L47.9034 349.834V349.685L36.4545 345.906V343.009L51 348.136V351.389L36.4545 356.51V353.619ZM51.2202 339.2C51.2202 339.891 51.0971 340.514 50.8509 341.068C50.5999 341.617 50.2306 342.053 49.7429 342.375C49.2552 342.692 48.6539 342.85 47.9389 342.85C47.3234 342.85 46.8144 342.737 46.4119 342.51C46.0095 342.282 45.6875 341.972 45.446 341.579C45.2045 341.186 45.0223 340.743 44.8991 340.251C44.7713 339.754 44.679 339.24 44.6222 338.71C44.5559 338.071 44.4967 337.552 44.4446 337.154C44.3878 336.757 44.3026 336.468 44.1889 336.288C44.0705 336.103 43.8883 336.011 43.642 336.011H43.5994C43.0644 336.011 42.6501 336.17 42.3565 336.487C42.063 336.804 41.9162 337.261 41.9162 337.858C41.9162 338.487 42.0535 338.987 42.3281 339.356C42.6027 339.721 42.9271 339.967 43.3011 340.095L42.9602 342.495C42.2973 342.306 41.7434 341.993 41.2983 341.558C40.8485 341.122 40.5123 340.59 40.2898 339.96C40.0625 339.33 39.9489 338.634 39.9489 337.872C39.9489 337.346 40.0104 336.823 40.1335 336.302C40.2566 335.781 40.4602 335.306 40.7443 334.875C41.0237 334.444 41.4048 334.098 41.8878 333.838C42.3707 333.573 42.9744 333.44 43.6989 333.44H51V335.912H49.5014V335.997C49.8045 336.153 50.0885 336.373 50.3537 336.657C50.6141 336.937 50.8248 337.289 50.9858 337.716C51.142 338.137 51.2202 338.632 51.2202 339.2ZM49.331 338.532C49.331 338.016 49.2292 337.569 49.0256 337.19C48.8172 336.811 48.5426 336.52 48.2017 336.316C47.8608 336.108 47.4891 336.004 47.0866 336.004H45.8011C45.8674 336.084 45.929 336.222 45.9858 336.416C46.0426 336.605 46.0923 336.818 46.1349 337.055C46.1776 337.292 46.2154 337.526 46.2486 337.758C46.2817 337.99 46.3101 338.191 46.3338 338.362C46.3859 338.745 46.4711 339.089 46.5895 339.392C46.7079 339.695 46.8736 339.934 47.0866 340.109C47.295 340.284 47.5649 340.372 47.8963 340.372C48.3698 340.372 48.7273 340.199 48.9688 339.853C49.2102 339.508 49.331 339.067 49.331 338.532ZM36.4545 328.284H51V330.855H36.4545V328.284ZM51.2131 320.881C51.2131 321.947 50.9787 322.87 50.5099 323.651C50.0412 324.433 49.3854 325.039 48.5426 325.469C47.6998 325.896 46.715 326.109 45.5881 326.109C44.4612 326.109 43.474 325.896 42.6264 325.469C41.7789 325.039 41.1207 324.433 40.652 323.651C40.1832 322.87 39.9489 321.947 39.9489 320.881C39.9489 319.816 40.1832 318.893 40.652 318.112C41.1207 317.33 41.7789 316.727 42.6264 316.3C43.474 315.87 44.4612 315.654 45.5881 315.654C46.715 315.654 47.6998 315.87 48.5426 316.3C49.3854 316.727 50.0412 317.33 50.5099 318.112C50.9787 318.893 51.2131 319.816 51.2131 320.881ZM49.1534 320.867C49.1534 320.29 48.9948 319.807 48.6776 319.418C48.3556 319.03 47.9247 318.741 47.3849 318.552C46.8452 318.358 46.2438 318.261 45.581 318.261C44.9134 318.261 44.3097 318.358 43.7699 318.552C43.2254 318.741 42.7921 319.03 42.4702 319.418C42.1482 319.807 41.9872 320.29 41.9872 320.867C41.9872 321.459 42.1482 321.951 42.4702 322.344C42.7921 322.733 43.2254 323.024 43.7699 323.218C44.3097 323.407 44.9134 323.502 45.581 323.502C46.2438 323.502 46.8452 323.407 47.3849 323.218C47.9247 323.024 48.3556 322.733 48.6776 322.344C48.9948 321.951 49.1534 321.459 49.1534 320.867ZM51 313.472H40.0909V310.979H41.9091V310.865C41.2794 310.667 40.794 310.326 40.4531 309.843C40.1075 309.355 39.9347 308.799 39.9347 308.174C39.9347 308.032 39.9418 307.873 39.956 307.698C39.9654 307.518 39.982 307.369 40.0057 307.25H42.3707C42.3329 307.359 42.2997 307.532 42.2713 307.769C42.2382 308.001 42.2216 308.226 42.2216 308.444C42.2216 308.912 42.3234 309.334 42.527 309.708C42.7259 310.077 43.0028 310.368 43.358 310.581C43.7131 310.794 44.1226 310.901 44.5866 310.901H51V313.472ZM51.1918 296.533C51.1918 297.39 50.9716 298.157 50.5312 298.834C50.0909 299.511 49.4517 300.046 48.6136 300.439C47.7756 300.832 46.7576 301.029 45.5597 301.029C44.3475 301.029 43.3248 300.83 42.4915 300.432C41.6534 300.03 41.0213 299.488 40.5952 298.806C40.1643 298.124 39.9489 297.364 39.9489 296.526C39.9489 295.887 40.0578 295.361 40.2756 294.949C40.4886 294.537 40.7467 294.211 41.0497 293.969C41.348 293.728 41.6297 293.541 41.8949 293.408V293.301H36.4545L36.4545 290.723H51V293.252H49.2812V293.408C49.5464 293.541 49.8281 293.732 50.1264 293.983C50.42 294.234 50.6709 294.566 50.8793 294.978C51.0876 295.39 51.1918 295.908 51.1918 296.533ZM49.0824 295.816C49.0824 295.271 48.9356 294.807 48.642 294.424C48.3437 294.04 47.9295 293.749 47.3991 293.55C46.8688 293.351 46.2509 293.252 45.5455 293.252C44.84 293.252 44.2268 293.351 43.706 293.55C43.1851 293.744 42.7803 294.033 42.4915 294.417C42.2027 294.795 42.0582 295.262 42.0582 295.816C42.0582 296.389 42.2074 296.867 42.5057 297.25C42.804 297.634 43.2159 297.923 43.7415 298.117C44.267 298.311 44.8684 298.408 45.5455 298.408C46.2273 298.408 46.8357 298.311 47.3707 298.117C47.901 297.918 48.3201 297.627 48.6278 297.243C48.9309 296.855 49.0824 296.379 49.0824 295.816ZM51.2131 283.225C51.2131 284.29 50.9787 285.214 50.5099 285.995C50.0412 286.776 49.3854 287.382 48.5426 287.813C47.6998 288.239 46.715 288.452 45.5881 288.452C44.4612 288.452 43.474 288.239 42.6264 287.813C41.7789 287.382 41.1207 286.776 40.652 285.995C40.1832 285.214 39.9489 284.29 39.9489 283.225C39.9489 282.16 40.1832 281.237 40.652 280.455C41.1207 279.674 41.7789 279.07 42.6264 278.644C43.474 278.213 44.4612 277.998 45.5881 277.998C46.715 277.998 47.6998 278.213 48.5426 278.644C49.3854 279.07 50.0412 279.674 50.5099 280.455C50.9787 281.237 51.2131 282.16 51.2131 283.225ZM49.1534 283.211C49.1534 282.633 48.9948 282.15 48.6776 281.762C48.3556 281.374 47.9247 281.085 47.3849 280.896C46.8452 280.701 46.2438 280.604 45.581 280.604C44.9134 280.604 44.3097 280.701 43.7699 280.896C43.2254 281.085 42.7921 281.374 42.4702 281.762C42.1482 282.15 41.9872 282.633 41.9872 283.211C41.9872 283.803 42.1482 284.295 42.4702 284.688C42.7921 285.076 43.2254 285.368 43.7699 285.562C44.3097 285.751 44.9134 285.846 45.581 285.846C46.2438 285.846 46.8452 285.751 47.3849 285.562C47.9247 285.368 48.3556 285.076 48.6776 284.688C48.9948 284.295 49.1534 283.803 49.1534 283.211ZM55.0909 270.855H40.0909V268.326H41.8949V268.177C41.6297 268.045 41.348 267.858 41.0497 267.616C40.7467 267.375 40.4886 267.048 40.2756 266.636C40.0578 266.224 39.9489 265.699 39.9489 265.059C39.9489 264.217 40.1643 263.457 40.5952 262.779C41.0213 262.098 41.6534 261.558 42.4915 261.16C43.3248 260.758 44.3475 260.556 45.5597 260.556C46.7576 260.556 47.7756 260.753 48.6136 261.146C49.4517 261.539 50.0909 262.074 50.5313 262.751C50.9716 263.428 51.1918 264.195 51.1918 265.052C51.1918 265.677 51.0876 266.196 50.8793 266.608C50.6709 267.02 50.42 267.351 50.1264 267.602C49.8281 267.848 49.5464 268.04 49.2813 268.177V268.284H55.0909L55.0909 270.855ZM45.5455 268.333C46.2509 268.333 46.8688 268.234 47.3991 268.035C47.9295 267.832 48.3437 267.54 48.642 267.162C48.9356 266.778 49.0824 266.314 49.0824 265.77C49.0824 265.201 48.9309 264.725 48.6278 264.342C48.3201 263.958 47.901 263.67 47.3707 263.475C46.8357 263.277 46.2273 263.177 45.5455 263.177C44.8684 263.177 44.267 263.274 43.7415 263.468C43.2159 263.663 42.804 263.951 42.5057 264.335C42.2074 264.718 42.0582 265.197 42.0582 265.77C42.0582 266.319 42.2027 266.785 42.4915 267.169C42.7803 267.552 43.1851 267.843 43.706 268.042C44.2268 268.236 44.84 268.333 45.5455 268.333ZM51 258.241H36.4545V255.606H42.6122V248.866H36.4545V246.224H51V248.866H44.821V255.606H51V258.241ZM45.0696 237.872C43.294 237.872 41.6629 237.637 40.1761 237.169C38.6847 236.695 37.3068 235.992 36.0426 235.059V232.637C36.5114 232.997 37.0866 233.333 37.7685 233.646C38.4455 233.958 39.1889 234.231 39.9986 234.463C40.8035 234.69 41.6392 234.87 42.5057 235.002C43.3722 235.13 44.2268 235.194 45.0696 235.194C46.1918 235.194 47.3281 235.083 48.4787 234.86C49.6293 234.633 50.6946 234.328 51.6747 233.944C52.6596 233.556 53.4645 233.12 54.0895 232.637V235.059C52.8253 235.992 51.4498 236.695 49.9631 237.169C48.4716 237.637 46.8404 237.872 45.0696 237.872ZM51.2131 225.947C51.2131 227.041 50.9858 227.985 50.5313 228.781C50.072 229.572 49.4233 230.18 48.5852 230.606C47.7424 231.032 46.7505 231.245 45.6094 231.245C44.4872 231.245 43.5024 231.032 42.6548 230.606C41.8026 230.175 41.1397 229.574 40.6662 228.802C40.188 228.03 39.9489 227.124 39.9489 226.082C39.9489 225.41 40.0578 224.775 40.2756 224.179C40.4886 223.577 40.8201 223.047 41.2699 222.588C41.7197 222.124 42.2926 221.759 42.9886 221.494C43.6799 221.229 44.5038 221.096 45.4602 221.096H46.2486V230.038H44.5156V223.561C44.0232 223.565 43.5852 223.672 43.2017 223.88C42.8134 224.089 42.508 224.38 42.2855 224.754C42.063 225.123 41.9517 225.554 41.9517 226.047C41.9517 226.572 42.0795 227.034 42.3352 227.431C42.5862 227.829 42.9176 228.139 43.3295 228.362C43.7367 228.58 44.1842 228.691 44.6719 228.696H46.1847C46.8191 228.696 47.3636 228.58 47.8182 228.348C48.268 228.116 48.6136 227.791 48.8551 227.375C49.0919 226.958 49.2102 226.47 49.2102 225.912C49.2102 225.538 49.1581 225.199 49.054 224.896C48.9451 224.593 48.7865 224.33 48.5781 224.108C48.3698 223.885 48.1117 223.717 47.804 223.603L48.0739 221.203C48.7083 221.354 49.2623 221.643 49.7358 222.069C50.2045 222.491 50.5691 223.03 50.8295 223.689C51.0852 224.347 51.2131 225.1 51.2131 225.947ZM42.9744 210.299L43.2301 212.643C42.9934 212.709 42.7708 212.825 42.5625 212.991C42.3542 213.152 42.1861 213.37 42.0582 213.644C41.9304 213.919 41.8665 214.255 41.8665 214.653C41.8665 215.188 41.9825 215.638 42.2145 216.002C42.4465 216.362 42.7472 216.54 43.1165 216.535C43.4337 216.54 43.6918 216.424 43.8906 216.187C44.0895 215.945 44.2528 215.548 44.3807 214.994L44.7784 213.133C45.0009 212.101 45.3537 211.334 45.8366 210.832C46.3196 210.325 46.9517 210.069 47.733 210.065C48.4195 210.069 49.0256 210.271 49.5511 210.668C50.072 211.061 50.4792 211.608 50.7727 212.309C51.0663 213.01 51.2131 213.815 51.2131 214.724C51.2131 216.059 50.9337 217.134 50.375 217.948C49.8116 218.763 49.0279 219.248 48.0241 219.404L47.7827 216.897C48.2751 216.783 48.6468 216.542 48.8977 216.173C49.1487 215.803 49.2741 215.323 49.2741 214.731C49.2741 214.12 49.1487 213.63 48.8977 213.261C48.6468 212.887 48.3366 212.7 47.9673 212.7C47.6548 212.7 47.3968 212.82 47.1932 213.062C46.9896 213.299 46.8333 213.668 46.7244 214.17L46.3338 216.031C46.116 217.077 45.7491 217.851 45.233 218.353C44.7121 218.855 44.054 219.103 43.2585 219.099C42.5862 219.103 42.0038 218.921 41.5114 218.552C41.0142 218.178 40.6307 217.659 40.3608 216.996C40.0862 216.329 39.9489 215.559 39.9489 214.688C39.9489 213.41 40.2211 212.404 40.7656 211.67C41.3101 210.931 42.0464 210.474 42.9744 210.299ZM51.2131 203.186C51.2131 204.275 50.974 205.21 50.4957 205.991C50.0175 206.768 49.357 207.367 48.5142 207.788C47.6667 208.205 46.6913 208.413 45.5881 208.413C44.4801 208.413 43.5024 208.2 42.6548 207.774C41.8026 207.348 41.1397 206.747 40.6662 205.97C40.188 205.189 39.9489 204.266 39.9489 203.2C39.9489 202.315 40.1122 201.531 40.4389 200.849C40.7609 200.163 41.2178 199.616 41.8097 199.209C42.3968 198.802 43.0833 198.57 43.8693 198.513V200.97C43.3437 201.07 42.9058 201.306 42.5554 201.68C42.2003 202.05 42.0227 202.545 42.0227 203.165C42.0227 203.69 42.1648 204.152 42.4489 204.55C42.7282 204.947 43.1307 205.258 43.6563 205.48C44.1818 205.698 44.8116 205.807 45.5455 205.807C46.2888 205.807 46.928 205.698 47.4631 205.48C47.9934 205.262 48.4029 204.957 48.6918 204.564C48.9759 204.166 49.1179 203.7 49.1179 203.165C49.1179 202.786 49.0469 202.447 48.9048 202.149C48.758 201.846 48.5473 201.593 48.2727 201.389C47.9981 201.186 47.6643 201.046 47.2713 200.97V198.513C48.0431 198.574 48.7273 198.802 49.3239 199.195C49.9157 199.588 50.3797 200.123 50.7159 200.8C51.0473 201.477 51.2131 202.272 51.2131 203.186ZM51.2202 193.262C51.2202 193.954 51.0971 194.576 50.8509 195.13C50.5999 195.68 50.2306 196.115 49.7429 196.437C49.2552 196.754 48.6539 196.913 47.9389 196.913C47.3234 196.913 46.8144 196.799 46.4119 196.572C46.0095 196.345 45.6875 196.035 45.446 195.642C45.2045 195.249 45.0223 194.806 44.8991 194.314C44.7713 193.816 44.679 193.303 44.6222 192.772C44.5559 192.133 44.4967 191.615 44.4446 191.217C44.3878 190.819 44.3026 190.53 44.1889 190.35C44.0705 190.166 43.8883 190.074 43.642 190.074H43.5994C43.0644 190.074 42.6501 190.232 42.3565 190.549C42.063 190.867 41.9162 191.324 41.9162 191.92C41.9162 192.55 42.0535 193.049 42.3281 193.419C42.6027 193.783 42.9271 194.029 43.3011 194.157L42.9602 196.558C42.2973 196.368 41.7434 196.056 41.2983 195.62C40.8485 195.185 40.5123 194.652 40.2898 194.022C40.0625 193.393 39.9489 192.697 39.9489 191.934C39.9489 191.409 40.0104 190.886 40.1335 190.365C40.2566 189.844 40.4602 189.368 40.7443 188.937C41.0237 188.506 41.4048 188.161 41.8878 187.9C42.3707 187.635 42.9744 187.502 43.6989 187.502H51V189.974H49.5014V190.059C49.8045 190.216 50.0885 190.436 50.3537 190.72C50.6141 190.999 50.8248 191.352 50.9858 191.778C51.142 192.199 51.2202 192.694 51.2202 193.262ZM49.331 192.595C49.331 192.079 49.2292 191.631 49.0256 191.252C48.8172 190.874 48.5426 190.583 48.2017 190.379C47.8608 190.171 47.4891 190.066 47.0866 190.066H45.8011C45.8674 190.147 45.929 190.284 45.9858 190.478C46.0426 190.668 46.0923 190.881 46.1349 191.118C46.1776 191.354 46.2154 191.589 46.2486 191.821C46.2817 192.053 46.3101 192.254 46.3338 192.424C46.3859 192.808 46.4711 193.151 46.5895 193.454C46.7079 193.757 46.8736 193.996 47.0866 194.172C47.295 194.347 47.5649 194.434 47.8963 194.434C48.3698 194.434 48.7273 194.261 48.9688 193.916C49.2102 193.57 49.331 193.13 49.331 192.595ZM36.4545 182.346H51V184.917H36.4545V182.346ZM51.2202 176.563C51.2202 177.254 51.0971 177.877 50.8509 178.431C50.5999 178.98 50.2306 179.416 49.7429 179.738C49.2552 180.055 48.6539 180.214 47.9389 180.214C47.3234 180.214 46.8144 180.1 46.4119 179.873C46.0095 179.646 45.6875 179.335 45.446 178.942C45.2045 178.549 45.0223 178.107 44.8991 177.614C44.7713 177.117 44.679 176.603 44.6222 176.073C44.5559 175.434 44.4967 174.915 44.4446 174.518C44.3878 174.12 44.3026 173.831 44.1889 173.651C44.0705 173.467 43.8883 173.374 43.642 173.374H43.5994C43.0644 173.374 42.6501 173.533 42.3565 173.85C42.063 174.167 41.9162 174.624 41.9162 175.221C41.9162 175.851 42.0535 176.35 42.3281 176.719C42.6027 177.084 42.9271 177.33 43.3011 177.458L42.9602 179.859C42.2973 179.669 41.7434 179.357 41.2983 178.921C40.8485 178.486 40.5123 177.953 40.2898 177.323C40.0625 176.693 39.9489 175.997 39.9489 175.235C39.9489 174.71 40.0104 174.186 40.1335 173.665C40.2566 173.145 40.4602 172.669 40.7443 172.238C41.0237 171.807 41.4048 171.461 41.8878 171.201C42.3707 170.936 42.9744 170.803 43.6989 170.803H51V173.275H49.5014V173.36C49.8045 173.516 50.0885 173.737 50.3537 174.021C50.6141 174.3 50.8248 174.653 50.9858 175.079C51.142 175.5 51.2202 175.995 51.2202 176.563ZM49.331 175.896C49.331 175.379 49.2292 174.932 49.0256 174.553C48.8172 174.174 48.5426 173.883 48.2017 173.68C47.8608 173.471 47.4891 173.367 47.0866 173.367H45.8011C45.8674 173.448 45.929 173.585 45.9858 173.779C46.0426 173.969 46.0923 174.182 46.1349 174.418C46.1776 174.655 46.2154 174.889 46.2486 175.121C46.2817 175.353 46.3101 175.555 46.3338 175.725C46.3859 176.109 46.4711 176.452 46.5895 176.755C46.7079 177.058 46.8736 177.297 47.0866 177.472C47.295 177.647 47.5649 177.735 47.8963 177.735C48.3698 177.735 48.7273 177.562 48.9688 177.217C49.2102 176.871 49.331 176.431 49.331 175.896ZM51.1918 159.209C51.1918 160.066 50.9716 160.833 50.5313 161.51C50.0909 162.187 49.4517 162.722 48.6136 163.115C47.7756 163.508 46.7576 163.705 45.5597 163.705C44.3475 163.705 43.3248 163.506 42.4915 163.108C41.6534 162.705 41.0213 162.163 40.5952 161.482C40.1643 160.8 39.9489 160.04 39.9489 159.202C39.9489 158.562 40.0578 158.037 40.2756 157.625C40.4886 157.213 40.7467 156.886 41.0497 156.645C41.348 156.403 41.6297 156.216 41.8949 156.084V155.977H36.4545V153.399H51V155.928H49.2813V156.084C49.5464 156.216 49.8281 156.408 50.1264 156.659C50.42 156.91 50.6709 157.241 50.8793 157.653C51.0876 158.065 51.1918 158.584 51.1918 159.209ZM49.0824 158.491C49.0824 157.947 48.9356 157.483 48.642 157.099C48.3437 156.716 47.9295 156.425 47.3991 156.226C46.8688 156.027 46.2509 155.928 45.5455 155.928C44.84 155.928 44.2268 156.027 43.706 156.226C43.1851 156.42 42.7803 156.709 42.4915 157.092C42.2027 157.471 42.0582 157.937 42.0582 158.491C42.0582 159.064 42.2074 159.543 42.5057 159.926C42.804 160.31 43.2159 160.598 43.7415 160.793C44.267 160.987 44.8684 161.084 45.5455 161.084C46.2273 161.084 46.8357 160.987 47.3707 160.793C47.901 160.594 48.3201 160.303 48.6278 159.919C48.9309 159.531 49.0824 159.055 49.0824 158.491ZM51.2131 145.83C51.2131 146.924 50.9858 147.868 50.5313 148.664C50.072 149.454 49.4233 150.063 48.5852 150.489C47.7424 150.915 46.7505 151.128 45.6094 151.128C44.4872 151.128 43.5024 150.915 42.6548 150.489C41.8026 150.058 41.1397 149.457 40.6662 148.685C40.188 147.913 39.9489 147.007 39.9489 145.965C39.9489 145.292 40.0578 144.658 40.2756 144.061C40.4886 143.46 40.8201 142.93 41.2699 142.471C41.7197 142.007 42.2926 141.642 42.9886 141.377C43.6799 141.112 44.5038 140.979 45.4602 140.979H46.2486V149.921H44.5156V143.444C44.0232 143.448 43.5852 143.555 43.2017 143.763C42.8134 143.971 42.508 144.263 42.2855 144.637C42.063 145.006 41.9517 145.437 41.9517 145.929C41.9517 146.455 42.0795 146.917 42.3352 147.314C42.5862 147.712 42.9176 148.022 43.3295 148.245C43.7367 148.462 44.1842 148.574 44.6719 148.578H46.1847C46.8191 148.578 47.3636 148.462 47.8182 148.23C48.268 147.998 48.6136 147.674 48.8551 147.257C49.0919 146.841 49.2102 146.353 49.2102 145.794C49.2102 145.42 49.1581 145.082 49.054 144.779C48.9451 144.476 48.7865 144.213 48.5781 143.99C48.3698 143.768 48.1117 143.6 47.804 143.486L48.0739 141.086C48.7083 141.237 49.2623 141.526 49.7358 141.952C50.2045 142.373 50.5691 142.913 50.8295 143.571C51.0852 144.23 51.2131 144.982 51.2131 145.83ZM51.277 128.495C51.277 129.665 50.9811 130.668 50.3892 131.506C49.7926 132.34 48.9332 132.981 47.8111 133.431C46.6842 133.876 45.3277 134.099 43.7415 134.099C42.1553 134.094 40.8059 133.869 39.6932 133.424C38.5758 132.974 37.7235 132.333 37.1364 131.499C36.5492 130.661 36.2557 129.66 36.2557 128.495C36.2557 127.33 36.5492 126.329 37.1364 125.491C37.7235 124.653 38.5758 124.011 39.6932 123.566C40.8106 123.116 42.16 122.891 43.7415 122.891C45.3324 122.891 46.6913 123.116 47.8182 123.566C48.9403 124.011 49.7973 124.653 50.3892 125.491C50.9811 126.324 51.277 127.326 51.277 128.495ZM49.054 128.495C49.054 127.586 48.6065 126.869 47.7116 126.343C46.812 125.813 45.4886 125.548 43.7415 125.548C42.5862 125.548 41.6155 125.668 40.8295 125.91C40.0436 126.151 39.4517 126.492 39.054 126.933C38.6515 127.373 38.4503 127.894 38.4503 128.495C38.4503 129.399 38.9001 130.114 39.7997 130.64C40.6946 131.165 42.0085 131.431 43.7415 131.435C44.9015 131.44 45.8769 131.324 46.6676 131.087C47.4583 130.846 48.0549 130.505 48.4574 130.065C48.8551 129.624 49.054 129.101 49.054 128.495ZM51.2202 112.403C51.2202 113.094 51.0971 113.717 50.8509 114.271C50.5999 114.82 50.2306 115.256 49.7429 115.578C49.2552 115.895 48.6539 116.054 47.9389 116.054C47.3234 116.054 46.8144 115.94 46.4119 115.713C46.0095 115.485 45.6875 115.175 45.446 114.782C45.2045 114.389 45.0223 113.947 44.8991 113.454C44.7713 112.957 44.679 112.443 44.6222 111.913C44.5559 111.274 44.4967 110.755 44.4446 110.358C44.3878 109.96 44.3026 109.671 44.1889 109.491C44.0705 109.306 43.8883 109.214 43.642 109.214H43.5994C43.0644 109.214 42.6501 109.373 42.3565 109.69C42.063 110.007 41.9162 110.464 41.9162 111.061C41.9162 111.69 42.0535 112.19 42.3281 112.559C42.6027 112.924 42.9271 113.17 43.3011 113.298L42.9602 115.699C42.2973 115.509 41.7434 115.197 41.2983 114.761C40.8485 114.325 40.5123 113.793 40.2898 113.163C40.0625 112.533 39.9489 111.837 39.9489 111.075C39.9489 110.549 40.0104 110.026 40.1335 109.505C40.2566 108.984 40.4602 108.509 40.7443 108.078C41.0237 107.647 41.4048 107.301 41.8878 107.041C42.3707 106.776 42.9744 106.643 43.6989 106.643H51V109.115H49.5014V109.2C49.8045 109.356 50.0885 109.576 50.3537 109.86C50.6141 110.14 50.8248 110.493 50.9858 110.919C51.142 111.34 51.2202 111.835 51.2202 112.403ZM49.331 111.735C49.331 111.219 49.2292 110.772 49.0256 110.393C48.8172 110.014 48.5426 109.723 48.2017 109.52C47.8608 109.311 47.4891 109.207 47.0866 109.207H45.8011C45.8674 109.288 45.929 109.425 45.9858 109.619C46.0426 109.808 46.0923 110.021 46.1349 110.258C46.1776 110.495 46.2154 110.729 46.2486 110.961C46.2817 111.193 46.3101 111.395 46.3338 111.565C46.3859 111.949 46.4711 112.292 46.5895 112.595C46.7079 112.898 46.8736 113.137 47.0866 113.312C47.295 113.487 47.5649 113.575 47.8963 113.575C48.3698 113.575 48.7273 113.402 48.9688 113.056C49.2102 112.711 49.331 112.27 49.331 111.735ZM36.4545 93.2092H51V95.8441H39.0185V95.9293L41.1918 99.3313H38.777L36.4545 95.7163V93.2092ZM48.3011 89.7788H46.206L36.4545 83.6069V81.8597H39.4375V82.9251L46.0213 87.0799H46.1349V78.4648H48.3011V89.7788ZM51 82.8398H47.6619L46.7244 82.8114H36.4545V80.3256H51V82.8398Z" fill="white"/>
<path d="M84.5398 392.733C85.7934 387.264 87.8089 382.002 89.0211 376.514C90.5313 369.676 92.2456 362.944 94.0999 356.19C96.1277 348.804 98.1943 341.436 100.44 334.111C103.063 325.558 104.724 316.775 106.714 308.061C110.56 291.222 115.589 274.676 120.092 258.012C122.65 248.543 124.168 238.808 127.195 229.479C129.806 221.432 133.105 213.612 136.523 205.878C139.874 198.296 143.923 190.16 152.125 186.944C157.548 184.818 164.516 184.458 170.116 186.05C176.795 187.949 181.895 194.497 186.78 199.026C195.551 207.157 203.038 216.199 210.581 225.474C214.534 230.334 217.884 235.578 221.651 240.568C225.999 246.325 231.086 251.52 236.141 256.655C241.993 262.599 247.981 268.516 254.531 273.702C262.954 280.371 272.459 285.691 282.249 290.087C296.057 296.287 310.466 299.876 325.004 303.857C337.953 307.403 350.545 312.073 363.344 316.104C382.62 322.175 402.055 327.669 421.236 334.045" stroke="#00C6C3" stroke-width="3" stroke-linecap="round"/>
<line x1="83.3333" y1="263.397" x2="86.7221" y2="263.397" stroke="white"/>
<line x1="83.3333" y1="305.638" x2="86.7221" y2="305.638" stroke="white"/>
<line x1="83.3333" y1="349.569" x2="86.7221" y2="349.569" stroke="white"/>
<line x1="90.1086" y1="262.586" x2="434.085" y2="262.586" stroke="white" stroke-opacity="0.5" stroke-dasharray="1 1"/>
<line x1="90.1086" y1="132.483" x2="434.085" y2="132.483" stroke="white" stroke-opacity="0.5" stroke-dasharray="1 1"/>
<line x1="81.6389" y1="89.3621" x2="86.7223" y2="89.3621" stroke="white"/>
<line x1="81.6389" y1="133.293" x2="86.7223" y2="133.293" stroke="white"/>
<line x1="81.6389" y1="170.466" x2="86.7223" y2="170.466" stroke="white"/>
<line x1="81.6389" y1="216.086" x2="86.7223" y2="216.086" stroke="white"/>
<line x1="123.5" y1="395.69" x2="123.5" y2="390.621" stroke="white"/>
<line x1="165.861" y1="395.69" x2="165.861" y2="390.621" stroke="white"/>
<line x1="208.222" y1="395.69" x2="208.222" y2="390.621" stroke="white"/>
<line x1="248.889" y1="395.69" x2="248.889" y2="390.621" stroke="white"/>
<line x1="291.25" y1="395.69" x2="291.25" y2="390.621" stroke="white"/>
<line x1="333.611" y1="395.69" x2="333.611" y2="390.621" stroke="white"/>
<line x1="374.278" y1="395.69" x2="374.278" y2="390.621" stroke="white"/>
<line x1="418.333" y1="395.69" x2="418.333" y2="390.621" stroke="white"/>
<path d="M84.8682 392.063C96.7852 388.31 103.605 375.718 110.292 366.282C123.558 347.562 134.293 327.433 142.901 306.208C146.942 296.245 150.896 286.236 155.061 276.324C159.604 265.511 162.925 254.25 167.465 243.44C172.474 231.518 179.199 220.409 187.117 210.188C193.324 202.177 199.635 195.58 210.023 193.899C218.115 192.59 228.863 192.019 235.693 197.39C240.649 201.287 242.83 207.838 245.948 213.067C250.482 220.667 255.999 227.747 260.748 235.234C267.025 245.129 273.647 255.101 281.198 264.077C289.251 273.65 297.872 282.638 306.745 291.45C319.486 304.105 332.505 317.264 347.46 327.335C366.227 339.974 388.785 347.629 410.59 353.116C420.559 355.624 431.511 358.995 441.91 358.995" stroke="#117D7C" stroke-width="3" stroke-linecap="round"/>
<circle cx="68" cy="459" r="5" fill="#117D7C"/>
<circle cx="269" cy="459" r="5" fill="#00C6C3"/>
</svg>
