<svg width="1278" height="460" viewBox="0 0 1278 460" fill="none" xmlns="http://www.w3.org/2000/svg">
<rect x="1" y="1" width="1276" height="457.146" rx="15" fill="#131627"/>
<rect x="0.5" y="0.5" width="1277" height="458.146" rx="15.5" stroke="black" stroke-opacity="0.8"/>
<path d="M92.4126 311.835C97.4724 302.386 106.337 291.735 117.383 284.091C123.03 280.184 132.919 279.626 141.143 279.626C161.596 279.626 185.44 289.624 204.844 283.213C215.082 279.83 220.403 274.169 228.986 269.854C238.917 264.861 254.121 266.332 266.187 265.572C283.626 264.472 287.478 252.783 293.515 245.075C298.244 239.037 306.83 235.388 313.071 243.025C319.14 250.453 323.27 258.587 335.111 263.815C345.39 268.352 358.589 270.506 368.618 264.583C381.846 256.771 386.642 244.6 395.881 235.266C403.701 227.366 414.661 216.84 429.006 212.354C445.497 207.196 461.061 210.902 473.086 217.625C488.824 226.423 502.939 235.818 525.958 237.901C536.888 238.891 546.473 234.686 557.044 233.729C575.688 232.04 583.82 237.867 591.123 246.759C598.831 256.143 608.694 254.985 623.165 250.346C626.461 249.289 631.746 246.708 635.968 247.967C643.493 250.208 648.212 257.436 651.894 261.436C657.506 267.533 666.443 280.416 680.559 281.456C693.549 282.413 699.758 269.073 713.364 272.452C730.218 276.638 739.492 287.301 752.476 294.12C757.44 296.727 764.264 299.671 771.459 299.61C784.987 299.496 790.86 289.946 795.028 284.165C805.952 269.013 814.024 253.492 829.681 239.585C839.56 230.811 858.14 214.802 878.412 224.322C895.244 232.227 899.754 247.86 920.009 253.493C938.848 258.733 948.663 243.173 963.962 240.72C979.557 238.219 995.147 249.648 1001.8 256.019C1005.31 259.377 1008.1 263.51 1013.52 266.084C1022.97 270.568 1037.04 270.594 1048.56 270.696C1079.16 270.966 1110.51 267.804 1134.36 281.31C1151.95 291.272 1161.31 303.793 1167.93 317.105" stroke="#00C6C3" stroke-width="3" stroke-linecap="round"/>
<path d="M1148.44 311.835C1134.41 304.062 1124.97 293.666 1111.75 285.409C1099.58 277.813 1084.4 273.038 1067.28 270.11C1052.11 267.513 1037.87 265.875 1023.46 270.476C1011.25 274.373 1000.44 279.696 989.569 284.677C983.036 287.67 977.025 290.547 968.165 289.948C956.333 289.148 947.402 283.393 943.704 277.211C929.049 252.705 933.365 225.632 922.174 200.715C918.047 191.527 911.615 179.227 896.248 174.143C881.936 169.408 864.007 171.182 852.231 177.547C837.516 185.499 831.483 196.758 822.228 206.718C815.838 213.594 808.275 217.3 794.327 216.783C773.945 216.027 758.877 208.815 745.915 200.349C734.719 193.037 724.099 186.047 708.968 195.188C694.662 203.832 695.983 215.316 690.623 226.006C688.578 230.083 685.352 233.915 681.768 237.609C679.638 239.805 676.294 244.375 671.831 245.514C664.156 247.474 650.794 244.469 643.293 243.465C629.689 241.644 625.133 243.265 614.118 248.003C606.266 251.38 592.294 256.767 582.523 252.395C571.753 247.577 570.832 236.807 565.706 229.996C557.008 218.438 553.276 206.596 548.507 194.346C545.982 187.861 540.236 164.907 520.734 167.848C498.271 171.235 492.143 185.855 474.232 192.37C464.272 195.993 452.561 193.858 443.083 190.943C423.242 184.84 413.246 174.701 404.162 163.382C399.194 157.193 394.779 150.95 386.708 145.814C381.191 142.304 372.481 137.509 363.521 137.469C351.373 137.414 343.958 145.389 340.079 150.792C332.71 161.056 330.752 172.517 329.696 183.476C326.643 215.156 333.288 249.768 298.101 277.028C285.008 287.171 263.319 286.869 245.548 280.688C226.297 273.991 213.921 258.107 188.918 258.983C166.556 259.767 136.138 263.785 120.122 273.368C108.942 280.056 101.9 289.007 99.2915 298" stroke="white" stroke-width="3" stroke-linecap="round"/>
<path d="M102.73 297.341C110.091 286.146 118.7 275.235 126.363 264.108C128.983 260.304 130.76 256.648 136.237 253.859C146.667 248.549 158.018 250.984 166.686 256.568C173.884 261.205 179.591 267.048 183.503 272.819C187.28 278.391 189.411 285.972 197.517 290.167C206.603 294.87 217.944 291.598 225.29 287.422C231.368 283.967 236.007 279.633 242.871 276.625C249.99 273.506 258.458 272.38 267.205 271.94C283.932 271.099 301.224 272.595 312.687 280.285C322.041 286.56 325.056 295.671 337.912 300.196C379.033 314.67 394.772 277.489 402.823 262.644C409.661 250.036 418.396 237.86 428.367 225.97C433.655 219.663 438.865 211.122 448.433 206.425C467.257 197.182 490.378 212.905 499.202 220.992C511.576 232.332 530.928 245.845 554.494 249.394C587.567 254.375 597.75 229.798 612.971 218.796C622.96 211.575 640.873 210.378 655.141 213.891C675.258 218.845 683.262 231.444 701.132 237.901C723.231 245.887 740.258 234.644 750.819 224.396C758.211 217.222 783.043 182.92 806.62 193.615C814.558 197.215 818.129 204.602 821.017 209.499C828.371 221.97 833.958 234.684 842.293 246.978C850.489 259.069 860.729 276.851 880.449 284.641C897.861 291.519 909.931 283.177 921.154 276.259C935.408 267.473 950.042 267.135 968.483 272.489C989.789 278.675 1009.02 287.448 1031.99 277.211C1051.18 268.661 1057.37 251.171 1079.32 244.819C1103.77 237.747 1119.57 263.205 1126.27 271.867C1135.49 283.8 1143.25 296.088 1153.02 307.882" stroke="#117D7C" stroke-width="3" stroke-linecap="round"/>
<path d="M98.5728 91.5668H1149.4" stroke="white" stroke-opacity="0.5" stroke-width="0.5" stroke-linecap="round"/>
<path d="M98.5762 126.068H1149.41" stroke="white" stroke-opacity="0.5" stroke-width="0.5" stroke-linecap="round"/>
<path d="M98.5762 162.726H1149.41" stroke="white" stroke-opacity="0.5" stroke-width="0.5" stroke-linecap="round"/>
<path d="M98.5762 197.228H1149.41" stroke="white" stroke-opacity="0.5" stroke-width="0.5" stroke-linecap="round"/>
<path d="M98.5762 231.729H1149.41" stroke="white" stroke-opacity="0.5" stroke-width="0.5" stroke-linecap="round"/>
<path d="M98.5762 266.231H1149.41" stroke="white" stroke-opacity="0.5" stroke-width="0.5" stroke-linecap="round"/>
<path d="M98.5762 300.733H1149.41" stroke="white" stroke-opacity="0.5" stroke-width="0.5" stroke-linecap="round"/>
<path d="M70.3551 370V368.849L74.6761 364.119C75.1832 363.565 75.6009 363.084 75.929 362.675C76.2571 362.261 76.5 361.874 76.6577 361.511C76.8196 361.145 76.9006 360.761 76.9006 360.361C76.9006 359.901 76.7898 359.502 76.5682 359.165C76.3509 358.829 76.0526 358.569 75.6733 358.386C75.294 358.202 74.8679 358.111 74.3949 358.111C73.892 358.111 73.4531 358.215 73.0781 358.424C72.7074 358.629 72.4197 358.916 72.2152 359.287C72.0149 359.658 71.9148 360.092 71.9148 360.591H70.4062C70.4062 359.824 70.5831 359.151 70.9368 358.571C71.2905 357.991 71.772 357.54 72.3814 357.216C72.995 356.892 73.6832 356.73 74.446 356.73C75.2131 356.73 75.8928 356.892 76.4851 357.216C77.0774 357.54 77.5419 357.977 77.8786 358.526C78.2152 359.076 78.3835 359.688 78.3835 360.361C78.3835 360.842 78.2962 361.313 78.1214 361.773C77.951 362.229 77.6527 362.739 77.2266 363.301C76.8047 363.859 76.2188 364.541 75.4688 365.347L72.5284 368.491V368.594H78.6136V370H70.3551ZM85.5234 370.179C84.5604 370.179 83.7401 369.917 83.0625 369.393C82.3849 368.864 81.8672 368.099 81.5092 367.098C81.1513 366.092 80.9723 364.878 80.9723 363.455C80.9723 362.04 81.1513 360.832 81.5092 359.83C81.8714 358.825 82.3913 358.058 83.0689 357.529C83.7507 356.996 84.5689 356.73 85.5234 356.73C86.478 356.73 87.294 356.996 87.9716 357.529C88.6534 358.058 89.1733 358.825 89.5312 359.83C89.8935 360.832 90.0746 362.04 90.0746 363.455C90.0746 364.878 89.8956 366.092 89.5376 367.098C89.1797 368.099 88.6619 368.864 87.9844 369.393C87.3068 369.917 86.4865 370.179 85.5234 370.179ZM85.5234 368.773C86.478 368.773 87.2195 368.312 87.7479 367.392C88.2763 366.472 88.5405 365.159 88.5405 363.455C88.5405 362.321 88.419 361.356 88.1761 360.559C87.9375 359.762 87.5923 359.155 87.1406 358.737C86.6932 358.32 86.1541 358.111 85.5234 358.111C84.5774 358.111 83.8381 358.577 83.3054 359.511C82.7727 360.44 82.5064 361.754 82.5064 363.455C82.5064 364.588 82.6257 365.551 82.8643 366.344C83.103 367.136 83.446 367.739 83.8935 368.153C84.3452 368.566 84.8885 368.773 85.5234 368.773ZM96.7734 370.179C95.8104 370.179 94.9901 369.917 94.3125 369.393C93.6349 368.864 93.1172 368.099 92.7592 367.098C92.4013 366.092 92.2223 364.878 92.2223 363.455C92.2223 362.04 92.4013 360.832 92.7592 359.83C93.1214 358.825 93.6413 358.058 94.3189 357.529C95.0007 356.996 95.8189 356.73 96.7734 356.73C97.728 356.73 98.544 356.996 99.2216 357.529C99.9034 358.058 100.423 358.825 100.781 359.83C101.143 360.832 101.325 362.04 101.325 363.455C101.325 364.878 101.146 366.092 100.788 367.098C100.43 368.099 99.9119 368.864 99.2344 369.393C98.5568 369.917 97.7365 370.179 96.7734 370.179ZM96.7734 368.773C97.728 368.773 98.4695 368.312 98.9979 367.392C99.5263 366.472 99.7905 365.159 99.7905 363.455C99.7905 362.321 99.669 361.356 99.4261 360.559C99.1875 359.762 98.8423 359.155 98.3906 358.737C97.9432 358.32 97.4041 358.111 96.7734 358.111C95.8274 358.111 95.0881 358.577 94.5554 359.511C94.0227 360.44 93.7564 361.754 93.7564 363.455C93.7564 364.588 93.8757 365.551 94.1143 366.344C94.353 367.136 94.696 367.739 95.1435 368.153C95.5952 368.566 96.1385 368.773 96.7734 368.773ZM108.023 370.179C107.06 370.179 106.24 369.917 105.562 369.393C104.885 368.864 104.367 368.099 104.009 367.098C103.651 366.092 103.472 364.878 103.472 363.455C103.472 362.04 103.651 360.832 104.009 359.83C104.371 358.825 104.891 358.058 105.569 357.529C106.251 356.996 107.069 356.73 108.023 356.73C108.978 356.73 109.794 356.996 110.472 357.529C111.153 358.058 111.673 358.825 112.031 359.83C112.393 360.832 112.575 362.04 112.575 363.455C112.575 364.878 112.396 366.092 112.038 367.098C111.68 368.099 111.162 368.864 110.484 369.393C109.807 369.917 108.987 370.179 108.023 370.179ZM108.023 368.773C108.978 368.773 109.719 368.312 110.248 367.392C110.776 366.472 111.04 365.159 111.04 363.455C111.04 362.321 110.919 361.356 110.676 360.559C110.438 359.762 110.092 359.155 109.641 358.737C109.193 358.32 108.654 358.111 108.023 358.111C107.077 358.111 106.338 358.577 105.805 359.511C105.273 360.44 105.006 361.754 105.006 363.455C105.006 364.588 105.126 365.551 105.364 366.344C105.603 367.136 105.946 367.739 106.393 368.153C106.845 368.566 107.388 368.773 108.023 368.773Z" fill="white"/>
<path d="M249.038 370.485V369.335L253.359 364.605C253.866 364.051 254.283 363.569 254.612 363.16C254.94 362.747 255.183 362.359 255.34 361.997C255.502 361.63 255.583 361.247 255.583 360.846C255.583 360.386 255.472 359.987 255.251 359.651C255.033 359.314 254.735 359.054 254.356 358.871C253.977 358.688 253.551 358.596 253.078 358.596C252.575 358.596 252.136 358.7 251.761 358.909C251.39 359.114 251.102 359.401 250.898 359.772C250.698 360.143 250.597 360.578 250.597 361.076H249.089C249.089 360.309 249.266 359.636 249.619 359.056C249.973 358.477 250.455 358.025 251.064 357.701C251.678 357.377 252.366 357.215 253.129 357.215C253.896 357.215 254.575 357.377 255.168 357.701C255.76 358.025 256.225 358.462 256.561 359.012C256.898 359.561 257.066 360.173 257.066 360.846C257.066 361.328 256.979 361.798 256.804 362.259C256.634 362.715 256.335 363.224 255.909 363.786C255.487 364.345 254.901 365.026 254.151 365.832L251.211 368.977V369.079H257.296V370.485H249.038ZM264.206 370.664C263.243 370.664 262.423 370.402 261.745 369.878C261.068 369.35 260.55 368.585 260.192 367.583C259.834 366.578 259.655 365.363 259.655 363.94C259.655 362.525 259.834 361.317 260.192 360.315C260.554 359.31 261.074 358.543 261.752 358.014C262.433 357.482 263.252 357.215 264.206 357.215C265.161 357.215 265.977 357.482 266.654 358.014C267.336 358.543 267.856 359.31 268.214 360.315C268.576 361.317 268.757 362.525 268.757 363.94C268.757 365.363 268.578 366.578 268.22 367.583C267.862 368.585 267.345 369.35 266.667 369.878C265.989 370.402 265.169 370.664 264.206 370.664ZM264.206 369.258C265.161 369.258 265.902 368.798 266.43 367.877C266.959 366.957 267.223 365.644 267.223 363.94C267.223 362.806 267.102 361.841 266.859 361.044C266.62 360.247 266.275 359.64 265.823 359.222C265.376 358.805 264.837 358.596 264.206 358.596C263.26 358.596 262.521 359.063 261.988 359.996C261.455 360.925 261.189 362.239 261.189 363.94C261.189 365.073 261.308 366.036 261.547 366.829C261.786 367.622 262.129 368.225 262.576 368.638C263.028 369.051 263.571 369.258 264.206 369.258ZM275.788 357.394V370.485H274.203V359.056H274.127L270.93 361.178V359.568L274.203 357.394H275.788ZM283.823 370.664C282.86 370.664 282.04 370.402 281.362 369.878C280.685 369.35 280.167 368.585 279.809 367.583C279.451 366.578 279.272 365.363 279.272 363.94C279.272 362.525 279.451 361.317 279.809 360.315C280.171 359.31 280.691 358.543 281.369 358.014C282.051 357.482 282.869 357.215 283.823 357.215C284.778 357.215 285.594 357.482 286.271 358.014C286.953 358.543 287.473 359.31 287.831 360.315C288.193 361.317 288.374 362.525 288.374 363.94C288.374 365.363 288.195 366.578 287.837 367.583C287.479 368.585 286.962 369.35 286.284 369.878C285.607 370.402 284.786 370.664 283.823 370.664ZM283.823 369.258C284.778 369.258 285.519 368.798 286.048 367.877C286.576 366.957 286.84 365.644 286.84 363.94C286.84 362.806 286.719 361.841 286.476 361.044C286.237 360.247 285.892 359.64 285.44 359.222C284.993 358.805 284.454 358.596 283.823 358.596C282.877 358.596 282.138 359.063 281.605 359.996C281.073 360.925 280.806 362.239 280.806 363.94C280.806 365.073 280.926 366.036 281.164 366.829C281.403 367.622 281.746 368.225 282.193 368.638C282.645 369.051 283.188 369.258 283.823 369.258Z" fill="white"/>
<path d="M423.426 370.485V369.335L427.747 364.605C428.254 364.051 428.672 363.569 429 363.16C429.328 362.747 429.571 362.359 429.728 361.997C429.89 361.63 429.971 361.247 429.971 360.846C429.971 360.386 429.861 359.987 429.639 359.651C429.422 359.314 429.123 359.054 428.744 358.871C428.365 358.688 427.939 358.596 427.466 358.596C426.963 358.596 426.524 358.7 426.149 358.909C425.778 359.114 425.491 359.401 425.286 359.772C425.086 360.143 424.986 360.578 424.986 361.076H423.477C423.477 360.309 423.654 359.636 424.008 359.056C424.361 358.477 424.843 358.025 425.452 357.701C426.066 357.377 426.754 357.215 427.517 357.215C428.284 357.215 428.964 357.377 429.556 357.701C430.148 358.025 430.613 358.462 430.949 359.012C431.286 359.561 431.454 360.173 431.454 360.846C431.454 361.328 431.367 361.798 431.192 362.259C431.022 362.715 430.723 363.224 430.297 363.786C429.875 364.345 429.29 365.026 428.54 365.832L425.599 368.977V369.079H431.684V370.485H423.426ZM438.594 370.664C437.631 370.664 436.811 370.402 436.133 369.878C435.456 369.35 434.938 368.585 434.58 367.583C434.222 366.578 434.043 365.363 434.043 363.94C434.043 362.525 434.222 361.317 434.58 360.315C434.942 359.31 435.462 358.543 436.14 358.014C436.822 357.482 437.64 357.215 438.594 357.215C439.549 357.215 440.365 357.482 441.042 358.014C441.724 358.543 442.244 359.31 442.602 360.315C442.964 361.317 443.145 362.525 443.145 363.94C443.145 365.363 442.966 366.578 442.608 367.583C442.25 368.585 441.733 369.35 441.055 369.878C440.378 370.402 439.557 370.664 438.594 370.664ZM438.594 369.258C439.549 369.258 440.29 368.798 440.819 367.877C441.347 366.957 441.611 365.644 441.611 363.94C441.611 362.806 441.49 361.841 441.247 361.044C441.008 360.247 440.663 359.64 440.211 359.222C439.764 358.805 439.225 358.596 438.594 358.596C437.648 358.596 436.909 359.063 436.376 359.996C435.844 360.925 435.577 362.239 435.577 363.94C435.577 365.073 435.697 366.036 435.935 366.829C436.174 367.622 436.517 368.225 436.964 368.638C437.416 369.051 437.959 369.258 438.594 369.258ZM445.574 370.485V369.335L449.895 364.605C450.402 364.051 450.82 363.569 451.148 363.16C451.476 362.747 451.719 362.359 451.877 361.997C452.039 361.63 452.12 361.247 452.12 360.846C452.12 360.386 452.009 359.987 451.787 359.651C451.57 359.314 451.272 359.054 450.893 358.871C450.513 358.688 450.087 358.596 449.614 358.596C449.111 358.596 448.672 358.7 448.297 358.909C447.927 359.114 447.639 359.401 447.434 359.772C447.234 360.143 447.134 360.578 447.134 361.076H445.625C445.625 360.309 445.802 359.636 446.156 359.056C446.51 358.477 446.991 358.025 447.601 357.701C448.214 357.377 448.902 357.215 449.665 357.215C450.432 357.215 451.112 357.377 451.704 357.701C452.297 358.025 452.761 358.462 453.098 359.012C453.434 359.561 453.603 360.173 453.603 360.846C453.603 361.328 453.515 361.798 453.341 362.259C453.17 362.715 452.872 363.224 452.446 363.786C452.024 364.345 451.438 365.026 450.688 365.832L447.748 368.977V369.079H453.833V370.485H445.574ZM460.743 370.664C459.78 370.664 458.959 370.402 458.282 369.878C457.604 369.35 457.086 368.585 456.728 367.583C456.371 366.578 456.192 365.363 456.192 363.94C456.192 362.525 456.371 361.317 456.728 360.315C457.091 359.31 457.611 358.543 458.288 358.014C458.97 357.482 459.788 357.215 460.743 357.215C461.697 357.215 462.513 357.482 463.191 358.014C463.873 358.543 464.393 359.31 464.75 360.315C465.113 361.317 465.294 362.525 465.294 363.94C465.294 365.363 465.115 366.578 464.757 367.583C464.399 368.585 463.881 369.35 463.204 369.878C462.526 370.402 461.706 370.664 460.743 370.664ZM460.743 369.258C461.697 369.258 462.439 368.798 462.967 367.877C463.496 366.957 463.76 365.644 463.76 363.94C463.76 362.806 463.638 361.841 463.395 361.044C463.157 360.247 462.812 359.64 462.36 359.222C461.912 358.805 461.373 358.596 460.743 358.596C459.797 358.596 459.057 359.063 458.525 359.996C457.992 360.925 457.726 362.239 457.726 363.94C457.726 365.073 457.845 366.036 458.084 366.829C458.322 367.622 458.665 368.225 459.113 368.638C459.564 369.051 460.108 369.258 460.743 369.258Z" fill="white"/>
<path d="M600.814 370.485V369.335L605.135 364.605C605.642 364.051 606.06 363.569 606.388 363.16C606.716 362.747 606.959 362.359 607.117 361.997C607.279 361.63 607.36 361.247 607.36 360.846C607.36 360.386 607.249 359.987 607.027 359.651C606.81 359.314 606.512 359.054 606.132 358.871C605.753 358.688 605.327 358.596 604.854 358.596C604.351 358.596 603.912 358.7 603.537 358.909C603.166 359.114 602.879 359.401 602.674 359.772C602.474 360.143 602.374 360.578 602.374 361.076H600.865C600.865 360.309 601.042 359.636 601.396 359.056C601.749 358.477 602.231 358.025 602.84 357.701C603.454 357.377 604.142 357.215 604.905 357.215C605.672 357.215 606.352 357.377 606.944 357.701C607.536 358.025 608.001 358.462 608.338 359.012C608.674 359.561 608.843 360.173 608.843 360.846C608.843 361.328 608.755 361.798 608.58 362.259C608.41 362.715 608.112 363.224 607.686 363.786C607.264 364.345 606.678 365.026 605.928 365.832L602.987 368.977V369.079H609.073V370.485H600.814ZM615.982 370.664C615.019 370.664 614.199 370.402 613.521 369.878C612.844 369.35 612.326 368.585 611.968 367.583C611.61 366.578 611.431 365.363 611.431 363.94C611.431 362.525 611.61 361.317 611.968 360.315C612.33 359.31 612.85 358.543 613.528 358.014C614.21 357.482 615.028 357.215 615.982 357.215C616.937 357.215 617.753 357.482 618.431 358.014C619.112 358.543 619.632 359.31 619.99 360.315C620.352 361.317 620.534 362.525 620.534 363.94C620.534 365.363 620.355 366.578 619.997 367.583C619.639 368.585 619.121 369.35 618.443 369.878C617.766 370.402 616.945 370.664 615.982 370.664ZM615.982 369.258C616.937 369.258 617.678 368.798 618.207 367.877C618.735 366.957 618.999 365.644 618.999 363.94C618.999 362.806 618.878 361.841 618.635 361.044C618.396 360.247 618.051 359.64 617.6 359.222C617.152 358.805 616.613 358.596 615.982 358.596C615.036 358.596 614.297 359.063 613.764 359.996C613.232 360.925 612.965 362.239 612.965 363.94C612.965 365.073 613.085 366.036 613.323 366.829C613.562 367.622 613.905 368.225 614.352 368.638C614.804 369.051 615.347 369.258 615.982 369.258ZM627.386 370.664C626.542 370.664 625.79 370.519 625.129 370.23C624.473 369.94 623.951 369.537 623.563 369.021C623.18 368.502 622.971 367.899 622.937 367.213H624.548C624.582 367.634 624.727 367.999 624.982 368.306C625.238 368.608 625.573 368.842 625.986 369.009C626.399 369.175 626.857 369.258 627.36 369.258C627.923 369.258 628.421 369.16 628.856 368.964C629.291 368.768 629.632 368.495 629.879 368.146C630.126 367.796 630.249 367.391 630.249 366.931C630.249 366.45 630.13 366.026 629.892 365.659C629.653 365.288 629.303 364.999 628.843 364.79C628.383 364.581 627.82 364.477 627.156 364.477H626.107V363.07H627.156C627.676 363.07 628.132 362.977 628.524 362.789C628.92 362.602 629.229 362.338 629.45 361.997C629.676 361.656 629.789 361.255 629.789 360.795C629.789 360.352 629.691 359.966 629.495 359.638C629.299 359.31 629.022 359.054 628.664 358.871C628.311 358.688 627.893 358.596 627.411 358.596C626.96 358.596 626.534 358.679 626.133 358.845C625.737 359.007 625.413 359.244 625.161 359.555C624.91 359.862 624.774 360.232 624.752 360.667H623.218C623.244 359.981 623.45 359.38 623.838 358.864C624.226 358.345 624.733 357.94 625.36 357.65C625.99 357.36 626.683 357.215 627.437 357.215C628.247 357.215 628.941 357.379 629.521 357.708C630.1 358.031 630.546 358.46 630.857 358.992C631.168 359.525 631.323 360.1 631.323 360.718C631.323 361.455 631.129 362.084 630.742 362.604C630.358 363.124 629.836 363.484 629.176 363.684V363.786C630.002 363.923 630.648 364.274 631.112 364.841C631.577 365.404 631.809 366.1 631.809 366.931C631.809 367.643 631.615 368.282 631.227 368.849C630.844 369.411 630.32 369.855 629.655 370.178C628.99 370.502 628.234 370.664 627.386 370.664ZM638.693 370.664C637.73 370.664 636.91 370.402 636.232 369.878C635.555 369.35 635.037 368.585 634.679 367.583C634.321 366.578 634.142 365.363 634.142 363.94C634.142 362.525 634.321 361.317 634.679 360.315C635.041 359.31 635.561 358.543 636.239 358.014C636.921 357.482 637.739 357.215 638.693 357.215C639.648 357.215 640.464 357.482 641.142 358.014C641.823 358.543 642.343 359.31 642.701 360.315C643.063 361.317 643.244 362.525 643.244 363.94C643.244 365.363 643.066 366.578 642.708 367.583C642.35 368.585 641.832 369.35 641.154 369.878C640.477 370.402 639.656 370.664 638.693 370.664ZM638.693 369.258C639.648 369.258 640.389 368.798 640.918 367.877C641.446 366.957 641.71 365.644 641.71 363.94C641.71 362.806 641.589 361.841 641.346 361.044C641.107 360.247 640.762 359.64 640.311 359.222C639.863 358.805 639.324 358.596 638.693 358.596C637.747 358.596 637.008 359.063 636.475 359.996C635.943 360.925 635.676 362.239 635.676 363.94C635.676 365.073 635.796 366.036 636.034 366.829C636.273 367.622 636.616 368.225 637.063 368.638C637.515 369.051 638.058 369.258 638.693 369.258Z" fill="white"/>
<path d="M777.202 370.485V369.335L781.523 364.605C782.03 364.051 782.448 363.569 782.776 363.16C783.104 362.747 783.347 362.359 783.504 361.997C783.666 361.63 783.747 361.247 783.747 360.846C783.747 360.386 783.636 359.987 783.415 359.651C783.198 359.314 782.899 359.054 782.52 358.871C782.141 358.688 781.715 358.596 781.242 358.596C780.739 358.596 780.3 358.7 779.925 358.909C779.554 359.114 779.266 359.401 779.062 359.772C778.862 360.143 778.761 360.578 778.761 361.076H777.253C777.253 360.309 777.43 359.636 777.783 359.056C778.137 358.477 778.619 358.025 779.228 357.701C779.842 357.377 780.53 357.215 781.293 357.215C782.06 357.215 782.739 357.377 783.332 357.701C783.924 358.025 784.389 358.462 784.725 359.012C785.062 359.561 785.23 360.173 785.23 360.846C785.23 361.328 785.143 361.798 784.968 362.259C784.798 362.715 784.499 363.224 784.073 363.786C783.651 364.345 783.065 365.026 782.315 365.832L779.375 368.977V369.079H785.46V370.485H777.202ZM792.37 370.664C791.407 370.664 790.587 370.402 789.909 369.878C789.232 369.35 788.714 368.585 788.356 367.583C787.998 366.578 787.819 365.363 787.819 363.94C787.819 362.525 787.998 361.317 788.356 360.315C788.718 359.31 789.238 358.543 789.916 358.014C790.597 357.482 791.416 357.215 792.37 357.215C793.325 357.215 794.141 357.482 794.818 358.014C795.5 358.543 796.02 359.31 796.378 360.315C796.74 361.317 796.921 362.525 796.921 363.94C796.921 365.363 796.742 366.578 796.384 367.583C796.026 368.585 795.509 369.35 794.831 369.878C794.153 370.402 793.333 370.664 792.37 370.664ZM792.37 369.258C793.325 369.258 794.066 368.798 794.595 367.877C795.123 366.957 795.387 365.644 795.387 363.94C795.387 362.806 795.266 361.841 795.023 361.044C794.784 360.247 794.439 359.64 793.987 359.222C793.54 358.805 793.001 358.596 792.37 358.596C791.424 358.596 790.685 359.063 790.152 359.996C789.619 360.925 789.353 362.239 789.353 363.94C789.353 365.073 789.472 366.036 789.711 366.829C789.95 367.622 790.293 368.225 790.74 368.638C791.192 369.051 791.735 369.258 792.37 369.258ZM799.043 367.801V366.497L804.796 357.394H805.742V359.414H805.103L800.756 366.292V366.394H808.504V367.801H799.043ZM805.205 370.485V367.404V366.797V357.394H806.714V370.485H805.205ZM815.169 370.664C814.206 370.664 813.386 370.402 812.708 369.878C812.03 369.35 811.513 368.585 811.155 367.583C810.797 366.578 810.618 365.363 810.618 363.94C810.618 362.525 810.797 361.317 811.155 360.315C811.517 359.31 812.037 358.543 812.714 358.014C813.396 357.482 814.214 357.215 815.169 357.215C816.123 357.215 816.94 357.482 817.617 358.014C818.299 358.543 818.819 359.31 819.177 360.315C819.539 361.317 819.72 362.525 819.72 363.94C819.72 365.363 819.541 366.578 819.183 367.583C818.825 368.585 818.307 369.35 817.63 369.878C816.952 370.402 816.132 370.664 815.169 370.664ZM815.169 369.258C816.123 369.258 816.865 368.798 817.393 367.877C817.922 366.957 818.186 365.644 818.186 363.94C818.186 362.806 818.065 361.841 817.822 361.044C817.583 360.247 817.238 359.64 816.786 359.222C816.339 358.805 815.8 358.596 815.169 358.596C814.223 358.596 813.484 359.063 812.951 359.996C812.418 360.925 812.152 362.239 812.152 363.94C812.152 365.073 812.271 366.036 812.51 366.829C812.748 367.622 813.092 368.225 813.539 368.638C813.991 369.051 814.534 369.258 815.169 369.258Z" fill="white"/>
<path d="M953.59 370.485V369.335L957.911 364.605C958.418 364.051 958.836 363.569 959.164 363.16C959.492 362.747 959.735 362.359 959.893 361.997C960.054 361.63 960.135 361.247 960.135 360.846C960.135 360.386 960.025 359.987 959.803 359.651C959.586 359.314 959.287 359.054 958.908 358.871C958.529 358.688 958.103 358.596 957.63 358.596C957.127 358.596 956.688 358.7 956.313 358.909C955.942 359.114 955.655 359.401 955.45 359.772C955.25 360.143 955.15 360.578 955.15 361.076H953.641C953.641 360.309 953.818 359.636 954.172 359.056C954.525 358.477 955.007 358.025 955.616 357.701C956.23 357.377 956.918 357.215 957.681 357.215C958.448 357.215 959.128 357.377 959.72 357.701C960.312 358.025 960.777 358.462 961.113 359.012C961.45 359.561 961.618 360.173 961.618 360.846C961.618 361.328 961.531 361.798 961.356 362.259C961.186 362.715 960.888 363.224 960.461 363.786C960.04 364.345 959.454 365.026 958.704 365.832L955.763 368.977V369.079H961.849V370.485H953.59ZM968.758 370.664C967.795 370.664 966.975 370.402 966.297 369.878C965.62 369.35 965.102 368.585 964.744 367.583C964.386 366.578 964.207 365.363 964.207 363.94C964.207 362.525 964.386 361.317 964.744 360.315C965.106 359.31 965.626 358.543 966.304 358.014C966.986 357.482 967.804 357.215 968.758 357.215C969.713 357.215 970.529 357.482 971.206 358.014C971.888 358.543 972.408 359.31 972.766 360.315C973.128 361.317 973.309 362.525 973.309 363.94C973.309 365.363 973.13 366.578 972.773 367.583C972.415 368.585 971.897 369.35 971.219 369.878C970.542 370.402 969.721 370.664 968.758 370.664ZM968.758 369.258C969.713 369.258 970.454 368.798 970.983 367.877C971.511 366.957 971.775 365.644 971.775 363.94C971.775 362.806 971.654 361.841 971.411 361.044C971.172 360.247 970.827 359.64 970.375 359.222C969.928 358.805 969.389 358.596 968.758 358.596C967.812 358.596 967.073 359.063 966.54 359.996C966.008 360.925 965.741 362.239 965.741 363.94C965.741 365.073 965.861 366.036 966.099 366.829C966.338 367.622 966.681 368.225 967.128 368.638C967.58 369.051 968.123 369.258 968.758 369.258ZM979.829 370.664C979.079 370.664 978.404 370.515 977.803 370.217C977.202 369.918 976.721 369.509 976.358 368.989C975.996 368.47 975.798 367.877 975.764 367.213H977.298C977.358 367.805 977.626 368.295 978.103 368.683C978.585 369.066 979.16 369.258 979.829 369.258C980.366 369.258 980.844 369.132 981.261 368.881C981.683 368.629 982.013 368.284 982.252 367.845C982.495 367.402 982.616 366.901 982.616 366.343C982.616 365.772 982.491 365.263 982.239 364.815C981.992 364.364 981.651 364.008 981.216 363.748C980.782 363.488 980.285 363.356 979.727 363.352C979.326 363.347 978.915 363.409 978.493 363.537C978.072 363.661 977.724 363.82 977.451 364.016L975.969 363.838L976.761 357.394H983.562V358.801H978.091L977.63 362.661H977.707C977.976 362.448 978.312 362.271 978.717 362.131C979.122 361.99 979.544 361.92 979.983 361.92C980.784 361.92 981.498 362.112 982.124 362.495C982.755 362.874 983.249 363.394 983.607 364.055C983.969 364.715 984.15 365.47 984.15 366.318C984.15 367.153 983.963 367.899 983.588 368.555C983.217 369.207 982.706 369.722 982.054 370.102C981.402 370.477 980.66 370.664 979.829 370.664ZM990.959 370.664C989.996 370.664 989.176 370.402 988.499 369.878C987.821 369.35 987.303 368.585 986.945 367.583C986.587 366.578 986.408 365.363 986.408 363.94C986.408 362.525 986.587 361.317 986.945 360.315C987.307 359.31 987.827 358.543 988.505 358.014C989.187 357.482 990.005 357.215 990.959 357.215C991.914 357.215 992.73 357.482 993.408 358.014C994.089 358.543 994.609 359.31 994.967 360.315C995.33 361.317 995.511 362.525 995.511 363.94C995.511 365.363 995.332 366.578 994.974 367.583C994.616 368.585 994.098 369.35 993.42 369.878C992.743 370.402 991.923 370.664 990.959 370.664ZM990.959 369.258C991.914 369.258 992.655 368.798 993.184 367.877C993.712 366.957 993.977 365.644 993.977 363.94C993.977 362.806 993.855 361.841 993.612 361.044C993.374 360.247 993.028 359.64 992.577 359.222C992.129 358.805 991.59 358.596 990.959 358.596C990.013 358.596 989.274 359.063 988.741 359.996C988.209 360.925 987.942 362.239 987.942 363.94C987.942 365.073 988.062 366.036 988.3 366.829C988.539 367.622 988.882 368.225 989.33 368.638C989.781 369.051 990.325 369.258 990.959 369.258Z" fill="white"/>
<path d="M1133.73 370.485V369.335L1138.05 364.605C1138.56 364.051 1138.98 363.569 1139.3 363.16C1139.63 362.747 1139.88 362.359 1140.03 361.997C1140.2 361.63 1140.28 361.247 1140.28 360.846C1140.28 360.386 1140.17 359.987 1139.94 359.651C1139.73 359.314 1139.43 359.054 1139.05 358.871C1138.67 358.688 1138.24 358.596 1137.77 358.596C1137.27 358.596 1136.83 358.7 1136.45 358.909C1136.08 359.114 1135.8 359.401 1135.59 359.772C1135.39 360.143 1135.29 360.578 1135.29 361.076H1133.78C1133.78 360.309 1133.96 359.636 1134.31 359.056C1134.67 358.477 1135.15 358.025 1135.76 357.701C1136.37 357.377 1137.06 357.215 1137.82 357.215C1138.59 357.215 1139.27 357.377 1139.86 357.701C1140.45 358.025 1140.92 358.462 1141.25 359.012C1141.59 359.561 1141.76 360.173 1141.76 360.846C1141.76 361.328 1141.67 361.798 1141.5 362.259C1141.33 362.715 1141.03 363.224 1140.6 363.786C1140.18 364.345 1139.59 365.026 1138.84 365.832L1135.9 368.977V369.079H1141.99V370.485H1133.73ZM1148.9 370.664C1147.94 370.664 1147.12 370.402 1146.44 369.878C1145.76 369.35 1145.24 368.585 1144.89 367.583C1144.53 366.578 1144.35 365.363 1144.35 363.94C1144.35 362.525 1144.53 361.317 1144.89 360.315C1145.25 359.31 1145.77 358.543 1146.44 358.014C1147.13 357.482 1147.94 357.215 1148.9 357.215C1149.85 357.215 1150.67 357.482 1151.35 358.014C1152.03 358.543 1152.55 359.31 1152.91 360.315C1153.27 361.317 1153.45 362.525 1153.45 363.94C1153.45 365.363 1153.27 366.578 1152.91 367.583C1152.56 368.585 1152.04 369.35 1151.36 369.878C1150.68 370.402 1149.86 370.664 1148.9 370.664ZM1148.9 369.258C1149.85 369.258 1150.6 368.798 1151.12 367.877C1151.65 366.957 1151.92 365.644 1151.92 363.94C1151.92 362.806 1151.8 361.841 1151.55 361.044C1151.31 360.247 1150.97 359.64 1150.52 359.222C1150.07 358.805 1149.53 358.596 1148.9 358.596C1147.95 358.596 1147.21 359.063 1146.68 359.996C1146.15 360.925 1145.88 362.239 1145.88 363.94C1145.88 365.073 1146 366.036 1146.24 366.829C1146.48 367.622 1146.82 368.225 1147.27 368.638C1147.72 369.051 1148.26 369.258 1148.9 369.258ZM1160.23 370.664C1159.69 370.656 1159.15 370.553 1158.62 370.357C1158.08 370.161 1157.59 369.831 1157.15 369.367C1156.7 368.898 1156.35 368.265 1156.08 367.468C1155.81 366.667 1155.67 365.661 1155.67 364.451C1155.67 363.292 1155.78 362.265 1156 361.37C1156.22 360.471 1156.53 359.715 1156.95 359.101C1157.36 358.483 1157.86 358.014 1158.44 357.695C1159.03 357.375 1159.69 357.215 1160.43 357.215C1161.16 357.215 1161.82 357.362 1162.39 357.656C1162.96 357.946 1163.43 358.351 1163.79 358.871C1164.16 359.391 1164.39 359.989 1164.5 360.667H1162.94C1162.79 360.079 1162.51 359.591 1162.09 359.203C1161.67 358.815 1161.12 358.622 1160.43 358.622C1159.42 358.622 1158.62 359.063 1158.03 359.945C1157.45 360.827 1157.16 362.065 1157.16 363.659H1157.26C1157.5 363.296 1157.78 362.987 1158.11 362.732C1158.44 362.472 1158.81 362.271 1159.21 362.131C1159.61 361.99 1160.03 361.92 1160.48 361.92C1161.23 361.92 1161.92 362.107 1162.54 362.482C1163.16 362.853 1163.66 363.367 1164.04 364.023C1164.41 364.675 1164.6 365.423 1164.6 366.266C1164.6 367.076 1164.42 367.818 1164.05 368.491C1163.69 369.16 1163.18 369.693 1162.53 370.089C1161.88 370.481 1161.11 370.673 1160.23 370.664ZM1160.23 369.258C1160.76 369.258 1161.24 369.124 1161.67 368.855C1162.1 368.587 1162.44 368.227 1162.69 367.775C1162.94 367.323 1163.06 366.82 1163.06 366.266C1163.06 365.725 1162.94 365.233 1162.7 364.79C1162.46 364.342 1162.13 363.987 1161.71 363.722C1161.29 363.458 1160.81 363.326 1160.28 363.326C1159.87 363.326 1159.5 363.407 1159.15 363.569C1158.8 363.727 1158.49 363.944 1158.23 364.221C1157.97 364.498 1157.76 364.815 1157.61 365.173C1157.46 365.527 1157.39 365.9 1157.39 366.292C1157.39 366.812 1157.51 367.298 1157.75 367.749C1158 368.201 1158.34 368.565 1158.76 368.842C1159.19 369.119 1159.68 369.258 1160.23 369.258ZM1171.38 370.664C1170.42 370.664 1169.6 370.402 1168.92 369.878C1168.24 369.35 1167.73 368.585 1167.37 367.583C1167.01 366.578 1166.83 365.363 1166.83 363.94C1166.83 362.525 1167.01 361.317 1167.37 360.315C1167.73 359.31 1168.25 358.543 1168.93 358.014C1169.61 357.482 1170.43 357.215 1171.38 357.215C1172.34 357.215 1173.15 357.482 1173.83 358.014C1174.51 358.543 1175.03 359.31 1175.39 360.315C1175.75 361.317 1175.93 362.525 1175.93 363.94C1175.93 365.363 1175.75 366.578 1175.4 367.583C1175.04 368.585 1174.52 369.35 1173.84 369.878C1173.17 370.402 1172.34 370.664 1171.38 370.664ZM1171.38 369.258C1172.34 369.258 1173.08 368.798 1173.61 367.877C1174.13 366.957 1174.4 365.644 1174.4 363.94C1174.4 362.806 1174.28 361.841 1174.03 361.044C1173.8 360.247 1173.45 359.64 1173 359.222C1172.55 358.805 1172.01 358.596 1171.38 358.596C1170.44 358.596 1169.7 359.063 1169.16 359.996C1168.63 360.925 1168.36 362.239 1168.36 363.94C1168.36 365.073 1168.48 366.036 1168.72 366.829C1168.96 367.622 1169.3 368.225 1169.75 368.638C1170.2 369.051 1170.75 369.258 1171.38 369.258Z" fill="white"/>
<path d="M89.1943 343.86V333.078" stroke="white" stroke-linecap="round"/>
<path d="M267.458 343.86V333.078" stroke="white" stroke-linecap="round"/>
<path d="M443.847 343.86V333.078" stroke="white" stroke-linecap="round"/>
<path d="M620.235 343.86V333.078" stroke="white" stroke-linecap="round"/>
<path d="M796.624 343.86V333.078" stroke="white" stroke-linecap="round"/>
<path d="M973.012 343.86V333.078" stroke="white" stroke-linecap="round"/>
<path d="M1153.15 343.86V333.078" stroke="white" stroke-linecap="round"/>
</svg>
