<svg width="505" height="504" viewBox="0 0 505 504" fill="none" xmlns="http://www.w3.org/2000/svg">
<rect x="1" y="1" width="503" height="502" rx="37" fill="#131627" stroke="black" stroke-width="2"/>
<path d="M73.179 38.0994C73.0606 37.7159 72.8973 37.3726 72.6889 37.0696C72.4853 36.7618 72.2391 36.4991 71.9503 36.2812C71.6662 36.0634 71.3395 35.9001 70.9702 35.7912C70.6009 35.6776 70.1984 35.6207 69.7628 35.6207C68.9815 35.6207 68.2855 35.8172 67.6747 36.2102C67.0639 36.6032 66.5833 37.1809 66.233 37.9432C65.8873 38.7008 65.7145 39.6241 65.7145 40.7131C65.7145 41.8116 65.8873 42.742 66.233 43.5043C66.5786 44.2666 67.0592 44.8466 67.6747 45.2443C68.2902 45.6373 69.0052 45.8338 69.8196 45.8338C70.5582 45.8338 71.1974 45.6918 71.7372 45.4077C72.2817 45.1236 72.7008 44.7211 72.9943 44.2003C73.2879 43.6747 73.4347 43.0592 73.4347 42.3537L74.0312 42.446H70.0824V40.3864H75.9844V42.1335C75.9844 43.3788 75.7192 44.456 75.1889 45.3651C74.6586 46.2741 73.9295 46.9749 73.0014 47.4673C72.0734 47.955 71.008 48.1989 69.8054 48.1989C68.4654 48.1989 67.2888 47.8982 66.2756 47.2969C65.267 46.6908 64.4787 45.8314 63.9105 44.7188C63.3471 43.6013 63.0653 42.2756 63.0653 40.7415C63.0653 39.5672 63.2311 38.5185 63.5625 37.5952C63.8987 36.6719 64.3674 35.8883 64.9688 35.2443C65.5701 34.5956 66.2756 34.1032 67.0852 33.767C67.8949 33.4261 68.7756 33.2557 69.7273 33.2557C70.5322 33.2557 71.2827 33.3741 71.9787 33.6108C72.6747 33.8428 73.2926 34.1742 73.8324 34.6051C74.3769 35.036 74.8243 35.5473 75.1747 36.1392C75.5251 36.7311 75.7547 37.3845 75.8636 38.0994H73.179ZM78.4187 48V37.0909H80.9116V38.9091H81.0252C81.2241 38.2794 81.565 37.794 82.0479 37.4531C82.5356 37.1075 83.092 36.9347 83.717 36.9347C83.859 36.9347 84.0176 36.9418 84.1928 36.956C84.3728 36.9654 84.5219 36.982 84.6403 37.0057V39.3707C84.5314 39.3329 84.3585 39.2997 84.1218 39.2713C83.8898 39.2382 83.6649 39.2216 83.4471 39.2216C82.9783 39.2216 82.5569 39.3234 82.1829 39.527C81.8136 39.7259 81.5224 40.0028 81.3093 40.358C81.0962 40.7131 80.9897 41.1226 80.9897 41.5866V48H78.4187ZM89.2923 48.2202C88.601 48.2202 87.9783 48.0971 87.4244 47.8509C86.8751 47.5999 86.4395 47.2306 86.1175 46.7429C85.8003 46.2552 85.6417 45.6539 85.6417 44.9389C85.6417 44.3234 85.7553 43.8144 85.9826 43.4119C86.2099 43.0095 86.52 42.6875 86.913 42.446C87.306 42.2045 87.7487 42.0223 88.2411 41.8991C88.7383 41.7713 89.252 41.679 89.7823 41.6222C90.4215 41.5559 90.94 41.4967 91.3377 41.4446C91.7354 41.3878 92.0243 41.3026 92.2042 41.1889C92.3888 41.0705 92.4812 40.8883 92.4812 40.642V40.5994C92.4812 40.0644 92.3226 39.6501 92.0053 39.3565C91.6881 39.063 91.2312 38.9162 90.6346 38.9162C90.0049 38.9162 89.5053 39.0535 89.136 39.3281C88.7714 39.6027 88.5252 39.9271 88.3974 40.3011L85.9968 39.9602C86.1862 39.2973 86.4987 38.7434 86.9343 38.2983C87.3699 37.8485 87.9026 37.5123 88.5323 37.2898C89.1621 37.0625 89.8581 36.9489 90.6204 36.9489C91.146 36.9489 91.6692 37.0104 92.19 37.1335C92.7108 37.2566 93.1867 37.4602 93.6175 37.7443C94.0484 38.0237 94.3941 38.4048 94.6545 38.8878C94.9196 39.3707 95.0522 39.9744 95.0522 40.6989V48H92.5806V46.5014H92.4954C92.3391 46.8045 92.119 47.0885 91.8349 47.3537C91.5555 47.6141 91.2028 47.8248 90.7766 47.9858C90.3552 48.142 89.8604 48.2202 89.2923 48.2202ZM89.9599 46.331C90.476 46.331 90.9234 46.2292 91.3022 46.0256C91.681 45.8172 91.9722 45.5426 92.1758 45.2017C92.3841 44.8608 92.4883 44.4891 92.4883 44.0866V42.8011C92.4078 42.8674 92.2705 42.929 92.0763 42.9858C91.887 43.0426 91.6739 43.0923 91.4371 43.1349C91.2004 43.1776 90.966 43.2154 90.734 43.2486C90.502 43.2817 90.3008 43.3101 90.1303 43.3338C89.7468 43.3859 89.4035 43.4711 89.1005 43.5895C88.7975 43.7079 88.5584 43.8736 88.3832 44.0866C88.208 44.295 88.1204 44.5649 88.1204 44.8963C88.1204 45.3698 88.2932 45.7273 88.6388 45.9688C88.9845 46.2102 89.4248 46.331 89.9599 46.331ZM89.7468 35.6562L91.3377 32.4105H93.8519L91.6715 35.6562H89.7468ZM103.163 37.0909V39.0795H96.7141V37.0909H103.163ZM98.3263 48V36.0611C98.3263 35.3272 98.4779 34.7164 98.7809 34.2287C99.0887 33.741 99.5006 33.3764 100.017 33.1349C100.533 32.8935 101.106 32.7727 101.735 32.7727C102.181 32.7727 102.576 32.8082 102.922 32.8793C103.267 32.9503 103.523 33.0142 103.689 33.071L103.177 35.0597C103.068 35.0265 102.931 34.9934 102.765 34.9602C102.6 34.9223 102.415 34.9034 102.211 34.9034C101.733 34.9034 101.395 35.0194 101.196 35.2514C101.002 35.4787 100.904 35.8054 100.904 36.2315V48H98.3263ZM105.176 48V37.0909H107.748V48H105.176ZM106.469 35.5426C106.062 35.5426 105.712 35.4077 105.418 35.1378C105.124 34.8632 104.978 34.5341 104.978 34.1506C104.978 33.7623 105.124 33.4332 105.418 33.1634C105.712 32.8887 106.062 32.7514 106.469 32.7514C106.881 32.7514 107.231 32.8887 107.52 33.1634C107.814 33.4332 107.961 33.7623 107.961 34.1506C107.961 34.5341 107.814 34.8632 107.52 35.1378C107.231 35.4077 106.881 35.5426 106.469 35.5426ZM115.15 48.2131C114.061 48.2131 113.126 47.974 112.344 47.4957C111.568 47.0175 110.969 46.357 110.548 45.5142C110.131 44.6667 109.923 43.6913 109.923 42.5881C109.923 41.4801 110.136 40.5024 110.562 39.6548C110.988 38.8026 111.589 38.1397 112.366 37.6662C113.147 37.188 114.07 36.9489 115.136 36.9489C116.021 36.9489 116.805 37.1122 117.487 37.4389C118.173 37.7609 118.72 38.2178 119.127 38.8097C119.534 39.3968 119.766 40.0833 119.823 40.8693H117.366C117.266 40.3437 117.03 39.9058 116.656 39.5554C116.286 39.2003 115.791 39.0227 115.171 39.0227C114.646 39.0227 114.184 39.1648 113.786 39.4489C113.388 39.7282 113.078 40.1307 112.856 40.6562C112.638 41.1818 112.529 41.8116 112.529 42.5455C112.529 43.2888 112.638 43.928 112.856 44.4631C113.074 44.9934 113.379 45.4029 113.772 45.6918C114.17 45.9759 114.636 46.1179 115.171 46.1179C115.55 46.1179 115.888 46.0469 116.187 45.9048C116.49 45.758 116.743 45.5473 116.947 45.2727C117.15 44.9981 117.29 44.6643 117.366 44.2713H119.823C119.762 45.0431 119.534 45.7273 119.141 46.3239C118.748 46.9157 118.213 47.3797 117.536 47.7159C116.859 48.0473 116.064 48.2131 115.15 48.2131ZM126.693 48.2131C125.627 48.2131 124.704 47.9787 123.923 47.5099C123.142 47.0412 122.536 46.3854 122.105 45.5426C121.679 44.6998 121.466 43.715 121.466 42.5881C121.466 41.4612 121.679 40.474 122.105 39.6264C122.536 38.7789 123.142 38.1207 123.923 37.652C124.704 37.1832 125.627 36.9489 126.693 36.9489C127.758 36.9489 128.681 37.1832 129.463 37.652C130.244 38.1207 130.848 38.7789 131.274 39.6264C131.705 40.474 131.92 41.4612 131.92 42.5881C131.92 43.715 131.705 44.6998 131.274 45.5426C130.848 46.3854 130.244 47.0412 129.463 47.5099C128.681 47.9787 127.758 48.2131 126.693 48.2131ZM126.707 46.1534C127.285 46.1534 127.768 45.9948 128.156 45.6776C128.544 45.3556 128.833 44.9247 129.022 44.3849C129.217 43.8452 129.314 43.2438 129.314 42.581C129.314 41.9134 129.217 41.3097 129.022 40.7699C128.833 40.2254 128.544 39.7921 128.156 39.4702C127.768 39.1482 127.285 38.9872 126.707 38.9872C126.115 38.9872 125.623 39.1482 125.23 39.4702C124.842 39.7921 124.55 40.2254 124.356 40.7699C124.167 41.3097 124.072 41.9134 124.072 42.581C124.072 43.2438 124.167 43.8452 124.356 44.3849C124.55 44.9247 124.842 45.3556 125.23 45.6776C125.623 45.9948 126.115 46.1534 126.707 46.1534ZM143.112 48.1918C142.254 48.1918 141.487 47.9716 140.81 47.5312C140.133 47.0909 139.598 46.4517 139.205 45.6136C138.812 44.7756 138.616 43.7576 138.616 42.5597C138.616 41.3475 138.815 40.3248 139.212 39.4915C139.615 38.6534 140.157 38.0213 140.839 37.5952C141.521 37.1643 142.281 36.9489 143.119 36.9489C143.758 36.9489 144.283 37.0578 144.695 37.2756C145.107 37.4886 145.434 37.7467 145.675 38.0497C145.917 38.348 146.104 38.6297 146.237 38.8949H146.343V33.4545H148.921V48H146.393V46.2812H146.237C146.104 46.5464 145.912 46.8281 145.661 47.1264C145.41 47.42 145.079 47.6709 144.667 47.8793C144.255 48.0876 143.737 48.1918 143.112 48.1918ZM143.829 46.0824C144.373 46.0824 144.837 45.9356 145.221 45.642C145.604 45.3437 145.896 44.9295 146.094 44.3991C146.293 43.8688 146.393 43.2509 146.393 42.5455C146.393 41.84 146.293 41.2268 146.094 40.706C145.9 40.1851 145.612 39.7803 145.228 39.4915C144.849 39.2027 144.383 39.0582 143.829 39.0582C143.256 39.0582 142.778 39.2074 142.394 39.5057C142.011 39.804 141.722 40.2159 141.528 40.7415C141.334 41.267 141.237 41.8684 141.237 42.5455C141.237 43.2273 141.334 43.8357 141.528 44.3707C141.727 44.901 142.018 45.3201 142.401 45.6278C142.79 45.9309 143.265 46.0824 143.829 46.0824ZM156.49 48.2131C155.397 48.2131 154.452 47.9858 153.657 47.5312C152.866 47.072 152.257 46.4233 151.831 45.5852C151.405 44.7424 151.192 43.7505 151.192 42.6094C151.192 41.4872 151.405 40.5024 151.831 39.6548C152.262 38.8026 152.864 38.1397 153.635 37.6662C154.407 37.188 155.314 36.9489 156.355 36.9489C157.028 36.9489 157.662 37.0578 158.259 37.2756C158.86 37.4886 159.391 37.8201 159.85 38.2699C160.314 38.7197 160.678 39.2926 160.944 39.9886C161.209 40.6799 161.341 41.5038 161.341 42.4602V43.2486H152.4V41.5156H158.877C158.872 41.0232 158.766 40.5852 158.557 40.2017C158.349 39.8134 158.058 39.508 157.684 39.2855C157.314 39.063 156.883 38.9517 156.391 38.9517C155.865 38.9517 155.404 39.0795 155.006 39.3352C154.608 39.5862 154.298 39.9176 154.076 40.3295C153.858 40.7367 153.747 41.1842 153.742 41.6719V43.1847C153.742 43.8191 153.858 44.3636 154.09 44.8182C154.322 45.268 154.646 45.6136 155.063 45.8551C155.48 46.0919 155.967 46.2102 156.526 46.2102C156.9 46.2102 157.239 46.1581 157.542 46.054C157.845 45.9451 158.107 45.7865 158.33 45.5781C158.552 45.3698 158.721 45.1117 158.834 44.804L161.235 45.0739C161.083 45.7083 160.794 46.2623 160.368 46.7358C159.947 47.2045 159.407 47.5691 158.749 47.8295C158.091 48.0852 157.338 48.2131 156.49 48.2131ZM167.952 35.6634V33.4545H179.557V35.6634H175.061V48H172.447V35.6634H167.952ZM184.928 48.2131C183.834 48.2131 182.89 47.9858 182.094 47.5312C181.303 47.072 180.695 46.4233 180.269 45.5852C179.843 44.7424 179.63 43.7505 179.63 42.6094C179.63 41.4872 179.843 40.5024 180.269 39.6548C180.7 38.8026 181.301 38.1397 182.073 37.6662C182.845 37.188 183.751 36.9489 184.793 36.9489C185.465 36.9489 186.1 37.0578 186.696 37.2756C187.298 37.4886 187.828 37.8201 188.287 38.2699C188.751 38.7197 189.116 39.2926 189.381 39.9886C189.646 40.6799 189.779 41.5038 189.779 42.4602V43.2486H180.837V41.5156H187.314C187.31 41.0232 187.203 40.5852 186.995 40.2017C186.786 39.8134 186.495 39.508 186.121 39.2855C185.752 39.063 185.321 38.9517 184.828 38.9517C184.303 38.9517 183.841 39.0795 183.444 39.3352C183.046 39.5862 182.736 39.9176 182.513 40.3295C182.295 40.7367 182.184 41.1842 182.179 41.6719V43.1847C182.179 43.8191 182.295 44.3636 182.527 44.8182C182.759 45.268 183.084 45.6136 183.5 45.8551C183.917 46.0919 184.405 46.2102 184.963 46.2102C185.337 46.2102 185.676 46.1581 185.979 46.054C186.282 45.9451 186.545 45.7865 186.767 45.5781C186.99 45.3698 187.158 45.1117 187.272 44.804L189.672 45.0739C189.521 45.7083 189.232 46.2623 188.806 46.7358C188.384 47.2045 187.845 47.5691 187.186 47.8295C186.528 48.0852 185.775 48.2131 184.928 48.2131ZM191.954 48V37.0909H194.411V38.9446H194.539C194.766 38.3196 195.143 37.8319 195.668 37.4815C196.194 37.1264 196.821 36.9489 197.55 36.9489C198.289 36.9489 198.912 37.1288 199.418 37.4886C199.93 37.8437 200.29 38.3291 200.498 38.9446H200.612C200.853 38.3385 201.26 37.8556 201.833 37.4957C202.411 37.1312 203.095 36.9489 203.886 36.9489C204.889 36.9489 205.709 37.2661 206.343 37.9006C206.978 38.535 207.295 39.4607 207.295 40.6776V48H204.717V41.0753C204.717 40.3982 204.537 39.9034 204.177 39.5909C203.817 39.2737 203.377 39.1151 202.856 39.1151C202.236 39.1151 201.75 39.3092 201.4 39.6974C201.054 40.081 200.881 40.5805 200.881 41.196V48H198.36V40.9688C198.36 40.4053 198.19 39.9555 197.849 39.6193C197.513 39.2831 197.072 39.1151 196.528 39.1151C196.158 39.1151 195.822 39.2098 195.519 39.3991C195.216 39.5838 194.975 39.8466 194.795 40.1875C194.615 40.5237 194.525 40.9167 194.525 41.3665V48H191.954ZM209.903 52.0909V37.0909H212.431V38.8949H212.581C212.713 38.6297 212.9 38.348 213.142 38.0497C213.383 37.7467 213.71 37.4886 214.122 37.2756C214.534 37.0578 215.059 36.9489 215.699 36.9489C216.541 36.9489 217.301 37.1643 217.978 37.5952C218.66 38.0213 219.2 38.6534 219.598 39.4915C220 40.3248 220.201 41.3475 220.201 42.5597C220.201 43.7576 220.005 44.7756 219.612 45.6136C219.219 46.4517 218.684 47.0909 218.007 47.5312C217.33 47.9716 216.563 48.1918 215.706 48.1918C215.081 48.1918 214.562 48.0876 214.15 47.8793C213.738 47.6709 213.407 47.42 213.156 47.1264C212.91 46.8281 212.718 46.5464 212.581 46.2812H212.474V52.0909H209.903ZM212.424 42.5455C212.424 43.2509 212.524 43.8688 212.723 44.3991C212.926 44.9295 213.217 45.3437 213.596 45.642C213.98 45.9356 214.444 46.0824 214.988 46.0824C215.556 46.0824 216.032 45.9309 216.416 45.6278C216.799 45.3201 217.088 44.901 217.282 44.3707C217.481 43.8357 217.581 43.2273 217.581 42.5455C217.581 41.8684 217.484 41.267 217.289 40.7415C217.095 40.2159 216.806 39.804 216.423 39.5057C216.039 39.2074 215.561 39.0582 214.988 39.0582C214.439 39.0582 213.973 39.2027 213.589 39.4915C213.206 39.7803 212.914 40.1851 212.716 40.706C212.521 41.2268 212.424 41.84 212.424 42.5455ZM227.233 48.2131C226.139 48.2131 225.194 47.9858 224.399 47.5312C223.608 47.072 223 46.4233 222.574 45.5852C222.147 44.7424 221.934 43.7505 221.934 42.6094C221.934 41.4872 222.147 40.5024 222.574 39.6548C223.004 38.8026 223.606 38.1397 224.377 37.6662C225.149 37.188 226.056 36.9489 227.098 36.9489C227.77 36.9489 228.404 37.0578 229.001 37.2756C229.602 37.4886 230.133 37.8201 230.592 38.2699C231.056 38.7197 231.421 39.2926 231.686 39.9886C231.951 40.6799 232.083 41.5038 232.083 42.4602V43.2486H223.142V41.5156H229.619C229.614 41.0232 229.508 40.5852 229.299 40.2017C229.091 39.8134 228.8 39.508 228.426 39.2855C228.056 39.063 227.626 38.9517 227.133 38.9517C226.608 38.9517 226.146 39.0795 225.748 39.3352C225.35 39.5862 225.04 39.9176 224.818 40.3295C224.6 40.7367 224.489 41.1842 224.484 41.6719V43.1847C224.484 43.8191 224.6 44.3636 224.832 44.8182C225.064 45.268 225.388 45.6136 225.805 45.8551C226.222 46.0919 226.709 46.2102 227.268 46.2102C227.642 46.2102 227.981 46.1581 228.284 46.054C228.587 45.9451 228.85 45.7865 229.072 45.5781C229.295 45.3698 229.463 45.1117 229.576 44.804L231.977 45.0739C231.825 45.7083 231.537 46.2623 231.11 46.7358C230.689 47.2045 230.149 47.5691 229.491 47.8295C228.833 48.0852 228.08 48.2131 227.233 48.2131ZM234.259 48V37.0909H236.751V38.9091H236.865C237.064 38.2794 237.405 37.794 237.888 37.4531C238.375 37.1075 238.932 36.9347 239.557 36.9347C239.699 36.9347 239.857 36.9418 240.033 36.956C240.213 36.9654 240.362 36.982 240.48 37.0057V39.3707C240.371 39.3329 240.198 39.2997 239.962 39.2713C239.73 39.2382 239.505 39.2216 239.287 39.2216C238.818 39.2216 238.397 39.3234 238.023 39.527C237.653 39.7259 237.362 40.0028 237.149 40.358C236.936 40.7131 236.83 41.1226 236.83 41.5866V48H234.259ZM245.132 48.2202C244.441 48.2202 243.818 48.0971 243.264 47.8509C242.715 47.5999 242.279 47.2306 241.957 46.7429C241.64 46.2552 241.482 45.6539 241.482 44.9389C241.482 44.3234 241.595 43.8144 241.822 43.4119C242.05 43.0095 242.36 42.6875 242.753 42.446C243.146 42.2045 243.589 42.0223 244.081 41.8991C244.578 41.7713 245.092 41.679 245.622 41.6222C246.261 41.5559 246.78 41.4967 247.178 41.4446C247.575 41.3878 247.864 41.3026 248.044 41.1889C248.229 41.0705 248.321 40.8883 248.321 40.642V40.5994C248.321 40.0644 248.162 39.6501 247.845 39.3565C247.528 39.063 247.071 38.9162 246.474 38.9162C245.845 38.9162 245.345 39.0535 244.976 39.3281C244.611 39.6027 244.365 39.9271 244.237 40.3011L241.837 39.9602C242.026 39.2973 242.339 38.7434 242.774 38.2983C243.21 37.8485 243.742 37.5123 244.372 37.2898C245.002 37.0625 245.698 36.9489 246.46 36.9489C246.986 36.9489 247.509 37.0104 248.03 37.1335C248.551 37.2566 249.027 37.4602 249.457 37.7443C249.888 38.0237 250.234 38.4048 250.494 38.8878C250.759 39.3707 250.892 39.9744 250.892 40.6989V48H248.42V46.5014H248.335C248.179 46.8045 247.959 47.0885 247.675 47.3537C247.395 47.6141 247.043 47.8248 246.616 47.9858C246.195 48.142 245.7 48.2202 245.132 48.2202ZM245.8 46.331C246.316 46.331 246.763 46.2292 247.142 46.0256C247.521 45.8172 247.812 45.5426 248.016 45.2017C248.224 44.8608 248.328 44.4891 248.328 44.0866V42.8011C248.248 42.8674 248.11 42.929 247.916 42.9858C247.727 43.0426 247.514 43.0923 247.277 43.1349C247.04 43.1776 246.806 43.2154 246.574 43.2486C246.342 43.2817 246.141 43.3101 245.97 43.3338C245.587 43.3859 245.243 43.4711 244.94 43.5895C244.637 43.7079 244.398 43.8736 244.223 44.0866C244.048 44.295 243.96 44.5649 243.96 44.8963C243.96 45.3698 244.133 45.7273 244.479 45.9688C244.824 46.2102 245.265 46.331 245.8 46.331ZM258.925 37.0909V39.0795H252.653V37.0909H258.925ZM254.202 34.4773H256.773V44.7188C256.773 45.0644 256.825 45.3295 256.929 45.5142C257.038 45.6941 257.18 45.8172 257.355 45.8835C257.53 45.9498 257.724 45.983 257.938 45.983C258.098 45.983 258.245 45.9711 258.378 45.9474C258.515 45.9238 258.619 45.9025 258.69 45.8835L259.124 47.8935C258.986 47.9408 258.79 47.9929 258.534 48.0497C258.283 48.1065 257.975 48.1397 257.611 48.1491C256.967 48.1681 256.387 48.071 255.871 47.858C255.355 47.6402 254.945 47.304 254.642 46.8494C254.344 46.3949 254.197 45.8267 254.202 45.1449V34.4773ZM268.028 43.4119V37.0909H270.599V48H268.106V46.0611H267.993C267.746 46.6719 267.342 47.1714 266.778 47.5597C266.219 47.9479 265.53 48.142 264.711 48.142C263.996 48.142 263.364 47.9834 262.815 47.6662C262.27 47.3442 261.844 46.8778 261.537 46.267C261.229 45.6515 261.075 44.9081 261.075 44.0369V37.0909H263.646V43.6392C263.646 44.3305 263.835 44.8797 264.214 45.2869C264.593 45.6941 265.09 45.8977 265.706 45.8977C266.084 45.8977 266.451 45.8054 266.806 45.6207C267.162 45.4361 267.453 45.1615 267.68 44.7969C267.912 44.4276 268.028 43.9659 268.028 43.4119ZM273.243 48V37.0909H275.736V38.9091H275.849C276.048 38.2794 276.389 37.794 276.872 37.4531C277.36 37.1075 277.916 36.9347 278.541 36.9347C278.683 36.9347 278.842 36.9418 279.017 36.956C279.197 36.9654 279.346 36.982 279.464 37.0057V39.3707C279.356 39.3329 279.183 39.2997 278.946 39.2713C278.714 39.2382 278.489 39.2216 278.271 39.2216C277.803 39.2216 277.381 39.3234 277.007 39.527C276.638 39.7259 276.347 40.0028 276.134 40.358C275.92 40.7131 275.814 41.1226 275.814 41.5866V48H273.243ZM284.116 48.2202C283.425 48.2202 282.803 48.0971 282.249 47.8509C281.699 47.5999 281.264 47.2306 280.942 46.7429C280.625 46.2552 280.466 45.6539 280.466 44.9389C280.466 44.3234 280.58 43.8144 280.807 43.4119C281.034 43.0095 281.344 42.6875 281.737 42.446C282.13 42.2045 282.573 42.0223 283.065 41.8991C283.563 41.7713 284.076 41.679 284.607 41.6222C285.246 41.5559 285.764 41.4967 286.162 41.4446C286.56 41.3878 286.848 41.3026 287.028 41.1889C287.213 41.0705 287.305 40.8883 287.305 40.642V40.5994C287.305 40.0644 287.147 39.6501 286.83 39.3565C286.512 39.063 286.055 38.9162 285.459 38.9162C284.829 38.9162 284.33 39.0535 283.96 39.3281C283.596 39.6027 283.349 39.9271 283.222 40.3011L280.821 39.9602C281.01 39.2973 281.323 38.7434 281.759 38.2983C282.194 37.8485 282.727 37.5123 283.357 37.2898C283.986 37.0625 284.682 36.9489 285.445 36.9489C285.97 36.9489 286.493 37.0104 287.014 37.1335C287.535 37.2566 288.011 37.4602 288.442 37.7443C288.873 38.0237 289.218 38.4048 289.479 38.8878C289.744 39.3707 289.876 39.9744 289.876 40.6989V48H287.405V46.5014H287.32C287.163 46.8045 286.943 47.0885 286.659 47.3537C286.38 47.6141 286.027 47.8248 285.601 47.9858C285.179 48.142 284.685 48.2202 284.116 48.2202ZM284.784 46.331C285.3 46.331 285.748 46.2292 286.126 46.0256C286.505 45.8172 286.796 45.5426 287 45.2017C287.208 44.8608 287.312 44.4891 287.312 44.0866V42.8011C287.232 42.8674 287.095 42.929 286.901 42.9858C286.711 43.0426 286.498 43.0923 286.261 43.1349C286.025 43.1776 285.79 43.2154 285.558 43.2486C285.326 43.2817 285.125 43.3101 284.955 43.3338C284.571 43.3859 284.228 43.4711 283.925 43.5895C283.622 43.7079 283.383 43.8736 283.207 44.0866C283.032 44.295 282.945 44.5649 282.945 44.8963C282.945 45.3698 283.117 45.7273 283.463 45.9688C283.809 46.2102 284.249 46.331 284.784 46.331ZM301.471 48.1918C300.614 48.1918 299.847 47.9716 299.17 47.5312C298.493 47.0909 297.958 46.4517 297.565 45.6136C297.172 44.7756 296.975 43.7576 296.975 42.5597C296.975 41.3475 297.174 40.3248 297.572 39.4915C297.974 38.6534 298.516 38.0213 299.198 37.5952C299.88 37.1643 300.64 36.9489 301.478 36.9489C302.117 36.9489 302.643 37.0578 303.055 37.2756C303.467 37.4886 303.793 37.7467 304.035 38.0497C304.276 38.348 304.463 38.6297 304.596 38.8949H304.702V33.4545H307.281V48H304.752V46.2812H304.596C304.463 46.5464 304.272 46.8281 304.021 47.1264C303.77 47.42 303.438 47.6709 303.026 47.8793C302.614 48.0876 302.096 48.1918 301.471 48.1918ZM302.188 46.0824C302.733 46.0824 303.197 45.9356 303.58 45.642C303.964 45.3437 304.255 44.9295 304.454 44.3991C304.653 43.8688 304.752 43.2509 304.752 42.5455C304.752 41.84 304.653 41.2268 304.454 40.706C304.26 40.1851 303.971 39.7803 303.587 39.4915C303.209 39.2027 302.742 39.0582 302.188 39.0582C301.615 39.0582 301.137 39.2074 300.754 39.5057C300.37 39.804 300.081 40.2159 299.887 40.7415C299.693 41.267 299.596 41.8684 299.596 42.5455C299.596 43.2273 299.693 43.8357 299.887 44.3707C300.086 44.901 300.377 45.3201 300.761 45.6278C301.149 45.9309 301.625 46.0824 302.188 46.0824ZM314.85 48.2131C313.756 48.2131 312.811 47.9858 312.016 47.5312C311.225 47.072 310.617 46.4233 310.191 45.5852C309.765 44.7424 309.551 43.7505 309.551 42.6094C309.551 41.4872 309.765 40.5024 310.191 39.6548C310.622 38.8026 311.223 38.1397 311.995 37.6662C312.766 37.188 313.673 36.9489 314.715 36.9489C315.387 36.9489 316.022 37.0578 316.618 37.2756C317.22 37.4886 317.75 37.8201 318.209 38.2699C318.673 38.7197 319.038 39.2926 319.303 39.9886C319.568 40.6799 319.701 41.5038 319.701 42.4602V43.2486H310.759V41.5156H317.236C317.231 41.0232 317.125 40.5852 316.917 40.2017C316.708 39.8134 316.417 39.508 316.043 39.2855C315.674 39.063 315.243 38.9517 314.75 38.9517C314.225 38.9517 313.763 39.0795 313.365 39.3352C312.968 39.5862 312.658 39.9176 312.435 40.3295C312.217 40.7367 312.106 41.1842 312.101 41.6719V43.1847C312.101 43.8191 312.217 44.3636 312.449 44.8182C312.681 45.268 313.006 45.6136 313.422 45.8551C313.839 46.0919 314.327 46.2102 314.885 46.2102C315.259 46.2102 315.598 46.1581 315.901 46.054C316.204 45.9451 316.467 45.7865 316.689 45.5781C316.912 45.3698 317.08 45.1117 317.194 44.804L319.594 45.0739C319.443 45.7083 319.154 46.2623 318.728 46.7358C318.306 47.2045 317.766 47.5691 317.108 47.8295C316.45 48.0852 315.697 48.2131 314.85 48.2131ZM339.401 38.3622H336.744C336.669 37.9266 336.529 37.5407 336.325 37.2045C336.122 36.8636 335.868 36.5748 335.565 36.3381C335.262 36.1013 334.917 35.9238 334.528 35.8054C334.145 35.6823 333.731 35.6207 333.286 35.6207C332.495 35.6207 331.794 35.8196 331.183 36.2173C330.572 36.6103 330.094 37.188 329.749 37.9503C329.403 38.7079 329.23 39.6335 329.23 40.7273C329.23 41.84 329.403 42.7775 329.749 43.5398C330.099 44.2973 330.577 44.8703 331.183 45.2585C331.794 45.642 332.492 45.8338 333.278 45.8338C333.714 45.8338 334.121 45.777 334.5 45.6634C334.884 45.545 335.227 45.3722 335.53 45.1449C335.838 44.9176 336.096 44.6383 336.304 44.3068C336.517 43.9754 336.664 43.5966 336.744 43.1705L339.401 43.1847C339.301 43.8759 339.086 44.5246 338.754 45.1307C338.428 45.7367 337.999 46.2718 337.469 46.7358C336.938 47.1951 336.318 47.5549 335.608 47.8153C334.898 48.071 334.109 48.1989 333.243 48.1989C331.964 48.1989 330.823 47.9029 329.82 47.3111C328.816 46.7192 328.025 45.8646 327.447 44.7472C326.87 43.6297 326.581 42.2898 326.581 40.7273C326.581 39.16 326.872 37.8201 327.455 36.7074C328.037 35.59 328.83 34.7353 329.834 34.1435C330.838 33.5516 331.974 33.2557 333.243 33.2557C334.053 33.2557 334.805 33.3693 335.501 33.5966C336.197 33.8239 336.818 34.1577 337.362 34.598C337.907 35.0336 338.354 35.5687 338.705 36.2031C339.06 36.8329 339.292 37.5526 339.401 38.3622ZM346.458 48.2131C345.393 48.2131 344.47 47.9787 343.689 47.5099C342.907 47.0412 342.301 46.3854 341.87 45.5426C341.444 44.6998 341.231 43.715 341.231 42.5881C341.231 41.4612 341.444 40.474 341.87 39.6264C342.301 38.7789 342.907 38.1207 343.689 37.652C344.47 37.1832 345.393 36.9489 346.458 36.9489C347.524 36.9489 348.447 37.1832 349.228 37.652C350.01 38.1207 350.613 38.7789 351.039 39.6264C351.47 40.474 351.686 41.4612 351.686 42.5881C351.686 43.715 351.47 44.6998 351.039 45.5426C350.613 46.3854 350.01 47.0412 349.228 47.5099C348.447 47.9787 347.524 48.2131 346.458 48.2131ZM346.473 46.1534C347.05 46.1534 347.533 45.9948 347.922 45.6776C348.31 45.3556 348.599 44.9247 348.788 44.3849C348.982 43.8452 349.079 43.2438 349.079 42.581C349.079 41.9134 348.982 41.3097 348.788 40.7699C348.599 40.2254 348.31 39.7921 347.922 39.4702C347.533 39.1482 347.05 38.9872 346.473 38.9872C345.881 38.9872 345.388 39.1482 344.995 39.4702C344.607 39.7921 344.316 40.2254 344.122 40.7699C343.932 41.3097 343.838 41.9134 343.838 42.581C343.838 43.2438 343.932 43.8452 344.122 44.3849C344.316 44.9247 344.607 45.3556 344.995 45.6776C345.388 45.9948 345.881 46.1534 346.473 46.1534ZM356.439 41.608V48H353.868V37.0909H356.325V38.9446H356.453C356.704 38.3338 357.104 37.8485 357.653 37.4886C358.207 37.1288 358.892 36.9489 359.706 36.9489C360.459 36.9489 361.115 37.1098 361.673 37.4318C362.237 37.7538 362.672 38.2202 362.98 38.831C363.293 39.4418 363.446 40.1828 363.442 41.054V48H360.871V41.4517C360.871 40.7225 360.681 40.152 360.303 39.7401C359.929 39.3281 359.41 39.1222 358.747 39.1222C358.297 39.1222 357.897 39.2216 357.547 39.4205C357.201 39.6146 356.929 39.8963 356.73 40.2656C356.536 40.6349 356.439 41.0824 356.439 41.608ZM370.104 48.1918C369.247 48.1918 368.48 47.9716 367.803 47.5312C367.125 47.0909 366.59 46.4517 366.197 45.6136C365.804 44.7756 365.608 43.7576 365.608 42.5597C365.608 41.3475 365.807 40.3248 366.205 39.4915C366.607 38.6534 367.149 38.0213 367.831 37.5952C368.513 37.1643 369.273 36.9489 370.111 36.9489C370.75 36.9489 371.276 37.0578 371.688 37.2756C372.099 37.4886 372.426 37.7467 372.668 38.0497C372.909 38.348 373.096 38.6297 373.229 38.8949H373.335V33.4545H375.913V48H373.385V46.2812H373.229C373.096 46.5464 372.904 46.8281 372.653 47.1264C372.402 47.42 372.071 47.6709 371.659 47.8793C371.247 48.0876 370.729 48.1918 370.104 48.1918ZM370.821 46.0824C371.366 46.0824 371.83 45.9356 372.213 45.642C372.597 45.3437 372.888 44.9295 373.087 44.3991C373.286 43.8688 373.385 43.2509 373.385 42.5455C373.385 41.84 373.286 41.2268 373.087 40.706C372.893 40.1851 372.604 39.7803 372.22 39.4915C371.841 39.2027 371.375 39.0582 370.821 39.0582C370.248 39.0582 369.77 39.2074 369.386 39.5057C369.003 39.804 368.714 40.2159 368.52 40.7415C368.326 41.267 368.229 41.8684 368.229 42.5455C368.229 43.2273 368.326 43.8357 368.52 44.3707C368.719 44.901 369.01 45.3201 369.393 45.6278C369.782 45.9309 370.258 46.0824 370.821 46.0824ZM385.606 43.4119V37.0909H388.177V48H385.684V46.0611H385.571C385.324 46.6719 384.92 47.1714 384.356 47.5597C383.797 47.9479 383.109 48.142 382.289 48.142C381.574 48.142 380.942 47.9834 380.393 47.6662C379.849 47.3442 379.422 46.8778 379.115 46.267C378.807 45.6515 378.653 44.9081 378.653 44.0369V37.0909H381.224V43.6392C381.224 44.3305 381.413 44.8797 381.792 45.2869C382.171 45.6941 382.668 45.8977 383.284 45.8977C383.663 45.8977 384.029 45.8054 384.385 45.6207C384.74 45.4361 385.031 45.1615 385.258 44.7969C385.49 44.4276 385.606 43.9659 385.606 43.4119ZM396.268 37.0909V39.0795H389.997V37.0909H396.268ZM391.545 34.4773H394.116V44.7188C394.116 45.0644 394.169 45.3295 394.273 45.5142C394.382 45.6941 394.524 45.8172 394.699 45.8835C394.874 45.9498 395.068 45.983 395.281 45.983C395.442 45.983 395.589 45.9711 395.722 45.9474C395.859 45.9238 395.963 45.9025 396.034 45.8835L396.467 47.8935C396.33 47.9408 396.134 47.9929 395.878 48.0497C395.627 48.1065 395.319 48.1397 394.955 48.1491C394.311 48.1681 393.731 48.071 393.214 47.858C392.698 47.6402 392.289 47.304 391.986 46.8494C391.688 46.3949 391.541 45.8267 391.545 45.1449V34.4773ZM398.419 48V37.0909H400.99V48H398.419ZM399.711 35.5426C399.304 35.5426 398.954 35.4077 398.66 35.1378C398.367 34.8632 398.22 34.5341 398.22 34.1506C398.22 33.7623 398.367 33.4332 398.66 33.1634C398.954 32.8887 399.304 32.7514 399.711 32.7514C400.123 32.7514 400.474 32.8887 400.762 33.1634C401.056 33.4332 401.203 33.7623 401.203 34.1506C401.203 34.5341 401.056 34.8632 400.762 35.1378C400.474 35.4077 400.123 35.5426 399.711 35.5426ZM413.378 37.0909L409.493 48H406.652L402.767 37.0909H405.509L408.016 45.1946H408.129L410.643 37.0909H413.378ZM415.157 48V37.0909H417.728V48H415.157ZM416.45 35.5426C416.042 35.5426 415.692 35.4077 415.398 35.1378C415.105 34.8632 414.958 34.5341 414.958 34.1506C414.958 33.7623 415.105 33.4332 415.398 33.1634C415.692 32.8887 416.042 32.7514 416.45 32.7514C416.862 32.7514 417.212 32.8887 417.501 33.1634C417.794 33.4332 417.941 33.7623 417.941 34.1506C417.941 34.5341 417.794 34.8632 417.501 35.1378C417.212 35.4077 416.862 35.5426 416.45 35.5426ZM424.42 48.1918C423.563 48.1918 422.796 47.9716 422.119 47.5312C421.442 47.0909 420.907 46.4517 420.514 45.6136C420.121 44.7756 419.924 43.7576 419.924 42.5597C419.924 41.3475 420.123 40.3248 420.521 39.4915C420.923 38.6534 421.466 38.0213 422.147 37.5952C422.829 37.1643 423.589 36.9489 424.427 36.9489C425.066 36.9489 425.592 37.0578 426.004 37.2756C426.416 37.4886 426.743 37.7467 426.984 38.0497C427.225 38.348 427.413 38.6297 427.545 38.8949H427.652V33.4545H430.23V48H427.701V46.2812H427.545C427.413 46.5464 427.221 46.8281 426.97 47.1264C426.719 47.42 426.387 47.6709 425.975 47.8793C425.564 48.0876 425.045 48.1918 424.42 48.1918ZM425.137 46.0824C425.682 46.0824 426.146 45.9356 426.529 45.642C426.913 45.3437 427.204 44.9295 427.403 44.3991C427.602 43.8688 427.701 43.2509 427.701 42.5455C427.701 41.84 427.602 41.2268 427.403 40.706C427.209 40.1851 426.92 39.7803 426.537 39.4915C426.158 39.2027 425.691 39.0582 425.137 39.0582C424.565 39.0582 424.086 39.2074 423.703 39.5057C423.319 39.804 423.03 40.2159 422.836 40.7415C422.642 41.267 422.545 41.8684 422.545 42.5455C422.545 43.2273 422.642 43.8357 422.836 44.3707C423.035 44.901 423.326 45.3201 423.71 45.6278C424.098 45.9309 424.574 46.0824 425.137 46.0824ZM436.109 48.2202C435.417 48.2202 434.795 48.0971 434.241 47.8509C433.692 47.5999 433.256 47.2306 432.934 46.7429C432.617 46.2552 432.458 45.6539 432.458 44.9389C432.458 44.3234 432.572 43.8144 432.799 43.4119C433.026 43.0095 433.336 42.6875 433.729 42.446C434.122 42.2045 434.565 42.0223 435.058 41.8991C435.555 41.7713 436.068 41.679 436.599 41.6222C437.238 41.5559 437.756 41.4967 438.154 41.4446C438.552 41.3878 438.841 41.3026 439.021 41.1889C439.205 41.0705 439.298 40.8883 439.298 40.642V40.5994C439.298 40.0644 439.139 39.6501 438.822 39.3565C438.504 39.063 438.048 38.9162 437.451 38.9162C436.821 38.9162 436.322 39.0535 435.952 39.3281C435.588 39.6027 435.342 39.9271 435.214 40.3011L432.813 39.9602C433.003 39.2973 433.315 38.7434 433.751 38.2983C434.186 37.8485 434.719 37.5123 435.349 37.2898C435.978 37.0625 436.674 36.9489 437.437 36.9489C437.962 36.9489 438.486 37.0104 439.006 37.1335C439.527 37.2566 440.003 37.4602 440.434 37.7443C440.865 38.0237 441.21 38.4048 441.471 38.8878C441.736 39.3707 441.869 39.9744 441.869 40.6989V48H439.397V46.5014H439.312C439.156 46.8045 438.935 47.0885 438.651 47.3537C438.372 47.6141 438.019 47.8248 437.593 47.9858C437.172 48.142 436.677 48.2202 436.109 48.2202ZM436.776 46.331C437.292 46.331 437.74 46.2292 438.119 46.0256C438.497 45.8172 438.789 45.5426 438.992 45.2017C439.201 44.8608 439.305 44.4891 439.305 44.0866V42.8011C439.224 42.8674 439.087 42.929 438.893 42.9858C438.703 43.0426 438.49 43.0923 438.254 43.1349C438.017 43.1776 437.782 43.2154 437.55 43.2486C437.318 43.2817 437.117 43.3101 436.947 43.3338C436.563 43.3859 436.22 43.4711 435.917 43.5895C435.614 43.7079 435.375 43.8736 435.2 44.0866C435.024 44.295 434.937 44.5649 434.937 44.8963C434.937 45.3698 435.11 45.7273 435.455 45.9688C435.801 46.2102 436.241 46.331 436.776 46.331ZM448.502 48.1918C447.645 48.1918 446.878 47.9716 446.201 47.5312C445.524 47.0909 444.989 46.4517 444.596 45.6136C444.203 44.7756 444.006 43.7576 444.006 42.5597C444.006 41.3475 444.205 40.3248 444.603 39.4915C445.005 38.6534 445.548 38.0213 446.229 37.5952C446.911 37.1643 447.671 36.9489 448.509 36.9489C449.148 36.9489 449.674 37.0578 450.086 37.2756C450.498 37.4886 450.825 37.7467 451.066 38.0497C451.308 38.348 451.495 38.6297 451.627 38.8949H451.734V33.4545H454.312V48H451.783V46.2812H451.627C451.495 46.5464 451.303 46.8281 451.052 47.1264C450.801 47.42 450.469 47.6709 450.058 47.8793C449.646 48.0876 449.127 48.1918 448.502 48.1918ZM449.219 46.0824C449.764 46.0824 450.228 45.9356 450.612 45.642C450.995 45.3437 451.286 44.9295 451.485 44.3991C451.684 43.8688 451.783 43.2509 451.783 42.5455C451.783 41.84 451.684 41.2268 451.485 40.706C451.291 40.1851 451.002 39.7803 450.619 39.4915C450.24 39.2027 449.773 39.0582 449.219 39.0582C448.647 39.0582 448.168 39.2074 447.785 39.5057C447.401 39.804 447.112 40.2159 446.918 40.7415C446.724 41.267 446.627 41.8684 446.627 42.5455C446.627 43.2273 446.724 43.8357 446.918 44.3707C447.117 44.901 447.408 45.3201 447.792 45.6278C448.18 45.9309 448.656 46.0824 449.219 46.0824ZM461.881 48.2131C460.787 48.2131 459.843 47.9858 459.047 47.5312C458.257 47.072 457.648 46.4233 457.222 45.5852C456.796 44.7424 456.583 43.7505 456.583 42.6094C456.583 41.4872 456.796 40.5024 457.222 39.6548C457.653 38.8026 458.254 38.1397 459.026 37.6662C459.798 37.188 460.704 36.9489 461.746 36.9489C462.418 36.9489 463.053 37.0578 463.65 37.2756C464.251 37.4886 464.781 37.8201 465.24 38.2699C465.704 38.7197 466.069 39.2926 466.334 39.9886C466.599 40.6799 466.732 41.5038 466.732 42.4602V43.2486H457.79V41.5156H464.267C464.263 41.0232 464.156 40.5852 463.948 40.2017C463.739 39.8134 463.448 39.508 463.074 39.2855C462.705 39.063 462.274 38.9517 461.782 38.9517C461.256 38.9517 460.794 39.0795 460.397 39.3352C459.999 39.5862 459.689 39.9176 459.466 40.3295C459.248 40.7367 459.137 41.1842 459.132 41.6719V43.1847C459.132 43.8191 459.248 44.3636 459.48 44.8182C459.712 45.268 460.037 45.6136 460.453 45.8551C460.87 46.0919 461.358 46.2102 461.917 46.2102C462.291 46.2102 462.629 46.1581 462.932 46.054C463.235 45.9451 463.498 45.7865 463.721 45.5781C463.943 45.3698 464.111 45.1117 464.225 44.804L466.625 45.0739C466.474 45.7083 466.185 46.2623 465.759 46.7358C465.337 47.2045 464.798 47.5691 464.14 47.8295C463.481 48.0852 462.729 48.2131 461.881 48.2131Z" fill="white"/>
<path d="M76.8075 100.666C75.9888 100.666 75.2862 100.458 74.6995 100.044C74.1162 99.6265 73.6671 99.0249 73.3522 98.2394C73.0407 97.4506 72.8849 96.501 72.8849 95.3907C72.8882 94.2804 73.0456 93.3358 73.3572 92.5569C73.6721 91.7747 74.1212 91.1781 74.7045 90.7671C75.2911 90.3561 75.9921 90.1507 76.8075 90.1507C77.6228 90.1507 78.3238 90.3561 78.9105 90.7671C79.4971 91.1781 79.9462 91.7747 80.2578 92.5569C80.5726 93.3391 80.7301 94.2837 80.7301 95.3907C80.7301 96.5043 80.5726 97.4556 80.2578 98.2444C79.9462 99.0299 79.4971 99.6298 78.9105 100.044C78.3271 100.458 77.6261 100.666 76.8075 100.666ZM76.8075 99.1095C77.4438 99.1095 77.946 98.7963 78.3139 98.1698C78.6851 97.5401 78.8707 96.6137 78.8707 95.3907C78.8707 94.582 78.7862 93.9026 78.6171 93.3524C78.4481 92.8022 78.2095 92.3879 77.9012 92.1095C77.593 91.8277 77.2284 91.6869 76.8075 91.6869C76.1744 91.6869 75.674 92.0017 75.3061 92.6315C74.9382 93.2579 74.7526 94.1776 74.7492 95.3907C74.7459 96.2027 74.8271 96.8855 74.9929 97.439C75.1619 97.9925 75.4005 98.4101 75.7088 98.6919C76.017 98.9703 76.3832 99.1095 76.8075 99.1095ZM84.1182 99.0796L84.0536 99.6265C84.0072 100.044 83.9243 100.468 83.805 100.899C83.689 101.333 83.5664 101.733 83.4371 102.097C83.3078 102.462 83.2034 102.749 83.1239 102.957H81.9108C81.9572 102.755 82.0202 102.48 82.0997 102.132C82.1826 101.784 82.2621 101.393 82.3384 100.959C82.4146 100.525 82.466 100.084 82.4925 99.6365L82.5273 99.0796H84.1182ZM89.3508 100.611C88.6117 100.611 87.9554 100.487 87.3821 100.238C86.812 99.9894 86.3645 99.6497 86.0397 99.2188C85.7182 98.7847 85.5591 98.2925 85.5625 97.7423C85.5591 97.3147 85.6519 96.922 85.8409 96.564C86.0298 96.2061 86.285 95.9078 86.6065 95.6691C86.9313 95.4272 87.2926 95.2731 87.6903 95.2068V95.1372C87.1666 95.0212 86.7424 94.7544 86.4176 94.3367C86.0961 93.9158 85.937 93.4302 85.9403 92.8801C85.937 92.3564 86.0828 91.8891 86.3778 91.4781C86.6728 91.0671 87.0771 90.7439 87.5909 90.5086C88.1046 90.27 88.6912 90.1507 89.3508 90.1507C90.0037 90.1507 90.5854 90.27 91.0958 90.5086C91.6096 90.7439 92.0139 91.0671 92.3089 91.4781C92.6072 91.8891 92.7563 92.3564 92.7563 92.8801C92.7563 93.4302 92.5923 93.9158 92.2642 94.3367C91.9393 94.7544 91.5201 95.0212 91.0063 95.1372V95.2068C91.4041 95.2731 91.762 95.4272 92.0802 95.6691C92.4017 95.9078 92.6569 96.2061 92.8458 96.564C93.0381 96.922 93.1342 97.3147 93.1342 97.7423C93.1342 98.2925 92.9718 98.7847 92.647 99.2188C92.3222 99.6497 91.8747 99.9894 91.3046 100.238C90.7379 100.487 90.0866 100.611 89.3508 100.611ZM89.3508 99.189C89.732 99.189 90.0634 99.1244 90.3451 98.9951C90.6268 98.8625 90.8456 98.6769 91.0014 98.4383C91.1572 98.1997 91.2367 97.9246 91.24 97.613C91.2367 97.2882 91.1522 97.0015 90.9865 96.7529C90.8241 96.501 90.6003 96.3038 90.3153 96.1613C90.0336 96.0188 89.7121 95.9475 89.3508 95.9475C88.9862 95.9475 88.6614 96.0188 88.3764 96.1613C88.0913 96.3038 87.866 96.501 87.7002 96.7529C87.5378 97.0015 87.4583 97.2882 87.4616 97.613C87.4583 97.9246 87.5345 98.1997 87.6903 98.4383C87.8461 98.6736 88.0648 98.8576 88.3465 98.9901C88.6316 99.1227 88.9663 99.189 89.3508 99.189ZM89.3508 94.5505C89.6624 94.5505 89.9375 94.4875 90.1761 94.3616C90.418 94.2356 90.6086 94.06 90.7478 93.8346C90.887 93.6092 90.9583 93.349 90.9616 93.0541C90.9583 92.7624 90.8887 92.5072 90.7528 92.2884C90.6169 92.0664 90.428 91.8957 90.186 91.7764C89.9441 91.6537 89.6657 91.5924 89.3508 91.5924C89.0293 91.5924 88.7459 91.6537 88.5007 91.7764C88.2587 91.8957 88.0698 92.0664 87.9339 92.2884C87.8013 92.5072 87.7367 92.7624 87.74 93.0541C87.7367 93.349 87.803 93.6092 87.9389 93.8346C88.0781 94.0567 88.2687 94.2323 88.5106 94.3616C88.7559 94.4875 89.0359 94.5505 89.3508 94.5505Z" fill="white"/>
<path d="M76.8075 136.477C75.9888 136.477 75.2862 136.27 74.6995 135.855C74.1162 135.438 73.6671 134.836 73.3522 134.051C73.0407 133.262 72.8849 132.312 72.8849 131.202C72.8882 130.092 73.0456 129.147 73.3572 128.368C73.6721 127.586 74.1212 126.989 74.7045 126.578C75.2911 126.167 75.9921 125.962 76.8075 125.962C77.6228 125.962 78.3238 126.167 78.9105 126.578C79.4971 126.989 79.9462 127.586 80.2578 128.368C80.5726 129.15 80.7301 130.095 80.7301 131.202C80.7301 132.316 80.5726 133.267 80.2578 134.056C79.9462 134.841 79.4971 135.441 78.9105 135.855C78.3271 136.27 77.6261 136.477 76.8075 136.477ZM76.8075 134.921C77.4438 134.921 77.946 134.608 78.3139 133.981C78.6851 133.351 78.8707 132.425 78.8707 131.202C78.8707 130.393 78.7862 129.714 78.6171 129.164C78.4481 128.613 78.2095 128.199 77.9012 127.921C77.593 127.639 77.2284 127.498 76.8075 127.498C76.1744 127.498 75.674 127.813 75.3061 128.443C74.9382 129.069 74.7526 129.989 74.7492 131.202C74.7459 132.014 74.8271 132.697 74.9929 133.25C75.1619 133.804 75.4005 134.221 75.7088 134.503C76.017 134.782 76.3832 134.921 76.8075 134.921ZM84.1182 134.891L84.0536 135.438C84.0072 135.855 83.9243 136.28 83.805 136.711C83.689 137.145 83.5664 137.544 83.4371 137.909C83.3078 138.273 83.2034 138.56 83.1239 138.769H81.9108C81.9572 138.567 82.0202 138.291 82.0997 137.943C82.1826 137.595 82.2621 137.204 82.3384 136.77C82.4146 136.336 82.466 135.895 82.4925 135.448L82.5273 134.891H84.1182ZM86.159 136.283L90.4893 127.712V127.642H85.463V126.101H92.3984V127.677L88.0731 136.283H86.159Z" fill="white"/>
<path d="M76.8075 172.288C75.9888 172.288 75.2862 172.081 74.6995 171.667C74.1162 171.249 73.6671 170.648 73.3522 169.862C73.0407 169.073 72.8849 168.124 72.8849 167.013C72.8882 165.903 73.0456 164.958 73.3572 164.18C73.6721 163.397 74.1212 162.801 74.7045 162.39C75.2911 161.979 75.9921 161.773 76.8075 161.773C77.6228 161.773 78.3238 161.979 78.9105 162.39C79.4971 162.801 79.9462 163.397 80.2578 164.18C80.5726 164.962 80.7301 165.906 80.7301 167.013C80.7301 168.127 80.5726 169.078 80.2578 169.867C79.9462 170.653 79.4971 171.253 78.9105 171.667C78.3271 172.081 77.6261 172.288 76.8075 172.288ZM76.8075 170.732C77.4438 170.732 77.946 170.419 78.3139 169.793C78.6851 169.163 78.8707 168.236 78.8707 167.013C78.8707 166.205 78.7862 165.525 78.6171 164.975C78.4481 164.425 78.2095 164.011 77.9012 163.732C77.593 163.45 77.2284 163.31 76.8075 163.31C76.1744 163.31 75.674 163.624 75.3061 164.254C74.9382 164.881 74.7526 165.8 74.7492 167.013C74.7459 167.825 74.8271 168.508 74.9929 169.062C75.1619 169.615 75.4005 170.033 75.7088 170.315C76.017 170.593 76.3832 170.732 76.8075 170.732ZM84.1182 170.702L84.0536 171.249C84.0072 171.667 83.9243 172.091 83.805 172.522C83.689 172.956 83.5664 173.355 83.4371 173.72C83.3078 174.085 83.2034 174.371 83.1239 174.58H81.9108C81.9572 174.378 82.0202 174.103 82.0997 173.755C82.1826 173.407 82.2621 173.016 82.3384 172.582C82.4146 172.147 82.466 171.707 82.4925 171.259L82.5273 170.702H84.1182ZM89.4465 172.234C88.9593 172.23 88.4837 172.146 88.0197 171.98C87.5556 171.811 87.138 171.538 86.7668 171.16C86.3956 170.779 86.1006 170.273 85.8819 169.643C85.6631 169.01 85.5554 168.226 85.5587 167.292C85.5587 166.42 85.6515 165.643 85.8371 164.96C86.0227 164.277 86.2896 163.701 86.6376 163.23C86.9856 162.756 87.4048 162.395 87.8954 162.146C88.3892 161.898 88.9411 161.773 89.5509 161.773C90.1906 161.773 90.7574 161.899 91.2512 162.151C91.7484 162.403 92.1494 162.748 92.4543 163.185C92.7592 163.619 92.9482 164.11 93.0211 164.657H91.2065C91.1137 164.266 90.9231 163.954 90.6347 163.722C90.3497 163.487 89.9884 163.369 89.5509 163.369C88.8449 163.369 88.3014 163.676 87.9202 164.289C87.5424 164.902 87.3518 165.744 87.3485 166.815H87.4181C87.5805 166.523 87.791 166.273 88.0495 166.064C88.308 165.855 88.5997 165.694 88.9245 165.582C89.2526 165.466 89.599 165.408 89.9636 165.408C90.5601 165.408 91.0954 165.55 91.5694 165.835C92.0467 166.12 92.4245 166.513 92.7029 167.013C92.9813 167.511 93.1189 168.081 93.1155 168.724C93.1189 169.393 92.9664 169.995 92.6582 170.528C92.3499 171.059 91.9207 171.476 91.3705 171.781C90.8203 172.086 90.179 172.237 89.4465 172.234ZM89.4366 170.742C89.7978 170.742 90.121 170.654 90.406 170.479C90.6911 170.303 90.9164 170.066 91.0822 169.768C91.2479 169.469 91.3291 169.135 91.3258 168.763C91.3291 168.399 91.2495 168.069 91.0871 167.774C90.928 167.479 90.7076 167.245 90.4259 167.073C90.1442 166.901 89.8227 166.815 89.4614 166.815C89.193 166.815 88.9427 166.866 88.7107 166.969C88.4787 167.071 88.2765 167.214 88.1042 167.396C87.9318 167.575 87.7959 167.784 87.6965 168.023C87.6004 168.258 87.5507 168.51 87.5474 168.778C87.5507 169.133 87.6335 169.459 87.7959 169.758C87.9583 170.056 88.1821 170.295 88.4671 170.474C88.7521 170.653 89.0753 170.742 89.4366 170.742Z" fill="white"/>
<path d="M76.8075 208.1C75.9888 208.1 75.2862 207.892 74.6995 207.478C74.1162 207.06 73.6671 206.459 73.3522 205.673C73.0407 204.885 72.8849 203.935 72.8849 202.825C72.8882 201.714 73.0456 200.77 73.3572 199.991C73.6721 199.209 74.1212 198.612 74.7045 198.201C75.2911 197.79 75.9921 197.585 76.8075 197.585C77.6228 197.585 78.3238 197.79 78.9105 198.201C79.4971 198.612 79.9462 199.209 80.2578 199.991C80.5726 200.773 80.7301 201.718 80.7301 202.825C80.7301 203.938 80.5726 204.89 80.2578 205.678C79.9462 206.464 79.4971 207.064 78.9105 207.478C78.3271 207.892 77.6261 208.1 76.8075 208.1ZM76.8075 206.543C77.4438 206.543 77.946 206.23 78.3139 205.604C78.6851 204.974 78.8707 204.048 78.8707 202.825C78.8707 202.016 78.7862 201.337 78.6171 200.786C78.4481 200.236 78.2095 199.822 77.9012 199.543C77.593 199.262 77.2284 199.121 76.8075 199.121C76.1744 199.121 75.674 199.436 75.3061 200.065C74.9382 200.692 74.7526 201.612 74.7492 202.825C74.7459 203.637 74.8271 204.319 74.9929 204.873C75.1619 205.426 75.4005 205.844 75.7088 206.126C76.017 206.404 76.3832 206.543 76.8075 206.543ZM84.1182 206.514L84.0536 207.06C84.0072 207.478 83.9243 207.902 83.805 208.333C83.689 208.767 83.5664 209.167 83.4371 209.531C83.3078 209.896 83.2034 210.183 83.1239 210.391H81.9108C81.9572 210.189 82.0202 209.914 82.0997 209.566C82.1826 209.218 82.2621 208.827 82.3384 208.393C82.4146 207.959 82.466 207.518 82.4925 207.07L82.5273 206.514H84.1182ZM89.531 208.045C88.8681 208.045 88.2749 207.921 87.7512 207.672C87.2275 207.42 86.8116 207.075 86.5033 206.638C86.1984 206.2 86.036 205.7 86.0161 205.136H87.8059C87.839 205.554 88.0197 205.895 88.3478 206.161C88.6759 206.422 89.0703 206.553 89.531 206.553C89.8923 206.553 90.2138 206.471 90.4955 206.305C90.7772 206.139 90.9993 205.909 91.1617 205.614C91.3241 205.319 91.4037 204.982 91.4003 204.605C91.4037 204.22 91.3225 203.879 91.1567 203.58C90.991 203.282 90.764 203.048 90.4756 202.879C90.1873 202.707 89.8558 202.621 89.4813 202.621C89.1764 202.618 88.8764 202.674 88.5815 202.79C88.2865 202.906 88.0528 203.058 87.8805 203.247L86.215 202.974L86.7469 197.724H92.6532V199.265H88.2732L87.9799 201.965H88.0396C88.2285 201.743 88.4953 201.559 88.84 201.413C89.1847 201.264 89.5625 201.189 89.9735 201.189C90.59 201.189 91.1402 201.335 91.6241 201.627C92.108 201.915 92.4891 202.313 92.7675 202.82C93.0459 203.327 93.1851 203.907 93.1851 204.56C93.1851 205.233 93.0294 205.832 92.7178 206.359C92.4096 206.883 91.9804 207.296 91.4302 207.597C90.8833 207.896 90.2503 208.045 89.531 208.045Z" fill="white"/>
<path d="M75.4525 243.911C74.6338 243.911 73.9312 243.704 73.3445 243.289C72.7612 242.872 72.3121 242.27 71.9972 241.485C71.6857 240.696 71.5299 239.746 71.5299 238.636C71.5332 237.526 71.6907 236.581 72.0022 235.802C72.3171 235.02 72.7662 234.423 73.3495 234.012C73.9362 233.602 74.6372 233.396 75.4525 233.396C76.2678 233.396 76.9688 233.602 77.5555 234.012C78.1421 234.423 78.5912 235.02 78.9028 235.802C79.2177 236.584 79.3751 237.529 79.3751 238.636C79.3751 239.75 79.2177 240.701 78.9028 241.49C78.5912 242.275 78.1421 242.875 77.5555 243.289C76.9722 243.704 76.2712 243.911 75.4525 243.911ZM75.4525 242.355C76.0889 242.355 76.591 242.042 76.9589 241.415C77.3301 240.785 77.5157 239.859 77.5157 238.636C77.5157 237.827 77.4312 237.148 77.2622 236.598C77.0931 236.048 76.8545 235.633 76.5463 235.355C76.238 235.073 75.8734 234.932 75.4525 234.932C74.8195 234.932 74.319 235.247 73.9511 235.877C73.5832 236.503 73.3976 237.423 73.3943 238.636C73.391 239.448 73.4722 240.131 73.6379 240.684C73.8069 241.238 74.0455 241.655 74.3538 241.937C74.662 242.216 75.0283 242.355 75.4525 242.355ZM82.7632 242.325L82.6986 242.872C82.6522 243.289 82.5693 243.714 82.45 244.145C82.334 244.579 82.2114 244.978 82.0821 245.343C81.9529 245.707 81.8485 245.994 81.7689 246.203H80.5558C80.6022 246.001 80.6652 245.726 80.7448 245.378C80.8276 245.03 80.9072 244.638 80.9834 244.204C81.0596 243.77 81.111 243.329 81.1375 242.882L81.1723 242.325H82.7632ZM84.5754 241.828V240.361L88.8957 233.535H90.1187V235.623H89.373L86.4646 240.232V240.312H92.4951V241.828H84.5754ZM89.4326 243.717V241.38L89.4525 240.724V233.535H91.1926V243.717H89.4326Z" fill="white"/>
<path d="M75.8075 281.722C74.9888 281.722 74.2862 281.515 73.6995 281.101C73.1162 280.683 72.6671 280.082 72.3522 279.296C72.0407 278.507 71.8849 277.558 71.8849 276.447C71.8882 275.337 72.0456 274.392 72.3572 273.614C72.6721 272.831 73.1212 272.235 73.7045 271.824C74.2911 271.413 74.9921 271.207 75.8075 271.207C76.6228 271.207 77.3238 271.413 77.9105 271.824C78.4971 272.235 78.9462 272.831 79.2578 273.614C79.5726 274.396 79.7301 275.34 79.7301 276.447C79.7301 277.561 79.5726 278.512 79.2578 279.301C78.9462 280.087 78.4971 280.686 77.9105 281.101C77.3271 281.515 76.6261 281.722 75.8075 281.722ZM75.8075 280.166C76.4438 280.166 76.946 279.853 77.3139 279.226C77.6851 278.597 77.8707 277.67 77.8707 276.447C77.8707 275.639 77.7862 274.959 77.6171 274.409C77.4481 273.859 77.2095 273.445 76.9012 273.166C76.593 272.884 76.2284 272.744 75.8075 272.744C75.1744 272.744 74.674 273.058 74.3061 273.688C73.9382 274.315 73.7526 275.234 73.7492 276.447C73.7459 277.259 73.8271 277.942 73.9929 278.496C74.1619 279.049 74.4005 279.467 74.7088 279.748C75.017 280.027 75.3832 280.166 75.8075 280.166ZM83.1182 280.136L83.0536 280.683C83.0072 281.101 82.9243 281.525 82.805 281.956C82.689 282.39 82.5664 282.789 82.4371 283.154C82.3078 283.519 82.2034 283.805 82.1239 284.014H80.9108C80.9572 283.812 81.0202 283.537 81.0997 283.189C81.1826 282.841 81.2621 282.45 81.3384 282.016C81.4146 281.581 81.466 281.141 81.4925 280.693L81.5273 280.136H83.1182ZM88.4266 281.668C87.7107 281.668 87.0744 281.545 86.5175 281.3C85.964 281.054 85.5265 280.713 85.205 280.275C84.8835 279.838 84.7128 279.333 84.693 278.759H86.5623C86.5789 279.034 86.67 279.275 86.8357 279.48C87.0014 279.682 87.2218 279.84 87.4969 279.952C87.772 280.065 88.0803 280.121 88.4217 280.121C88.7862 280.121 89.1094 280.058 89.3911 279.932C89.6728 279.803 89.8932 279.624 90.0523 279.396C90.2114 279.167 90.2893 278.903 90.286 278.605C90.2893 278.297 90.2098 278.025 90.0474 277.79C89.885 277.554 89.6496 277.37 89.3414 277.238C89.0365 277.105 88.6686 277.039 88.2377 277.039H87.3378V275.617H88.2377C88.5923 275.617 88.9022 275.556 89.1674 275.433C89.4359 275.311 89.6463 275.138 89.7988 274.916C89.9512 274.691 90.0258 274.431 90.0225 274.136C90.0258 273.847 89.9612 273.597 89.8286 273.385C89.6994 273.169 89.5154 273.002 89.2768 272.883C89.0414 272.763 88.7647 272.704 88.4465 272.704C88.135 272.704 87.8466 272.76 87.5815 272.873C87.3163 272.985 87.1025 273.146 86.9401 273.355C86.7777 273.561 86.6915 273.806 86.6816 274.091H84.9067C84.92 273.521 85.0841 273.02 85.3989 272.589C85.7171 272.155 86.1414 271.817 86.6717 271.575C87.202 271.33 87.7969 271.207 88.4565 271.207C89.1359 271.207 89.7259 271.335 90.2263 271.59C90.7301 271.842 91.1196 272.182 91.3947 272.609C91.6698 273.037 91.8073 273.509 91.8073 274.026C91.8106 274.6 91.6416 275.08 91.3002 275.468C90.9621 275.856 90.518 276.109 89.9678 276.229V276.308C90.6837 276.408 91.2323 276.673 91.6134 277.104C91.9979 277.531 92.1885 278.063 92.1851 278.699C92.1851 279.27 92.0227 279.78 91.6979 280.231C91.3764 280.678 90.9323 281.03 90.3655 281.285C89.8021 281.54 89.1558 281.668 88.4266 281.668Z" fill="white"/>
<path d="M75.4525 316.533C74.6338 316.533 73.9312 316.326 73.3445 315.912C72.7612 315.494 72.3121 314.893 71.9972 314.107C71.6857 313.319 71.5299 312.369 71.5299 311.259C71.5332 310.148 71.6907 309.204 72.0022 308.425C72.3171 307.643 72.7662 307.046 73.3495 306.635C73.9362 306.224 74.6372 306.019 75.4525 306.019C76.2678 306.019 76.9688 306.224 77.5555 306.635C78.1421 307.046 78.5912 307.643 78.9028 308.425C79.2177 309.207 79.3751 310.152 79.3751 311.259C79.3751 312.372 79.2177 313.324 78.9028 314.112C78.5912 314.898 78.1421 315.498 77.5555 315.912C76.9722 316.326 76.2712 316.533 75.4525 316.533ZM75.4525 314.977C76.0889 314.977 76.591 314.664 76.9589 314.038C77.3301 313.408 77.5157 312.482 77.5157 311.259C77.5157 310.45 77.4312 309.77 77.2622 309.22C77.0931 308.67 76.8545 308.256 76.5463 307.977C76.238 307.696 75.8734 307.555 75.4525 307.555C74.8195 307.555 74.319 307.87 73.9511 308.499C73.5832 309.126 73.3976 310.046 73.3943 311.259C73.391 312.071 73.4722 312.753 73.6379 313.307C73.8069 313.86 74.0455 314.278 74.3538 314.56C74.662 314.838 75.0283 314.977 75.4525 314.977ZM82.7632 314.948L82.6986 315.494C82.6522 315.912 82.5693 316.336 82.45 316.767C82.334 317.201 82.2114 317.601 82.0821 317.965C81.9529 318.33 81.8485 318.617 81.7689 318.825H80.5558C80.6022 318.623 80.6652 318.348 80.7448 318C80.8276 317.652 80.9072 317.261 80.9834 316.827C81.0596 316.393 81.111 315.952 81.1375 315.504L81.1723 314.948H82.7632ZM84.7593 316.34V315.007L88.2941 311.542C88.6322 311.201 88.9139 310.897 89.1393 310.632C89.3647 310.367 89.5337 310.11 89.6464 309.862C89.7591 309.613 89.8154 309.348 89.8154 309.066C89.8154 308.745 89.7425 308.47 89.5967 308.241C89.4508 308.009 89.2503 307.83 88.9951 307.704C88.7399 307.578 88.4499 307.515 88.1251 307.515C87.7903 307.515 87.497 307.585 87.2451 307.724C86.9932 307.86 86.7977 308.054 86.6585 308.306C86.5226 308.557 86.4546 308.857 86.4546 309.205H84.6997C84.6997 308.559 84.8472 307.997 85.1421 307.52C85.4371 307.043 85.8431 306.673 86.3602 306.411C86.8805 306.149 87.4771 306.019 88.1499 306.019C88.8327 306.019 89.4326 306.146 89.9497 306.401C90.4667 306.657 90.8677 307.006 91.1528 307.45C91.4411 307.895 91.5853 308.402 91.5853 308.972C91.5853 309.353 91.5124 309.727 91.3666 310.095C91.2207 310.463 90.9639 310.871 90.596 311.318C90.2314 311.766 89.7193 312.308 89.0597 312.944L87.3048 314.729V314.798H91.7394V316.34H84.7593Z" fill="white"/>
<line x1="102.952" y1="92.3585" x2="102.952" y2="384.359" stroke="white" stroke-width="2"/>
<line x1="101.95" y1="383.69" x2="475.963" y2="383.69" stroke="white" stroke-width="2"/>
<line x1="110" y1="94.5" x2="473" y2="94.5" stroke="white" stroke-opacity="0.5"/>
<line x1="110" y1="131.5" x2="473" y2="131.5" stroke="white" stroke-opacity="0.5"/>
<line x1="110" y1="167.5" x2="473" y2="167.5" stroke="white" stroke-opacity="0.5"/>
<line x1="110" y1="203.5" x2="473" y2="203.5" stroke="white" stroke-opacity="0.5"/>
<line x1="110" y1="240.5" x2="473" y2="240.5" stroke="white" stroke-opacity="0.5"/>
<line x1="110" y1="276.5" x2="473" y2="276.5" stroke="white" stroke-opacity="0.5"/>
<line x1="111.438" y1="312.236" x2="473.255" y2="312.236" stroke="white" stroke-opacity="0.5"/>
<line x1="111.438" y1="349.425" x2="473.255" y2="349.425" stroke="white" stroke-opacity="0.5"/>
<line x1="472.398" y1="93.7358" x2="472.398" y2="377.472" stroke="white" stroke-opacity="0.5"/>
<line x1="426.324" y1="93.7358" x2="426.324" y2="377.472" stroke="white" stroke-opacity="0.5"/>
<line x1="380.25" y1="93.7358" x2="380.25" y2="377.472" stroke="white" stroke-opacity="0.5"/>
<line x1="334.176" y1="93.7358" x2="334.176" y2="377.472" stroke="white" stroke-opacity="0.5"/>
<line x1="286.747" y1="93.7358" x2="286.747" y2="377.472" stroke="white" stroke-opacity="0.5"/>
<line x1="240.673" y1="93.7358" x2="240.673" y2="377.472" stroke="white" stroke-opacity="0.5"/>
<line x1="194.6" y1="93.7358" x2="194.6" y2="377.472" stroke="white" stroke-opacity="0.5"/>
<line x1="148.526" y1="93.7358" x2="148.526" y2="377.472" stroke="white" stroke-opacity="0.5"/>
<line x1="107" y1="113.5" x2="472" y2="113.5" stroke="white" stroke-opacity="0.5"/>
<line x1="107" y1="149.5" x2="472" y2="149.5" stroke="white" stroke-opacity="0.5"/>
<line x1="107" y1="185.5" x2="472" y2="185.5" stroke="white" stroke-opacity="0.5"/>
<line x1="107" y1="221.5" x2="472" y2="221.5" stroke="white" stroke-opacity="0.5"/>
<line x1="107" y1="258.5" x2="472" y2="258.5" stroke="white" stroke-opacity="0.5"/>
<line x1="108.727" y1="294.33" x2="471.898" y2="294.33" stroke="white" stroke-opacity="0.5"/>
<line x1="108.727" y1="330.141" x2="471.898" y2="330.141" stroke="white" stroke-opacity="0.5"/>
<line x1="108.727" y1="367.33" x2="471.898" y2="367.33" stroke="white" stroke-opacity="0.5"/>
<line x1="449.716" y1="378.849" x2="449.716" y2="93.7359" stroke="white" stroke-opacity="0.5"/>
<line x1="403.642" y1="378.849" x2="403.642" y2="93.7359" stroke="white" stroke-opacity="0.5"/>
<line x1="357.568" y1="378.849" x2="357.568" y2="93.7359" stroke="white" stroke-opacity="0.5"/>
<line x1="311.494" y1="378.849" x2="311.494" y2="93.7359" stroke="white" stroke-opacity="0.5"/>
<line x1="264.065" y1="378.849" x2="264.065" y2="93.7359" stroke="white" stroke-opacity="0.5"/>
<line x1="217.992" y1="378.849" x2="217.992" y2="93.7359" stroke="white" stroke-opacity="0.5"/>
<line x1="171.918" y1="378.849" x2="171.918" y2="93.7359" stroke="white" stroke-opacity="0.5"/>
<line x1="125.844" y1="378.849" x2="125.844" y2="93.7359" stroke="white" stroke-opacity="0.5"/>
<path d="M146.628 296.218C147.301 297.528 148.908 298.045 150.218 297.372C151.528 296.699 152.045 295.092 151.372 293.782C150.699 292.472 149.092 291.955 147.782 292.628C146.472 293.301 145.955 294.908 146.628 296.218ZM106.228 317.527L149.228 295.445L148.772 294.555L105.772 316.638L106.228 317.527Z" fill="#00C6C3"/>
<path d="M192.696 298.684C192.572 300.151 193.662 301.441 195.129 301.565C196.597 301.689 197.887 300.6 198.011 299.132C198.134 297.664 197.045 296.374 195.577 296.251C194.11 296.127 192.82 297.216 192.696 298.684ZM148.958 295.498L195.311 299.406L195.395 298.41L149.042 294.502L148.958 295.498Z" fill="#00C6C3"/>
<path d="M252.521 297.074C252.539 298.547 253.747 299.708 255.219 299.667C256.691 299.626 257.87 298.398 257.852 296.926C257.835 295.453 256.627 294.293 255.155 294.334C253.683 294.375 252.504 295.602 252.521 297.074ZM196.006 299.149L255.193 297.5L255.181 296.5L195.994 298.149L196.006 299.149Z" fill="#00C6C3"/>
<path d="M330.337 294.142C330.416 295.613 331.671 296.741 333.142 296.663C334.613 296.584 335.741 295.329 335.663 293.858C335.584 292.387 334.329 291.259 332.858 291.337C331.387 291.416 330.259 292.671 330.337 294.142ZM258.027 298.499L333.027 294.499L332.973 293.501L257.973 297.501L258.027 298.499Z" fill="#00C6C3"/>
<path d="M388.494 289.2C388.581 290.671 389.843 291.773 391.311 291.662C392.78 291.551 393.9 290.27 393.812 288.8C393.725 287.329 392.464 286.227 390.995 286.338C389.527 286.449 388.407 287.73 388.494 289.2ZM334.03 293.807L391.183 289.499L391.124 288.501L333.97 292.809L334.03 293.807Z" fill="#00C6C3"/>
<path d="M470.413 282.647C470.77 284.076 472.218 284.944 473.647 284.587C475.076 284.23 475.944 282.782 475.587 281.353C475.23 279.924 473.782 279.056 472.353 279.413C470.924 279.77 470.056 281.218 470.413 282.647ZM453.121 287.485L473.121 282.485L472.879 281.515L452.879 286.515L453.121 287.485Z" fill="#00C6C3"/>
<path d="M450.441 288.073C450.458 289.546 451.665 290.707 453.138 290.667C454.61 290.626 455.789 289.4 455.772 287.927C455.755 286.454 454.548 285.293 453.076 285.334C451.604 285.374 450.424 286.6 450.441 288.073ZM392.006 290.176L453.113 288.5L453.101 287.5L391.994 289.177L392.006 290.176Z" fill="#00C6C3"/>
<rect x="469.188" y="377.472" width="6.77557" height="5.50943" fill="white"/>
<rect x="446.151" y="378.849" width="6.77557" height="4.13208" fill="white"/>
<rect x="423.114" y="377.472" width="5.42046" height="5.50943" fill="white"/>
<rect x="400.077" y="378.849" width="6.77557" height="4.13208" fill="white"/>
<rect x="377.04" y="377.472" width="5.42046" height="5.50943" fill="white"/>
<rect x="354.003" y="378.849" width="5.42046" height="4.13208" fill="white"/>
<rect x="330.966" y="377.472" width="5.42046" height="5.50943" fill="white"/>
<rect x="307.929" y="378.849" width="5.42046" height="4.13208" fill="white"/>
<rect x="284.892" y="377.472" width="5.42046" height="5.50943" fill="white"/>
<rect x="261.855" y="378.849" width="5.42046" height="4.13208" fill="#FFFCFC"/>
<rect x="238.818" y="377.472" width="5.42046" height="5.50943" fill="white"/>
<rect x="215.781" y="378.849" width="5.42046" height="4.13208" fill="white"/>
<rect x="192.744" y="377.472" width="5.42046" height="5.50943" fill="white"/>
<rect x="168.352" y="378.849" width="6.77557" height="4.13208" fill="white"/>
<rect x="146.671" y="377.472" width="5.42046" height="5.50943" fill="white"/>
<rect x="122.278" y="378.849" width="6.77557" height="4.13208" fill="white"/>
<rect x="103.307" y="363.698" width="5.42046" height="6.88679" fill="white"/>
<rect x="103.307" y="345.792" width="8.13069" height="5.50943" fill="white"/>
<rect x="103.307" y="327.887" width="5.42046" height="5.50943" fill="white"/>
<rect x="103.307" y="309.981" width="8.13069" height="5.50943" fill="white"/>
<rect x="103.307" y="290.698" width="5.42046" height="6.88679" fill="white"/>
<rect x="103.662" y="272.792" width="6.77557" height="6.88679" fill="white"/>
<rect x="103.662" y="254.887" width="4.06534" height="6.88679" fill="white"/>
<rect x="103.662" y="236.981" width="6.77557" height="5.50943" fill="white"/>
<rect x="103.662" y="219.075" width="4.06534" height="5.50943" fill="white"/>
<rect x="103.662" y="201.17" width="6.77557" height="5.50943" fill="white"/>
<rect x="103.662" y="183.264" width="4.06534" height="5.50943" fill="white"/>
<rect x="103.662" y="163.981" width="6.77557" height="6.88679" fill="white"/>
<rect x="103.662" y="146.075" width="4.06534" height="6.88679" fill="white"/>
<rect x="103.662" y="128.17" width="6.77557" height="5.50943" fill="white"/>
<rect x="103.662" y="110.264" width="4.06534" height="5.50943" fill="white"/>
<rect x="103.662" y="92.3585" width="6.77557" height="5.50943" fill="white"/>
<path d="M106.555 404.062C105.736 404.062 105.033 403.855 104.447 403.44C103.864 403.023 103.414 402.421 103.1 401.636C102.788 400.847 102.632 399.897 102.632 398.787C102.636 397.677 102.793 396.732 103.105 395.953C103.419 395.171 103.868 394.574 104.452 394.163C105.038 393.752 105.739 393.547 106.555 393.547C107.37 393.547 108.071 393.752 108.658 394.163C109.244 394.574 109.694 395.171 110.005 395.953C110.32 396.735 110.477 397.68 110.477 398.787C110.477 399.901 110.32 400.852 110.005 401.641C109.694 402.426 109.244 403.026 108.658 403.44C108.074 403.855 107.373 404.062 106.555 404.062ZM106.555 402.506C107.191 402.506 107.693 402.192 108.061 401.566C108.432 400.936 108.618 400.01 108.618 398.787C108.618 397.978 108.533 397.299 108.364 396.749C108.195 396.198 107.957 395.784 107.649 395.506C107.34 395.224 106.976 395.083 106.555 395.083C105.922 395.083 105.421 395.398 105.053 396.028C104.685 396.654 104.5 397.574 104.497 398.787C104.493 399.599 104.574 400.282 104.74 400.835C104.909 401.389 105.148 401.806 105.456 402.088C105.764 402.366 106.131 402.506 106.555 402.506Z" fill="white"/>
<path d="M150.362 393.686V403.868H148.517V395.481H148.457L146.076 397.002V395.312L148.607 393.686H150.362Z" fill="white"/>
<path d="M192.294 403.868V402.536L195.829 399.07C196.167 398.729 196.449 398.426 196.674 398.161C196.899 397.895 197.069 397.639 197.181 397.39C197.294 397.141 197.35 396.876 197.35 396.594C197.35 396.273 197.277 395.998 197.131 395.769C196.986 395.537 196.785 395.358 196.53 395.232C196.275 395.106 195.985 395.043 195.66 395.043C195.325 395.043 195.032 395.113 194.78 395.252C194.528 395.388 194.332 395.582 194.193 395.834C194.057 396.086 193.989 396.386 193.989 396.734H192.234C192.234 396.087 192.382 395.526 192.677 395.048C192.972 394.571 193.378 394.201 193.895 393.94C194.415 393.678 195.012 393.547 195.685 393.547C196.368 393.547 196.967 393.675 197.484 393.93C198.002 394.185 198.403 394.535 198.688 394.979C198.976 395.423 199.12 395.93 199.12 396.5C199.12 396.881 199.047 397.256 198.901 397.624C198.756 397.991 198.499 398.399 198.131 398.847C197.766 399.294 197.254 399.836 196.595 400.472L194.84 402.257V402.327H199.274V403.868H192.294Z" fill="white"/>
<path d="M240.667 404.007C239.951 404.007 239.315 403.884 238.758 403.639C238.204 403.394 237.767 403.053 237.445 402.615C237.124 402.178 236.953 401.672 236.933 401.099H238.803C238.819 401.374 238.91 401.614 239.076 401.82C239.242 402.022 239.462 402.179 239.737 402.292C240.012 402.405 240.321 402.461 240.662 402.461C241.027 402.461 241.35 402.398 241.632 402.272C241.913 402.143 242.134 401.964 242.293 401.735C242.452 401.506 242.53 401.243 242.526 400.945C242.53 400.636 242.45 400.365 242.288 400.129C242.125 399.894 241.89 399.71 241.582 399.577C241.277 399.445 240.909 399.379 240.478 399.379H239.578V397.957H240.478C240.833 397.957 241.143 397.895 241.408 397.773C241.676 397.65 241.887 397.478 242.039 397.256C242.192 397.03 242.266 396.77 242.263 396.475C242.266 396.187 242.202 395.937 242.069 395.724C241.94 395.509 241.756 395.342 241.517 395.222C241.282 395.103 241.005 395.043 240.687 395.043C240.375 395.043 240.087 395.1 239.822 395.212C239.557 395.325 239.343 395.486 239.181 395.695C239.018 395.9 238.932 396.145 238.922 396.43H237.147C237.16 395.86 237.324 395.36 237.639 394.929C237.957 394.495 238.382 394.157 238.912 393.915C239.442 393.67 240.037 393.547 240.697 393.547C241.376 393.547 241.966 393.675 242.467 393.93C242.971 394.182 243.36 394.521 243.635 394.949C243.91 395.376 244.048 395.849 244.048 396.366C244.051 396.939 243.882 397.42 243.541 397.808C243.203 398.195 242.758 398.449 242.208 398.568V398.648C242.924 398.747 243.473 399.012 243.854 399.443C244.238 399.871 244.429 400.403 244.426 401.039C244.426 401.609 244.263 402.12 243.938 402.57C243.617 403.018 243.173 403.369 242.606 403.624C242.042 403.88 241.396 404.007 240.667 404.007Z" fill="white"/>
<path d="M282.903 401.979V400.512L287.223 393.686H288.446V395.774H287.7L284.792 400.383V400.462H290.823V401.979H282.903ZM287.76 403.868V401.531L287.78 400.875V393.686H289.52V403.868H287.76Z" fill="white"/>
<path d="M332.7 404.007C332.038 404.007 331.444 403.883 330.921 403.634C330.397 403.382 329.981 403.038 329.673 402.6C329.368 402.163 329.205 401.662 329.186 401.099H330.975C331.008 401.516 331.189 401.858 331.517 402.123C331.845 402.385 332.24 402.516 332.7 402.516C333.062 402.516 333.383 402.433 333.665 402.267C333.947 402.101 334.169 401.871 334.331 401.576C334.494 401.281 334.573 400.945 334.57 400.567C334.573 400.182 334.492 399.841 334.326 399.543C334.16 399.244 333.933 399.011 333.645 398.842C333.357 398.669 333.025 398.583 332.651 398.583C332.346 398.58 332.046 398.636 331.751 398.752C331.456 398.868 331.222 399.021 331.05 399.21L329.384 398.936L329.916 393.686H335.823V395.227H331.443L331.149 397.927H331.209C331.398 397.705 331.665 397.521 332.009 397.375C332.354 397.226 332.732 397.151 333.143 397.151C333.759 397.151 334.31 397.297 334.793 397.589C335.277 397.877 335.659 398.275 335.937 398.782C336.215 399.289 336.355 399.869 336.355 400.522C336.355 401.195 336.199 401.795 335.887 402.322C335.579 402.845 335.15 403.258 334.6 403.56C334.053 403.858 333.42 404.007 332.7 404.007Z" fill="white"/>
<path d="M380.318 404.007C379.831 404.004 379.356 403.919 378.892 403.754C378.428 403.585 378.01 403.311 377.639 402.933C377.267 402.552 376.972 402.047 376.754 401.417C376.535 400.784 376.427 400 376.431 399.065C376.431 398.194 376.523 397.416 376.709 396.734C376.895 396.051 377.161 395.474 377.509 395.004C377.857 394.53 378.277 394.168 378.767 393.92C379.261 393.671 379.813 393.547 380.423 393.547C381.062 393.547 381.629 393.673 382.123 393.925C382.62 394.177 383.021 394.521 383.326 394.959C383.631 395.393 383.82 395.884 383.893 396.43H382.078C381.986 396.039 381.795 395.728 381.507 395.496C381.222 395.26 380.86 395.143 380.423 395.143C379.717 395.143 379.173 395.449 378.792 396.063C378.414 396.676 378.224 397.518 378.22 398.588H378.29C378.452 398.296 378.663 398.046 378.921 397.837C379.18 397.629 379.472 397.468 379.796 397.355C380.124 397.239 380.471 397.181 380.835 397.181C381.432 397.181 381.967 397.324 382.441 397.609C382.919 397.894 383.296 398.286 383.575 398.787C383.853 399.284 383.991 399.854 383.987 400.497C383.991 401.167 383.838 401.768 383.53 402.302C383.222 402.832 382.793 403.25 382.242 403.555C381.692 403.86 381.051 404.01 380.318 404.007ZM380.308 402.516C380.67 402.516 380.993 402.428 381.278 402.252C381.563 402.076 381.788 401.84 381.954 401.541C382.12 401.243 382.201 400.908 382.198 400.537C382.201 400.172 382.121 399.843 381.959 399.548C381.8 399.253 381.579 399.019 381.298 398.847C381.016 398.674 380.695 398.588 380.333 398.588C380.065 398.588 379.815 398.639 379.583 398.742C379.351 398.845 379.148 398.987 378.976 399.17C378.804 399.349 378.668 399.558 378.568 399.796C378.472 400.032 378.423 400.283 378.419 400.552C378.423 400.907 378.505 401.233 378.668 401.531C378.83 401.83 379.054 402.068 379.339 402.247C379.624 402.426 379.947 402.516 380.308 402.516Z" fill="white"/>
<path d="M423.036 403.868L427.367 395.297V395.227H422.34V393.686H429.276V395.262L424.95 403.868H423.036Z" fill="white"/>
<path d="M472.357 404.007C471.618 404.007 470.961 403.883 470.388 403.634C469.818 403.386 469.37 403.046 469.046 402.615C468.724 402.181 468.565 401.689 468.568 401.139C468.565 400.711 468.658 400.318 468.847 399.96C469.036 399.602 469.291 399.304 469.612 399.065C469.937 398.823 470.299 398.669 470.696 398.603V398.533C470.173 398.417 469.748 398.151 469.424 397.733C469.102 397.312 468.943 396.826 468.946 396.276C468.943 395.753 469.089 395.285 469.384 394.874C469.679 394.463 470.083 394.14 470.597 393.905C471.111 393.666 471.697 393.547 472.357 393.547C473.01 393.547 473.591 393.666 474.102 393.905C474.616 394.14 475.02 394.463 475.315 394.874C475.613 395.285 475.762 395.753 475.762 396.276C475.762 396.826 475.598 397.312 475.27 397.733C474.945 398.151 474.526 398.417 474.012 398.533V398.603C474.41 398.669 474.768 398.823 475.086 399.065C475.408 399.304 475.663 399.602 475.852 399.96C476.044 400.318 476.14 400.711 476.14 401.139C476.14 401.689 475.978 402.181 475.653 402.615C475.328 403.046 474.881 403.386 474.311 403.634C473.744 403.883 473.093 404.007 472.357 404.007ZM472.357 402.585C472.738 402.585 473.069 402.521 473.351 402.391C473.633 402.259 473.852 402.073 474.007 401.835C474.163 401.596 474.243 401.321 474.246 401.009C474.243 400.684 474.158 400.398 473.992 400.149C473.83 399.897 473.606 399.7 473.321 399.558C473.04 399.415 472.718 399.344 472.357 399.344C471.992 399.344 471.667 399.415 471.382 399.558C471.097 399.7 470.872 399.897 470.706 400.149C470.544 400.398 470.464 400.684 470.468 401.009C470.464 401.321 470.54 401.596 470.696 401.835C470.852 402.07 471.071 402.254 471.352 402.386C471.638 402.519 471.972 402.585 472.357 402.585ZM472.357 397.947C472.668 397.947 472.943 397.884 473.182 397.758C473.424 397.632 473.615 397.456 473.754 397.231C473.893 397.005 473.964 396.745 473.968 396.45C473.964 396.159 473.895 395.903 473.759 395.685C473.623 395.463 473.434 395.292 473.192 395.173C472.95 395.05 472.672 394.989 472.357 394.989C472.035 394.989 471.752 395.05 471.507 395.173C471.265 395.292 471.076 395.463 470.94 395.685C470.807 395.903 470.743 396.159 470.746 396.45C470.743 396.745 470.809 397.005 470.945 397.231C471.084 397.453 471.275 397.629 471.517 397.758C471.762 397.884 472.042 397.947 472.357 397.947Z" fill="white"/>
<path d="M79.5177 354.345C78.699 354.345 77.9964 354.138 77.4097 353.723C76.8264 353.306 76.3773 352.704 76.0624 351.919C75.7509 351.13 75.5951 350.18 75.5951 349.07C75.5984 347.96 75.7559 347.015 76.0674 346.236C76.3823 345.454 76.8314 344.857 77.4147 344.446C78.0014 344.035 78.7023 343.83 79.5177 343.83C80.333 343.83 81.034 344.035 81.6207 344.446C82.2073 344.857 82.6564 345.454 82.968 346.236C83.2828 347.018 83.4403 347.963 83.4403 349.07C83.4403 350.184 83.2828 351.135 82.968 351.924C82.6564 352.709 82.2073 353.309 81.6207 353.723C81.0373 354.138 80.3363 354.345 79.5177 354.345ZM79.5177 352.789C80.1541 352.789 80.6562 352.475 81.0241 351.849C81.3953 351.219 81.5809 350.293 81.5809 349.07C81.5809 348.261 81.4964 347.582 81.3273 347.032C81.1583 346.481 80.9197 346.067 80.6114 345.789C80.3032 345.507 79.9386 345.366 79.5177 345.366C78.8846 345.366 78.3842 345.681 78.0163 346.311C77.6484 346.937 77.4628 347.857 77.4595 349.07C77.4561 349.882 77.5373 350.565 77.7031 351.118C77.8721 351.672 78.1107 352.089 78.419 352.371C78.7272 352.649 79.0934 352.789 79.5177 352.789ZM86.8284 352.759L86.7638 353.306C86.7174 353.723 86.6345 354.148 86.5152 354.578C86.3992 355.013 86.2766 355.412 86.1473 355.777C86.018 356.141 85.9136 356.428 85.8341 356.637H84.621C84.6674 356.434 84.7304 356.159 84.8099 355.811C84.8928 355.463 84.9724 355.072 85.0486 354.638C85.1248 354.204 85.1762 353.763 85.2027 353.316L85.2375 352.759H86.8284ZM91.708 343.969V354.151H89.8636V345.764H89.8039L87.4225 347.285V345.595L89.9531 343.969H91.708Z" fill="white"/>
<path d="M87.6485 383.533C86.8299 383.533 86.1272 383.326 85.5406 382.912C84.9573 382.494 84.5082 381.893 84.1933 381.107C83.8817 380.319 83.726 379.369 83.726 378.259C83.7293 377.148 83.8867 376.204 84.1983 375.425C84.5131 374.643 84.9622 374.046 85.5456 373.635C86.1322 373.224 86.8332 373.019 87.6485 373.019C88.4639 373.019 89.1649 373.224 89.7515 373.635C90.3382 374.046 90.7873 374.643 91.0988 375.425C91.4137 376.207 91.5711 377.152 91.5711 378.259C91.5711 379.372 91.4137 380.324 91.0988 381.112C90.7873 381.898 90.3382 382.498 89.7515 382.912C89.1682 383.326 88.4672 383.533 87.6485 383.533ZM87.6485 381.977C88.2849 381.977 88.787 381.664 89.1549 381.038C89.5262 380.408 89.7118 379.482 89.7118 378.259C89.7118 377.45 89.6272 376.77 89.4582 376.22C89.2892 375.67 89.0505 375.256 88.7423 374.977C88.4341 374.696 88.0695 374.555 87.6485 374.555C87.0155 374.555 86.515 374.87 86.1471 375.499C85.7792 376.126 85.5936 377.046 85.5903 378.259C85.587 379.071 85.6682 379.753 85.8339 380.307C86.003 380.86 86.2416 381.278 86.5498 381.56C86.8581 381.838 87.2243 381.977 87.6485 381.977Z" fill="white"/>
<path d="M236.795 432.663V430.455H248.401V432.663H243.905V445H241.291V432.663H236.795ZM253.772 445.213C252.678 445.213 251.733 444.986 250.938 444.531C250.147 444.072 249.539 443.423 249.113 442.585C248.686 441.742 248.473 440.75 248.473 439.609C248.473 438.487 248.686 437.502 249.113 436.655C249.543 435.803 250.145 435.14 250.917 434.666C251.688 434.188 252.595 433.949 253.637 433.949C254.309 433.949 254.944 434.058 255.54 434.276C256.141 434.489 256.672 434.82 257.131 435.27C257.595 435.72 257.96 436.293 258.225 436.989C258.49 437.68 258.623 438.504 258.623 439.46V440.249H249.681V438.516H256.158C256.153 438.023 256.047 437.585 255.838 437.202C255.63 436.813 255.339 436.508 254.965 436.286C254.596 436.063 254.165 435.952 253.672 435.952C253.147 435.952 252.685 436.08 252.287 436.335C251.89 436.586 251.579 436.918 251.357 437.33C251.139 437.737 251.028 438.184 251.023 438.672V440.185C251.023 440.819 251.139 441.364 251.371 441.818C251.603 442.268 251.927 442.614 252.344 442.855C252.761 443.092 253.248 443.21 253.807 443.21C254.181 443.21 254.52 443.158 254.823 443.054C255.126 442.945 255.389 442.786 255.611 442.578C255.834 442.37 256.002 442.112 256.115 441.804L258.516 442.074C258.364 442.708 258.076 443.262 257.65 443.736C257.228 444.205 256.688 444.569 256.03 444.83C255.372 445.085 254.619 445.213 253.772 445.213ZM260.798 445V434.091H263.255V435.945H263.383C263.61 435.32 263.987 434.832 264.512 434.482C265.038 434.126 265.665 433.949 266.394 433.949C267.133 433.949 267.755 434.129 268.262 434.489C268.773 434.844 269.133 435.329 269.342 435.945H269.455C269.697 435.339 270.104 434.856 270.677 434.496C271.254 434.131 271.939 433.949 272.729 433.949C273.733 433.949 274.552 434.266 275.187 434.901C275.821 435.535 276.138 436.461 276.138 437.678V445H273.56V438.075C273.56 437.398 273.38 436.903 273.021 436.591C272.661 436.274 272.22 436.115 271.7 436.115C271.079 436.115 270.594 436.309 270.244 436.697C269.898 437.081 269.725 437.58 269.725 438.196V445H267.204V437.969C267.204 437.405 267.033 436.955 266.692 436.619C266.356 436.283 265.916 436.115 265.371 436.115C265.002 436.115 264.666 436.21 264.363 436.399C264.06 436.584 263.818 436.847 263.638 437.188C263.459 437.524 263.369 437.917 263.369 438.366V445H260.798ZM278.747 449.091V434.091H281.275V435.895H281.424C281.557 435.63 281.744 435.348 281.985 435.05C282.227 434.747 282.554 434.489 282.966 434.276C283.377 434.058 283.903 433.949 284.542 433.949C285.385 433.949 286.145 434.164 286.822 434.595C287.504 435.021 288.044 435.653 288.441 436.491C288.844 437.325 289.045 438.348 289.045 439.56C289.045 440.758 288.849 441.776 288.456 442.614C288.063 443.452 287.528 444.091 286.85 444.531C286.173 444.972 285.406 445.192 284.549 445.192C283.924 445.192 283.406 445.088 282.994 444.879C282.582 444.671 282.251 444.42 282 444.126C281.753 443.828 281.562 443.546 281.424 443.281H281.318V449.091H278.747ZM281.268 439.545C281.268 440.251 281.368 440.869 281.566 441.399C281.77 441.929 282.061 442.344 282.44 442.642C282.824 442.936 283.288 443.082 283.832 443.082C284.4 443.082 284.876 442.931 285.26 442.628C285.643 442.32 285.932 441.901 286.126 441.371C286.325 440.836 286.424 440.227 286.424 439.545C286.424 438.868 286.327 438.267 286.133 437.741C285.939 437.216 285.65 436.804 285.267 436.506C284.883 436.207 284.405 436.058 283.832 436.058C283.283 436.058 282.816 436.203 282.433 436.491C282.049 436.78 281.758 437.185 281.559 437.706C281.365 438.227 281.268 438.84 281.268 439.545ZM296.005 445.213C294.94 445.213 294.017 444.979 293.235 444.51C292.454 444.041 291.848 443.385 291.417 442.543C290.991 441.7 290.778 440.715 290.778 439.588C290.778 438.461 290.991 437.474 291.417 436.626C291.848 435.779 292.454 435.121 293.235 434.652C294.017 434.183 294.94 433.949 296.005 433.949C297.071 433.949 297.994 434.183 298.775 434.652C299.556 435.121 300.16 435.779 300.586 436.626C301.017 437.474 301.233 438.461 301.233 439.588C301.233 440.715 301.017 441.7 300.586 442.543C300.16 443.385 299.556 444.041 298.775 444.51C297.994 444.979 297.071 445.213 296.005 445.213ZM296.02 443.153C296.597 443.153 297.08 442.995 297.468 442.678C297.857 442.356 298.145 441.925 298.335 441.385C298.529 440.845 298.626 440.244 298.626 439.581C298.626 438.913 298.529 438.31 298.335 437.77C298.145 437.225 297.857 436.792 297.468 436.47C297.08 436.148 296.597 435.987 296.02 435.987C295.428 435.987 294.935 436.148 294.542 436.47C294.154 436.792 293.863 437.225 293.669 437.77C293.479 438.31 293.385 438.913 293.385 439.581C293.385 440.244 293.479 440.845 293.669 441.385C293.863 441.925 294.154 442.356 294.542 442.678C294.935 442.995 295.428 443.153 296.02 443.153Z" fill="white"/>
</svg>
