<svg width="505" height="504" viewBox="0 0 505 504" fill="none" xmlns="http://www.w3.org/2000/svg">
<rect x="1" y="1" width="503" height="502" rx="37" fill="#131627" stroke="black" stroke-width="2"/>
<path d="M162.179 41.0994C162.061 40.7159 161.897 40.3726 161.689 40.0696C161.485 39.7618 161.239 39.4991 160.95 39.2812C160.666 39.0634 160.339 38.9001 159.97 38.7912C159.601 38.6776 159.198 38.6207 158.763 38.6207C157.982 38.6207 157.286 38.8172 156.675 39.2102C156.064 39.6032 155.583 40.1809 155.233 40.9432C154.887 41.7008 154.714 42.6241 154.714 43.7131C154.714 44.8116 154.887 45.742 155.233 46.5043C155.579 47.2666 156.059 47.8466 156.675 48.2443C157.29 48.6373 158.005 48.8338 158.82 48.8338C159.558 48.8338 160.197 48.6918 160.737 48.4077C161.282 48.1236 161.701 47.7211 161.994 47.2003C162.288 46.6747 162.435 46.0592 162.435 45.3537L163.031 45.446H159.082V43.3864H164.984V45.1335C164.984 46.3788 164.719 47.456 164.189 48.3651C163.659 49.2741 162.929 49.9749 162.001 50.4673C161.073 50.955 160.008 51.1989 158.805 51.1989C157.465 51.1989 156.289 50.8982 155.276 50.2969C154.267 49.6908 153.479 48.8314 152.911 47.7188C152.347 46.6013 152.065 45.2756 152.065 43.7415C152.065 42.5672 152.231 41.5185 152.562 40.5952C152.899 39.6719 153.367 38.8883 153.969 38.2443C154.57 37.5956 155.276 37.1032 156.085 36.767C156.895 36.4261 157.776 36.2557 158.727 36.2557C159.532 36.2557 160.283 36.3741 160.979 36.6108C161.675 36.8428 162.293 37.1742 162.832 37.6051C163.377 38.036 163.824 38.5473 164.175 39.1392C164.525 39.7311 164.755 40.3845 164.864 41.0994H162.179ZM167.419 51V40.0909H169.912V41.9091H170.025C170.224 41.2794 170.565 40.794 171.048 40.4531C171.536 40.1075 172.092 39.9347 172.717 39.9347C172.859 39.9347 173.018 39.9418 173.193 39.956C173.373 39.9654 173.522 39.982 173.64 40.0057V42.3707C173.531 42.3329 173.359 42.2997 173.122 42.2713C172.89 42.2382 172.665 42.2216 172.447 42.2216C171.978 42.2216 171.557 42.3234 171.183 42.527C170.814 42.7259 170.522 43.0028 170.309 43.358C170.096 43.7131 169.99 44.1226 169.99 44.5866V51H167.419ZM178.292 51.2202C177.601 51.2202 176.978 51.0971 176.424 50.8509C175.875 50.5999 175.44 50.2306 175.118 49.7429C174.8 49.2552 174.642 48.6539 174.642 47.9389C174.642 47.3234 174.755 46.8144 174.983 46.4119C175.21 46.0095 175.52 45.6875 175.913 45.446C176.306 45.2045 176.749 45.0223 177.241 44.8991C177.738 44.7713 178.252 44.679 178.782 44.6222C179.422 44.5559 179.94 44.4967 180.338 44.4446C180.735 44.3878 181.024 44.3026 181.204 44.1889C181.389 44.0705 181.481 43.8883 181.481 43.642V43.5994C181.481 43.0644 181.323 42.6501 181.005 42.3565C180.688 42.063 180.231 41.9162 179.635 41.9162C179.005 41.9162 178.505 42.0535 178.136 42.3281C177.771 42.6027 177.525 42.9271 177.397 43.3011L174.997 42.9602C175.186 42.2973 175.499 41.7434 175.934 41.2983C176.37 40.8485 176.903 40.5123 177.532 40.2898C178.162 40.0625 178.858 39.9489 179.62 39.9489C180.146 39.9489 180.669 40.0104 181.19 40.1335C181.711 40.2566 182.187 40.4602 182.618 40.7443C183.048 41.0237 183.394 41.4048 183.654 41.8878C183.92 42.3707 184.052 42.9744 184.052 43.6989V51H181.581V49.5014H181.495C181.339 49.8045 181.119 50.0885 180.835 50.3537C180.556 50.6141 180.203 50.8248 179.777 50.9858C179.355 51.142 178.86 51.2202 178.292 51.2202ZM178.96 49.331C179.476 49.331 179.923 49.2292 180.302 49.0256C180.681 48.8172 180.972 48.5426 181.176 48.2017C181.384 47.8608 181.488 47.4891 181.488 47.0866V45.8011C181.408 45.8674 181.27 45.929 181.076 45.9858C180.887 46.0426 180.674 46.0923 180.437 46.1349C180.2 46.1776 179.966 46.2154 179.734 46.2486C179.502 46.2817 179.301 46.3101 179.13 46.3338C178.747 46.3859 178.404 46.4711 178.1 46.5895C177.797 46.7079 177.558 46.8736 177.383 47.0866C177.208 47.295 177.12 47.5649 177.12 47.8963C177.12 48.3698 177.293 48.7273 177.639 48.9688C177.984 49.2102 178.425 49.331 178.96 49.331ZM178.747 38.6562L180.338 35.4105H182.852L180.672 38.6562H178.747ZM192.163 40.0909V42.0795H185.714V40.0909H192.163ZM187.326 51V39.0611C187.326 38.3272 187.478 37.7164 187.781 37.2287C188.089 36.741 188.501 36.3764 189.017 36.1349C189.533 35.8935 190.106 35.7727 190.735 35.7727C191.181 35.7727 191.576 35.8082 191.922 35.8793C192.267 35.9503 192.523 36.0142 192.689 36.071L192.177 38.0597C192.068 38.0265 191.931 37.9934 191.765 37.9602C191.6 37.9223 191.415 37.9034 191.211 37.9034C190.733 37.9034 190.395 38.0194 190.196 38.2514C190.002 38.4787 189.904 38.8054 189.904 39.2315V51H187.326ZM194.176 51V40.0909H196.748V51H194.176ZM195.469 38.5426C195.062 38.5426 194.712 38.4077 194.418 38.1378C194.124 37.8632 193.978 37.5341 193.978 37.1506C193.978 36.7623 194.124 36.4332 194.418 36.1634C194.712 35.8887 195.062 35.7514 195.469 35.7514C195.881 35.7514 196.231 35.8887 196.52 36.1634C196.814 36.4332 196.961 36.7623 196.961 37.1506C196.961 37.5341 196.814 37.8632 196.52 38.1378C196.231 38.4077 195.881 38.5426 195.469 38.5426ZM204.15 51.2131C203.061 51.2131 202.126 50.974 201.344 50.4957C200.568 50.0175 199.969 49.357 199.548 48.5142C199.131 47.6667 198.923 46.6913 198.923 45.5881C198.923 44.4801 199.136 43.5024 199.562 42.6548C199.988 41.8026 200.589 41.1397 201.366 40.6662C202.147 40.188 203.07 39.9489 204.136 39.9489C205.021 39.9489 205.805 40.1122 206.487 40.4389C207.173 40.7609 207.72 41.2178 208.127 41.8097C208.534 42.3968 208.766 43.0833 208.823 43.8693H206.366C206.266 43.3437 206.03 42.9058 205.656 42.5554C205.286 42.2003 204.791 42.0227 204.171 42.0227C203.646 42.0227 203.184 42.1648 202.786 42.4489C202.388 42.7282 202.078 43.1307 201.856 43.6562C201.638 44.1818 201.529 44.8116 201.529 45.5455C201.529 46.2888 201.638 46.928 201.856 47.4631C202.074 47.9934 202.379 48.4029 202.772 48.6918C203.17 48.9759 203.636 49.1179 204.171 49.1179C204.55 49.1179 204.888 49.0469 205.187 48.9048C205.49 48.758 205.743 48.5473 205.947 48.2727C206.15 47.9981 206.29 47.6643 206.366 47.2713H208.823C208.762 48.0431 208.534 48.7273 208.141 49.3239C207.748 49.9157 207.213 50.3797 206.536 50.7159C205.859 51.0473 205.064 51.2131 204.15 51.2131ZM215.693 51.2131C214.627 51.2131 213.704 50.9787 212.923 50.5099C212.142 50.0412 211.536 49.3854 211.105 48.5426C210.679 47.6998 210.466 46.715 210.466 45.5881C210.466 44.4612 210.679 43.474 211.105 42.6264C211.536 41.7789 212.142 41.1207 212.923 40.652C213.704 40.1832 214.627 39.9489 215.693 39.9489C216.758 39.9489 217.681 40.1832 218.463 40.652C219.244 41.1207 219.848 41.7789 220.274 42.6264C220.705 43.474 220.92 44.4612 220.92 45.5881C220.92 46.715 220.705 47.6998 220.274 48.5426C219.848 49.3854 219.244 50.0412 218.463 50.5099C217.681 50.9787 216.758 51.2131 215.693 51.2131ZM215.707 49.1534C216.285 49.1534 216.768 48.9948 217.156 48.6776C217.544 48.3556 217.833 47.9247 218.022 47.3849C218.217 46.8452 218.314 46.2438 218.314 45.581C218.314 44.9134 218.217 44.3097 218.022 43.7699C217.833 43.2254 217.544 42.7921 217.156 42.4702C216.768 42.1482 216.285 41.9872 215.707 41.9872C215.115 41.9872 214.623 42.1482 214.23 42.4702C213.842 42.7921 213.55 43.2254 213.356 43.7699C213.167 44.3097 213.072 44.9134 213.072 45.581C213.072 46.2438 213.167 46.8452 213.356 47.3849C213.55 47.9247 213.842 48.3556 214.23 48.6776C214.623 48.9948 215.115 49.1534 215.707 49.1534ZM232.112 51.1918C231.254 51.1918 230.487 50.9716 229.81 50.5312C229.133 50.0909 228.598 49.4517 228.205 48.6136C227.812 47.7756 227.616 46.7576 227.616 45.5597C227.616 44.3475 227.815 43.3248 228.212 42.4915C228.615 41.6534 229.157 41.0213 229.839 40.5952C230.521 40.1643 231.281 39.9489 232.119 39.9489C232.758 39.9489 233.283 40.0578 233.695 40.2756C234.107 40.4886 234.434 40.7467 234.675 41.0497C234.917 41.348 235.104 41.6297 235.237 41.8949H235.343V36.4545H237.921V51H235.393V49.2812H235.237C235.104 49.5464 234.912 49.8281 234.661 50.1264C234.41 50.42 234.079 50.6709 233.667 50.8793C233.255 51.0876 232.737 51.1918 232.112 51.1918ZM232.829 49.0824C233.373 49.0824 233.837 48.9356 234.221 48.642C234.604 48.3437 234.896 47.9295 235.094 47.3991C235.293 46.8688 235.393 46.2509 235.393 45.5455C235.393 44.84 235.293 44.2268 235.094 43.706C234.9 43.1851 234.612 42.7803 234.228 42.4915C233.849 42.2027 233.383 42.0582 232.829 42.0582C232.256 42.0582 231.778 42.2074 231.394 42.5057C231.011 42.804 230.722 43.2159 230.528 43.7415C230.334 44.267 230.237 44.8684 230.237 45.5455C230.237 46.2273 230.334 46.8357 230.528 47.3707C230.727 47.901 231.018 48.3201 231.401 48.6278C231.79 48.9309 232.265 49.0824 232.829 49.0824ZM245.49 51.2131C244.397 51.2131 243.452 50.9858 242.657 50.5312C241.866 50.072 241.257 49.4233 240.831 48.5852C240.405 47.7424 240.192 46.7505 240.192 45.6094C240.192 44.4872 240.405 43.5024 240.831 42.6548C241.262 41.8026 241.864 41.1397 242.635 40.6662C243.407 40.188 244.314 39.9489 245.355 39.9489C246.028 39.9489 246.662 40.0578 247.259 40.2756C247.86 40.4886 248.391 40.8201 248.85 41.2699C249.314 41.7197 249.678 42.2926 249.944 42.9886C250.209 43.6799 250.341 44.5038 250.341 45.4602V46.2486H241.4V44.5156H247.877C247.872 44.0232 247.766 43.5852 247.557 43.2017C247.349 42.8134 247.058 42.508 246.684 42.2855C246.314 42.063 245.883 41.9517 245.391 41.9517C244.865 41.9517 244.404 42.0795 244.006 42.3352C243.608 42.5862 243.298 42.9176 243.076 43.3295C242.858 43.7367 242.747 44.1842 242.742 44.6719V46.1847C242.742 46.8191 242.858 47.3636 243.09 47.8182C243.322 48.268 243.646 48.6136 244.063 48.8551C244.48 49.0919 244.967 49.2102 245.526 49.2102C245.9 49.2102 246.239 49.1581 246.542 49.054C246.845 48.9451 247.107 48.7865 247.33 48.5781C247.552 48.3698 247.721 48.1117 247.834 47.804L250.235 48.0739C250.083 48.7083 249.794 49.2623 249.368 49.7358C248.947 50.2045 248.407 50.5691 247.749 50.8295C247.091 51.0852 246.338 51.2131 245.49 51.2131ZM269.544 36.4545V51H267.2L260.347 41.0923H260.226V51H257.591V36.4545H259.949L266.795 46.3693H266.923V36.4545H269.544ZM272.301 51V40.0909H274.873V51H272.301ZM272.607 38.6562L274.198 35.4105H276.712L274.532 38.6562H272.607ZM287.261 40.0909L283.376 51H280.535L276.65 40.0909H279.391L281.898 48.1946H282.012L284.526 40.0909H287.261ZM293.498 51.2131C292.404 51.2131 291.46 50.9858 290.664 50.5312C289.874 50.072 289.265 49.4233 288.839 48.5852C288.413 47.7424 288.2 46.7505 288.2 45.6094C288.2 44.4872 288.413 43.5024 288.839 42.6548C289.27 41.8026 289.871 41.1397 290.643 40.6662C291.415 40.188 292.322 39.9489 293.363 39.9489C294.036 39.9489 294.67 40.0578 295.267 40.2756C295.868 40.4886 296.398 40.8201 296.858 41.2699C297.322 41.7197 297.686 42.2926 297.951 42.9886C298.217 43.6799 298.349 44.5038 298.349 45.4602V46.2486H289.407V44.5156H295.885C295.88 44.0232 295.773 43.5852 295.565 43.2017C295.357 42.8134 295.065 42.508 294.691 42.2855C294.322 42.063 293.891 41.9517 293.399 41.9517C292.873 41.9517 292.412 42.0795 292.014 42.3352C291.616 42.5862 291.306 42.9176 291.083 43.3295C290.866 43.7367 290.754 44.1842 290.75 44.6719V46.1847C290.75 46.8191 290.866 47.3636 291.098 47.8182C291.33 48.268 291.654 48.6136 292.071 48.8551C292.487 49.0919 292.975 49.2102 293.534 49.2102C293.908 49.2102 294.246 49.1581 294.549 49.054C294.852 48.9451 295.115 48.7865 295.338 48.5781C295.56 48.3698 295.728 48.1117 295.842 47.804L298.243 48.0739C298.091 48.7083 297.802 49.2623 297.376 49.7358C296.955 50.2045 296.415 50.5691 295.757 50.8295C295.099 51.0852 294.346 51.2131 293.498 51.2131ZM303.095 36.4545V51H300.524V36.4545H303.095ZM314.748 51.1918C313.891 51.1918 313.124 50.9716 312.447 50.5312C311.77 50.0909 311.235 49.4517 310.842 48.6136C310.449 47.7756 310.252 46.7576 310.252 45.5597C310.252 44.3475 310.451 43.3248 310.849 42.4915C311.252 41.6534 311.794 41.0213 312.475 40.5952C313.157 40.1643 313.917 39.9489 314.755 39.9489C315.395 39.9489 315.92 40.0578 316.332 40.2756C316.744 40.4886 317.071 40.7467 317.312 41.0497C317.554 41.348 317.741 41.6297 317.873 41.8949H317.98V36.4545H320.558V51H318.029V49.2812H317.873C317.741 49.5464 317.549 49.8281 317.298 50.1264C317.047 50.42 316.716 50.6709 316.304 50.8793C315.892 51.0876 315.373 51.1918 314.748 51.1918ZM315.466 49.0824C316.01 49.0824 316.474 48.9356 316.858 48.642C317.241 48.3437 317.532 47.9295 317.731 47.3991C317.93 46.8688 318.029 46.2509 318.029 45.5455C318.029 44.84 317.93 44.2268 317.731 43.706C317.537 43.1851 317.248 42.7803 316.865 42.4915C316.486 42.2027 316.02 42.0582 315.466 42.0582C314.893 42.0582 314.414 42.2074 314.031 42.5057C313.647 42.804 313.359 43.2159 313.164 43.7415C312.97 44.267 312.873 44.8684 312.873 45.5455C312.873 46.2273 312.97 46.8357 313.164 47.3707C313.363 47.901 313.654 48.3201 314.038 48.6278C314.426 48.9309 314.902 49.0824 315.466 49.0824ZM328.127 51.2131C327.033 51.2131 326.089 50.9858 325.293 50.5312C324.503 50.072 323.894 49.4233 323.468 48.5852C323.042 47.7424 322.829 46.7505 322.829 45.6094C322.829 44.4872 323.042 43.5024 323.468 42.6548C323.899 41.8026 324.5 41.1397 325.272 40.6662C326.044 40.188 326.951 39.9489 327.992 39.9489C328.665 39.9489 329.299 40.0578 329.896 40.2756C330.497 40.4886 331.027 40.8201 331.487 41.2699C331.951 41.7197 332.315 42.2926 332.58 42.9886C332.845 43.6799 332.978 44.5038 332.978 45.4602V46.2486H324.036V44.5156H330.513C330.509 44.0232 330.402 43.5852 330.194 43.2017C329.986 42.8134 329.694 42.508 329.32 42.2855C328.951 42.063 328.52 41.9517 328.028 41.9517C327.502 41.9517 327.04 42.0795 326.643 42.3352C326.245 42.5862 325.935 42.9176 325.712 43.3295C325.495 43.7367 325.383 44.1842 325.379 44.6719V46.1847C325.379 46.8191 325.495 47.3636 325.727 47.8182C325.959 48.268 326.283 48.6136 326.7 48.8551C327.116 49.0919 327.604 49.2102 328.163 49.2102C328.537 49.2102 328.875 49.1581 329.178 49.054C329.481 48.9451 329.744 48.7865 329.967 48.5781C330.189 48.3698 330.357 48.1117 330.471 47.804L332.871 48.0739C332.72 48.7083 332.431 49.2623 332.005 49.7358C331.584 50.2045 331.044 50.5691 330.386 50.8295C329.728 51.0852 328.975 51.2131 328.127 51.2131ZM342.096 51H339.283L344.404 36.4545H347.657L352.784 51H349.972L346.087 39.4375H345.973L342.096 51ZM342.188 45.2969H349.858V47.4134H342.188V45.2969ZM345.043 35.0199L346.634 31.7741H349.148L346.968 35.0199H345.043ZM358.999 55.3182C358.076 55.3182 357.283 55.1927 356.62 54.9418C355.957 54.6955 355.424 54.3641 355.022 53.9474C354.619 53.5308 354.34 53.0691 354.184 52.5625L356.499 52.0014C356.603 52.2145 356.755 52.4252 356.953 52.6335C357.152 52.8466 357.42 53.0218 357.756 53.1591C358.097 53.3011 358.525 53.3722 359.042 53.3722C359.771 53.3722 360.374 53.1946 360.853 52.8395C361.331 52.4891 361.57 51.9115 361.57 51.1065V49.0398H361.442C361.31 49.3049 361.115 49.5772 360.86 49.8565C360.609 50.1359 360.275 50.3703 359.858 50.5597C359.446 50.7491 358.928 50.8438 358.303 50.8438C357.465 50.8438 356.705 50.6473 356.023 50.2543C355.346 49.8565 354.806 49.2647 354.404 48.4787C354.006 47.688 353.807 46.6984 353.807 45.5099C353.807 44.312 354.006 43.3011 354.404 42.4773C354.806 41.6487 355.348 41.0213 356.03 40.5952C356.712 40.1643 357.472 39.9489 358.31 39.9489C358.949 39.9489 359.475 40.0578 359.887 40.2756C360.303 40.4886 360.635 40.7467 360.881 41.0497C361.127 41.348 361.314 41.6297 361.442 41.8949H361.584V40.0909H364.12V51.1776C364.12 52.1103 363.897 52.8821 363.452 53.4929C363.007 54.1037 362.399 54.5606 361.627 54.8636C360.855 55.1667 359.979 55.3182 358.999 55.3182ZM359.02 48.8267C359.565 48.8267 360.029 48.6941 360.412 48.429C360.796 48.1638 361.087 47.7827 361.286 47.2855C361.485 46.7884 361.584 46.1918 361.584 45.4957C361.584 44.8092 361.485 44.2079 361.286 43.6918C361.092 43.1757 360.803 42.7756 360.419 42.4915C360.041 42.2027 359.574 42.0582 359.02 42.0582C358.447 42.0582 357.969 42.2074 357.586 42.5057C357.202 42.804 356.913 43.2135 356.719 43.7344C356.525 44.2505 356.428 44.8376 356.428 45.4957C356.428 46.1634 356.525 46.7481 356.719 47.25C356.918 47.7472 357.209 48.1354 357.593 48.4148C357.981 48.6894 358.457 48.8267 359.02 48.8267ZM373.708 46.4119V40.0909H376.279V51H373.786V49.0611H373.672C373.426 49.6719 373.021 50.1714 372.458 50.5597C371.899 50.9479 371.21 51.142 370.391 51.142C369.676 51.142 369.044 50.9834 368.495 50.6662C367.95 50.3442 367.524 49.8778 367.216 49.267C366.908 48.6515 366.755 47.9081 366.755 47.0369V40.0909H369.326V46.6392C369.326 47.3305 369.515 47.8797 369.894 48.2869C370.273 48.6941 370.77 48.8977 371.385 48.8977C371.764 48.8977 372.131 48.8054 372.486 48.6207C372.841 48.4361 373.132 48.1615 373.36 47.7969C373.592 47.4276 373.708 46.9659 373.708 46.4119ZM382.062 51.2202C381.371 51.2202 380.748 51.0971 380.194 50.8509C379.645 50.5999 379.209 50.2306 378.887 49.7429C378.57 49.2552 378.411 48.6539 378.411 47.9389C378.411 47.3234 378.525 46.8144 378.752 46.4119C378.979 46.0095 379.29 45.6875 379.683 45.446C380.076 45.2045 380.518 45.0223 381.011 44.8991C381.508 44.7713 382.022 44.679 382.552 44.6222C383.191 44.5559 383.71 44.4967 384.107 44.4446C384.505 44.3878 384.794 44.3026 384.974 44.1889C385.158 44.0705 385.251 43.8883 385.251 43.642V43.5994C385.251 43.0644 385.092 42.6501 384.775 42.3565C384.458 42.063 384.001 41.9162 383.404 41.9162C382.774 41.9162 382.275 42.0535 381.906 42.3281C381.541 42.6027 381.295 42.9271 381.167 43.3011L378.766 42.9602C378.956 42.2973 379.268 41.7434 379.704 41.2983C380.139 40.8485 380.672 40.5123 381.302 40.2898C381.932 40.0625 382.628 39.9489 383.39 39.9489C383.915 39.9489 384.439 40.0104 384.96 40.1335C385.48 40.2566 385.956 40.4602 386.387 40.7443C386.818 41.0237 387.164 41.4048 387.424 41.8878C387.689 42.3707 387.822 42.9744 387.822 43.6989V51H385.35V49.5014H385.265C385.109 49.8045 384.888 50.0885 384.604 50.3537C384.325 50.6141 383.972 50.8248 383.546 50.9858C383.125 51.142 382.63 51.2202 382.062 51.2202ZM382.729 49.331C383.246 49.331 383.693 49.2292 384.072 49.0256C384.451 48.8172 384.742 48.5426 384.945 48.2017C385.154 47.8608 385.258 47.4891 385.258 47.0866V45.8011C385.177 45.8674 385.04 45.929 384.846 45.9858C384.656 46.0426 384.443 46.0923 384.207 46.1349C383.97 46.1776 383.736 46.2154 383.504 46.2486C383.272 46.2817 383.07 46.3101 382.9 46.3338C382.516 46.3859 382.173 46.4711 381.87 46.5895C381.567 46.7079 381.328 46.8736 381.153 47.0866C380.978 47.295 380.89 47.5649 380.89 47.8963C380.89 48.3698 381.063 48.7273 381.408 48.9688C381.754 49.2102 382.194 49.331 382.729 49.331Z" fill="white"/>
<path d="M152.71 70.3636V82H150.835L145.352 74.0739H145.256V82H143.148V70.3636H145.034L150.511 78.2955H150.614V70.3636H152.71ZM154.916 82V73.2727H156.973V82H154.916ZM155.161 72.125L156.433 69.5284H158.445L156.7 72.125H155.161ZM166.884 73.2727L163.776 82H161.503L158.395 73.2727H160.588L162.594 79.7557H162.685L164.696 73.2727H166.884ZM171.874 82.1705C170.999 82.1705 170.243 81.9886 169.607 81.625C168.974 81.2576 168.487 80.7386 168.146 80.0682C167.805 79.3939 167.635 78.6004 167.635 77.6875C167.635 76.7898 167.805 76.0019 168.146 75.3239C168.491 74.642 168.972 74.1117 169.589 73.733C170.207 73.3504 170.932 73.1591 171.766 73.1591C172.304 73.1591 172.811 73.2462 173.288 73.4205C173.769 73.5909 174.194 73.8561 174.561 74.2159C174.932 74.5758 175.224 75.0341 175.436 75.5909C175.648 76.1439 175.754 76.803 175.754 77.5682V78.1989H168.601V76.8125H173.783C173.779 76.4186 173.694 76.0682 173.527 75.7614C173.36 75.4508 173.127 75.2064 172.828 75.0284C172.533 74.8504 172.188 74.7614 171.794 74.7614C171.374 74.7614 171.004 74.8636 170.686 75.0682C170.368 75.2689 170.12 75.5341 169.942 75.8636C169.768 76.1894 169.679 76.5473 169.675 76.9375V78.1477C169.675 78.6553 169.768 79.0909 169.953 79.4545C170.139 79.8144 170.398 80.0909 170.732 80.2841C171.065 80.4735 171.455 80.5682 171.902 80.5682C172.201 80.5682 172.472 80.5265 172.714 80.4432C172.957 80.3561 173.167 80.2292 173.345 80.0625C173.523 79.8958 173.658 79.6894 173.749 79.4432L175.669 79.6591C175.548 80.1667 175.317 80.6098 174.976 80.9886C174.639 81.3636 174.207 81.6553 173.68 81.8636C173.154 82.0682 172.552 82.1705 171.874 82.1705ZM179.551 70.3636V82H177.494V70.3636H179.551ZM188.874 82.1534C188.188 82.1534 187.574 81.9773 187.033 81.625C186.491 81.2727 186.063 80.7614 185.749 80.0909C185.434 79.4205 185.277 78.6061 185.277 77.6477C185.277 76.678 185.436 75.8598 185.754 75.1932C186.076 74.5227 186.51 74.017 187.055 73.6761C187.601 73.3314 188.209 73.1591 188.879 73.1591C189.391 73.1591 189.811 73.2462 190.141 73.4205C190.47 73.5909 190.732 73.7973 190.925 74.0398C191.118 74.2784 191.268 74.5038 191.374 74.7159H191.459V70.3636H193.521V82H191.499V80.625H191.374C191.268 80.8371 191.114 81.0625 190.913 81.3011C190.713 81.536 190.447 81.7367 190.118 81.9034C189.788 82.0701 189.374 82.1534 188.874 82.1534ZM189.447 80.4659C189.883 80.4659 190.254 80.3485 190.561 80.1136C190.868 79.875 191.101 79.5436 191.26 79.1193C191.419 78.6951 191.499 78.2008 191.499 77.6364C191.499 77.072 191.419 76.5814 191.26 76.1648C191.105 75.7481 190.874 75.4242 190.567 75.1932C190.264 74.9621 189.891 74.8466 189.447 74.8466C188.989 74.8466 188.607 74.9659 188.3 75.2045C187.993 75.4432 187.762 75.7727 187.607 76.1932C187.451 76.6136 187.374 77.0947 187.374 77.6364C187.374 78.1818 187.451 78.6686 187.607 79.0966C187.766 79.5208 187.999 79.8561 188.305 80.1023C188.616 80.3447 188.997 80.4659 189.447 80.4659ZM199.577 82.1705C198.702 82.1705 197.946 81.9886 197.31 81.625C196.677 81.2576 196.19 80.7386 195.849 80.0682C195.509 79.3939 195.338 78.6004 195.338 77.6875C195.338 76.7898 195.509 76.0019 195.849 75.3239C196.194 74.642 196.675 74.1117 197.293 73.733C197.91 73.3504 198.635 73.1591 199.469 73.1591C200.007 73.1591 200.514 73.2462 200.991 73.4205C201.473 73.5909 201.897 73.8561 202.264 74.2159C202.635 74.5758 202.927 75.0341 203.139 75.5909C203.351 76.1439 203.457 76.803 203.457 77.5682V78.1989H196.304V76.8125H201.486C201.482 76.4186 201.397 76.0682 201.23 75.7614C201.063 75.4508 200.83 75.2064 200.531 75.0284C200.236 74.8504 199.891 74.7614 199.497 74.7614C199.077 74.7614 198.707 74.8636 198.389 75.0682C198.071 75.2689 197.823 75.5341 197.645 75.8636C197.471 76.1894 197.382 76.5473 197.378 76.9375V78.1477C197.378 78.6553 197.471 79.0909 197.656 79.4545C197.842 79.8144 198.101 80.0909 198.435 80.2841C198.768 80.4735 199.158 80.5682 199.605 80.5682C199.904 80.5682 200.175 80.5265 200.418 80.4432C200.66 80.3561 200.87 80.2292 201.048 80.0625C201.226 79.8958 201.361 79.6894 201.452 79.4432L203.372 79.6591C203.251 80.1667 203.02 80.6098 202.679 80.9886C202.342 81.3636 201.91 81.6553 201.384 81.8636C200.857 82.0682 200.255 82.1705 199.577 82.1705ZM215.646 82.1761C215.093 82.1761 214.595 82.0777 214.152 81.8807C213.713 81.6799 213.364 81.3845 213.107 80.9943C212.853 80.6042 212.726 80.1231 212.726 79.5511C212.726 79.0587 212.817 78.6515 212.999 78.3295C213.18 78.0076 213.429 77.75 213.743 77.5568C214.057 77.3636 214.411 77.2178 214.805 77.1193C215.203 77.017 215.614 76.9432 216.038 76.8977C216.55 76.8447 216.964 76.7973 217.283 76.7557C217.601 76.7102 217.832 76.642 217.976 76.5511C218.124 76.4564 218.197 76.3106 218.197 76.1136V76.0795C218.197 75.6515 218.071 75.3201 217.817 75.0852C217.563 74.8504 217.197 74.733 216.72 74.733C216.216 74.733 215.817 74.8428 215.521 75.0625C215.23 75.2822 215.033 75.5417 214.93 75.8409L213.01 75.5682C213.161 75.0379 213.411 74.5947 213.76 74.2386C214.108 73.8788 214.535 73.6098 215.038 73.4318C215.542 73.25 216.099 73.1591 216.709 73.1591C217.129 73.1591 217.548 73.2083 217.964 73.3068C218.381 73.4053 218.762 73.5682 219.107 73.7955C219.451 74.0189 219.728 74.3239 219.936 74.7102C220.148 75.0966 220.254 75.5795 220.254 76.1591V82H218.277V80.8011H218.209C218.084 81.0436 217.908 81.2708 217.68 81.483C217.457 81.6913 217.175 81.8598 216.834 81.9886C216.497 82.1136 216.101 82.1761 215.646 82.1761ZM216.18 80.6648C216.593 80.6648 216.951 80.5833 217.254 80.4205C217.557 80.2538 217.79 80.0341 217.953 79.7614C218.12 79.4886 218.203 79.1913 218.203 78.8693V77.8409C218.139 77.8939 218.029 77.9432 217.874 77.9886C217.722 78.0341 217.552 78.0739 217.362 78.108C217.173 78.142 216.985 78.1723 216.8 78.1989C216.614 78.2254 216.453 78.2481 216.317 78.267C216.01 78.3087 215.735 78.3769 215.493 78.4716C215.25 78.5663 215.059 78.6989 214.919 78.8693C214.779 79.036 214.709 79.2519 214.709 79.517C214.709 79.8958 214.847 80.1818 215.124 80.375C215.4 80.5682 215.752 80.6648 216.18 80.6648ZM216.01 72.125L217.283 69.5284H219.294L217.55 72.125H216.01ZM226.118 85.4545C225.379 85.4545 224.745 85.3542 224.214 85.1534C223.684 84.9564 223.258 84.6913 222.936 84.358C222.614 84.0246 222.391 83.6553 222.266 83.25L224.118 82.8011C224.201 82.9716 224.322 83.1402 224.482 83.3068C224.641 83.4773 224.855 83.6174 225.124 83.7273C225.396 83.8409 225.739 83.8977 226.152 83.8977C226.735 83.8977 227.218 83.7557 227.601 83.4716C227.983 83.1913 228.175 82.7292 228.175 82.0852V80.4318H228.072C227.966 80.6439 227.811 80.8617 227.607 81.0852C227.406 81.3087 227.139 81.4962 226.805 81.6477C226.476 81.7992 226.061 81.875 225.561 81.875C224.891 81.875 224.283 81.7178 223.737 81.4034C223.196 81.0852 222.764 80.6117 222.442 79.983C222.124 79.3504 221.964 78.5587 221.964 77.608C221.964 76.6496 222.124 75.8409 222.442 75.1818C222.764 74.5189 223.197 74.017 223.743 73.6761C224.288 73.3314 224.896 73.1591 225.567 73.1591C226.078 73.1591 226.499 73.2462 226.828 73.4205C227.161 73.5909 227.427 73.7973 227.624 74.0398C227.821 74.2784 227.97 74.5038 228.072 74.7159H228.186V73.2727H230.214V82.142C230.214 82.8883 230.036 83.5057 229.68 83.9943C229.324 84.483 228.838 84.8485 228.22 85.0909C227.603 85.3333 226.902 85.4545 226.118 85.4545ZM226.135 80.2614C226.571 80.2614 226.942 80.1553 227.249 79.9432C227.555 79.7311 227.788 79.4261 227.947 79.0284C228.107 78.6307 228.186 78.1534 228.186 77.5966C228.186 77.0473 228.107 76.5663 227.947 76.1534C227.792 75.7405 227.561 75.4205 227.254 75.1932C226.951 74.9621 226.578 74.8466 226.135 74.8466C225.677 74.8466 225.294 74.9659 224.987 75.2045C224.68 75.4432 224.449 75.7708 224.294 76.1875C224.139 76.6004 224.061 77.0701 224.061 77.5966C224.061 78.1307 224.139 78.5985 224.294 79C224.453 79.3977 224.686 79.7083 224.993 79.9318C225.304 80.1515 225.684 80.2614 226.135 80.2614ZM237.885 78.3295V73.2727H239.942V82H237.947V80.4489H237.857C237.66 80.9375 237.336 81.3371 236.885 81.6477C236.438 81.9583 235.887 82.1136 235.232 82.1136C234.66 82.1136 234.154 81.9867 233.714 81.733C233.279 81.4754 232.938 81.1023 232.692 80.6136C232.446 80.1212 232.322 79.5265 232.322 78.8295V73.2727H234.379V78.5114C234.379 79.0644 234.531 79.5038 234.834 79.8295C235.137 80.1553 235.535 80.3182 236.027 80.3182C236.33 80.3182 236.624 80.2443 236.908 80.0966C237.192 79.9489 237.425 79.7292 237.607 79.4375C237.792 79.142 237.885 78.7727 237.885 78.3295ZM244.568 82.1761C244.015 82.1761 243.517 82.0777 243.074 81.8807C242.634 81.6799 242.286 81.3845 242.028 80.9943C241.775 80.6042 241.648 80.1231 241.648 79.5511C241.648 79.0587 241.739 78.6515 241.92 78.3295C242.102 78.0076 242.35 77.75 242.665 77.5568C242.979 77.3636 243.333 77.2178 243.727 77.1193C244.125 77.017 244.536 76.9432 244.96 76.8977C245.472 76.8447 245.886 76.7973 246.205 76.7557C246.523 76.7102 246.754 76.642 246.898 76.5511C247.045 76.4564 247.119 76.3106 247.119 76.1136V76.0795C247.119 75.6515 246.992 75.3201 246.739 75.0852C246.485 74.8504 246.119 74.733 245.642 74.733C245.138 74.733 244.739 74.8428 244.443 75.0625C244.152 75.2822 243.955 75.5417 243.852 75.8409L241.932 75.5682C242.083 75.0379 242.333 74.5947 242.682 74.2386C243.03 73.8788 243.456 73.6098 243.96 73.4318C244.464 73.25 245.021 73.1591 245.631 73.1591C246.051 73.1591 246.47 73.2083 246.886 73.3068C247.303 73.4053 247.684 73.5682 248.028 73.7955C248.373 74.0189 248.65 74.3239 248.858 74.7102C249.07 75.0966 249.176 75.5795 249.176 76.1591V82H247.199V80.8011H247.131C247.006 81.0436 246.83 81.2708 246.602 81.483C246.379 81.6913 246.097 81.8598 245.756 81.9886C245.419 82.1136 245.023 82.1761 244.568 82.1761ZM245.102 80.6648C245.515 80.6648 245.873 80.5833 246.176 80.4205C246.479 80.2538 246.712 80.0341 246.875 79.7614C247.042 79.4886 247.125 79.1913 247.125 78.8693V77.8409C247.061 77.8939 246.951 77.9432 246.795 77.9886C246.644 78.0341 246.473 78.0739 246.284 78.108C246.095 78.142 245.907 78.1723 245.722 78.1989C245.536 78.2254 245.375 78.2481 245.239 78.267C244.932 78.3087 244.657 78.3769 244.415 78.4716C244.172 78.5663 243.981 78.6989 243.841 78.8693C243.701 79.036 243.631 79.2519 243.631 79.517C243.631 79.8958 243.769 80.1818 244.045 80.375C244.322 80.5682 244.674 80.6648 245.102 80.6648ZM257.724 82.1761C257.171 82.1761 256.673 82.0777 256.23 81.8807C255.791 81.6799 255.442 81.3845 255.185 80.9943C254.931 80.6042 254.804 80.1231 254.804 79.5511C254.804 79.0587 254.895 78.6515 255.077 78.3295C255.259 78.0076 255.507 77.75 255.821 77.5568C256.135 77.3636 256.49 77.2178 256.884 77.1193C257.281 77.017 257.692 76.9432 258.116 76.8977C258.628 76.8447 259.043 76.7973 259.361 76.7557C259.679 76.7102 259.91 76.642 260.054 76.5511C260.202 76.4564 260.276 76.3106 260.276 76.1136V76.0795C260.276 75.6515 260.149 75.3201 259.895 75.0852C259.641 74.8504 259.276 74.733 258.798 74.733C258.295 74.733 257.895 74.8428 257.599 75.0625C257.308 75.2822 257.111 75.5417 257.009 75.8409L255.088 75.5682C255.24 75.0379 255.49 74.5947 255.838 74.2386C256.187 73.8788 256.613 73.6098 257.116 73.4318C257.62 73.25 258.177 73.1591 258.787 73.1591C259.207 73.1591 259.626 73.2083 260.043 73.3068C260.459 73.4053 260.84 73.5682 261.185 73.7955C261.529 74.0189 261.806 74.3239 262.014 74.7102C262.226 75.0966 262.332 75.5795 262.332 76.1591V82H260.355V80.8011H260.287C260.162 81.0436 259.986 81.2708 259.759 81.483C259.535 81.6913 259.253 81.8598 258.912 81.9886C258.575 82.1136 258.179 82.1761 257.724 82.1761ZM258.259 80.6648C258.671 80.6648 259.029 80.5833 259.332 80.4205C259.635 80.2538 259.868 80.0341 260.031 79.7614C260.198 79.4886 260.281 79.1913 260.281 78.8693V77.8409C260.217 77.8939 260.107 77.9432 259.952 77.9886C259.8 78.0341 259.63 78.0739 259.44 78.108C259.251 78.142 259.063 78.1723 258.878 78.1989C258.692 78.2254 258.531 78.2481 258.395 78.267C258.088 78.3087 257.813 78.3769 257.571 78.4716C257.329 78.5663 257.137 78.6989 256.997 78.8693C256.857 79.036 256.787 79.2519 256.787 79.517C256.787 79.8958 256.925 80.1818 257.202 80.375C257.478 80.5682 257.83 80.6648 258.259 80.6648ZM268.207 82.1705C267.355 82.1705 266.616 81.983 265.991 81.608C265.366 81.233 264.882 80.7083 264.537 80.0341C264.196 79.3598 264.026 78.572 264.026 77.6705C264.026 76.7689 264.196 75.9792 264.537 75.3011C264.882 74.6231 265.366 74.0966 265.991 73.7216C266.616 73.3466 267.355 73.1591 268.207 73.1591C269.06 73.1591 269.798 73.3466 270.423 73.7216C271.048 74.0966 271.531 74.6231 271.872 75.3011C272.217 75.9792 272.389 76.7689 272.389 77.6705C272.389 78.572 272.217 79.3598 271.872 80.0341C271.531 80.7083 271.048 81.233 270.423 81.608C269.798 81.983 269.06 82.1705 268.207 82.1705ZM268.219 80.5227C268.681 80.5227 269.067 80.3958 269.378 80.142C269.688 79.8845 269.92 79.5398 270.071 79.108C270.226 78.6761 270.304 78.1951 270.304 77.6648C270.304 77.1307 270.226 76.6477 270.071 76.2159C269.92 75.7803 269.688 75.4337 269.378 75.1761C269.067 74.9186 268.681 74.7898 268.219 74.7898C267.745 74.7898 267.351 74.9186 267.037 75.1761C266.726 75.4337 266.493 75.7803 266.338 76.2159C266.187 76.6477 266.111 77.1307 266.111 77.6648C266.111 78.1951 266.187 78.6761 266.338 79.108C266.493 79.5398 266.726 79.8845 267.037 80.142C267.351 80.3958 267.745 80.5227 268.219 80.5227ZM280.161 70.3636V82H278.104V70.3636H280.161ZM286.082 82.1705C285.23 82.1705 284.491 81.983 283.866 81.608C283.241 81.233 282.757 80.7083 282.412 80.0341C282.071 79.3598 281.901 78.572 281.901 77.6705C281.901 76.7689 282.071 75.9792 282.412 75.3011C282.757 74.6231 283.241 74.0966 283.866 73.7216C284.491 73.3466 285.23 73.1591 286.082 73.1591C286.935 73.1591 287.673 73.3466 288.298 73.7216C288.923 74.0966 289.406 74.6231 289.747 75.3011C290.092 75.9792 290.264 76.7689 290.264 77.6705C290.264 78.572 290.092 79.3598 289.747 80.0341C289.406 80.7083 288.923 81.233 288.298 81.608C287.673 81.983 286.935 82.1705 286.082 82.1705ZM286.094 80.5227C286.556 80.5227 286.942 80.3958 287.253 80.142C287.563 79.8845 287.795 79.5398 287.946 79.108C288.101 78.6761 288.179 78.1951 288.179 77.6648C288.179 77.1307 288.101 76.6477 287.946 76.2159C287.795 75.7803 287.563 75.4337 287.253 75.1761C286.942 74.9186 286.556 74.7898 286.094 74.7898C285.62 74.7898 285.226 74.9186 284.912 75.1761C284.601 75.4337 284.368 75.7803 284.213 76.2159C284.062 76.6477 283.986 77.1307 283.986 77.6648C283.986 78.1951 284.062 78.6761 284.213 79.108C284.368 79.5398 284.601 79.8845 284.912 80.142C285.226 80.3958 285.62 80.5227 286.094 80.5227ZM294.067 76.8864V82H292.01V73.2727H293.976V74.7557H294.078C294.279 74.267 294.599 73.8788 295.038 73.5909C295.482 73.303 296.029 73.1591 296.68 73.1591C297.283 73.1591 297.807 73.2879 298.254 73.5455C298.705 73.803 299.054 74.1761 299.3 74.6648C299.55 75.1534 299.673 75.7462 299.669 76.4432V82H297.612V76.7614C297.612 76.178 297.461 75.7216 297.158 75.392C296.858 75.0625 296.444 74.8977 295.913 74.8977C295.554 74.8977 295.233 74.9773 294.953 75.1364C294.677 75.2917 294.459 75.517 294.3 75.8125C294.144 76.108 294.067 76.4659 294.067 76.8864ZM305.555 85.4545C304.817 85.4545 304.182 85.3542 303.652 85.1534C303.122 84.9564 302.696 84.6913 302.374 84.358C302.052 84.0246 301.828 83.6553 301.703 83.25L303.555 82.8011C303.639 82.9716 303.76 83.1402 303.919 83.3068C304.078 83.4773 304.292 83.6174 304.561 83.7273C304.834 83.8409 305.177 83.8977 305.589 83.8977C306.173 83.8977 306.656 83.7557 307.038 83.4716C307.421 83.1913 307.612 82.7292 307.612 82.0852V80.4318H307.51C307.404 80.6439 307.249 80.8617 307.044 81.0852C306.843 81.3087 306.576 81.4962 306.243 81.6477C305.913 81.7992 305.499 81.875 304.999 81.875C304.328 81.875 303.72 81.7178 303.175 81.4034C302.633 81.0852 302.201 80.6117 301.879 79.983C301.561 79.3504 301.402 78.5587 301.402 77.608C301.402 76.6496 301.561 75.8409 301.879 75.1818C302.201 74.5189 302.635 74.017 303.18 73.6761C303.726 73.3314 304.334 73.1591 305.004 73.1591C305.516 73.1591 305.936 73.2462 306.266 73.4205C306.599 73.5909 306.864 73.7973 307.061 74.0398C307.258 74.2784 307.408 74.5038 307.51 74.7159H307.624V73.2727H309.652V82.142C309.652 82.8883 309.474 83.5057 309.118 83.9943C308.762 84.483 308.275 84.8485 307.658 85.0909C307.04 85.3333 306.339 85.4545 305.555 85.4545ZM305.572 80.2614C306.008 80.2614 306.379 80.1553 306.686 79.9432C306.993 79.7311 307.226 79.4261 307.385 79.0284C307.544 78.6307 307.624 78.1534 307.624 77.5966C307.624 77.0473 307.544 76.5663 307.385 76.1534C307.23 75.7405 306.999 75.4205 306.692 75.1932C306.389 74.9621 306.016 74.8466 305.572 74.8466C305.114 74.8466 304.732 74.9659 304.425 75.2045C304.118 75.4432 303.887 75.7708 303.732 76.1875C303.576 76.6004 303.499 77.0701 303.499 77.5966C303.499 78.1307 303.576 78.5985 303.732 79C303.891 79.3977 304.124 79.7083 304.43 79.9318C304.741 80.1515 305.122 80.2614 305.572 80.2614ZM315.567 82.1705C314.714 82.1705 313.976 81.983 313.351 81.608C312.726 81.233 312.241 80.7083 311.896 80.0341C311.555 79.3598 311.385 78.572 311.385 77.6705C311.385 76.7689 311.555 75.9792 311.896 75.3011C312.241 74.6231 312.726 74.0966 313.351 73.7216C313.976 73.3466 314.714 73.1591 315.567 73.1591C316.419 73.1591 317.158 73.3466 317.783 73.7216C318.408 74.0966 318.891 74.6231 319.232 75.3011C319.576 75.9792 319.749 76.7689 319.749 77.6705C319.749 78.572 319.576 79.3598 319.232 80.0341C318.891 80.7083 318.408 81.233 317.783 81.608C317.158 81.983 316.419 82.1705 315.567 82.1705ZM315.578 80.5227C316.04 80.5227 316.427 80.3958 316.737 80.142C317.048 79.8845 317.279 79.5398 317.43 79.108C317.586 78.6761 317.663 78.1951 317.663 77.6648C317.663 77.1307 317.586 76.6477 317.43 76.2159C317.279 75.7803 317.048 75.4337 316.737 75.1761C316.427 74.9186 316.04 74.7898 315.578 74.7898C315.105 74.7898 314.711 74.9186 314.396 75.1761C314.086 75.4337 313.853 75.7803 313.697 76.2159C313.546 76.6477 313.47 77.1307 313.47 77.6648C313.47 78.1951 313.546 78.6761 313.697 79.108C313.853 79.5398 314.086 79.8845 314.396 80.142C314.711 80.3958 315.105 80.5227 315.578 80.5227ZM328.702 82.1534C328.016 82.1534 327.402 81.9773 326.861 81.625C326.319 81.2727 325.891 80.7614 325.577 80.0909C325.262 79.4205 325.105 78.6061 325.105 77.6477C325.105 76.678 325.264 75.8598 325.582 75.1932C325.904 74.5227 326.338 74.017 326.884 73.6761C327.429 73.3314 328.037 73.1591 328.707 73.1591C329.219 73.1591 329.639 73.2462 329.969 73.4205C330.298 73.5909 330.56 73.7973 330.753 74.0398C330.946 74.2784 331.096 74.5038 331.202 74.7159H331.287V70.3636H333.349V82H331.327V80.625H331.202C331.096 80.8371 330.942 81.0625 330.741 81.3011C330.541 81.536 330.276 81.7367 329.946 81.9034C329.616 82.0701 329.202 82.1534 328.702 82.1534ZM329.276 80.4659C329.711 80.4659 330.082 80.3485 330.389 80.1136C330.696 79.875 330.929 79.5436 331.088 79.1193C331.247 78.6951 331.327 78.2008 331.327 77.6364C331.327 77.072 331.247 76.5814 331.088 76.1648C330.933 75.7481 330.702 75.4242 330.395 75.1932C330.092 74.9621 329.719 74.8466 329.276 74.8466C328.817 74.8466 328.435 74.9659 328.128 75.2045C327.821 75.4432 327.59 75.7727 327.435 76.1932C327.279 76.6136 327.202 77.0947 327.202 77.6364C327.202 78.1818 327.279 78.6686 327.435 79.0966C327.594 79.5208 327.827 79.8561 328.134 80.1023C328.444 80.3447 328.825 80.4659 329.276 80.4659ZM339.348 82.1705C338.496 82.1705 337.757 81.983 337.132 81.608C336.507 81.233 336.022 80.7083 335.678 80.0341C335.337 79.3598 335.166 78.572 335.166 77.6705C335.166 76.7689 335.337 75.9792 335.678 75.3011C336.022 74.6231 336.507 74.0966 337.132 73.7216C337.757 73.3466 338.496 73.1591 339.348 73.1591C340.2 73.1591 340.939 73.3466 341.564 73.7216C342.189 74.0966 342.672 74.6231 343.013 75.3011C343.357 75.9792 343.53 76.7689 343.53 77.6705C343.53 78.572 343.357 79.3598 343.013 80.0341C342.672 80.7083 342.189 81.233 341.564 81.608C340.939 81.983 340.2 82.1705 339.348 82.1705ZM339.359 80.5227C339.821 80.5227 340.208 80.3958 340.518 80.142C340.829 79.8845 341.06 79.5398 341.212 79.108C341.367 78.6761 341.445 78.1951 341.445 77.6648C341.445 77.1307 341.367 76.6477 341.212 76.2159C341.06 75.7803 340.829 75.4337 340.518 75.1761C340.208 74.9186 339.821 74.7898 339.359 74.7898C338.886 74.7898 338.492 74.9186 338.178 75.1761C337.867 75.4337 337.634 75.7803 337.479 76.2159C337.327 76.6477 337.251 77.1307 337.251 77.6648C337.251 78.1951 337.327 78.6761 337.479 79.108C337.634 79.5398 337.867 79.8845 338.178 80.142C338.492 80.3958 338.886 80.5227 339.359 80.5227ZM353.602 73.2727V74.8636H348.585V73.2727H353.602ZM349.824 71.1818H351.881V79.375C351.881 79.6515 351.922 79.8636 352.006 80.0114C352.093 80.1553 352.206 80.2538 352.347 80.3068C352.487 80.3598 352.642 80.3864 352.812 80.3864C352.941 80.3864 353.059 80.3769 353.165 80.358C353.275 80.339 353.358 80.322 353.415 80.3068L353.761 81.9148C353.652 81.9527 353.494 81.9943 353.29 82.0398C353.089 82.0852 352.843 82.1117 352.551 82.1193C352.036 82.1345 351.572 82.0568 351.159 81.8864C350.746 81.7121 350.419 81.4432 350.176 81.0795C349.938 80.7159 349.82 80.2614 349.824 79.7159V71.1818ZM359.092 82.1705C358.217 82.1705 357.462 81.9886 356.825 81.625C356.193 81.2576 355.706 80.7386 355.365 80.0682C355.024 79.3939 354.854 78.6004 354.854 77.6875C354.854 76.7898 355.024 76.0019 355.365 75.3239C355.71 74.642 356.191 74.1117 356.808 73.733C357.426 73.3504 358.151 73.1591 358.984 73.1591C359.522 73.1591 360.03 73.2462 360.507 73.4205C360.988 73.5909 361.412 73.8561 361.78 74.2159C362.151 74.5758 362.443 75.0341 362.655 75.5909C362.867 76.1439 362.973 76.803 362.973 77.5682V78.1989H355.82V76.8125H361.001C360.998 76.4186 360.912 76.0682 360.746 75.7614C360.579 75.4508 360.346 75.2064 360.047 75.0284C359.751 74.8504 359.407 74.7614 359.013 74.7614C358.592 74.7614 358.223 74.8636 357.905 75.0682C357.587 75.2689 357.339 75.5341 357.161 75.8636C356.986 76.1894 356.897 76.5473 356.893 76.9375V78.1477C356.893 78.6553 356.986 79.0909 357.172 79.4545C357.357 79.8144 357.617 80.0909 357.95 80.2841C358.284 80.4735 358.674 80.5682 359.121 80.5682C359.42 80.5682 359.691 80.5265 359.933 80.4432C360.176 80.3561 360.386 80.2292 360.564 80.0625C360.742 79.8958 360.876 79.6894 360.967 79.4432L362.888 79.6591C362.767 80.1667 362.536 80.6098 362.195 80.9886C361.857 81.3636 361.426 81.6553 360.899 81.8636C360.373 82.0682 359.77 82.1705 359.092 82.1705ZM364.713 82V73.2727H366.679V74.7557H366.781C366.963 74.2557 367.264 73.8655 367.685 73.5852C368.105 73.3011 368.607 73.1591 369.19 73.1591C369.781 73.1591 370.279 73.303 370.685 73.5909C371.094 73.875 371.382 74.2633 371.548 74.7557H371.639C371.832 74.2708 372.158 73.8845 372.616 73.5966C373.079 73.3049 373.626 73.1591 374.259 73.1591C375.062 73.1591 375.717 73.4129 376.224 73.9205C376.732 74.428 376.986 75.1686 376.986 76.142V82H374.923V76.4602C374.923 75.9186 374.779 75.5227 374.491 75.2727C374.204 75.0189 373.851 74.892 373.435 74.892C372.938 74.892 372.55 75.0473 372.27 75.358C371.993 75.6648 371.855 76.0644 371.855 76.5568V82H369.838V76.375C369.838 75.9242 369.702 75.5644 369.429 75.2955C369.16 75.0265 368.808 74.892 368.372 74.892C368.077 74.892 367.808 74.9678 367.565 75.1193C367.323 75.267 367.13 75.4773 366.986 75.75C366.842 76.0189 366.77 76.3333 366.77 76.6932V82H364.713ZM379.072 85.2727V73.2727H381.095V74.7159H381.214C381.321 74.5038 381.47 74.2784 381.663 74.0398C381.857 73.7973 382.118 73.5909 382.447 73.4205C382.777 73.2462 383.197 73.1591 383.709 73.1591C384.383 73.1591 384.991 73.3314 385.533 73.6761C386.078 74.017 386.51 74.5227 386.828 75.1932C387.15 75.8598 387.311 76.678 387.311 77.6477C387.311 78.6061 387.154 79.4205 386.839 80.0909C386.525 80.7614 386.097 81.2727 385.555 81.625C385.014 81.9773 384.4 82.1534 383.714 82.1534C383.214 82.1534 382.8 82.0701 382.47 81.9034C382.141 81.7367 381.875 81.536 381.675 81.3011C381.478 81.0625 381.324 80.8371 381.214 80.625H381.129V85.2727H379.072ZM381.089 77.6364C381.089 78.2008 381.169 78.6951 381.328 79.1193C381.491 79.5436 381.724 79.875 382.027 80.1136C382.334 80.3485 382.705 80.4659 383.141 80.4659C383.595 80.4659 383.976 80.3447 384.283 80.1023C384.589 79.8561 384.821 79.5208 384.976 79.0966C385.135 78.6686 385.214 78.1818 385.214 77.6364C385.214 77.0947 385.137 76.6136 384.982 76.1932C384.826 75.7727 384.595 75.4432 384.288 75.2045C383.982 74.9659 383.599 74.8466 383.141 74.8466C382.701 74.8466 382.328 74.9621 382.021 75.1932C381.714 75.4242 381.482 75.7481 381.322 76.1648C381.167 76.5814 381.089 77.072 381.089 77.6364ZM392.879 82.1705C392.027 82.1705 391.288 81.983 390.663 81.608C390.038 81.233 389.554 80.7083 389.209 80.0341C388.868 79.3598 388.697 78.572 388.697 77.6705C388.697 76.7689 388.868 75.9792 389.209 75.3011C389.554 74.6231 390.038 74.0966 390.663 73.7216C391.288 73.3466 392.027 73.1591 392.879 73.1591C393.732 73.1591 394.47 73.3466 395.095 73.7216C395.72 74.0966 396.203 74.6231 396.544 75.3011C396.889 75.9792 397.061 76.7689 397.061 77.6705C397.061 78.572 396.889 79.3598 396.544 80.0341C396.203 80.7083 395.72 81.233 395.095 81.608C394.47 81.983 393.732 82.1705 392.879 82.1705ZM392.891 80.5227C393.353 80.5227 393.739 80.3958 394.05 80.142C394.36 79.8845 394.591 79.5398 394.743 79.108C394.898 78.6761 394.976 78.1951 394.976 77.6648C394.976 77.1307 394.898 76.6477 394.743 76.2159C394.591 75.7803 394.36 75.4337 394.05 75.1761C393.739 74.9186 393.353 74.7898 392.891 74.7898C392.417 74.7898 392.023 74.9186 391.709 75.1761C391.398 75.4337 391.165 75.7803 391.01 76.2159C390.858 76.6477 390.783 77.1307 390.783 77.6648C390.783 78.1951 390.858 78.6761 391.01 79.108C391.165 79.5398 391.398 79.8845 391.709 80.142C392.023 80.3958 392.417 80.5227 392.891 80.5227Z" fill="white"/>
<path d="M197.795 446.663V444.455H209.401V446.663H204.905V459H202.291V446.663H197.795ZM214.772 459.213C213.678 459.213 212.733 458.986 211.938 458.531C211.147 458.072 210.539 457.423 210.113 456.585C209.686 455.742 209.473 454.75 209.473 453.609C209.473 452.487 209.686 451.502 210.113 450.655C210.543 449.803 211.145 449.14 211.917 448.666C212.688 448.188 213.595 447.949 214.637 447.949C215.309 447.949 215.944 448.058 216.54 448.276C217.141 448.489 217.672 448.82 218.131 449.27C218.595 449.72 218.96 450.293 219.225 450.989C219.49 451.68 219.623 452.504 219.623 453.46V454.249H210.681V452.516H217.158C217.153 452.023 217.047 451.585 216.838 451.202C216.63 450.813 216.339 450.508 215.965 450.286C215.596 450.063 215.165 449.952 214.672 449.952C214.147 449.952 213.685 450.08 213.287 450.335C212.89 450.586 212.579 450.918 212.357 451.33C212.139 451.737 212.028 452.184 212.023 452.672V454.185C212.023 454.819 212.139 455.364 212.371 455.818C212.603 456.268 212.927 456.614 213.344 456.855C213.761 457.092 214.248 457.21 214.807 457.21C215.181 457.21 215.52 457.158 215.823 457.054C216.126 456.945 216.389 456.786 216.611 456.578C216.834 456.37 217.002 456.112 217.115 455.804L219.516 456.074C219.364 456.708 219.076 457.262 218.65 457.736C218.228 458.205 217.688 458.569 217.03 458.83C216.372 459.085 215.619 459.213 214.772 459.213ZM221.798 459V448.091H224.255V449.945H224.383C224.61 449.32 224.987 448.832 225.512 448.482C226.038 448.126 226.665 447.949 227.394 447.949C228.133 447.949 228.755 448.129 229.262 448.489C229.773 448.844 230.133 449.329 230.342 449.945H230.455C230.697 449.339 231.104 448.856 231.677 448.496C232.254 448.131 232.939 447.949 233.729 447.949C234.733 447.949 235.552 448.266 236.187 448.901C236.821 449.535 237.138 450.461 237.138 451.678V459H234.56V452.075C234.56 451.398 234.38 450.903 234.021 450.591C233.661 450.274 233.22 450.115 232.7 450.115C232.079 450.115 231.594 450.309 231.244 450.697C230.898 451.081 230.725 451.58 230.725 452.196V459H228.204V451.969C228.204 451.405 228.033 450.955 227.692 450.619C227.356 450.283 226.916 450.115 226.371 450.115C226.002 450.115 225.666 450.21 225.363 450.399C225.06 450.584 224.818 450.847 224.638 451.188C224.459 451.524 224.369 451.917 224.369 452.366V459H221.798ZM239.747 463.091V448.091H242.275V449.895H242.424C242.557 449.63 242.744 449.348 242.985 449.05C243.227 448.747 243.554 448.489 243.966 448.276C244.377 448.058 244.903 447.949 245.542 447.949C246.385 447.949 247.145 448.164 247.822 448.595C248.504 449.021 249.044 449.653 249.441 450.491C249.844 451.325 250.045 452.348 250.045 453.56C250.045 454.758 249.849 455.776 249.456 456.614C249.063 457.452 248.528 458.091 247.85 458.531C247.173 458.972 246.406 459.192 245.549 459.192C244.924 459.192 244.406 459.088 243.994 458.879C243.582 458.671 243.251 458.42 243 458.126C242.753 457.828 242.562 457.546 242.424 457.281H242.318V463.091H239.747ZM242.268 453.545C242.268 454.251 242.368 454.869 242.566 455.399C242.77 455.929 243.061 456.344 243.44 456.642C243.824 456.936 244.288 457.082 244.832 457.082C245.4 457.082 245.876 456.931 246.26 456.628C246.643 456.32 246.932 455.901 247.126 455.371C247.325 454.836 247.424 454.227 247.424 453.545C247.424 452.868 247.327 452.267 247.133 451.741C246.939 451.216 246.65 450.804 246.267 450.506C245.883 450.207 245.405 450.058 244.832 450.058C244.283 450.058 243.816 450.203 243.433 450.491C243.049 450.78 242.758 451.185 242.559 451.706C242.365 452.227 242.268 452.84 242.268 453.545ZM257.005 459.213C255.94 459.213 255.017 458.979 254.235 458.51C253.454 458.041 252.848 457.385 252.417 456.543C251.991 455.7 251.778 454.715 251.778 453.588C251.778 452.461 251.991 451.474 252.417 450.626C252.848 449.779 253.454 449.121 254.235 448.652C255.017 448.183 255.94 447.949 257.005 447.949C258.071 447.949 258.994 448.183 259.775 448.652C260.556 449.121 261.16 449.779 261.586 450.626C262.017 451.474 262.233 452.461 262.233 453.588C262.233 454.715 262.017 455.7 261.586 456.543C261.16 457.385 260.556 458.041 259.775 458.51C258.994 458.979 258.071 459.213 257.005 459.213ZM257.02 457.153C257.597 457.153 258.08 456.995 258.468 456.678C258.857 456.356 259.145 455.925 259.335 455.385C259.529 454.845 259.626 454.244 259.626 453.581C259.626 452.913 259.529 452.31 259.335 451.77C259.145 451.225 258.857 450.792 258.468 450.47C258.08 450.148 257.597 449.987 257.02 449.987C256.428 449.987 255.935 450.148 255.542 450.47C255.154 450.792 254.863 451.225 254.669 451.77C254.479 452.31 254.385 452.913 254.385 453.581C254.385 454.244 254.479 454.845 254.669 455.385C254.863 455.925 255.154 456.356 255.542 456.678C255.935 456.995 256.428 457.153 257.02 457.153ZM270.015 453.07C270.015 451.294 270.249 449.663 270.718 448.176C271.192 446.685 271.895 445.307 272.827 444.043H275.249C274.889 444.511 274.553 445.087 274.241 445.768C273.928 446.446 273.656 447.189 273.424 447.999C273.197 448.804 273.017 449.639 272.884 450.506C272.756 451.372 272.692 452.227 272.692 453.07C272.692 454.192 272.804 455.328 273.026 456.479C273.254 457.629 273.559 458.695 273.942 459.675C274.331 460.66 274.766 461.464 275.249 462.089H272.827C271.895 460.825 271.192 459.45 270.718 457.963C270.249 456.472 270.015 454.84 270.015 453.07ZM279.818 452.608V459H277.247V444.455H279.761V449.945H279.889C280.145 449.329 280.54 448.844 281.075 448.489C281.615 448.129 282.301 447.949 283.135 447.949C283.892 447.949 284.553 448.107 285.116 448.425C285.68 448.742 286.115 449.206 286.423 449.817C286.735 450.428 286.892 451.173 286.892 452.054V459H284.321V452.452C284.321 451.718 284.131 451.147 283.752 450.74C283.378 450.328 282.853 450.122 282.176 450.122C281.721 450.122 281.314 450.222 280.954 450.42C280.599 450.615 280.32 450.896 280.116 451.266C279.917 451.635 279.818 452.082 279.818 452.608ZM294.1 453.07C294.1 454.84 293.864 456.472 293.39 457.963C292.922 459.45 292.221 460.825 291.288 462.089H288.866C289.231 461.621 289.567 461.048 289.875 460.371C290.187 459.694 290.457 458.95 290.684 458.141C290.916 457.331 291.096 456.493 291.224 455.626C291.357 454.76 291.423 453.908 291.423 453.07C291.423 451.947 291.309 450.811 291.082 449.661C290.859 448.51 290.554 447.442 290.166 446.457C289.782 445.473 289.349 444.668 288.866 444.043H291.288C292.221 445.307 292.922 446.685 293.39 448.176C293.864 449.663 294.1 451.294 294.1 453.07Z" fill="white"/>
<path d="M88.5 385L88.5 117" stroke="white"/>
<line x1="457.997" y1="385.5" x2="88.0001" y2="385.5" stroke="white"/>
<line x1="89" y1="335.5" x2="94" y2="335.5" stroke="white"/>
<line x1="89" y1="290.5" x2="94" y2="290.5" stroke="white"/>
<line x1="89" y1="245.5" x2="94" y2="245.5" stroke="white"/>
<line x1="89" y1="200.5" x2="94" y2="200.5" stroke="white"/>
<line x1="89" y1="155.5" x2="94" y2="155.5" stroke="white"/>
<line x1="131.5" y1="385" x2="131.5" y2="382" stroke="white"/>
<line x1="173.5" y1="385" x2="173.5" y2="382" stroke="white"/>
<line x1="215.5" y1="385" x2="215.5" y2="382" stroke="white"/>
<line x1="257.5" y1="385" x2="257.5" y2="382" stroke="white"/>
<line x1="303.5" y1="385" x2="303.5" y2="382" stroke="white"/>
<line x1="348.5" y1="385" x2="348.5" y2="382" stroke="white"/>
<line x1="390.5" y1="385" x2="390.5" y2="382" stroke="white"/>
<line x1="434.5" y1="385" x2="434.5" y2="382" stroke="white"/>
<line x1="215.5" y1="382" x2="215.5" y2="138" stroke="white" stroke-opacity="0.5" stroke-dasharray="1 1"/>
<line x1="257.5" y1="382" x2="257.5" y2="138" stroke="white" stroke-opacity="0.5" stroke-dasharray="1 1"/>
<line x1="303.5" y1="382" x2="303.5" y2="138" stroke="white" stroke-opacity="0.5" stroke-dasharray="1 1"/>
<line x1="348.5" y1="382" x2="348.5" y2="138" stroke="white" stroke-opacity="0.5" stroke-dasharray="1 1"/>
<line x1="390.5" y1="382" x2="390.5" y2="138" stroke="white" stroke-opacity="0.5" stroke-dasharray="1 1"/>
<line x1="434.5" y1="382" x2="434.5" y2="138" stroke="white" stroke-opacity="0.5" stroke-dasharray="1 1"/>
<line x1="173.5" y1="382" x2="173.5" y2="138" stroke="white" stroke-opacity="0.5" stroke-dasharray="1 1"/>
<line x1="131.5" y1="383" x2="131.5" y2="139" stroke="white" stroke-opacity="0.5" stroke-dasharray="1 1"/>
<line x1="94" y1="245.5" x2="439" y2="245.5" stroke="white" stroke-opacity="0.5" stroke-dasharray="1 1"/>
<line x1="88.9986" y1="155.5" x2="438.999" y2="154.497" stroke="white" stroke-opacity="0.7" stroke-dasharray="4 4"/>
<path d="M127.995 401.575V400.433L131.024 397.463C131.314 397.17 131.556 396.91 131.749 396.683C131.942 396.456 132.087 396.236 132.183 396.023C132.28 395.81 132.328 395.582 132.328 395.341C132.328 395.065 132.266 394.829 132.141 394.633C132.016 394.435 131.844 394.281 131.625 394.173C131.406 394.065 131.158 394.011 130.88 394.011C130.593 394.011 130.341 394.071 130.125 394.19C129.909 394.307 129.742 394.473 129.622 394.689C129.506 394.905 129.448 395.162 129.448 395.46H127.943C127.943 394.906 128.07 394.425 128.323 394.016C128.576 393.606 128.924 393.29 129.367 393.065C129.813 392.841 130.324 392.729 130.901 392.729C131.486 392.729 132 392.838 132.443 393.057C132.887 393.275 133.23 393.575 133.475 393.956C133.722 394.337 133.845 394.771 133.845 395.26C133.845 395.587 133.783 395.908 133.658 396.223C133.533 396.538 133.313 396.888 132.997 397.271C132.685 397.655 132.246 398.119 131.681 398.665L130.176 400.195V400.254H133.978V401.575H127.995Z" fill="white"/>
<path d="M76.7756 341V339.858L79.8054 336.888C80.0952 336.595 80.3366 336.335 80.5298 336.108C80.723 335.881 80.8679 335.661 80.9645 335.447C81.0611 335.234 81.1094 335.007 81.1094 334.766C81.1094 334.49 81.0469 334.254 80.9219 334.058C80.7969 333.859 80.625 333.706 80.4062 333.598C80.1875 333.49 79.9389 333.436 79.6605 333.436C79.3736 333.436 79.1222 333.496 78.9062 333.615C78.6903 333.732 78.5227 333.898 78.4034 334.114C78.2869 334.33 78.2287 334.587 78.2287 334.885H76.7244C76.7244 334.331 76.8509 333.849 77.1037 333.44C77.3565 333.031 77.7045 332.714 78.1477 332.49C78.5938 332.266 79.1051 332.153 79.6818 332.153C80.267 332.153 80.7813 332.263 81.2244 332.482C81.6676 332.7 82.0114 333 82.2557 333.381C82.5028 333.761 82.6264 334.196 82.6264 334.685C82.6264 335.011 82.5639 335.332 82.4389 335.648C82.3139 335.963 82.0938 336.312 81.7784 336.696C81.4659 337.08 81.027 337.544 80.4616 338.089L78.9574 339.619V339.679H82.7585V341H76.7756Z" fill="white"/>
<path d="M169.095 399.956V398.699L172.798 392.848H173.846V394.638H173.207L170.714 398.588V398.656H175.883V399.956H169.095ZM173.258 401.575V399.572L173.275 399.01V392.848H174.767V401.575H173.258Z" fill="white"/>
<path d="M76.6179 294.381V293.124L80.321 287.273H81.3693V289.062H80.7301L78.2372 293.013V293.081H83.4062V294.381H76.6179ZM80.7812 296V293.997L80.7983 293.435V287.273H82.2898V296H80.7812Z" fill="white"/>
<path d="M214.707 401.695C214.289 401.692 213.881 401.619 213.484 401.477C213.086 401.332 212.728 401.098 212.41 400.774C212.092 400.447 211.839 400.014 211.651 399.474C211.464 398.932 211.371 398.26 211.374 397.459C211.374 396.712 211.454 396.045 211.613 395.46C211.772 394.875 212.001 394.381 212.299 393.977C212.597 393.571 212.957 393.261 213.377 393.048C213.8 392.835 214.273 392.729 214.796 392.729C215.344 392.729 215.83 392.837 216.254 393.052C216.68 393.268 217.023 393.564 217.285 393.939C217.546 394.311 217.708 394.731 217.771 395.2H216.215C216.136 394.865 215.972 394.598 215.725 394.399C215.481 394.197 215.171 394.097 214.796 394.097C214.191 394.097 213.725 394.359 213.398 394.885C213.075 395.41 212.911 396.132 212.908 397.05H212.968C213.107 396.8 213.288 396.585 213.509 396.406C213.731 396.227 213.981 396.089 214.259 395.993C214.541 395.893 214.837 395.844 215.15 395.844C215.661 395.844 216.12 395.966 216.526 396.21C216.935 396.454 217.259 396.791 217.498 397.22C217.737 397.646 217.854 398.135 217.852 398.686C217.854 399.26 217.724 399.775 217.46 400.233C217.195 400.687 216.827 401.045 216.356 401.307C215.884 401.568 215.335 401.697 214.707 401.695ZM214.698 400.416C215.008 400.416 215.285 400.341 215.529 400.19C215.773 400.04 215.967 399.837 216.109 399.581C216.251 399.325 216.32 399.038 216.317 398.72C216.32 398.408 216.252 398.125 216.113 397.872C215.977 397.619 215.788 397.419 215.546 397.271C215.305 397.123 215.029 397.05 214.719 397.05C214.489 397.05 214.275 397.094 214.076 397.182C213.877 397.27 213.704 397.392 213.556 397.548C213.408 397.702 213.292 397.881 213.207 398.085C213.124 398.287 213.082 398.503 213.079 398.733C213.082 399.037 213.153 399.317 213.292 399.572C213.431 399.828 213.623 400.033 213.867 400.186C214.112 400.339 214.389 400.416 214.698 400.416Z" fill="white"/>
<path d="M79.9716 251.119C79.554 251.116 79.1463 251.044 78.7486 250.902C78.3509 250.757 77.9929 250.523 77.6747 250.199C77.3565 249.872 77.1037 249.439 76.9162 248.899C76.7287 248.357 76.6364 247.685 76.6392 246.884C76.6392 246.136 76.7188 245.47 76.8778 244.885C77.0369 244.3 77.2656 243.805 77.5639 243.402C77.8622 242.996 78.2216 242.686 78.642 242.473C79.0653 242.26 79.5384 242.153 80.0611 242.153C80.6094 242.153 81.0952 242.261 81.5185 242.477C81.9446 242.693 82.2884 242.989 82.5497 243.364C82.8111 243.736 82.973 244.156 83.0355 244.625H81.4801C81.4006 244.29 81.2372 244.023 80.9901 243.824C80.7457 243.622 80.4361 243.521 80.0611 243.521C79.456 243.521 78.9901 243.784 78.6634 244.31C78.3395 244.835 78.1761 245.557 78.1733 246.474H78.233C78.3722 246.224 78.5526 246.01 78.7741 245.831C78.9957 245.652 79.2457 245.514 79.5241 245.418C79.8054 245.318 80.1023 245.268 80.4148 245.268C80.9261 245.268 81.3849 245.391 81.7912 245.635C82.2003 245.879 82.5241 246.216 82.7628 246.645C83.0014 247.071 83.1193 247.56 83.1165 248.111C83.1193 248.685 82.9886 249.2 82.7244 249.658C82.4602 250.112 82.0923 250.47 81.6207 250.732C81.1491 250.993 80.5994 251.122 79.9716 251.119ZM79.9631 249.841C80.2727 249.841 80.5497 249.766 80.794 249.615C81.0384 249.464 81.2315 249.261 81.3736 249.006C81.5156 248.75 81.5852 248.463 81.5824 248.145C81.5852 247.832 81.517 247.55 81.3778 247.297C81.2415 247.044 81.0526 246.844 80.8111 246.696C80.5696 246.548 80.294 246.474 79.9844 246.474C79.7543 246.474 79.5398 246.518 79.3409 246.607C79.142 246.695 78.9688 246.817 78.821 246.973C78.6733 247.126 78.5568 247.305 78.4716 247.51C78.3892 247.712 78.3466 247.928 78.3438 248.158C78.3466 248.462 78.4176 248.741 78.5568 248.997C78.696 249.253 78.8878 249.457 79.1321 249.611C79.3764 249.764 79.6534 249.841 79.9631 249.841Z" fill="white"/>
<path d="M257.1 401.695C256.467 401.695 255.904 401.588 255.413 401.375C254.924 401.162 254.541 400.871 254.262 400.501C253.987 400.129 253.85 399.707 253.853 399.236C253.85 398.869 253.93 398.533 254.092 398.226C254.254 397.919 254.472 397.663 254.748 397.459C255.026 397.251 255.336 397.119 255.677 397.062V397.003C255.228 396.903 254.864 396.675 254.586 396.317C254.31 395.956 254.174 395.54 254.177 395.068C254.174 394.619 254.299 394.219 254.552 393.866C254.805 393.514 255.151 393.237 255.592 393.035C256.032 392.831 256.535 392.729 257.1 392.729C257.66 392.729 258.158 392.831 258.596 393.035C259.036 393.237 259.383 393.514 259.636 393.866C259.891 394.219 260.019 394.619 260.019 395.068C260.019 395.54 259.879 395.956 259.597 396.317C259.319 396.675 258.96 396.903 258.519 397.003V397.062C258.86 397.119 259.167 397.251 259.44 397.459C259.715 397.663 259.934 397.919 260.096 398.226C260.261 398.533 260.343 398.869 260.343 399.236C260.343 399.707 260.204 400.129 259.926 400.501C259.647 400.871 259.264 401.162 258.775 401.375C258.289 401.588 257.731 401.695 257.1 401.695ZM257.1 400.476C257.427 400.476 257.711 400.42 257.953 400.31C258.194 400.196 258.382 400.037 258.515 399.832C258.649 399.628 258.717 399.392 258.72 399.125C258.717 398.847 258.644 398.601 258.502 398.388C258.363 398.172 258.171 398.003 257.927 397.881C257.685 397.758 257.41 397.697 257.1 397.697C256.788 397.697 256.509 397.758 256.265 397.881C256.021 398.003 255.828 398.172 255.685 398.388C255.546 398.601 255.478 398.847 255.481 399.125C255.478 399.392 255.543 399.628 255.677 399.832C255.81 400.034 255.998 400.192 256.239 400.305C256.484 400.419 256.771 400.476 257.1 400.476ZM257.1 396.5C257.367 396.5 257.603 396.446 257.808 396.338C258.015 396.23 258.178 396.079 258.298 395.886C258.417 395.693 258.478 395.47 258.481 395.217C258.478 394.967 258.418 394.748 258.302 394.561C258.185 394.371 258.024 394.224 257.816 394.122C257.609 394.017 257.37 393.964 257.1 393.964C256.825 393.964 256.582 394.017 256.372 394.122C256.164 394.224 256.002 394.371 255.886 394.561C255.772 394.748 255.717 394.967 255.72 395.217C255.717 395.47 255.774 395.693 255.89 395.886C256.009 396.077 256.173 396.227 256.38 396.338C256.59 396.446 256.83 396.5 257.1 396.5Z" fill="white"/>
<path d="M79.8778 207.119C79.2443 207.119 78.6818 207.013 78.1903 206.8C77.7017 206.587 77.3182 206.295 77.0398 205.926C76.7642 205.554 76.6278 205.132 76.6307 204.661C76.6278 204.294 76.7074 203.957 76.8693 203.651C77.0313 203.344 77.25 203.088 77.5256 202.884C77.804 202.676 78.1136 202.544 78.4545 202.487V202.428C78.0057 202.328 77.642 202.099 77.3636 201.741C77.0881 201.381 76.9517 200.964 76.9545 200.493C76.9517 200.044 77.0767 199.643 77.3295 199.291C77.5824 198.939 77.929 198.662 78.3693 198.46C78.8097 198.256 79.3125 198.153 79.8778 198.153C80.4375 198.153 80.9361 198.256 81.3736 198.46C81.8139 198.662 82.1605 198.939 82.4134 199.291C82.669 199.643 82.7969 200.044 82.7969 200.493C82.7969 200.964 82.6562 201.381 82.375 201.741C82.0966 202.099 81.7372 202.328 81.2969 202.428V202.487C81.6378 202.544 81.9446 202.676 82.2173 202.884C82.4929 203.088 82.7116 203.344 82.8736 203.651C83.0384 203.957 83.1207 204.294 83.1207 204.661C83.1207 205.132 82.9815 205.554 82.7031 205.926C82.4247 206.295 82.0412 206.587 81.5526 206.8C81.0668 207.013 80.5085 207.119 79.8778 207.119ZM79.8778 205.901C80.2045 205.901 80.4886 205.845 80.7301 205.734C80.9716 205.621 81.1591 205.462 81.2926 205.257C81.4261 205.053 81.4943 204.817 81.4972 204.55C81.4943 204.271 81.4219 204.026 81.2798 203.812C81.1406 203.597 80.9489 203.428 80.7045 203.305C80.4631 203.183 80.1875 203.122 79.8778 203.122C79.5653 203.122 79.2869 203.183 79.0426 203.305C78.7983 203.428 78.6051 203.597 78.4631 203.812C78.3239 204.026 78.2557 204.271 78.2585 204.55C78.2557 204.817 78.321 205.053 78.4545 205.257C78.5881 205.459 78.7756 205.616 79.017 205.73C79.2614 205.844 79.5483 205.901 79.8778 205.901ZM79.8778 201.925C80.1449 201.925 80.3807 201.871 80.5852 201.763C80.7926 201.655 80.956 201.504 81.0753 201.311C81.1946 201.118 81.2557 200.895 81.2585 200.642C81.2557 200.392 81.196 200.173 81.0795 199.986C80.9631 199.795 80.8011 199.649 80.5938 199.547C80.3864 199.442 80.1477 199.389 79.8778 199.389C79.6023 199.389 79.3594 199.442 79.1491 199.547C78.9418 199.649 78.7798 199.795 78.6634 199.986C78.5497 200.173 78.4943 200.392 78.4972 200.642C78.4943 200.895 78.5511 201.118 78.6676 201.311C78.7869 201.501 78.9503 201.652 79.1577 201.763C79.3679 201.871 79.608 201.925 79.8778 201.925Z" fill="white"/>
<path d="M301.265 392.848V401.575H299.684V394.386H299.633L297.592 395.69V394.241L299.761 392.848H301.265ZM306.707 401.741C306.005 401.741 305.403 401.564 304.9 401.209C304.4 400.851 304.015 400.335 303.745 399.662C303.478 398.986 303.345 398.172 303.345 397.22C303.348 396.268 303.483 395.459 303.75 394.791C304.019 394.121 304.404 393.609 304.904 393.257C305.407 392.905 306.008 392.729 306.707 392.729C307.406 392.729 308.007 392.905 308.51 393.257C309.012 393.609 309.397 394.121 309.664 394.791C309.934 395.462 310.069 396.271 310.069 397.22C310.069 398.175 309.934 398.99 309.664 399.666C309.397 400.339 309.012 400.854 308.51 401.209C308.01 401.564 307.409 401.741 306.707 401.741ZM306.707 400.408C307.252 400.408 307.683 400.139 307.998 399.602C308.316 399.062 308.475 398.268 308.475 397.22C308.475 396.527 308.403 395.945 308.258 395.473C308.113 395.001 307.909 394.646 307.644 394.408C307.38 394.166 307.068 394.045 306.707 394.045C306.164 394.045 305.735 394.315 305.42 394.855C305.105 395.392 304.946 396.18 304.943 397.22C304.94 397.916 305.01 398.501 305.152 398.976C305.296 399.45 305.501 399.808 305.765 400.05C306.029 400.288 306.343 400.408 306.707 400.408Z" fill="white"/>
<path d="M72.3253 152.273V161H70.7443V153.811H70.6932L68.652 155.115V153.666L70.821 152.273H72.3253ZM77.767 161.166C77.0653 161.166 76.4631 160.989 75.9602 160.634C75.4602 160.276 75.0753 159.76 74.8054 159.087C74.5384 158.411 74.4048 157.597 74.4048 156.645C74.4077 155.693 74.5426 154.884 74.8097 154.216C75.0795 153.545 75.4645 153.034 75.9645 152.682C76.4673 152.33 77.0682 152.153 77.767 152.153C78.4659 152.153 79.0668 152.33 79.5696 152.682C80.0724 153.034 80.4574 153.545 80.7244 154.216C80.9943 154.886 81.1293 155.696 81.1293 156.645C81.1293 157.599 80.9943 158.415 80.7244 159.091C80.4574 159.764 80.0724 160.278 79.5696 160.634C79.0696 160.989 78.4688 161.166 77.767 161.166ZM77.767 159.832C78.3125 159.832 78.7429 159.564 79.0582 159.027C79.3764 158.487 79.5355 157.693 79.5355 156.645C79.5355 155.952 79.4631 155.369 79.3182 154.898C79.1733 154.426 78.9688 154.071 78.7045 153.832C78.4403 153.591 78.1278 153.47 77.767 153.47C77.2244 153.47 76.7955 153.74 76.4801 154.28C76.1648 154.817 76.0057 155.605 76.0028 156.645C76 157.341 76.0696 157.926 76.2116 158.401C76.3565 158.875 76.5611 159.233 76.8253 159.474C77.0895 159.713 77.4034 159.832 77.767 159.832Z" fill="white"/>
<path d="M345.523 392.848V401.575H343.942V394.386H343.891L341.85 395.69V394.241L344.019 392.848H345.523ZM347.739 401.575V400.433L350.769 397.463C351.059 397.17 351.3 396.91 351.493 396.683C351.686 396.456 351.831 396.236 351.928 396.023C352.024 395.81 352.073 395.582 352.073 395.341C352.073 395.065 352.01 394.829 351.885 394.633C351.76 394.435 351.588 394.281 351.37 394.173C351.151 394.065 350.902 394.011 350.624 394.011C350.337 394.011 350.086 394.071 349.87 394.19C349.654 394.307 349.486 394.473 349.367 394.689C349.25 394.905 349.192 395.162 349.192 395.46H347.688C347.688 394.906 347.814 394.425 348.067 394.016C348.32 393.606 348.668 393.29 349.111 393.065C349.557 392.841 350.068 392.729 350.645 392.729C351.23 392.729 351.745 392.838 352.188 393.057C352.631 393.275 352.975 393.575 353.219 393.956C353.466 394.337 353.59 394.771 353.59 395.26C353.59 395.587 353.527 395.908 353.402 396.223C353.277 396.538 353.057 396.888 352.742 397.271C352.429 397.655 351.99 398.119 351.425 398.665L349.921 400.195V400.254H353.722V401.575H347.739Z" fill="white"/>
<path d="M388.011 392.848V401.575H386.43V394.386H386.379L384.338 395.69V394.241L386.507 392.848H388.011ZM390.069 399.956V398.699L393.772 392.848H394.82V394.638H394.181L391.688 398.588V398.656H396.857V399.956H390.069ZM394.232 401.575V399.572L394.249 399.01V392.848H395.741V401.575H394.232Z" fill="white"/>
<path d="M432.269 392.848V401.575H430.688V394.386H430.637L428.595 395.69V394.241L430.764 392.848H432.269ZM437.681 401.695C437.263 401.692 436.855 401.619 436.458 401.477C436.06 401.332 435.702 401.098 435.384 400.774C435.066 400.447 434.813 400.014 434.625 399.474C434.438 398.932 434.345 398.26 434.348 397.459C434.348 396.712 434.428 396.045 434.587 395.46C434.746 394.875 434.975 394.381 435.273 393.977C435.571 393.571 435.931 393.261 436.351 393.048C436.774 392.835 437.247 392.729 437.77 392.729C438.318 392.729 438.804 392.837 439.227 393.052C439.654 393.268 439.997 393.564 440.259 393.939C440.52 394.311 440.682 394.731 440.744 395.2H439.189C439.11 394.865 438.946 394.598 438.699 394.399C438.455 394.197 438.145 394.097 437.77 394.097C437.165 394.097 436.699 394.359 436.372 394.885C436.048 395.41 435.885 396.132 435.882 397.05H435.942C436.081 396.8 436.262 396.585 436.483 396.406C436.705 396.227 436.955 396.089 437.233 395.993C437.514 395.893 437.811 395.844 438.124 395.844C438.635 395.844 439.094 395.966 439.5 396.21C439.909 396.454 440.233 396.791 440.472 397.22C440.71 397.646 440.828 398.135 440.825 398.686C440.828 399.26 440.698 399.775 440.433 400.233C440.169 400.687 439.801 401.045 439.33 401.307C438.858 401.568 438.308 401.697 437.681 401.695ZM437.672 400.416C437.982 400.416 438.259 400.341 438.503 400.19C438.747 400.04 438.941 399.837 439.083 399.581C439.225 399.325 439.294 399.038 439.291 398.72C439.294 398.408 439.226 398.125 439.087 397.872C438.95 397.619 438.762 397.419 438.52 397.271C438.279 397.123 438.003 397.05 437.693 397.05C437.463 397.05 437.249 397.094 437.05 397.182C436.851 397.27 436.678 397.392 436.53 397.548C436.382 397.702 436.266 397.881 436.181 398.085C436.098 398.287 436.056 398.503 436.053 398.733C436.056 399.037 436.127 399.317 436.266 399.572C436.405 399.828 436.597 400.033 436.841 400.186C437.085 400.339 437.362 400.416 437.672 400.416Z" fill="white"/>
<path d="M434 191.621C429.791 186.609 427.436 180.188 423.54 174.93C419.345 169.269 414.397 163.092 408.076 159.642C403.25 157.008 401.202 163.118 400.131 166.402C398.247 172.182 396.496 178.037 394.562 183.795C394.101 185.166 393.727 189.545 391.989 189.545C389.791 189.545 388.347 187.489 387.41 185.814C385.453 182.32 382.375 179.452 380.314 175.968C378.17 172.344 375.853 168.904 372.454 166.374C368.483 163.419 359.29 155.955 356.227 163.934C354.713 167.878 354.895 172.645 353.598 176.782C352.358 180.736 351.608 184.863 350.29 188.788C347.146 198.147 338.581 186.278 335.844 182.616C333.092 178.936 330.568 175.301 328.126 171.424C326.591 168.988 324.052 166.367 321.369 165.196C312.366 161.265 310.265 192.719 305.509 196.39C300.974 199.89 291.279 184.244 289.762 181.775C287.706 178.43 286.559 175.429 282.355 174.734C278.294 174.062 276.075 175.205 274.241 179.026C270.982 185.817 270.089 194.041 267.88 201.215C266.24 206.543 264.944 211.836 263.018 217.092C262.641 218.121 261.437 217.912 260.53 217.877C256.831 217.736 254.797 214.399 252.727 211.706C250.178 208.389 248.169 204.412 246.225 200.71C244.793 197.983 242.597 194.328 239.101 194.146C235.736 193.97 234.172 197.695 232.994 200.317C230.984 204.792 228.851 209.234 226.888 213.726C223.654 221.123 221.877 229.462 219.763 237.233C219.172 239.409 218.984 240.665 216.314 239.87C212.983 238.879 210.654 235.45 208.455 233.025C205.024 229.243 201.627 226.246 199.012 221.749C197.667 219.434 195.849 218.699 193.076 219.504C189.561 220.525 187.963 224.739 187.195 227.864C185.99 232.767 183.736 237.294 182.107 242.058C180.294 247.357 179.079 252.564 178.036 258.048C177.291 261.959 177.708 266.241 175.604 269.773C171.247 277.09 161.502 261.933 158.924 259.506C152.707 253.654 148.587 264.429 146.711 268.202C141.786 278.109 140.396 288.761 138.23 299.508C137.122 305.004 136.207 311.216 134.159 316.451C133.695 317.639 132.713 323.87 131.615 323.913C128.22 324.048 125.759 323.176 123.586 320.435C121.142 317.352 120.032 311.273 115.331 310.897C110.886 310.541 109.981 317.44 109.337 320.435C108.266 325.413 105.162 329.665 104.249 334.741C103.198 340.577 102.652 346.183 100.573 351.797C98.6001 357.124 97.4011 362.701 95.7107 368.123C94.0317 373.508 91.772 378.725 90 384" stroke="#00C6C3" stroke-width="3" stroke-linecap="round"/>
</svg>
