<svg width="171" height="320" viewBox="0 0 171 320" fill="none" xmlns="http://www.w3.org/2000/svg">
<path d="M112.5 81C112.5 97.3155 99.4934 110.5 83.5 110.5C67.5066 110.5 54.5 97.3155 54.5 81C54.5 64.6845 67.5066 51.5 83.5 51.5C99.4934 51.5 112.5 64.6845 112.5 81Z" fill="#00ADB5" fill-opacity="0.8" stroke="white" stroke-width="3"/>
<g filter="url(#filter0_i_0_1)">
<rect width="171" height="320" rx="36" fill="#3E3E40"/>
</g>
<rect x="1" y="1" width="169" height="318" rx="35" stroke="black" stroke-width="2"/>
<path d="M116.5 82.5C116.5 99.6208 102.621 113.5 85.5 113.5C68.3792 113.5 54.5 99.6208 54.5 82.5C54.5 65.3792 68.3792 51.5 85.5 51.5C102.621 51.5 116.5 65.3792 116.5 82.5Z" fill="#00ADB5" fill-opacity="0.8" stroke="white" stroke-width="3"/>
<path d="M33.3182 175.182H39.0071L45.0156 189.841H45.2713L51.2798 175.182H56.9688V197H52.4943V182.799H52.3132L46.6669 196.893H43.62L37.9737 182.746H37.7926V197H33.3182V175.182ZM68.0776 197.32C66.4228 197.32 64.9917 196.968 63.7843 196.265C62.584 195.555 61.6571 194.567 61.0037 193.303C60.3503 192.032 60.0236 190.558 60.0236 188.882C60.0236 187.192 60.3503 185.714 61.0037 184.45C61.6571 183.179 62.584 182.192 63.7843 181.489C64.9917 180.778 66.4228 180.423 68.0776 180.423C69.7324 180.423 71.16 180.778 72.3603 181.489C73.5676 182.192 74.498 183.179 75.1515 184.45C75.8049 185.714 76.1316 187.192 76.1316 188.882C76.1316 190.558 75.8049 192.032 75.1515 193.303C74.498 194.567 73.5676 195.555 72.3603 196.265C71.16 196.968 69.7324 197.32 68.0776 197.32ZM68.0989 193.804C68.8517 193.804 69.4803 193.591 69.9846 193.165C70.4888 192.732 70.8688 192.142 71.1245 191.396C71.3873 190.651 71.5186 189.802 71.5186 188.85C71.5186 187.898 71.3873 187.05 71.1245 186.304C70.8688 185.558 70.4888 184.969 69.9846 184.536C69.4803 184.102 68.8517 183.886 68.0989 183.886C67.339 183.886 66.6998 184.102 66.1813 184.536C65.6699 184.969 65.2828 185.558 65.0201 186.304C64.7644 187.05 64.6365 187.898 64.6365 188.85C64.6365 189.802 64.7644 190.651 65.0201 191.396C65.2828 192.142 65.6699 192.732 66.1813 193.165C66.6998 193.591 67.339 193.804 68.0989 193.804ZM66.4476 178.527L68.7061 173.68H72.9036L69.6543 178.527H66.4476ZM85.1124 197.266C83.8695 197.266 82.7438 196.947 81.7353 196.308C80.7338 195.661 79.9384 194.713 79.3489 193.463C78.7665 192.206 78.4753 190.665 78.4753 188.839C78.4753 186.964 78.7772 185.406 79.3809 184.163C79.9846 182.913 80.7871 181.979 81.7885 181.361C82.7971 180.736 83.9015 180.423 85.1017 180.423C86.0179 180.423 86.7814 180.58 87.3922 180.892C88.0101 181.197 88.5073 181.581 88.8837 182.043C89.2672 182.497 89.5584 182.945 89.7573 183.385H89.8958V175.182H94.4235V197H89.949V194.379H89.7573C89.5442 194.834 89.2424 195.285 88.8517 195.732C88.4682 196.173 87.9675 196.538 87.3496 196.83C86.7388 197.121 85.9931 197.266 85.1124 197.266ZM86.5506 193.655C87.2821 193.655 87.9 193.456 88.4043 193.058C88.9157 192.653 89.3063 192.089 89.5762 191.364C89.8532 190.64 89.9917 189.791 89.9917 188.818C89.9917 187.845 89.8567 187 89.5868 186.283C89.3169 185.565 88.9263 185.011 88.415 184.621C87.9036 184.23 87.2821 184.035 86.5506 184.035C85.8049 184.035 85.1763 184.237 84.665 184.642C84.1536 185.047 83.7665 185.608 83.5037 186.325C83.2409 187.043 83.1096 187.874 83.1096 188.818C83.1096 189.77 83.2409 190.612 83.5037 191.343C83.7736 192.067 84.1607 192.636 84.665 193.048C85.1763 193.452 85.8049 193.655 86.5506 193.655ZM108.648 190.033V180.636H113.187V197H108.83V194.028H108.659C108.29 194.987 107.675 195.757 106.816 196.339C105.964 196.922 104.923 197.213 103.695 197.213C102.601 197.213 101.638 196.964 100.808 196.467C99.9766 195.97 99.3267 195.263 98.858 194.347C98.3963 193.431 98.1619 192.334 98.1548 191.055V180.636H102.693V190.246C102.7 191.212 102.96 191.975 103.471 192.536C103.982 193.097 104.668 193.378 105.527 193.378C106.074 193.378 106.585 193.254 107.061 193.005C107.537 192.749 107.92 192.373 108.212 191.876C108.51 191.379 108.656 190.764 108.648 190.033ZM121.355 175.182V197H116.817V175.182H121.355ZM132.384 197.32C130.729 197.32 129.298 196.968 128.091 196.265C126.891 195.555 125.964 194.567 125.31 193.303C124.657 192.032 124.33 190.558 124.33 188.882C124.33 187.192 124.657 185.714 125.31 184.45C125.964 183.179 126.891 182.192 128.091 181.489C129.298 180.778 130.729 180.423 132.384 180.423C134.039 180.423 135.467 180.778 136.667 181.489C137.874 182.192 138.805 183.179 139.458 184.45C140.112 185.714 140.438 187.192 140.438 188.882C140.438 190.558 140.112 192.032 139.458 193.303C138.805 194.567 137.874 195.555 136.667 196.265C135.467 196.968 134.039 197.32 132.384 197.32ZM132.406 193.804C133.158 193.804 133.787 193.591 134.291 193.165C134.795 192.732 135.175 192.142 135.431 191.396C135.694 190.651 135.825 189.802 135.825 188.85C135.825 187.898 135.694 187.05 135.431 186.304C135.175 185.558 134.795 184.969 134.291 184.536C133.787 184.102 133.158 183.886 132.406 183.886C131.646 183.886 131.006 184.102 130.488 184.536C129.977 184.969 129.589 185.558 129.327 186.304C129.071 187.05 128.943 187.898 128.943 188.85C128.943 189.802 129.071 190.651 129.327 191.396C129.589 192.142 129.977 192.732 130.488 193.165C131.006 193.591 131.646 193.804 132.406 193.804Z" fill="white"/>
<path d="M77.7685 92V88.6761L85.5348 81.4851C86.1953 80.8459 86.7493 80.2706 87.1967 79.7592C87.6513 79.2479 87.9957 78.7472 88.2301 78.2571C88.4645 77.7599 88.5817 77.2237 88.5817 76.6484C88.5817 76.0092 88.4361 75.4588 88.1449 74.9972C87.8537 74.5284 87.456 74.1697 86.9517 73.9212C86.4474 73.6655 85.8757 73.5376 85.2365 73.5376C84.5689 73.5376 83.9865 73.6726 83.4893 73.9425C82.9922 74.2124 82.6087 74.5994 82.3388 75.1037C82.0689 75.608 81.9339 76.2081 81.9339 76.9041H77.5554C77.5554 75.4766 77.8786 74.2372 78.5249 73.1861C79.1712 72.1349 80.0767 71.3217 81.2415 70.7464C82.4063 70.1712 83.7486 69.8835 85.2685 69.8835C86.831 69.8835 88.1911 70.1605 89.3487 70.7145C90.5135 71.2614 91.419 72.0213 92.0653 72.9943C92.7116 73.9673 93.0348 75.0824 93.0348 76.3395C93.0348 77.1634 92.8714 77.9766 92.5447 78.7791C92.2251 79.5817 91.6534 80.473 90.8295 81.4531C90.0057 82.4261 88.8445 83.5945 87.3459 84.9581L84.1605 88.0795V88.2287H93.3224V92H77.7685Z" fill="black"/>
<defs>
<filter id="filter0_i_0_1" x="0" y="0" width="171" height="370" filterUnits="userSpaceOnUse" color-interpolation-filters="sRGB">
<feFlood flood-opacity="0" result="BackgroundImageFix"/>
<feBlend mode="normal" in="SourceGraphic" in2="BackgroundImageFix" result="shape"/>
<feColorMatrix in="SourceAlpha" type="matrix" values="0 0 0 0 0 0 0 0 0 0 0 0 0 0 0 0 0 0 127 0" result="hardAlpha"/>
<feOffset dy="50"/>
<feGaussianBlur stdDeviation="25"/>
<feComposite in2="hardAlpha" operator="arithmetic" k2="-1" k3="1"/>
<feColorMatrix type="matrix" values="0 0 0 0 1 0 0 0 0 1 0 0 0 0 1 0 0 0 0.03 0"/>
<feBlend mode="normal" in2="shape" result="effect1_innerShadow_0_1"/>
</filter>
</defs>
</svg>
