<svg width="171" height="320" viewBox="0 0 171 320" fill="none" xmlns="http://www.w3.org/2000/svg">
<path d="M112.5 81C112.5 97.3155 99.4934 110.5 83.5 110.5C67.5066 110.5 54.5 97.3155 54.5 81C54.5 64.6845 67.5066 51.5 83.5 51.5C99.4934 51.5 112.5 64.6845 112.5 81Z" fill="#00ADB5" fill-opacity="0.8" stroke="white" stroke-width="3"/>
<g filter="url(#filter0_i_0_1)">
<rect width="171" height="320" rx="36" fill="#3E3E40"/>
</g>
<rect x="1" y="1" width="169" height="318" rx="35" stroke="black" stroke-width="2"/>
<path d="M116.5 82.5C116.5 99.6208 102.621 113.5 85.5 113.5C68.3792 113.5 54.5 99.6208 54.5 82.5C54.5 65.3792 68.3792 51.5 85.5 51.5C102.621 51.5 116.5 65.3792 116.5 82.5Z" fill="#00ADB5" fill-opacity="0.8" stroke="white" stroke-width="3"/>
<path d="M12.7475 191V173.545H19.6339C20.9521 173.545 22.0771 173.781 23.0089 174.253C23.9464 174.719 24.6594 175.381 25.1481 176.239C25.6424 177.091 25.8896 178.094 25.8896 179.247C25.8896 180.406 25.6396 181.403 25.1396 182.239C24.6396 183.068 23.9151 183.705 22.9663 184.148C22.0231 184.591 20.881 184.812 19.5401 184.812H14.9293V181.847H18.9435C19.6481 181.847 20.2333 181.75 20.6992 181.557C21.1651 181.364 21.5117 181.074 21.739 180.688C21.9719 180.301 22.0884 179.821 22.0884 179.247C22.0884 178.668 21.9719 178.179 21.739 177.781C21.5117 177.384 21.1623 177.082 20.6907 176.878C20.2248 176.668 19.6367 176.562 18.9265 176.562H16.4379V191H12.7475ZM22.1737 183.057L26.5117 191H22.4379L18.1935 183.057H22.1737ZM34.1843 191.256C32.8377 191.256 31.6786 190.983 30.707 190.438C29.7411 189.886 28.9968 189.108 28.4741 188.102C27.9513 187.091 27.69 185.895 27.69 184.514C27.69 183.168 27.9513 181.986 28.4741 180.969C28.9968 179.952 29.7326 179.159 30.6815 178.591C31.636 178.023 32.7553 177.739 34.0394 177.739C34.9031 177.739 35.707 177.878 36.4513 178.156C37.2013 178.429 37.8548 178.841 38.4116 179.392C38.9741 179.943 39.4116 180.636 39.7241 181.472C40.0366 182.301 40.1928 183.273 40.1928 184.386V185.384H29.1388V183.134H36.7752C36.7752 182.611 36.6616 182.148 36.4343 181.744C36.207 181.341 35.8917 181.026 35.4883 180.798C35.0906 180.565 34.6275 180.449 34.0991 180.449C33.5479 180.449 33.0593 180.577 32.6332 180.832C32.2127 181.082 31.8832 181.42 31.6445 181.847C31.4059 182.267 31.2837 182.736 31.2781 183.253V185.392C31.2781 186.04 31.3974 186.599 31.636 187.071C31.8803 187.543 32.2241 187.906 32.6673 188.162C33.1104 188.418 33.636 188.545 34.244 188.545C34.6474 188.545 35.0167 188.489 35.3519 188.375C35.6871 188.261 35.9741 188.091 36.2127 187.864C36.4513 187.636 36.6332 187.358 36.7582 187.028L40.1161 187.25C39.9457 188.057 39.5962 188.761 39.0678 189.364C38.5451 189.96 37.869 190.426 37.0394 190.761C36.2156 191.091 35.2638 191.256 34.1843 191.256ZM53.4542 181.642L50.1303 181.847C50.0735 181.562 49.9513 181.307 49.7638 181.08C49.5763 180.847 49.3292 180.662 49.0224 180.526C48.7212 180.384 48.3604 180.312 47.94 180.312C47.3775 180.312 46.9031 180.432 46.5167 180.67C46.1303 180.903 45.9371 181.216 45.9371 181.608C45.9371 181.92 46.0621 182.185 46.3121 182.401C46.5621 182.616 46.9911 182.79 47.5991 182.92L49.9684 183.398C51.2411 183.659 52.19 184.08 52.815 184.659C53.44 185.239 53.7525 186 53.7525 186.943C53.7525 187.801 53.4996 188.554 52.994 189.202C52.494 189.849 51.8065 190.355 50.9315 190.719C50.0621 191.077 49.0593 191.256 47.9229 191.256C46.19 191.256 44.8093 190.895 43.7809 190.173C42.7582 189.446 42.1587 188.457 41.9826 187.207L45.5536 187.02C45.6616 187.548 45.9229 187.952 46.3377 188.23C46.7525 188.503 47.2837 188.639 47.9315 188.639C48.5678 188.639 49.0792 188.517 49.4656 188.273C49.8576 188.023 50.0565 187.702 50.0621 187.31C50.0565 186.98 49.9173 186.71 49.6445 186.5C49.3718 186.284 48.9513 186.119 48.3832 186.006L46.1161 185.554C44.8377 185.298 43.886 184.855 43.261 184.224C42.6417 183.594 42.332 182.79 42.332 181.812C42.332 180.972 42.5593 180.247 43.0138 179.639C43.4741 179.031 44.119 178.562 44.9485 178.233C45.7837 177.903 46.761 177.739 47.8803 177.739C49.5337 177.739 50.8349 178.088 51.7837 178.787C52.7383 179.486 53.2951 180.437 53.4542 181.642ZM62.0046 191.256C60.658 191.256 59.4989 190.983 58.5273 190.438C57.5614 189.886 56.8171 189.108 56.2944 188.102C55.7717 187.091 55.5103 185.895 55.5103 184.514C55.5103 183.168 55.7717 181.986 56.2944 180.969C56.8171 179.952 57.5529 179.159 58.5018 178.591C59.4563 178.023 60.5756 177.739 61.8597 177.739C62.7234 177.739 63.5273 177.878 64.2717 178.156C65.0217 178.429 65.6751 178.841 66.2319 179.392C66.7944 179.943 67.2319 180.636 67.5444 181.472C67.8569 182.301 68.0131 183.273 68.0131 184.386V185.384H56.9592V183.134H64.5955C64.5955 182.611 64.4819 182.148 64.2546 181.744C64.0273 181.341 63.712 181.026 63.3086 180.798C62.9109 180.565 62.4478 180.449 61.9194 180.449C61.3683 180.449 60.8796 180.577 60.4535 180.832C60.033 181.082 59.7035 181.42 59.4648 181.847C59.2262 182.267 59.104 182.736 59.0984 183.253V185.392C59.0984 186.04 59.2177 186.599 59.4563 187.071C59.7006 187.543 60.0444 187.906 60.4876 188.162C60.9308 188.418 61.4563 188.545 62.0643 188.545C62.4677 188.545 62.837 188.489 63.1722 188.375C63.5075 188.261 63.7944 188.091 64.033 187.864C64.2717 187.636 64.4535 187.358 64.5785 187.028L67.9364 187.25C67.766 188.057 67.4165 188.761 66.8881 189.364C66.3654 189.96 65.6893 190.426 64.8597 190.761C64.0359 191.091 63.0842 191.256 62.0046 191.256ZM70.3825 191V177.909H73.9023V180.193H74.0387C74.2773 179.381 74.6779 178.767 75.2404 178.352C75.8029 177.932 76.4506 177.722 77.1836 177.722C77.3654 177.722 77.5614 177.733 77.7717 177.756C77.9819 177.778 78.1665 177.81 78.3256 177.849V181.071C78.1552 181.02 77.9194 180.974 77.6183 180.935C77.3171 180.895 77.0415 180.875 76.7915 180.875C76.2575 180.875 75.7802 180.991 75.3597 181.224C74.945 181.452 74.6154 181.77 74.3711 182.179C74.1325 182.588 74.0131 183.06 74.0131 183.594V191H70.3825ZM92.8058 177.909L88.229 191H84.1381L79.5614 177.909H83.3967L86.1154 187.276H86.2518L88.962 177.909H92.8058ZM98.0451 191.247C97.2099 191.247 96.4656 191.102 95.8121 190.812C95.1587 190.517 94.6417 190.082 94.261 189.509C93.886 188.929 93.6985 188.207 93.6985 187.344C93.6985 186.616 93.832 186.006 94.0991 185.511C94.3661 185.017 94.7298 184.619 95.19 184.318C95.6502 184.017 96.1729 183.79 96.7582 183.636C97.3491 183.483 97.9684 183.375 98.6161 183.312C99.3775 183.233 99.9911 183.159 100.457 183.091C100.923 183.017 101.261 182.909 101.471 182.767C101.681 182.625 101.787 182.415 101.787 182.136V182.085C101.787 181.545 101.616 181.128 101.275 180.832C100.94 180.537 100.463 180.389 99.8434 180.389C99.19 180.389 98.6701 180.534 98.2837 180.824C97.8974 181.108 97.6417 181.466 97.5167 181.898L94.1587 181.625C94.3292 180.83 94.6644 180.142 95.1644 179.562C95.6644 178.977 96.3093 178.528 97.0991 178.216C97.8945 177.898 98.815 177.739 99.8604 177.739C100.588 177.739 101.284 177.824 101.949 177.994C102.619 178.165 103.213 178.429 103.73 178.787C104.252 179.145 104.664 179.605 104.966 180.168C105.267 180.724 105.417 181.392 105.417 182.17V191H101.974V189.185H101.872C101.662 189.594 101.38 189.955 101.028 190.267C100.676 190.574 100.252 190.815 99.7582 190.991C99.2638 191.162 98.6928 191.247 98.0451 191.247ZM99.0849 188.741C99.619 188.741 100.091 188.636 100.5 188.426C100.909 188.21 101.23 187.92 101.463 187.557C101.696 187.193 101.812 186.781 101.812 186.321V184.932C101.699 185.006 101.542 185.074 101.343 185.136C101.15 185.193 100.931 185.247 100.687 185.298C100.443 185.344 100.199 185.386 99.9542 185.426C99.7099 185.46 99.4883 185.491 99.2894 185.52C98.8633 185.582 98.4911 185.682 98.1729 185.818C97.8548 185.955 97.6076 186.139 97.4315 186.372C97.2553 186.599 97.1673 186.884 97.1673 187.224C97.1673 187.719 97.3462 188.097 97.7042 188.358C98.0678 188.614 98.5281 188.741 99.0849 188.741ZM115.197 177.909V180.636H107.314V177.909H115.197ZM109.103 174.773H112.734V186.977C112.734 187.312 112.785 187.574 112.887 187.761C112.99 187.943 113.132 188.071 113.314 188.145C113.501 188.219 113.717 188.256 113.961 188.256C114.132 188.256 114.302 188.241 114.473 188.213C114.643 188.179 114.774 188.153 114.865 188.136L115.436 190.838C115.254 190.895 114.998 190.96 114.669 191.034C114.339 191.114 113.939 191.162 113.467 191.179C112.592 191.213 111.825 191.097 111.166 190.83C110.512 190.562 110.004 190.148 109.64 189.585C109.277 189.023 109.098 188.312 109.103 187.455V174.773ZM123.336 191.256C122.012 191.256 120.868 190.974 119.902 190.412C118.941 189.844 118.2 189.054 117.677 188.043C117.154 187.026 116.893 185.847 116.893 184.506C116.893 183.153 117.154 181.972 117.677 180.96C118.2 179.943 118.941 179.153 119.902 178.591C120.868 178.023 122.012 177.739 123.336 177.739C124.66 177.739 125.802 178.023 126.762 178.591C127.728 179.153 128.473 179.943 128.995 180.96C129.518 181.972 129.779 183.153 129.779 184.506C129.779 185.847 129.518 187.026 128.995 188.043C128.473 189.054 127.728 189.844 126.762 190.412C125.802 190.974 124.66 191.256 123.336 191.256ZM123.353 188.443C123.956 188.443 124.458 188.273 124.862 187.932C125.265 187.585 125.569 187.114 125.774 186.517C125.984 185.92 126.089 185.241 126.089 184.48C126.089 183.719 125.984 183.04 125.774 182.443C125.569 181.847 125.265 181.375 124.862 181.028C124.458 180.682 123.956 180.509 123.353 180.509C122.745 180.509 122.234 180.682 121.819 181.028C121.41 181.375 121.1 181.847 120.89 182.443C120.686 183.04 120.583 183.719 120.583 184.48C120.583 185.241 120.686 185.92 120.89 186.517C121.1 187.114 121.41 187.585 121.819 187.932C122.234 188.273 122.745 188.443 123.353 188.443ZM122.032 176.222L123.839 172.344H127.197L124.598 176.222H122.032ZM132.14 191V177.909H135.66V180.193H135.797C136.035 179.381 136.436 178.767 136.998 178.352C137.561 177.932 138.208 177.722 138.941 177.722C139.123 177.722 139.319 177.733 139.529 177.756C139.74 177.778 139.924 177.81 140.083 177.849V181.071C139.913 181.02 139.677 180.974 139.376 180.935C139.075 180.895 138.799 180.875 138.549 180.875C138.015 180.875 137.538 180.991 137.118 181.224C136.703 181.452 136.373 181.77 136.129 182.179C135.89 182.588 135.771 183.06 135.771 183.594V191H132.14ZM141.961 191V177.909H145.591V191H141.961ZM143.784 176.222C143.245 176.222 142.782 176.043 142.395 175.685C142.015 175.321 141.824 174.886 141.824 174.381C141.824 173.881 142.015 173.452 142.395 173.094C142.782 172.73 143.245 172.548 143.784 172.548C144.324 172.548 144.784 172.73 145.165 173.094C145.551 173.452 145.745 173.881 145.745 174.381C145.745 174.886 145.551 175.321 145.165 175.685C144.784 176.043 144.324 176.222 143.784 176.222ZM154.414 191.256C153.091 191.256 151.946 190.974 150.98 190.412C150.02 189.844 149.278 189.054 148.755 188.043C148.233 187.026 147.971 185.847 147.971 184.506C147.971 183.153 148.233 181.972 148.755 180.96C149.278 179.943 150.02 179.153 150.98 178.591C151.946 178.023 153.091 177.739 154.414 177.739C155.738 177.739 156.88 178.023 157.841 178.591C158.806 179.153 159.551 179.943 160.074 180.96C160.596 181.972 160.858 183.153 160.858 184.506C160.858 185.847 160.596 187.026 160.074 188.043C159.551 189.054 158.806 189.844 157.841 190.412C156.88 190.974 155.738 191.256 154.414 191.256ZM154.431 188.443C155.034 188.443 155.537 188.273 155.94 187.932C156.343 187.585 156.647 187.114 156.852 186.517C157.062 185.92 157.167 185.241 157.167 184.48C157.167 183.719 157.062 183.04 156.852 182.443C156.647 181.847 156.343 181.375 155.94 181.028C155.537 180.682 155.034 180.509 154.431 180.509C153.824 180.509 153.312 180.682 152.897 181.028C152.488 181.375 152.179 181.847 151.968 182.443C151.764 183.04 151.662 183.719 151.662 184.48C151.662 185.241 151.764 185.92 151.968 186.517C152.179 187.114 152.488 187.585 152.897 187.932C153.312 188.273 153.824 188.443 154.431 188.443ZM61.9897 220V202.545H68.9783C70.2624 202.545 71.3335 202.736 72.1914 203.116C73.0494 203.497 73.6942 204.026 74.1261 204.702C74.5579 205.372 74.7738 206.145 74.7738 207.02C74.7738 207.702 74.6374 208.301 74.3647 208.818C74.092 209.33 73.717 209.75 73.2397 210.08C72.7681 210.403 72.2283 210.634 71.6204 210.77V210.94C72.2852 210.969 72.9073 211.156 73.4869 211.503C74.0721 211.849 74.5465 212.335 74.9102 212.96C75.2738 213.58 75.4556 214.318 75.4556 215.176C75.4556 216.102 75.2255 216.929 74.7653 217.656C74.3107 218.378 73.6374 218.949 72.7454 219.369C71.8533 219.79 70.7539 220 69.4471 220H61.9897ZM65.68 216.983H68.6886C69.717 216.983 70.467 216.787 70.9386 216.395C71.4102 215.997 71.646 215.469 71.646 214.81C71.646 214.327 71.5295 213.901 71.2965 213.531C71.0636 213.162 70.7312 212.872 70.2994 212.662C69.8732 212.452 69.3647 212.347 68.7738 212.347H65.68V216.983ZM65.68 209.849H68.4158C68.9215 209.849 69.3704 209.761 69.7624 209.585C70.1602 209.403 70.4727 209.148 70.6999 208.818C70.9329 208.489 71.0494 208.094 71.0494 207.634C71.0494 207.003 70.8249 206.494 70.3761 206.108C69.9329 205.722 69.3022 205.528 68.484 205.528H65.68V209.849ZM81.5217 220.247C80.6864 220.247 79.9421 220.102 79.2887 219.812C78.6353 219.517 78.1183 219.082 77.7376 218.509C77.3626 217.929 77.1751 217.207 77.1751 216.344C77.1751 215.616 77.3086 215.006 77.5756 214.511C77.8427 214.017 78.2063 213.619 78.6665 213.318C79.1268 213.017 79.6495 212.79 80.2347 212.636C80.8256 212.483 81.445 212.375 82.0927 212.312C82.854 212.233 83.4677 212.159 83.9336 212.091C84.3995 212.017 84.7376 211.909 84.9478 211.767C85.158 211.625 85.2631 211.415 85.2631 211.136V211.085C85.2631 210.545 85.0927 210.128 84.7518 209.832C84.4165 209.537 83.9393 209.389 83.32 209.389C82.6665 209.389 82.1467 209.534 81.7603 209.824C81.3739 210.108 81.1183 210.466 80.9933 210.898L77.6353 210.625C77.8058 209.83 78.141 209.142 78.641 208.562C79.141 207.977 79.7859 207.528 80.5756 207.216C81.3711 206.898 82.2915 206.739 83.337 206.739C84.0643 206.739 84.7603 206.824 85.4251 206.994C86.0955 207.165 86.6893 207.429 87.2063 207.787C87.729 208.145 88.141 208.605 88.4421 209.168C88.7433 209.724 88.8938 210.392 88.8938 211.17V220H85.4506V218.185H85.3484C85.1381 218.594 84.8569 218.955 84.5046 219.267C84.1523 219.574 83.729 219.815 83.2347 219.991C82.7404 220.162 82.1694 220.247 81.5217 220.247ZM82.5614 217.741C83.0955 217.741 83.5671 217.636 83.9762 217.426C84.3853 217.21 84.7063 216.92 84.9393 216.557C85.1722 216.193 85.2887 215.781 85.2887 215.321V213.932C85.1751 214.006 85.0188 214.074 84.82 214.136C84.6268 214.193 84.408 214.247 84.1637 214.298C83.9194 214.344 83.6751 214.386 83.4308 214.426C83.1864 214.46 82.9648 214.491 82.766 214.52C82.3398 214.582 81.9677 214.682 81.6495 214.818C81.3313 214.955 81.0842 215.139 80.908 215.372C80.7319 215.599 80.6438 215.884 80.6438 216.224C80.6438 216.719 80.8228 217.097 81.1808 217.358C81.5444 217.614 82.0046 217.741 82.5614 217.741ZM102.603 210.642L99.2788 210.847C99.2219 210.562 99.0998 210.307 98.9123 210.08C98.7248 209.847 98.4776 209.662 98.1708 209.526C97.8697 209.384 97.5089 209.312 97.0884 209.312C96.5259 209.312 96.0515 209.432 95.6651 209.67C95.2788 209.903 95.0856 210.216 95.0856 210.608C95.0856 210.92 95.2106 211.185 95.4606 211.401C95.7106 211.616 96.1396 211.79 96.7475 211.92L99.1168 212.398C100.39 212.659 101.338 213.08 101.963 213.659C102.588 214.239 102.901 215 102.901 215.943C102.901 216.801 102.648 217.554 102.142 218.202C101.642 218.849 100.955 219.355 100.08 219.719C99.2106 220.077 98.2077 220.256 97.0714 220.256C95.3384 220.256 93.9577 219.895 92.9293 219.173C91.9066 218.446 91.3072 217.457 91.131 216.207L94.7021 216.02C94.81 216.548 95.0714 216.952 95.4862 217.23C95.9009 217.503 96.4322 217.639 97.0799 217.639C97.7163 217.639 98.2276 217.517 98.614 217.273C99.006 217.023 99.2049 216.702 99.2106 216.31C99.2049 215.98 99.0657 215.71 98.793 215.5C98.5202 215.284 98.0998 215.119 97.5316 215.006L95.2646 214.554C93.9862 214.298 93.0344 213.855 92.4094 213.224C91.7901 212.594 91.4805 211.79 91.4805 210.812C91.4805 209.972 91.7077 209.247 92.1623 208.639C92.6225 208.031 93.2674 207.562 94.0969 207.233C94.9322 206.903 95.9094 206.739 97.0288 206.739C98.6822 206.739 99.9833 207.088 100.932 207.787C101.887 208.486 102.444 209.437 102.603 210.642ZM111.153 220.256C109.806 220.256 108.647 219.983 107.676 219.438C106.71 218.886 105.966 218.108 105.443 217.102C104.92 216.091 104.659 214.895 104.659 213.514C104.659 212.168 104.92 210.986 105.443 209.969C105.966 208.952 106.701 208.159 107.65 207.591C108.605 207.023 109.724 206.739 111.008 206.739C111.872 206.739 112.676 206.878 113.42 207.156C114.17 207.429 114.824 207.841 115.38 208.392C115.943 208.943 116.38 209.636 116.693 210.472C117.005 211.301 117.162 212.273 117.162 213.386V214.384H106.108V212.134H113.744C113.744 211.611 113.63 211.148 113.403 210.744C113.176 210.341 112.86 210.026 112.457 209.798C112.059 209.565 111.596 209.449 111.068 209.449C110.517 209.449 110.028 209.577 109.602 209.832C109.181 210.082 108.852 210.42 108.613 210.847C108.375 211.267 108.252 211.736 108.247 212.253V214.392C108.247 215.04 108.366 215.599 108.605 216.071C108.849 216.543 109.193 216.906 109.636 217.162C110.079 217.418 110.605 217.545 111.213 217.545C111.616 217.545 111.985 217.489 112.321 217.375C112.656 217.261 112.943 217.091 113.181 216.864C113.42 216.636 113.602 216.358 113.727 216.028L117.085 216.25C116.914 217.057 116.565 217.761 116.037 218.364C115.514 218.96 114.838 219.426 114.008 219.761C113.184 220.091 112.233 220.256 111.153 220.256Z" fill="white"/>
<path d="M85.3232 92.4794C83.4908 92.4723 81.9141 92.0213 80.593 91.1264C79.2791 90.2315 78.267 88.9354 77.5568 87.2379C76.8537 85.5405 76.5057 83.4986 76.5128 81.1122C76.5128 78.733 76.8643 76.7053 77.5675 75.0291C78.2777 73.353 79.2898 72.0781 80.6037 71.2045C81.9247 70.3239 83.4979 69.8835 85.3232 69.8835C87.1484 69.8835 88.718 70.3239 90.032 71.2045C91.353 72.0852 92.3686 73.3636 93.0788 75.0398C93.7891 76.7088 94.1406 78.733 94.1335 81.1122C94.1335 83.5057 93.7784 85.5511 93.0682 87.2486C92.3651 88.946 91.3565 90.2422 90.0426 91.1371C88.7287 92.032 87.1555 92.4794 85.3232 92.4794ZM85.3232 88.6548C86.5732 88.6548 87.571 88.0263 88.3168 86.7692C89.0625 85.5121 89.4318 83.6264 89.4247 81.1122C89.4247 79.4574 89.2543 78.0795 88.9134 76.9787C88.5795 75.8778 88.1037 75.0504 87.4858 74.4964C86.875 73.9425 86.1541 73.6655 85.3232 73.6655C84.0803 73.6655 83.0859 74.2869 82.3402 75.5298C81.5945 76.7727 81.218 78.6335 81.2109 81.1122C81.2109 82.7884 81.3778 84.1875 81.7116 85.3097C82.0526 86.4247 82.532 87.2628 83.1499 87.8239C83.7678 88.3778 84.4922 88.6548 85.3232 88.6548Z" fill="black"/>
<defs>
<filter id="filter0_i_0_1" x="0" y="0" width="171" height="370" filterUnits="userSpaceOnUse" color-interpolation-filters="sRGB">
<feFlood flood-opacity="0" result="BackgroundImageFix"/>
<feBlend mode="normal" in="SourceGraphic" in2="BackgroundImageFix" result="shape"/>
<feColorMatrix in="SourceAlpha" type="matrix" values="0 0 0 0 0 0 0 0 0 0 0 0 0 0 0 0 0 0 127 0" result="hardAlpha"/>
<feOffset dy="50"/>
<feGaussianBlur stdDeviation="25"/>
<feComposite in2="hardAlpha" operator="arithmetic" k2="-1" k3="1"/>
<feColorMatrix type="matrix" values="0 0 0 0 1 0 0 0 0 1 0 0 0 0 1 0 0 0 0.03 0"/>
<feBlend mode="normal" in2="shape" result="effect1_innerShadow_0_1"/>
</filter>
</defs>
</svg>
