<svg width="171" height="320" viewBox="0 0 171 320" fill="none" xmlns="http://www.w3.org/2000/svg">
<g filter="url(#filter0_i_0_1)">
<rect width="171" height="320" rx="36" fill="#131627"/>
</g>
<rect x="1" y="1" width="169" height="318" rx="35" stroke="black" stroke-width="2"/>
<circle cx="85.5" cy="82.5" r="31" fill="#00ADB5" fill-opacity="0.8" stroke="white" stroke-width="3"/>
<path d="M84.8331 93.2983C83.2422 93.2983 81.8253 93.0249 80.5824 92.478C79.3466 91.924 78.37 91.1641 77.6527 90.1982C76.9425 89.2251 76.5767 88.103 76.5554 86.8317H81.2003C81.2287 87.3643 81.4027 87.8331 81.7223 88.2379C82.049 88.6357 82.4822 88.9446 83.022 89.1648C83.5618 89.3849 84.169 89.495 84.8438 89.495C85.5469 89.495 86.1683 89.3707 86.7081 89.1222C87.2479 88.8736 87.6705 88.5291 87.9759 88.0888C88.2813 87.6484 88.4339 87.1406 88.4339 86.5653C88.4339 85.983 88.2706 85.468 87.9439 85.0206C87.6243 84.5661 87.1626 84.2109 86.5589 83.9553C85.9624 83.6996 85.2521 83.5717 84.4283 83.5717H82.3935V80.1839H84.4283C85.1243 80.1839 85.7386 80.0632 86.2713 79.8217C86.8111 79.5803 87.2301 79.2464 87.5284 78.8203C87.8267 78.3871 87.9759 77.8828 87.9759 77.3075C87.9759 76.7607 87.8445 76.2812 87.5817 75.8693C87.326 75.4503 86.9638 75.1236 86.495 74.8892C86.0334 74.6548 85.4936 74.5376 84.8757 74.5376C84.2507 74.5376 83.679 74.6513 83.1605 74.8786C82.642 75.0987 82.2266 75.4148 81.9141 75.8267C81.6016 76.2386 81.4347 76.7216 81.4134 77.2756H76.9922C77.0135 76.0185 77.3722 74.9105 78.0682 73.9517C78.7642 72.9929 79.7017 72.2436 80.8807 71.7038C82.0668 71.157 83.4055 70.8835 84.897 70.8835C86.4027 70.8835 87.7202 71.157 88.8494 71.7038C89.9787 72.2507 90.8558 72.9893 91.4808 73.9197C92.1129 74.843 92.4254 75.88 92.4183 77.0305C92.4254 78.2521 92.0455 79.2713 91.2784 80.0881C90.5185 80.9048 89.5277 81.4233 88.3061 81.6435V81.8139C89.9112 82.0199 91.1328 82.5774 91.9709 83.4865C92.8161 84.3885 93.2351 85.5178 93.228 86.8743C93.2351 88.1172 92.8764 89.2216 92.152 90.1875C91.4347 91.1534 90.4439 91.9134 89.1797 92.4673C87.9155 93.0213 86.4666 93.2983 84.8331 93.2983Z" fill="black"/>
<path d="M26.1991 178.985V175.182H44.1182V178.985H37.4385V197H32.8788V178.985H26.1991ZM52.0683 197.32C50.385 197.32 48.9362 196.979 47.7217 196.297C46.5143 195.608 45.5839 194.635 44.9305 193.378C44.2771 192.114 43.9504 190.619 43.9504 188.893C43.9504 187.21 44.2771 185.732 44.9305 184.461C45.5839 183.19 46.5036 182.199 47.6897 181.489C48.8829 180.778 50.282 180.423 51.8872 180.423C52.9667 180.423 53.9717 180.597 54.9021 180.945C55.8396 181.286 56.6563 181.801 57.3524 182.49C58.0555 183.179 58.6024 184.045 58.993 185.089C59.3836 186.126 59.5789 187.341 59.5789 188.733V189.979H45.7615V187.167H55.3069C55.3069 186.513 55.1649 185.935 54.8808 185.43C54.5967 184.926 54.2025 184.532 53.6982 184.248C53.2011 183.957 52.6222 183.811 51.9617 183.811C51.2728 183.811 50.662 183.971 50.1294 184.29C49.6038 184.603 49.1919 185.026 48.8936 185.558C48.5953 186.084 48.4426 186.67 48.4355 187.316V189.99C48.4355 190.8 48.5846 191.499 48.8829 192.089C49.1883 192.678 49.618 193.133 50.172 193.452C50.7259 193.772 51.3829 193.932 52.1428 193.932C52.6471 193.932 53.1088 193.861 53.5278 193.719C53.9468 193.577 54.3055 193.364 54.6038 193.08C54.9021 192.795 55.1294 192.447 55.2856 192.036L59.483 192.312C59.27 193.321 58.8332 194.202 58.1727 194.955C57.5193 195.7 56.6741 196.283 55.6372 196.702C54.6073 197.114 53.4177 197.32 52.0683 197.32ZM62.5406 197V180.636H66.9404V183.491H67.1109C67.4092 182.476 67.9099 181.709 68.613 181.19C69.3161 180.665 70.1258 180.402 71.042 180.402C71.2693 180.402 71.5143 180.416 71.7771 180.445C72.0399 180.473 72.2707 180.512 72.4695 180.562V184.589C72.2565 184.525 71.9617 184.468 71.5853 184.418C71.2089 184.369 70.8644 184.344 70.5519 184.344C69.8843 184.344 69.2877 184.489 68.7622 184.781C68.2437 185.065 67.8318 185.462 67.5264 185.974C67.2281 186.485 67.0789 187.075 67.0789 187.742V197H62.5406ZM81.4477 197.32C79.7716 197.32 78.3298 196.964 77.1224 196.254C75.9221 195.537 74.9988 194.543 74.3525 193.271C73.7133 192 73.3937 190.537 73.3937 188.882C73.3937 187.206 73.7169 185.736 74.3632 184.472C75.0166 183.2 75.9434 182.21 77.1437 181.499C78.344 180.782 79.7716 180.423 81.4264 180.423C82.854 180.423 84.104 180.683 85.1764 181.201C86.2488 181.719 87.0976 182.447 87.7226 183.385C88.3476 184.322 88.692 185.423 88.7559 186.688H84.4733C84.3525 185.871 84.0329 185.214 83.5145 184.717C83.0031 184.212 82.3319 183.96 81.501 183.96C80.7979 183.96 80.1835 184.152 79.6579 184.536C79.1395 184.912 78.7346 185.462 78.4434 186.187C78.1523 186.911 78.0067 187.788 78.0067 188.818C78.0067 189.862 78.1487 190.75 78.4328 191.482C78.724 192.213 79.1324 192.771 79.6579 193.154C80.1835 193.538 80.7979 193.729 81.501 193.729C82.0194 193.729 82.4846 193.623 82.8966 193.41C83.3156 193.197 83.6601 192.888 83.93 192.483C84.2069 192.071 84.3881 191.577 84.4733 191.002H88.7559C88.6849 192.252 88.344 193.353 87.7332 194.305C87.1295 195.249 86.295 195.988 85.2297 196.521C84.1643 197.053 82.9037 197.32 81.4477 197.32ZM99.1191 197.32C97.4358 197.32 95.9869 196.979 94.7725 196.297C93.5651 195.608 92.6347 194.635 91.9813 193.378C91.3279 192.114 91.0012 190.619 91.0012 188.893C91.0012 187.21 91.3279 185.732 91.9813 184.461C92.6347 183.19 93.5544 182.199 94.7405 181.489C95.9337 180.778 97.3328 180.423 98.9379 180.423C100.017 180.423 101.022 180.597 101.953 180.945C102.89 181.286 103.707 181.801 104.403 182.49C105.106 183.179 105.653 184.045 106.044 185.089C106.434 186.126 106.63 187.341 106.63 188.733V189.979H92.8122V187.167H102.358C102.358 186.513 102.216 185.935 101.932 185.43C101.647 184.926 101.253 184.532 100.749 184.248C100.252 183.957 99.673 183.811 99.0125 183.811C98.3236 183.811 97.7128 183.971 97.1801 184.29C96.6546 184.603 96.2426 185.026 95.9443 185.558C95.646 186.084 95.4933 186.67 95.4862 187.316V189.99C95.4862 190.8 95.6354 191.499 95.9337 192.089C96.2391 192.678 96.6688 193.133 97.2227 193.452C97.7767 193.772 98.4337 193.932 99.1936 193.932C99.6979 193.932 100.16 193.861 100.579 193.719C100.998 193.577 101.356 193.364 101.655 193.08C101.953 192.795 102.18 192.447 102.336 192.036L106.534 192.312C106.321 193.321 105.884 194.202 105.223 194.955C104.57 195.7 103.725 196.283 102.688 196.702C101.658 197.114 100.468 197.32 99.1191 197.32ZM109.591 197V180.636H114.13V197H109.591ZM111.871 178.527C111.196 178.527 110.618 178.303 110.135 177.856C109.659 177.401 109.421 176.858 109.421 176.226C109.421 175.601 109.659 175.065 110.135 174.617C110.618 174.163 111.196 173.935 111.871 173.935C112.546 173.935 113.121 174.163 113.597 174.617C114.08 175.065 114.321 175.601 114.321 176.226C114.321 176.858 114.08 177.401 113.597 177.856C113.121 178.303 112.546 178.527 111.871 178.527ZM117.765 197V180.636H122.165V183.491H122.335C122.634 182.476 123.134 181.709 123.838 181.19C124.541 180.665 125.35 180.402 126.267 180.402C126.494 180.402 126.739 180.416 127.002 180.445C127.264 180.473 127.495 180.512 127.694 180.562V184.589C127.481 184.525 127.186 184.468 126.81 184.418C126.434 184.369 126.089 184.344 125.777 184.344C125.109 184.344 124.512 184.489 123.987 184.781C123.468 185.065 123.056 185.462 122.751 185.974C122.453 186.485 122.304 187.075 122.304 187.742V197H117.765ZM136.672 197.32C135.017 197.32 133.586 196.968 132.379 196.265C131.179 195.555 130.252 194.567 129.598 193.303C128.945 192.032 128.618 190.558 128.618 188.882C128.618 187.192 128.945 185.714 129.598 184.45C130.252 183.179 131.179 182.192 132.379 181.489C133.586 180.778 135.017 180.423 136.672 180.423C138.327 180.423 139.755 180.778 140.955 181.489C142.162 182.192 143.093 183.179 143.746 184.45C144.4 185.714 144.726 187.192 144.726 188.882C144.726 190.558 144.4 192.032 143.746 193.303C143.093 194.567 142.162 195.555 140.955 196.265C139.755 196.968 138.327 197.32 136.672 197.32ZM136.694 193.804C137.446 193.804 138.075 193.591 138.579 193.165C139.084 192.732 139.464 192.142 139.719 191.396C139.982 190.651 140.113 189.802 140.113 188.85C140.113 187.898 139.982 187.05 139.719 186.304C139.464 185.558 139.084 184.969 138.579 184.536C138.075 184.102 137.446 183.886 136.694 183.886C135.934 183.886 135.294 184.102 134.776 184.536C134.265 184.969 133.878 185.558 133.615 186.304C133.359 187.05 133.231 187.898 133.231 188.85C133.231 189.802 133.359 190.651 133.615 191.396C133.878 192.142 134.265 192.732 134.776 193.165C135.294 193.591 135.934 193.804 136.694 193.804ZM31.8388 214.985V211.182H49.7578V214.985H43.0781V233H38.5185V214.985H31.8388ZM55.0632 233.309C54.0192 233.309 53.0888 233.128 52.272 232.766C51.4553 232.396 50.8089 231.853 50.3331 231.136C49.8643 230.411 49.63 229.509 49.63 228.43C49.63 227.521 49.7969 226.757 50.1307 226.139C50.4645 225.521 50.919 225.024 51.4943 224.648C52.0696 224.271 52.723 223.987 53.4545 223.795C54.1932 223.604 54.9673 223.469 55.777 223.391C56.7287 223.291 57.4957 223.199 58.0781 223.114C58.6605 223.021 59.0831 222.886 59.3459 222.709C59.6087 222.531 59.7401 222.268 59.7401 221.92V221.857C59.7401 221.182 59.527 220.66 59.1009 220.29C58.6818 219.921 58.0852 219.737 57.3111 219.737C56.4943 219.737 55.8445 219.918 55.3615 220.28C54.8786 220.635 54.5589 221.082 54.4027 221.622L50.2053 221.281C50.4183 220.287 50.8374 219.428 51.4624 218.703C52.0874 217.972 52.8935 217.411 53.8807 217.02C54.875 216.622 56.0256 216.423 57.3324 216.423C58.2415 216.423 59.1115 216.53 59.9425 216.743C60.7805 216.956 61.5227 217.286 62.169 217.734C62.8224 218.181 63.3374 218.756 63.7138 219.46C64.0902 220.156 64.2784 220.99 64.2784 221.963V233H59.9744V230.731H59.8466C59.5838 231.242 59.2322 231.693 58.7919 232.084C58.3516 232.467 57.8224 232.769 57.2045 232.989C56.5866 233.202 55.8729 233.309 55.0632 233.309ZM56.3629 230.177C57.0305 230.177 57.62 230.045 58.1314 229.783C58.6428 229.513 59.044 229.151 59.3352 228.696C59.6264 228.241 59.772 227.727 59.772 227.151V225.415C59.63 225.507 59.4347 225.592 59.1861 225.67C58.9446 225.741 58.6712 225.809 58.3658 225.873C58.0604 225.93 57.755 225.983 57.4496 226.033C57.1442 226.075 56.8672 226.114 56.6186 226.15C56.0859 226.228 55.6207 226.352 55.223 226.523C54.8253 226.693 54.5163 226.924 54.2962 227.215C54.076 227.499 53.9659 227.854 53.9659 228.281C53.9659 228.898 54.1896 229.371 54.6371 229.697C55.0916 230.017 55.6669 230.177 56.3629 230.177ZM72.3377 223.54V233H67.7994V216.636H72.1246V219.523H72.3164C72.6786 218.572 73.2859 217.819 74.1381 217.265C74.9904 216.704 76.0238 216.423 77.2383 216.423C78.3746 216.423 79.3654 216.672 80.2106 217.169C81.0558 217.666 81.7127 218.376 82.1815 219.3C82.6502 220.216 82.8846 221.31 82.8846 222.581V233H78.3462V223.391C78.3533 222.389 78.0977 221.608 77.5792 221.047C77.0607 220.479 76.3469 220.195 75.4379 220.195C74.8271 220.195 74.2873 220.326 73.8185 220.589C73.3569 220.852 72.9947 221.235 72.7319 221.739C72.4762 222.237 72.3448 222.837 72.3377 223.54ZM97.2747 239.136V230.379H97.1362C96.9231 230.834 96.6213 231.285 96.2306 231.732C95.8471 232.173 95.3464 232.538 94.7285 232.83C94.1177 233.121 93.372 233.266 92.4913 233.266C91.2484 233.266 90.1227 232.947 89.1142 232.308C88.1127 231.661 87.3173 230.713 86.7278 229.463C86.1454 228.206 85.8542 226.665 85.8542 224.839C85.8542 222.964 86.1561 221.406 86.7598 220.163C87.3635 218.913 88.166 217.979 89.1674 217.361C90.176 216.736 91.2804 216.423 92.4806 216.423C93.3968 216.423 94.1603 216.58 94.7711 216.892C95.389 217.197 95.8862 217.581 96.2626 218.043C96.6461 218.497 96.9373 218.945 97.1362 219.385H97.3279V216.636H101.802V239.136H97.2747ZM93.9295 229.655C94.661 229.655 95.2789 229.456 95.7832 229.058C96.2946 228.653 96.6852 228.089 96.9551 227.364C97.2321 226.64 97.3706 225.791 97.3706 224.818C97.3706 223.845 97.2356 223 96.9657 222.283C96.6958 221.565 96.3052 221.011 95.7939 220.621C95.2825 220.23 94.661 220.035 93.9295 220.035C93.1838 220.035 92.5552 220.237 92.0439 220.642C91.5325 221.047 91.1454 221.608 90.8826 222.325C90.6199 223.043 90.4885 223.874 90.4885 224.818C90.4885 225.77 90.6199 226.612 90.8826 227.343C91.1525 228.067 91.5396 228.636 92.0439 229.048C92.5552 229.452 93.1838 229.655 93.9295 229.655ZM115.939 226.033V216.636H120.478V233H116.121V230.028H115.95C115.581 230.987 114.966 231.757 114.107 232.339C113.255 232.922 112.214 233.213 110.986 233.213C109.892 233.213 108.93 232.964 108.099 232.467C107.268 231.97 106.618 231.263 106.149 230.347C105.687 229.431 105.453 228.334 105.446 227.055V216.636H109.984V226.246C109.991 227.212 110.251 227.975 110.762 228.536C111.273 229.097 111.959 229.378 112.818 229.378C113.365 229.378 113.876 229.254 114.352 229.005C114.828 228.749 115.211 228.373 115.503 227.876C115.801 227.379 115.947 226.764 115.939 226.033ZM131.565 233.32C129.882 233.32 128.433 232.979 127.219 232.297C126.011 231.608 125.081 230.635 124.428 229.378C123.774 228.114 123.447 226.619 123.447 224.893C123.447 223.21 123.774 221.732 124.428 220.461C125.081 219.19 126.001 218.199 127.187 217.489C128.38 216.778 129.779 216.423 131.384 216.423C132.464 216.423 133.469 216.597 134.399 216.945C135.337 217.286 136.153 217.801 136.849 218.49C137.553 219.179 138.099 220.045 138.49 221.089C138.881 222.126 139.076 223.341 139.076 224.733V225.979H125.259V223.167H134.804C134.804 222.513 134.662 221.935 134.378 221.43C134.094 220.926 133.7 220.532 133.195 220.248C132.698 219.957 132.119 219.811 131.459 219.811C130.77 219.811 130.159 219.971 129.626 220.29C129.101 220.603 128.689 221.026 128.391 221.558C128.092 222.084 127.94 222.67 127.933 223.316V225.99C127.933 226.8 128.082 227.499 128.38 228.089C128.685 228.678 129.115 229.133 129.669 229.452C130.223 229.772 130.88 229.932 131.64 229.932C132.144 229.932 132.606 229.861 133.025 229.719C133.444 229.577 133.803 229.364 134.101 229.08C134.399 228.795 134.626 228.447 134.783 228.036L138.98 228.312C138.767 229.321 138.33 230.202 137.67 230.955C137.016 231.7 136.171 232.283 135.134 232.702C134.104 233.114 132.915 233.32 131.565 233.32Z" fill="white"/>
<defs>
<filter id="filter0_i_0_1" x="0" y="0" width="171" height="370" filterUnits="userSpaceOnUse" color-interpolation-filters="sRGB">
<feFlood flood-opacity="0" result="BackgroundImageFix"/>
<feBlend mode="normal" in="SourceGraphic" in2="BackgroundImageFix" result="shape"/>
<feColorMatrix in="SourceAlpha" type="matrix" values="0 0 0 0 0 0 0 0 0 0 0 0 0 0 0 0 0 0 127 0" result="hardAlpha"/>
<feOffset dy="50"/>
<feGaussianBlur stdDeviation="25"/>
<feComposite in2="hardAlpha" operator="arithmetic" k2="-1" k3="1"/>
<feColorMatrix type="matrix" values="0 0 0 0 1 0 0 0 0 1 0 0 0 0 1 0 0 0 0.03 0"/>
<feBlend mode="normal" in2="shape" result="effect1_innerShadow_0_1"/>
</filter>
</defs>
</svg>
