<svg width="171" height="320" viewBox="0 0 171 320" fill="none" xmlns="http://www.w3.org/2000/svg">
<g filter="url(#filter0_i_0_1)">
<rect width="171" height="320" rx="36" fill="#131627"/>
</g>
<rect x="1" y="1" width="169" height="318" rx="35" stroke="black" stroke-width="2"/>
<circle cx="85.5" cy="82.5" r="31" fill="#00ADB5" fill-opacity="0.8" stroke="white" stroke-width="3"/>
<path d="M76.4382 89.1648V85.532L85.5469 71.1818H88.679V76.2102H86.8253L81.0831 85.2976V85.468H94.027V89.1648H76.4382ZM86.9105 93V88.0568L86.9957 86.4482V71.1818H91.321V93H86.9105Z" fill="black"/>
<path d="M44.8765 189.415H48.797L50.7678 191.95L52.7068 194.209L56.3609 198.79H52.0569L49.5427 195.7L48.2536 193.868L44.8765 189.415ZM56.6911 186.091C56.6911 188.47 56.2401 190.494 55.3382 192.163C54.4433 193.832 53.2217 195.107 51.6734 195.988C50.1322 196.862 48.3992 197.298 46.4745 197.298C44.5356 197.298 42.7955 196.858 41.2544 195.977C39.7132 195.097 38.4951 193.822 37.6002 192.153C36.7053 190.484 36.2579 188.463 36.2579 186.091C36.2579 183.712 36.7053 181.688 37.6002 180.018C38.4951 178.349 39.7132 177.078 41.2544 176.205C42.7955 175.324 44.5356 174.884 46.4745 174.884C48.3992 174.884 50.1322 175.324 51.6734 176.205C53.2217 177.078 54.4433 178.349 55.3382 180.018C56.2401 181.688 56.6911 183.712 56.6911 186.091ZM52.0143 186.091C52.0143 184.55 51.7835 183.25 51.3218 182.192C50.8673 181.134 50.2245 180.331 49.3936 179.784C48.5626 179.237 47.5896 178.964 46.4745 178.964C45.3595 178.964 44.3865 179.237 43.5555 179.784C42.7245 180.331 42.0782 181.134 41.6166 182.192C41.162 183.25 40.9347 184.55 40.9347 186.091C40.9347 187.632 41.162 188.932 41.6166 189.99C42.0782 191.048 42.7245 191.851 43.5555 192.398C44.3865 192.945 45.3595 193.218 46.4745 193.218C47.5896 193.218 48.5626 192.945 49.3936 192.398C50.2245 191.851 50.8673 191.048 51.3218 189.99C51.7835 188.932 52.0143 187.632 52.0143 186.091ZM70.5166 190.033V180.636H75.055V197H70.6977V194.028H70.5273C70.1579 194.987 69.5436 195.757 68.6842 196.339C67.8319 196.922 66.7915 197.213 65.5628 197.213C64.469 197.213 63.5067 196.964 62.6757 196.467C61.8447 195.97 61.1949 195.263 60.7261 194.347C60.2645 193.431 60.0301 192.334 60.023 191.055V180.636H64.5613V190.246C64.5684 191.212 64.8277 191.975 65.339 192.536C65.8504 193.097 66.5358 193.378 67.3952 193.378C67.942 193.378 68.4534 193.254 68.9292 193.005C69.4051 192.749 69.7886 192.373 70.0798 191.876C70.3781 191.379 70.5237 190.764 70.5166 190.033ZM83.3513 197.309C82.3073 197.309 81.3769 197.128 80.5601 196.766C79.7433 196.396 79.097 195.853 78.6212 195.136C78.1524 194.411 77.9181 193.509 77.9181 192.43C77.9181 191.521 78.085 190.757 78.4188 190.139C78.7526 189.521 79.2071 189.024 79.7824 188.648C80.3577 188.271 81.0111 187.987 81.7426 187.795C82.4813 187.604 83.2554 187.469 84.0651 187.391C85.0168 187.291 85.7838 187.199 86.3662 187.114C86.9486 187.021 87.3712 186.886 87.634 186.709C87.8968 186.531 88.0281 186.268 88.0281 185.92V185.857C88.0281 185.182 87.8151 184.66 87.3889 184.29C86.9699 183.921 86.3733 183.737 85.5992 183.737C84.7824 183.737 84.1325 183.918 83.6496 184.28C83.1666 184.635 82.847 185.082 82.6908 185.622L78.4933 185.281C78.7064 184.287 79.1254 183.428 79.7504 182.703C80.3754 181.972 81.1816 181.411 82.1688 181.02C83.1631 180.622 84.3137 180.423 85.6205 180.423C86.5296 180.423 87.3996 180.53 88.2306 180.743C89.0686 180.956 89.8108 181.286 90.4571 181.734C91.1105 182.181 91.6254 182.756 92.0019 183.46C92.3783 184.156 92.5665 184.99 92.5665 185.963V197H88.2625V194.731H88.1347C87.8719 195.242 87.5203 195.693 87.08 196.084C86.6396 196.467 86.1105 196.769 85.4926 196.989C84.8747 197.202 84.161 197.309 83.3513 197.309ZM84.651 194.177C85.3186 194.177 85.9081 194.045 86.4195 193.783C86.9308 193.513 87.3321 193.151 87.6233 192.696C87.9145 192.241 88.0601 191.727 88.0601 191.151V189.415C87.9181 189.507 87.7227 189.592 87.4742 189.67C87.2327 189.741 86.9593 189.809 86.6539 189.873C86.3485 189.93 86.0431 189.983 85.7377 190.033C85.4323 190.075 85.1553 190.114 84.9067 190.15C84.374 190.228 83.9088 190.352 83.5111 190.523C83.1134 190.693 82.8044 190.924 82.5843 191.215C82.3641 191.499 82.254 191.854 82.254 192.281C82.254 192.898 82.4777 193.371 82.9252 193.697C83.3797 194.017 83.955 194.177 84.651 194.177ZM96.0874 197V180.636H100.487V183.491H100.658C100.956 182.476 101.457 181.709 102.16 181.19C102.863 180.665 103.673 180.402 104.589 180.402C104.816 180.402 105.061 180.416 105.324 180.445C105.587 180.473 105.818 180.512 106.016 180.562V184.589C105.803 184.525 105.509 184.468 105.132 184.418C104.756 184.369 104.411 184.344 104.099 184.344C103.431 184.344 102.835 184.489 102.309 184.781C101.791 185.065 101.379 185.462 101.073 185.974C100.775 186.485 100.626 187.075 100.626 187.742V197H96.0874ZM117.887 180.636V184.045H108.033V180.636H117.887ZM110.27 176.716H114.808V191.972C114.808 192.391 114.872 192.717 115 192.952C115.128 193.179 115.305 193.339 115.533 193.431C115.767 193.523 116.037 193.57 116.342 193.57C116.555 193.57 116.768 193.552 116.981 193.516C117.195 193.474 117.358 193.442 117.472 193.42L118.185 196.798C117.958 196.869 117.638 196.95 117.226 197.043C116.815 197.142 116.314 197.202 115.724 197.224C114.631 197.266 113.672 197.121 112.848 196.787C112.031 196.453 111.396 195.935 110.941 195.232C110.486 194.528 110.263 193.641 110.27 192.568V176.716ZM128.061 197.32C126.406 197.32 124.975 196.968 123.768 196.265C122.567 195.555 121.641 194.567 120.987 193.303C120.334 192.032 120.007 190.558 120.007 188.882C120.007 187.192 120.334 185.714 120.987 184.45C121.641 183.179 122.567 182.192 123.768 181.489C124.975 180.778 126.406 180.423 128.061 180.423C129.716 180.423 131.143 180.778 132.344 181.489C133.551 182.192 134.481 183.179 135.135 184.45C135.788 185.714 136.115 187.192 136.115 188.882C136.115 190.558 135.788 192.032 135.135 193.303C134.481 194.567 133.551 195.555 132.344 196.265C131.143 196.968 129.716 197.32 128.061 197.32ZM128.082 193.804C128.835 193.804 129.464 193.591 129.968 193.165C130.472 192.732 130.852 192.142 131.108 191.396C131.371 190.651 131.502 189.802 131.502 188.85C131.502 187.898 131.371 187.05 131.108 186.304C130.852 185.558 130.472 184.969 129.968 184.536C129.464 184.102 128.835 183.886 128.082 183.886C127.322 183.886 126.683 184.102 126.165 184.536C125.653 184.969 125.266 185.558 125.003 186.304C124.748 187.05 124.62 187.898 124.62 188.85C124.62 189.802 124.748 190.651 125.003 191.396C125.266 192.142 125.653 192.732 126.165 193.165C126.683 193.591 127.322 193.804 128.082 193.804ZM32.3388 214.985V211.182H50.2578V214.985H43.5781V233H39.0185V214.985H32.3388ZM55.5632 233.309C54.5192 233.309 53.5888 233.128 52.772 232.766C51.9553 232.396 51.3089 231.853 50.8331 231.136C50.3643 230.411 50.13 229.509 50.13 228.43C50.13 227.521 50.2969 226.757 50.6307 226.139C50.9645 225.521 51.419 225.024 51.9943 224.648C52.5696 224.271 53.223 223.987 53.9545 223.795C54.6932 223.604 55.4673 223.469 56.277 223.391C57.2287 223.291 57.9957 223.199 58.5781 223.114C59.1605 223.021 59.5831 222.886 59.8459 222.709C60.1087 222.531 60.2401 222.268 60.2401 221.92V221.857C60.2401 221.182 60.027 220.66 59.6009 220.29C59.1818 219.921 58.5852 219.737 57.8111 219.737C56.9943 219.737 56.3445 219.918 55.8615 220.28C55.3786 220.635 55.0589 221.082 54.9027 221.622L50.7053 221.281C50.9183 220.287 51.3374 219.428 51.9624 218.703C52.5874 217.972 53.3935 217.411 54.3807 217.02C55.375 216.622 56.5256 216.423 57.8324 216.423C58.7415 216.423 59.6115 216.53 60.4425 216.743C61.2805 216.956 62.0227 217.286 62.669 217.734C63.3224 218.181 63.8374 218.756 64.2138 219.46C64.5902 220.156 64.7784 220.99 64.7784 221.963V233H60.4744V230.731H60.3466C60.0838 231.242 59.7322 231.693 59.2919 232.084C58.8516 232.467 58.3224 232.769 57.7045 232.989C57.0866 233.202 56.3729 233.309 55.5632 233.309ZM56.8629 230.177C57.5305 230.177 58.12 230.045 58.6314 229.783C59.1428 229.513 59.544 229.151 59.8352 228.696C60.1264 228.241 60.272 227.727 60.272 227.151V225.415C60.13 225.507 59.9347 225.592 59.6861 225.67C59.4446 225.741 59.1712 225.809 58.8658 225.873C58.5604 225.93 58.255 225.983 57.9496 226.033C57.6442 226.075 57.3672 226.114 57.1186 226.15C56.5859 226.228 56.1207 226.352 55.723 226.523C55.3253 226.693 55.0163 226.924 54.7962 227.215C54.576 227.499 54.4659 227.854 54.4659 228.281C54.4659 228.898 54.6896 229.371 55.1371 229.697C55.5916 230.017 56.1669 230.177 56.8629 230.177ZM72.8377 223.54V233H68.2994V216.636H72.6246V219.523H72.8164C73.1786 218.572 73.7859 217.819 74.6381 217.265C75.4904 216.704 76.5238 216.423 77.7383 216.423C78.8746 216.423 79.8654 216.672 80.7106 217.169C81.5558 217.666 82.2127 218.376 82.6815 219.3C83.1502 220.216 83.3846 221.31 83.3846 222.581V233H78.8462V223.391C78.8533 222.389 78.5977 221.608 78.0792 221.047C77.5607 220.479 76.8469 220.195 75.9379 220.195C75.3271 220.195 74.7873 220.326 74.3185 220.589C73.8569 220.852 73.4947 221.235 73.2319 221.739C72.9762 222.237 72.8448 222.837 72.8377 223.54ZM97.7747 239.136V230.379H97.6362C97.4231 230.834 97.1213 231.285 96.7306 231.732C96.3471 232.173 95.8464 232.538 95.2285 232.83C94.6177 233.121 93.872 233.266 92.9913 233.266C91.7484 233.266 90.6227 232.947 89.6142 232.308C88.6127 231.661 87.8173 230.713 87.2278 229.463C86.6454 228.206 86.3542 226.665 86.3542 224.839C86.3542 222.964 86.6561 221.406 87.2598 220.163C87.8635 218.913 88.666 217.979 89.6674 217.361C90.676 216.736 91.7804 216.423 92.9806 216.423C93.8968 216.423 94.6603 216.58 95.2711 216.892C95.889 217.197 96.3862 217.581 96.7626 218.043C97.1461 218.497 97.4373 218.945 97.6362 219.385H97.8279V216.636H102.302V239.136H97.7747ZM94.4295 229.655C95.161 229.655 95.7789 229.456 96.2832 229.058C96.7946 228.653 97.1852 228.089 97.4551 227.364C97.7321 226.64 97.8706 225.791 97.8706 224.818C97.8706 223.845 97.7356 223 97.4657 222.283C97.1958 221.565 96.8052 221.011 96.2939 220.621C95.7825 220.23 95.161 220.035 94.4295 220.035C93.6838 220.035 93.0552 220.237 92.5439 220.642C92.0325 221.047 91.6454 221.608 91.3826 222.325C91.1199 223.043 90.9885 223.874 90.9885 224.818C90.9885 225.77 91.1199 226.612 91.3826 227.343C91.6525 228.067 92.0396 228.636 92.5439 229.048C93.0552 229.452 93.6838 229.655 94.4295 229.655ZM116.439 226.033V216.636H120.978V233H116.621V230.028H116.45C116.081 230.987 115.466 231.757 114.607 232.339C113.755 232.922 112.714 233.213 111.486 233.213C110.392 233.213 109.43 232.964 108.599 232.467C107.768 231.97 107.118 231.263 106.649 230.347C106.187 229.431 105.953 228.334 105.946 227.055V216.636H110.484V226.246C110.491 227.212 110.751 227.975 111.262 228.536C111.773 229.097 112.459 229.378 113.318 229.378C113.865 229.378 114.376 229.254 114.852 229.005C115.328 228.749 115.711 228.373 116.003 227.876C116.301 227.379 116.447 226.764 116.439 226.033ZM132.065 233.32C130.382 233.32 128.933 232.979 127.719 232.297C126.511 231.608 125.581 230.635 124.928 229.378C124.274 228.114 123.947 226.619 123.947 224.893C123.947 223.21 124.274 221.732 124.928 220.461C125.581 219.19 126.501 218.199 127.687 217.489C128.88 216.778 130.279 216.423 131.884 216.423C132.964 216.423 133.969 216.597 134.899 216.945C135.837 217.286 136.653 217.801 137.349 218.49C138.053 219.179 138.599 220.045 138.99 221.089C139.381 222.126 139.576 223.341 139.576 224.733V225.979H125.759V223.167H135.304C135.304 222.513 135.162 221.935 134.878 221.43C134.594 220.926 134.2 220.532 133.695 220.248C133.198 219.957 132.619 219.811 131.959 219.811C131.27 219.811 130.659 219.971 130.126 220.29C129.601 220.603 129.189 221.026 128.891 221.558C128.592 222.084 128.44 222.67 128.433 223.316V225.99C128.433 226.8 128.582 227.499 128.88 228.089C129.185 228.678 129.615 229.133 130.169 229.452C130.723 229.772 131.38 229.932 132.14 229.932C132.644 229.932 133.106 229.861 133.525 229.719C133.944 229.577 134.303 229.364 134.601 229.08C134.899 228.795 135.126 228.447 135.283 228.036L139.48 228.312C139.267 229.321 138.83 230.202 138.17 230.955C137.516 231.7 136.671 232.283 135.634 232.702C134.604 233.114 133.415 233.32 132.065 233.32Z" fill="white"/>
<defs>
<filter id="filter0_i_0_1" x="0" y="0" width="171" height="370" filterUnits="userSpaceOnUse" color-interpolation-filters="sRGB">
<feFlood flood-opacity="0" result="BackgroundImageFix"/>
<feBlend mode="normal" in="SourceGraphic" in2="BackgroundImageFix" result="shape"/>
<feColorMatrix in="SourceAlpha" type="matrix" values="0 0 0 0 0 0 0 0 0 0 0 0 0 0 0 0 0 0 127 0" result="hardAlpha"/>
<feOffset dy="50"/>
<feGaussianBlur stdDeviation="25"/>
<feComposite in2="hardAlpha" operator="arithmetic" k2="-1" k3="1"/>
<feColorMatrix type="matrix" values="0 0 0 0 1 0 0 0 0 1 0 0 0 0 1 0 0 0 0.03 0"/>
<feBlend mode="normal" in2="shape" result="effect1_innerShadow_0_1"/>
</filter>
</defs>
</svg>
