<svg width="171" height="320" viewBox="0 0 171 320" fill="none" xmlns="http://www.w3.org/2000/svg">
<g filter="url(#filter0_i_0_1)">
<rect width="171" height="320" rx="36" fill="#131627"/>
</g>
<rect x="1" y="1" width="169" height="318" rx="35" stroke="black" stroke-width="2"/>
<circle cx="85.5" cy="82.5" r="31" fill="#00ADB5" fill-opacity="0.8" stroke="white" stroke-width="3"/>
<path d="M77.7685 93V89.6761L85.5348 82.4851C86.1953 81.8459 86.7493 81.2706 87.1967 80.7592C87.6513 80.2479 87.9957 79.7472 88.2301 79.2571C88.4645 78.7599 88.5817 78.2237 88.5817 77.6484C88.5817 77.0092 88.4361 76.4588 88.1449 75.9972C87.8537 75.5284 87.456 75.1697 86.9517 74.9212C86.4474 74.6655 85.8757 74.5376 85.2365 74.5376C84.5689 74.5376 83.9865 74.6726 83.4893 74.9425C82.9922 75.2124 82.6087 75.5994 82.3388 76.1037C82.0689 76.608 81.9339 77.2081 81.9339 77.9041H77.5554C77.5554 76.4766 77.8786 75.2372 78.5249 74.1861C79.1712 73.1349 80.0767 72.3217 81.2415 71.7464C82.4063 71.1712 83.7486 70.8835 85.2685 70.8835C86.831 70.8835 88.1911 71.1605 89.3487 71.7145C90.5135 72.2614 91.419 73.0213 92.0653 73.9943C92.7116 74.9673 93.0348 76.0824 93.0348 77.3395C93.0348 78.1634 92.8714 78.9766 92.5447 79.7791C92.2251 80.5817 91.6534 81.473 90.8295 82.4531C90.0057 83.4261 88.8445 84.5945 87.3459 85.9581L84.1605 89.0795V89.2287H93.3224V93H77.7685Z" fill="black"/>
<path d="M34.0487 181.457C33.9634 180.597 33.5977 179.93 32.9513 179.454C32.305 178.978 31.4279 178.74 30.32 178.74C29.5671 178.74 28.9315 178.847 28.413 179.06C27.8945 179.266 27.4968 179.553 27.2198 179.923C26.9499 180.292 26.815 180.711 26.815 181.18C26.8008 181.57 26.8825 181.911 27.06 182.202C27.2447 182.494 27.4968 182.746 27.8164 182.959C28.136 183.165 28.5053 183.346 28.9244 183.502C29.3434 183.651 29.7908 183.779 30.2667 183.886L32.2269 184.354C33.1786 184.567 34.0522 184.852 34.8477 185.207C35.6431 185.562 36.332 185.999 36.9144 186.517C37.4968 187.036 37.9478 187.646 38.2674 188.349C38.5941 189.053 38.761 189.859 38.7681 190.768C38.761 192.103 38.4201 193.261 37.7454 194.241C37.0778 195.214 36.1119 195.97 34.8477 196.51C33.5906 197.043 32.0742 197.309 30.2987 197.309C28.5373 197.309 27.0032 197.039 25.6964 196.499C24.3967 195.96 23.381 195.161 22.6495 194.102C21.9251 193.037 21.5451 191.719 21.5096 190.15H25.9734C26.0231 190.881 26.2326 191.492 26.6019 191.982C26.9783 192.465 27.479 192.831 28.104 193.08C28.7362 193.321 29.4499 193.442 30.2454 193.442C31.0266 193.442 31.7049 193.328 32.2802 193.101C32.8626 192.874 33.3136 192.558 33.6332 192.153C33.9528 191.748 34.1126 191.283 34.1126 190.757C34.1126 190.267 33.967 189.855 33.6758 189.521C33.3917 189.187 32.9727 188.903 32.4187 188.669C31.8718 188.435 31.2006 188.222 30.4052 188.03L28.0295 187.433C26.19 186.986 24.7376 186.286 23.6722 185.335C22.6069 184.383 22.0778 183.101 22.0849 181.489C22.0778 180.168 22.4293 179.013 23.1396 178.026C23.8569 177.039 24.8406 176.268 26.0906 175.714C27.3406 175.161 28.761 174.884 30.3519 174.884C31.9712 174.884 33.3846 175.161 34.592 175.714C35.8065 176.268 36.7511 177.039 37.4258 178.026C38.1005 179.013 38.4485 180.157 38.4698 181.457H34.0487ZM49.2431 197.32C47.5598 197.32 46.111 196.979 44.8965 196.297C43.6891 195.608 42.7587 194.635 42.1053 193.378C41.4519 192.114 41.1252 190.619 41.1252 188.893C41.1252 187.21 41.4519 185.732 42.1053 184.461C42.7587 183.19 43.6784 182.199 44.8645 181.489C46.0577 180.778 47.4569 180.423 49.062 180.423C50.1415 180.423 51.1465 180.597 52.0769 180.945C53.0144 181.286 53.8311 181.801 54.5272 182.49C55.2303 183.179 55.7772 184.045 56.1678 185.089C56.5584 186.126 56.7537 187.341 56.7537 188.733V189.979H42.9363V187.167H52.4817C52.4817 186.513 52.3397 185.935 52.0556 185.43C51.7715 184.926 51.3773 184.532 50.873 184.248C50.3759 183.957 49.7971 183.811 49.1365 183.811C48.4476 183.811 47.8368 183.971 47.3042 184.29C46.7786 184.603 46.3667 185.026 46.0684 185.558C45.7701 186.084 45.6174 186.67 45.6103 187.316V189.99C45.6103 190.8 45.7594 191.499 46.0577 192.089C46.3631 192.678 46.7928 193.133 47.3468 193.452C47.9007 193.772 48.5577 193.932 49.3176 193.932C49.8219 193.932 50.2836 193.861 50.7026 193.719C51.1216 193.577 51.4803 193.364 51.7786 193.08C52.0769 192.795 52.3042 192.447 52.4604 192.036L56.6578 192.312C56.4448 193.321 56.008 194.202 55.3475 194.955C54.6941 195.7 53.8489 196.283 52.812 196.702C51.7821 197.114 50.5925 197.32 49.2431 197.32ZM67.0875 203.477C65.6174 203.477 64.3567 203.275 63.3056 202.87C62.2615 202.472 61.4306 201.929 60.8127 201.24C60.1948 200.551 59.7935 199.777 59.6088 198.918L63.8063 198.353C63.9341 198.68 64.1365 198.985 64.4135 199.269C64.6905 199.553 65.0563 199.781 65.5108 199.951C65.9725 200.129 66.5336 200.217 67.1941 200.217C68.1813 200.217 68.9945 199.976 69.6337 199.493C70.28 199.017 70.6032 198.218 70.6032 197.096V194.102H70.4114C70.2125 194.557 69.9142 194.987 69.5165 195.391C69.1188 195.796 68.6074 196.126 67.9824 196.382C67.3574 196.638 66.6117 196.766 65.7452 196.766C64.5165 196.766 63.3979 196.482 62.3894 195.913C61.388 195.338 60.589 194.461 59.9924 193.282C59.4029 192.096 59.1081 190.597 59.1081 188.786C59.1081 186.933 59.41 185.384 60.0137 184.141C60.6174 182.898 61.4199 181.968 62.4213 181.35C63.4299 180.732 64.5343 180.423 65.7346 180.423C66.6507 180.423 67.4178 180.58 68.0357 180.892C68.6536 181.197 69.1507 181.581 69.5272 182.043C69.9107 182.497 70.2054 182.945 70.4114 183.385H70.5819V180.636H75.0882V197.16C75.0882 198.552 74.7473 199.717 74.0655 200.654C73.3837 201.592 72.4391 202.295 71.2317 202.763C70.0314 203.239 68.65 203.477 67.0875 203.477ZM67.1834 193.357C67.915 193.357 68.5328 193.175 69.0371 192.813C69.5485 192.444 69.9391 191.918 70.209 191.237C70.486 190.548 70.6245 189.724 70.6245 188.765C70.6245 187.806 70.4895 186.975 70.2196 186.272C69.9498 185.562 69.5591 185.011 69.0478 184.621C68.5364 184.23 67.915 184.035 67.1834 184.035C66.4377 184.035 65.8091 184.237 65.2978 184.642C64.7864 185.04 64.3993 185.594 64.1365 186.304C63.8738 187.014 63.7424 187.835 63.7424 188.765C63.7424 189.71 63.8738 190.526 64.1365 191.215C64.4064 191.897 64.7935 192.426 65.2978 192.803C65.8091 193.172 66.4377 193.357 67.1834 193.357ZM89.1934 190.033V180.636H93.7317V197H89.3745V194.028H89.204C88.8347 194.987 88.2203 195.757 87.361 196.339C86.5087 196.922 85.4682 197.213 84.2395 197.213C83.1458 197.213 82.1834 196.964 81.3525 196.467C80.5215 195.97 79.8716 195.263 79.4029 194.347C78.9412 193.431 78.7069 192.334 78.6998 191.055V180.636H83.2381V190.246C83.2452 191.212 83.5044 191.975 84.0158 192.536C84.5272 193.097 85.2125 193.378 86.0719 193.378C86.6188 193.378 87.1301 193.254 87.606 193.005C88.0819 192.749 88.4654 192.373 88.7566 191.876C89.0549 191.379 89.2005 190.764 89.1934 190.033ZM101.9 187.54V197H97.3619V180.636H101.687V183.523H101.879C102.241 182.572 102.848 181.819 103.701 181.265C104.553 180.704 105.586 180.423 106.801 180.423C107.937 180.423 108.928 180.672 109.773 181.169C110.618 181.666 111.275 182.376 111.744 183.3C112.213 184.216 112.447 185.31 112.447 186.581V197H107.909V187.391C107.916 186.389 107.66 185.608 107.142 185.047C106.623 184.479 105.909 184.195 105 184.195C104.39 184.195 103.85 184.326 103.381 184.589C102.919 184.852 102.557 185.235 102.294 185.739C102.039 186.237 101.907 186.837 101.9 187.54ZM122.054 197.266C120.811 197.266 119.685 196.947 118.677 196.308C117.675 195.661 116.88 194.713 116.29 193.463C115.708 192.206 115.417 190.665 115.417 188.839C115.417 186.964 115.719 185.406 116.322 184.163C116.926 182.913 117.729 181.979 118.73 181.361C119.738 180.736 120.843 180.423 122.043 180.423C122.959 180.423 123.723 180.58 124.334 180.892C124.952 181.197 125.449 181.581 125.825 182.043C126.209 182.497 126.5 182.945 126.699 183.385H126.837V175.182H131.365V197H126.89V194.379H126.699C126.486 194.834 126.184 195.285 125.793 195.732C125.41 196.173 124.909 196.538 124.291 196.83C123.68 197.121 122.934 197.266 122.054 197.266ZM123.492 193.655C124.224 193.655 124.841 193.456 125.346 193.058C125.857 192.653 126.248 192.089 126.518 191.364C126.795 190.64 126.933 189.791 126.933 188.818C126.933 187.845 126.798 187 126.528 186.283C126.258 185.565 125.868 185.011 125.356 184.621C124.845 184.23 124.224 184.035 123.492 184.035C122.746 184.035 122.118 184.237 121.606 184.642C121.095 185.047 120.708 185.608 120.445 186.325C120.182 187.043 120.051 187.874 120.051 188.818C120.051 189.77 120.182 190.612 120.445 191.343C120.715 192.067 121.102 192.636 121.606 193.048C122.118 193.452 122.746 193.655 123.492 193.655ZM142.49 197.32C140.835 197.32 139.404 196.968 138.196 196.265C136.996 195.555 136.069 194.567 135.416 193.303C134.762 192.032 134.436 190.558 134.436 188.882C134.436 187.192 134.762 185.714 135.416 184.45C136.069 183.179 136.996 182.192 138.196 181.489C139.404 180.778 140.835 180.423 142.49 180.423C144.145 180.423 145.572 180.778 146.772 181.489C147.98 182.192 148.91 183.179 149.564 184.45C150.217 185.714 150.544 187.192 150.544 188.882C150.544 190.558 150.217 192.032 149.564 193.303C148.91 194.567 147.98 195.555 146.772 196.265C145.572 196.968 144.145 197.32 142.49 197.32ZM142.511 193.804C143.264 193.804 143.892 193.591 144.397 193.165C144.901 192.732 145.281 192.142 145.537 191.396C145.799 190.651 145.931 189.802 145.931 188.85C145.931 187.898 145.799 187.05 145.537 186.304C145.281 185.558 144.901 184.969 144.397 184.536C143.892 184.102 143.264 183.886 142.511 183.886C141.751 183.886 141.112 184.102 140.593 184.536C140.082 184.969 139.695 185.558 139.432 186.304C139.176 187.05 139.049 187.898 139.049 188.85C139.049 189.802 139.176 190.651 139.432 191.396C139.695 192.142 140.082 192.732 140.593 193.165C141.112 193.591 141.751 193.804 142.511 193.804ZM32.3388 214.985V211.182H50.2578V214.985H43.5781V233H39.0185V214.985H32.3388ZM55.5632 233.309C54.5192 233.309 53.5888 233.128 52.772 232.766C51.9553 232.396 51.3089 231.853 50.8331 231.136C50.3643 230.411 50.13 229.509 50.13 228.43C50.13 227.521 50.2969 226.757 50.6307 226.139C50.9645 225.521 51.419 225.024 51.9943 224.648C52.5696 224.271 53.223 223.987 53.9545 223.795C54.6932 223.604 55.4673 223.469 56.277 223.391C57.2287 223.291 57.9957 223.199 58.5781 223.114C59.1605 223.021 59.5831 222.886 59.8459 222.709C60.1087 222.531 60.2401 222.268 60.2401 221.92V221.857C60.2401 221.182 60.027 220.66 59.6009 220.29C59.1818 219.921 58.5852 219.737 57.8111 219.737C56.9943 219.737 56.3445 219.918 55.8615 220.28C55.3786 220.635 55.0589 221.082 54.9027 221.622L50.7053 221.281C50.9183 220.287 51.3374 219.428 51.9624 218.703C52.5874 217.972 53.3935 217.411 54.3807 217.02C55.375 216.622 56.5256 216.423 57.8324 216.423C58.7415 216.423 59.6115 216.53 60.4425 216.743C61.2805 216.956 62.0227 217.286 62.669 217.734C63.3224 218.181 63.8374 218.756 64.2138 219.46C64.5902 220.156 64.7784 220.99 64.7784 221.963V233H60.4744V230.731H60.3466C60.0838 231.242 59.7322 231.693 59.2919 232.084C58.8516 232.467 58.3224 232.769 57.7045 232.989C57.0866 233.202 56.3729 233.309 55.5632 233.309ZM56.8629 230.177C57.5305 230.177 58.12 230.045 58.6314 229.783C59.1428 229.513 59.544 229.151 59.8352 228.696C60.1264 228.241 60.272 227.727 60.272 227.151V225.415C60.13 225.507 59.9347 225.592 59.6861 225.67C59.4446 225.741 59.1712 225.809 58.8658 225.873C58.5604 225.93 58.255 225.983 57.9496 226.033C57.6442 226.075 57.3672 226.114 57.1186 226.15C56.5859 226.228 56.1207 226.352 55.723 226.523C55.3253 226.693 55.0163 226.924 54.7962 227.215C54.576 227.499 54.4659 227.854 54.4659 228.281C54.4659 228.898 54.6896 229.371 55.1371 229.697C55.5916 230.017 56.1669 230.177 56.8629 230.177ZM72.8377 223.54V233H68.2994V216.636H72.6246V219.523H72.8164C73.1786 218.572 73.7859 217.819 74.6381 217.265C75.4904 216.704 76.5238 216.423 77.7383 216.423C78.8746 216.423 79.8654 216.672 80.7106 217.169C81.5558 217.666 82.2127 218.376 82.6815 219.3C83.1502 220.216 83.3846 221.31 83.3846 222.581V233H78.8462V223.391C78.8533 222.389 78.5977 221.608 78.0792 221.047C77.5607 220.479 76.8469 220.195 75.9379 220.195C75.3271 220.195 74.7873 220.326 74.3185 220.589C73.8569 220.852 73.4947 221.235 73.2319 221.739C72.9762 222.237 72.8448 222.837 72.8377 223.54ZM97.7747 239.136V230.379H97.6362C97.4231 230.834 97.1213 231.285 96.7306 231.732C96.3471 232.173 95.8464 232.538 95.2285 232.83C94.6177 233.121 93.872 233.266 92.9913 233.266C91.7484 233.266 90.6227 232.947 89.6142 232.308C88.6127 231.661 87.8173 230.713 87.2278 229.463C86.6454 228.206 86.3542 226.665 86.3542 224.839C86.3542 222.964 86.6561 221.406 87.2598 220.163C87.8635 218.913 88.666 217.979 89.6674 217.361C90.676 216.736 91.7804 216.423 92.9806 216.423C93.8968 216.423 94.6603 216.58 95.2711 216.892C95.889 217.197 96.3862 217.581 96.7626 218.043C97.1461 218.497 97.4373 218.945 97.6362 219.385H97.8279V216.636H102.302V239.136H97.7747ZM94.4295 229.655C95.161 229.655 95.7789 229.456 96.2832 229.058C96.7946 228.653 97.1852 228.089 97.4551 227.364C97.7321 226.64 97.8706 225.791 97.8706 224.818C97.8706 223.845 97.7356 223 97.4657 222.283C97.1958 221.565 96.8052 221.011 96.2939 220.621C95.7825 220.23 95.161 220.035 94.4295 220.035C93.6838 220.035 93.0552 220.237 92.5439 220.642C92.0325 221.047 91.6454 221.608 91.3826 222.325C91.1199 223.043 90.9885 223.874 90.9885 224.818C90.9885 225.77 91.1199 226.612 91.3826 227.343C91.6525 228.067 92.0396 228.636 92.5439 229.048C93.0552 229.452 93.6838 229.655 94.4295 229.655ZM116.439 226.033V216.636H120.978V233H116.621V230.028H116.45C116.081 230.987 115.466 231.757 114.607 232.339C113.755 232.922 112.714 233.213 111.486 233.213C110.392 233.213 109.43 232.964 108.599 232.467C107.768 231.97 107.118 231.263 106.649 230.347C106.187 229.431 105.953 228.334 105.946 227.055V216.636H110.484V226.246C110.491 227.212 110.751 227.975 111.262 228.536C111.773 229.097 112.459 229.378 113.318 229.378C113.865 229.378 114.376 229.254 114.852 229.005C115.328 228.749 115.711 228.373 116.003 227.876C116.301 227.379 116.447 226.764 116.439 226.033ZM132.065 233.32C130.382 233.32 128.933 232.979 127.719 232.297C126.511 231.608 125.581 230.635 124.928 229.378C124.274 228.114 123.947 226.619 123.947 224.893C123.947 223.21 124.274 221.732 124.928 220.461C125.581 219.19 126.501 218.199 127.687 217.489C128.88 216.778 130.279 216.423 131.884 216.423C132.964 216.423 133.969 216.597 134.899 216.945C135.837 217.286 136.653 217.801 137.349 218.49C138.053 219.179 138.599 220.045 138.99 221.089C139.381 222.126 139.576 223.341 139.576 224.733V225.979H125.759V223.167H135.304C135.304 222.513 135.162 221.935 134.878 221.43C134.594 220.926 134.2 220.532 133.695 220.248C133.198 219.957 132.619 219.811 131.959 219.811C131.27 219.811 130.659 219.971 130.126 220.29C129.601 220.603 129.189 221.026 128.891 221.558C128.592 222.084 128.44 222.67 128.433 223.316V225.99C128.433 226.8 128.582 227.499 128.88 228.089C129.185 228.678 129.615 229.133 130.169 229.452C130.723 229.772 131.38 229.932 132.14 229.932C132.644 229.932 133.106 229.861 133.525 229.719C133.944 229.577 134.303 229.364 134.601 229.08C134.899 228.795 135.126 228.447 135.283 228.036L139.48 228.312C139.267 229.321 138.83 230.202 138.17 230.955C137.516 231.7 136.671 232.283 135.634 232.702C134.604 233.114 133.415 233.32 132.065 233.32Z" fill="white"/>
<defs>
<filter id="filter0_i_0_1" x="0" y="0" width="171" height="370" filterUnits="userSpaceOnUse" color-interpolation-filters="sRGB">
<feFlood flood-opacity="0" result="BackgroundImageFix"/>
<feBlend mode="normal" in="SourceGraphic" in2="BackgroundImageFix" result="shape"/>
<feColorMatrix in="SourceAlpha" type="matrix" values="0 0 0 0 0 0 0 0 0 0 0 0 0 0 0 0 0 0 127 0" result="hardAlpha"/>
<feOffset dy="50"/>
<feGaussianBlur stdDeviation="25"/>
<feComposite in2="hardAlpha" operator="arithmetic" k2="-1" k3="1"/>
<feColorMatrix type="matrix" values="0 0 0 0 1 0 0 0 0 1 0 0 0 0 1 0 0 0 0.03 0"/>
<feBlend mode="normal" in2="shape" result="effect1_innerShadow_0_1"/>
</filter>
</defs>
</svg>
