<svg width="171" height="320" viewBox="0 0 171 320" fill="none" xmlns="http://www.w3.org/2000/svg">
<g filter="url(#filter0_i_0_1)">
<rect width="171" height="320" rx="36" fill="#131627"/>
</g>
<rect x="1" y="1" width="169" height="318" rx="35" stroke="black" stroke-width="2"/>
<circle cx="85.5" cy="82.5" r="31" fill="#00ADB5" fill-opacity="0.8" stroke="white" stroke-width="3"/>
<path d="M84.7372 93.2983C83.2315 93.2983 81.8892 93.0213 80.7102 92.4673C79.5384 91.9134 78.608 91.1499 77.919 90.1768C77.2301 89.2038 76.8714 88.0888 76.843 86.8317H81.3175C81.3672 87.6768 81.7223 88.3622 82.3828 88.8878C83.0433 89.4134 83.8281 89.6761 84.7372 89.6761C85.4616 89.6761 86.1009 89.5163 86.6548 89.1967C87.2159 88.87 87.6527 88.419 87.9652 87.8438C88.2848 87.2614 88.4446 86.5937 88.4446 85.8409C88.4446 85.0739 88.2813 84.3991 87.9545 83.8168C87.6349 83.2344 87.1911 82.7798 86.6229 82.4531C86.0547 82.1264 85.4048 81.9595 84.6733 81.9524C84.0341 81.9524 83.4126 82.0838 82.8089 82.3466C82.2124 82.6094 81.7472 82.968 81.4134 83.4226L77.3118 82.6875L78.3452 71.1818H91.6832V74.9531H82.1484L81.5838 80.4183H81.7116C82.0952 79.8786 82.674 79.4311 83.4482 79.076C84.2223 78.7209 85.0888 78.5433 86.0476 78.5433C87.3615 78.5433 88.5334 78.8523 89.5632 79.4702C90.593 80.0881 91.4062 80.9368 92.0028 82.0163C92.5994 83.0888 92.8942 84.3246 92.8871 85.7237C92.8942 87.1939 92.5533 88.5007 91.8643 89.6442C91.1825 90.7805 90.2273 91.6754 88.9986 92.3288C87.777 92.9751 86.3565 93.2983 84.7372 93.2983Z" fill="black"/>
<path d="M46.7076 189.415H50.628L52.5989 191.95L54.5378 194.209L58.1919 198.79H53.888L51.3738 195.7L50.0847 193.868L46.7076 189.415ZM58.5222 186.091C58.5222 188.47 58.0712 190.494 57.1692 192.163C56.2743 193.832 55.0527 195.107 53.5044 195.988C51.9632 196.862 50.2303 197.298 48.3056 197.298C46.3667 197.298 44.6266 196.858 43.0854 195.977C41.5442 195.097 40.3262 193.822 39.4313 192.153C38.5364 190.484 38.089 188.463 38.089 186.091C38.089 183.712 38.5364 181.688 39.4313 180.018C40.3262 178.349 41.5442 177.078 43.0854 176.205C44.6266 175.324 46.3667 174.884 48.3056 174.884C50.2303 174.884 51.9632 175.324 53.5044 176.205C55.0527 177.078 56.2743 178.349 57.1692 180.018C58.0712 181.688 58.5222 183.712 58.5222 186.091ZM53.8453 186.091C53.8453 184.55 53.6145 183.25 53.1529 182.192C52.6983 181.134 52.0556 180.331 51.2246 179.784C50.3936 179.237 49.4206 178.964 48.3056 178.964C47.1905 178.964 46.2175 179.237 45.3865 179.784C44.5556 180.331 43.9093 181.134 43.4476 182.192C42.9931 183.25 42.7658 184.55 42.7658 186.091C42.7658 187.632 42.9931 188.932 43.4476 189.99C43.9093 191.048 44.5556 191.851 45.3865 192.398C46.2175 192.945 47.1905 193.218 48.3056 193.218C49.4206 193.218 50.3936 192.945 51.2246 192.398C52.0556 191.851 52.6983 191.048 53.1529 189.99C53.6145 188.932 53.8453 187.632 53.8453 186.091ZM72.3477 190.033V180.636H76.886V197H72.5288V194.028H72.3583C71.989 194.987 71.3746 195.757 70.5153 196.339C69.663 196.922 68.6225 197.213 67.3938 197.213C66.3001 197.213 65.3377 196.964 64.5067 196.467C63.6758 195.97 63.0259 195.263 62.5572 194.347C62.0955 193.431 61.8612 192.334 61.854 191.055V180.636H66.3924V190.246C66.3995 191.212 66.6587 191.975 67.1701 192.536C67.6815 193.097 68.3668 193.378 69.2262 193.378C69.7731 193.378 70.2844 193.254 70.7603 193.005C71.2362 192.749 71.6197 192.373 71.9109 191.876C72.2092 191.379 72.3548 190.764 72.3477 190.033ZM80.5162 197V180.636H85.0545V197H80.5162ZM82.796 178.527C82.1213 178.527 81.5424 178.303 81.0595 177.856C80.5836 177.401 80.3457 176.858 80.3457 176.226C80.3457 175.601 80.5836 175.065 81.0595 174.617C81.5424 174.163 82.1213 173.935 82.796 173.935C83.4707 173.935 84.046 174.163 84.5218 174.617C85.0048 175.065 85.2463 175.601 85.2463 176.226C85.2463 176.858 85.0048 177.401 84.5218 177.856C84.046 178.303 83.4707 178.527 82.796 178.527ZM93.2283 187.54V197H88.69V180.636H93.0153V183.523H93.207C93.5692 182.572 94.1765 181.819 95.0288 181.265C95.881 180.704 96.9144 180.423 98.1289 180.423C99.2653 180.423 100.256 180.672 101.101 181.169C101.946 181.666 102.603 182.376 103.072 183.3C103.541 184.216 103.775 185.31 103.775 186.581V197H99.2369V187.391C99.244 186.389 98.9883 185.608 98.4698 185.047C97.9513 184.479 97.2376 184.195 96.3285 184.195C95.7177 184.195 95.1779 184.326 94.7092 184.589C94.2475 184.852 93.8853 185.235 93.6225 185.739C93.3668 186.237 93.2354 186.837 93.2283 187.54ZM116.056 180.636V184.045H106.202V180.636H116.056ZM108.439 176.716H112.977V191.972C112.977 192.391 113.041 192.717 113.169 192.952C113.297 193.179 113.474 193.339 113.702 193.431C113.936 193.523 114.206 193.57 114.511 193.57C114.724 193.57 114.937 193.552 115.15 193.516C115.363 193.474 115.527 193.442 115.64 193.42L116.354 196.798C116.127 196.869 115.807 196.95 115.395 197.043C114.983 197.142 114.483 197.202 113.893 197.224C112.8 197.266 111.841 197.121 111.017 196.787C110.2 196.453 109.564 195.935 109.11 195.232C108.655 194.528 108.432 193.641 108.439 192.568V176.716ZM126.23 197.32C124.575 197.32 123.144 196.968 121.937 196.265C120.736 195.555 119.809 194.567 119.156 193.303C118.503 192.032 118.176 190.558 118.176 188.882C118.176 187.192 118.503 185.714 119.156 184.45C119.809 183.179 120.736 182.192 121.937 181.489C123.144 180.778 124.575 180.423 126.23 180.423C127.885 180.423 129.312 180.778 130.513 181.489C131.72 182.192 132.65 183.179 133.304 184.45C133.957 185.714 134.284 187.192 134.284 188.882C134.284 190.558 133.957 192.032 133.304 193.303C132.65 194.567 131.72 195.555 130.513 196.265C129.312 196.968 127.885 197.32 126.23 197.32ZM126.251 193.804C127.004 193.804 127.633 193.591 128.137 193.165C128.641 192.732 129.021 192.142 129.277 191.396C129.54 190.651 129.671 189.802 129.671 188.85C129.671 187.898 129.54 187.05 129.277 186.304C129.021 185.558 128.641 184.969 128.137 184.536C127.633 184.102 127.004 183.886 126.251 183.886C125.491 183.886 124.852 184.102 124.334 184.536C123.822 184.969 123.435 185.558 123.172 186.304C122.917 187.05 122.789 187.898 122.789 188.85C122.789 189.802 122.917 190.651 123.172 191.396C123.435 192.142 123.822 192.732 124.334 193.165C124.852 193.591 125.491 193.804 126.251 193.804ZM32.3388 214.985V211.182H50.2578V214.985H43.5781V233H39.0185V214.985H32.3388ZM55.5632 233.309C54.5192 233.309 53.5888 233.128 52.772 232.766C51.9553 232.396 51.3089 231.853 50.8331 231.136C50.3643 230.411 50.13 229.509 50.13 228.43C50.13 227.521 50.2969 226.757 50.6307 226.139C50.9645 225.521 51.419 225.024 51.9943 224.648C52.5696 224.271 53.223 223.987 53.9545 223.795C54.6932 223.604 55.4673 223.469 56.277 223.391C57.2287 223.291 57.9957 223.199 58.5781 223.114C59.1605 223.021 59.5831 222.886 59.8459 222.709C60.1087 222.531 60.2401 222.268 60.2401 221.92V221.857C60.2401 221.182 60.027 220.66 59.6009 220.29C59.1818 219.921 58.5852 219.737 57.8111 219.737C56.9943 219.737 56.3445 219.918 55.8615 220.28C55.3786 220.635 55.0589 221.082 54.9027 221.622L50.7053 221.281C50.9183 220.287 51.3374 219.428 51.9624 218.703C52.5874 217.972 53.3935 217.411 54.3807 217.02C55.375 216.622 56.5256 216.423 57.8324 216.423C58.7415 216.423 59.6115 216.53 60.4425 216.743C61.2805 216.956 62.0227 217.286 62.669 217.734C63.3224 218.181 63.8374 218.756 64.2138 219.46C64.5902 220.156 64.7784 220.99 64.7784 221.963V233H60.4744V230.731H60.3466C60.0838 231.242 59.7322 231.693 59.2919 232.084C58.8516 232.467 58.3224 232.769 57.7045 232.989C57.0866 233.202 56.3729 233.309 55.5632 233.309ZM56.8629 230.177C57.5305 230.177 58.12 230.045 58.6314 229.783C59.1428 229.513 59.544 229.151 59.8352 228.696C60.1264 228.241 60.272 227.727 60.272 227.151V225.415C60.13 225.507 59.9347 225.592 59.6861 225.67C59.4446 225.741 59.1712 225.809 58.8658 225.873C58.5604 225.93 58.255 225.983 57.9496 226.033C57.6442 226.075 57.3672 226.114 57.1186 226.15C56.5859 226.228 56.1207 226.352 55.723 226.523C55.3253 226.693 55.0163 226.924 54.7962 227.215C54.576 227.499 54.4659 227.854 54.4659 228.281C54.4659 228.898 54.6896 229.371 55.1371 229.697C55.5916 230.017 56.1669 230.177 56.8629 230.177ZM72.8377 223.54V233H68.2994V216.636H72.6246V219.523H72.8164C73.1786 218.572 73.7859 217.819 74.6381 217.265C75.4904 216.704 76.5238 216.423 77.7383 216.423C78.8746 216.423 79.8654 216.672 80.7106 217.169C81.5558 217.666 82.2127 218.376 82.6815 219.3C83.1502 220.216 83.3846 221.31 83.3846 222.581V233H78.8462V223.391C78.8533 222.389 78.5977 221.608 78.0792 221.047C77.5607 220.479 76.8469 220.195 75.9379 220.195C75.3271 220.195 74.7873 220.326 74.3185 220.589C73.8569 220.852 73.4947 221.235 73.2319 221.739C72.9762 222.237 72.8448 222.837 72.8377 223.54ZM97.7747 239.136V230.379H97.6362C97.4231 230.834 97.1213 231.285 96.7306 231.732C96.3471 232.173 95.8464 232.538 95.2285 232.83C94.6177 233.121 93.872 233.266 92.9913 233.266C91.7484 233.266 90.6227 232.947 89.6142 232.308C88.6127 231.661 87.8173 230.713 87.2278 229.463C86.6454 228.206 86.3542 226.665 86.3542 224.839C86.3542 222.964 86.6561 221.406 87.2598 220.163C87.8635 218.913 88.666 217.979 89.6674 217.361C90.676 216.736 91.7804 216.423 92.9806 216.423C93.8968 216.423 94.6603 216.58 95.2711 216.892C95.889 217.197 96.3862 217.581 96.7626 218.043C97.1461 218.497 97.4373 218.945 97.6362 219.385H97.8279V216.636H102.302V239.136H97.7747ZM94.4295 229.655C95.161 229.655 95.7789 229.456 96.2832 229.058C96.7946 228.653 97.1852 228.089 97.4551 227.364C97.7321 226.64 97.8706 225.791 97.8706 224.818C97.8706 223.845 97.7356 223 97.4657 222.283C97.1958 221.565 96.8052 221.011 96.2939 220.621C95.7825 220.23 95.161 220.035 94.4295 220.035C93.6838 220.035 93.0552 220.237 92.5439 220.642C92.0325 221.047 91.6454 221.608 91.3826 222.325C91.1199 223.043 90.9885 223.874 90.9885 224.818C90.9885 225.77 91.1199 226.612 91.3826 227.343C91.6525 228.067 92.0396 228.636 92.5439 229.048C93.0552 229.452 93.6838 229.655 94.4295 229.655ZM116.439 226.033V216.636H120.978V233H116.621V230.028H116.45C116.081 230.987 115.466 231.757 114.607 232.339C113.755 232.922 112.714 233.213 111.486 233.213C110.392 233.213 109.43 232.964 108.599 232.467C107.768 231.97 107.118 231.263 106.649 230.347C106.187 229.431 105.953 228.334 105.946 227.055V216.636H110.484V226.246C110.491 227.212 110.751 227.975 111.262 228.536C111.773 229.097 112.459 229.378 113.318 229.378C113.865 229.378 114.376 229.254 114.852 229.005C115.328 228.749 115.711 228.373 116.003 227.876C116.301 227.379 116.447 226.764 116.439 226.033ZM132.065 233.32C130.382 233.32 128.933 232.979 127.719 232.297C126.511 231.608 125.581 230.635 124.928 229.378C124.274 228.114 123.947 226.619 123.947 224.893C123.947 223.21 124.274 221.732 124.928 220.461C125.581 219.19 126.501 218.199 127.687 217.489C128.88 216.778 130.279 216.423 131.884 216.423C132.964 216.423 133.969 216.597 134.899 216.945C135.837 217.286 136.653 217.801 137.349 218.49C138.053 219.179 138.599 220.045 138.99 221.089C139.381 222.126 139.576 223.341 139.576 224.733V225.979H125.759V223.167H135.304C135.304 222.513 135.162 221.935 134.878 221.43C134.594 220.926 134.2 220.532 133.695 220.248C133.198 219.957 132.619 219.811 131.959 219.811C131.27 219.811 130.659 219.971 130.126 220.29C129.601 220.603 129.189 221.026 128.891 221.558C128.592 222.084 128.44 222.67 128.433 223.316V225.99C128.433 226.8 128.582 227.499 128.88 228.089C129.185 228.678 129.615 229.133 130.169 229.452C130.723 229.772 131.38 229.932 132.14 229.932C132.644 229.932 133.106 229.861 133.525 229.719C133.944 229.577 134.303 229.364 134.601 229.08C134.899 228.795 135.126 228.447 135.283 228.036L139.48 228.312C139.267 229.321 138.83 230.202 138.17 230.955C137.516 231.7 136.671 232.283 135.634 232.702C134.604 233.114 133.415 233.32 132.065 233.32Z" fill="white"/>
<defs>
<filter id="filter0_i_0_1" x="0" y="0" width="171" height="370" filterUnits="userSpaceOnUse" color-interpolation-filters="sRGB">
<feFlood flood-opacity="0" result="BackgroundImageFix"/>
<feBlend mode="normal" in="SourceGraphic" in2="BackgroundImageFix" result="shape"/>
<feColorMatrix in="SourceAlpha" type="matrix" values="0 0 0 0 0 0 0 0 0 0 0 0 0 0 0 0 0 0 127 0" result="hardAlpha"/>
<feOffset dy="50"/>
<feGaussianBlur stdDeviation="25"/>
<feComposite in2="hardAlpha" operator="arithmetic" k2="-1" k3="1"/>
<feColorMatrix type="matrix" values="0 0 0 0 1 0 0 0 0 1 0 0 0 0 1 0 0 0 0.03 0"/>
<feBlend mode="normal" in2="shape" result="effect1_innerShadow_0_1"/>
</filter>
</defs>
</svg>
