<svg width="171" height="320" viewBox="0 0 171 320" fill="none" xmlns="http://www.w3.org/2000/svg">
<g filter="url(#filter0_i_0_1)">
<rect width="171" height="320" rx="36" fill="#131627"/>
</g>
<rect x="1" y="1" width="169" height="318" rx="35" stroke="black" stroke-width="2"/>
<circle cx="85.5" cy="82.5" r="31" fill="#00ADB5" fill-opacity="0.8" stroke="white" stroke-width="3"/>
<path d="M32.3388 178.985V175.182H50.2578V178.985H43.5781V197H39.0185V178.985H32.3388ZM55.5632 197.309C54.5192 197.309 53.5888 197.128 52.772 196.766C51.9553 196.396 51.3089 195.853 50.8331 195.136C50.3643 194.411 50.13 193.509 50.13 192.43C50.13 191.521 50.2969 190.757 50.6307 190.139C50.9645 189.521 51.419 189.024 51.9943 188.648C52.5696 188.271 53.223 187.987 53.9545 187.795C54.6932 187.604 55.4673 187.469 56.277 187.391C57.2287 187.291 57.9957 187.199 58.5781 187.114C59.1605 187.021 59.5831 186.886 59.8459 186.709C60.1087 186.531 60.2401 186.268 60.2401 185.92V185.857C60.2401 185.182 60.027 184.66 59.6009 184.29C59.1818 183.921 58.5852 183.737 57.8111 183.737C56.9943 183.737 56.3445 183.918 55.8615 184.28C55.3786 184.635 55.0589 185.082 54.9027 185.622L50.7053 185.281C50.9183 184.287 51.3374 183.428 51.9624 182.703C52.5874 181.972 53.3935 181.411 54.3807 181.02C55.375 180.622 56.5256 180.423 57.8324 180.423C58.7415 180.423 59.6115 180.53 60.4425 180.743C61.2805 180.956 62.0227 181.286 62.669 181.734C63.3224 182.181 63.8374 182.756 64.2138 183.46C64.5902 184.156 64.7784 184.99 64.7784 185.963V197H60.4744V194.731H60.3466C60.0838 195.242 59.7322 195.693 59.2919 196.084C58.8516 196.467 58.3224 196.769 57.7045 196.989C57.0866 197.202 56.3729 197.309 55.5632 197.309ZM56.8629 194.177C57.5305 194.177 58.12 194.045 58.6314 193.783C59.1428 193.513 59.544 193.151 59.8352 192.696C60.1264 192.241 60.272 191.727 60.272 191.151V189.415C60.13 189.507 59.9347 189.592 59.6861 189.67C59.4446 189.741 59.1712 189.809 58.8658 189.873C58.5604 189.93 58.255 189.983 57.9496 190.033C57.6442 190.075 57.3672 190.114 57.1186 190.15C56.5859 190.228 56.1207 190.352 55.723 190.523C55.3253 190.693 55.0163 190.924 54.7962 191.215C54.576 191.499 54.4659 191.854 54.4659 192.281C54.4659 192.898 54.6896 193.371 55.1371 193.697C55.5916 194.017 56.1669 194.177 56.8629 194.177ZM72.8377 187.54V197H68.2994V180.636H72.6246V183.523H72.8164C73.1786 182.572 73.7859 181.819 74.6381 181.265C75.4904 180.704 76.5238 180.423 77.7383 180.423C78.8746 180.423 79.8654 180.672 80.7106 181.169C81.5558 181.666 82.2127 182.376 82.6815 183.3C83.1502 184.216 83.3846 185.31 83.3846 186.581V197H78.8462V187.391C78.8533 186.389 78.5977 185.608 78.0792 185.047C77.5607 184.479 76.8469 184.195 75.9379 184.195C75.3271 184.195 74.7873 184.326 74.3185 184.589C73.8569 184.852 73.4947 185.235 73.2319 185.739C72.9762 186.237 72.8448 186.837 72.8377 187.54ZM97.7747 203.136V194.379H97.6362C97.4231 194.834 97.1213 195.285 96.7306 195.732C96.3471 196.173 95.8464 196.538 95.2285 196.83C94.6177 197.121 93.872 197.266 92.9913 197.266C91.7484 197.266 90.6227 196.947 89.6142 196.308C88.6127 195.661 87.8173 194.713 87.2278 193.463C86.6454 192.206 86.3542 190.665 86.3542 188.839C86.3542 186.964 86.6561 185.406 87.2598 184.163C87.8635 182.913 88.666 181.979 89.6674 181.361C90.676 180.736 91.7804 180.423 92.9806 180.423C93.8968 180.423 94.6603 180.58 95.2711 180.892C95.889 181.197 96.3862 181.581 96.7626 182.043C97.1461 182.497 97.4373 182.945 97.6362 183.385H97.8279V180.636H102.302V203.136H97.7747ZM94.4295 193.655C95.161 193.655 95.7789 193.456 96.2832 193.058C96.7946 192.653 97.1852 192.089 97.4551 191.364C97.7321 190.64 97.8706 189.791 97.8706 188.818C97.8706 187.845 97.7356 187 97.4657 186.283C97.1958 185.565 96.8052 185.011 96.2939 184.621C95.7825 184.23 95.161 184.035 94.4295 184.035C93.6838 184.035 93.0552 184.237 92.5439 184.642C92.0325 185.047 91.6454 185.608 91.3826 186.325C91.1199 187.043 90.9885 187.874 90.9885 188.818C90.9885 189.77 91.1199 190.612 91.3826 191.343C91.6525 192.067 92.0396 192.636 92.5439 193.048C93.0552 193.452 93.6838 193.655 94.4295 193.655ZM116.439 190.033V180.636H120.978V197H116.621V194.028H116.45C116.081 194.987 115.466 195.757 114.607 196.339C113.755 196.922 112.714 197.213 111.486 197.213C110.392 197.213 109.43 196.964 108.599 196.467C107.768 195.97 107.118 195.263 106.649 194.347C106.187 193.431 105.953 192.334 105.946 191.055V180.636H110.484V190.246C110.491 191.212 110.751 191.975 111.262 192.536C111.773 193.097 112.459 193.378 113.318 193.378C113.865 193.378 114.376 193.254 114.852 193.005C115.328 192.749 115.711 192.373 116.003 191.876C116.301 191.379 116.447 190.764 116.439 190.033ZM132.065 197.32C130.382 197.32 128.933 196.979 127.719 196.297C126.511 195.608 125.581 194.635 124.928 193.378C124.274 192.114 123.947 190.619 123.947 188.893C123.947 187.21 124.274 185.732 124.928 184.461C125.581 183.19 126.501 182.199 127.687 181.489C128.88 180.778 130.279 180.423 131.884 180.423C132.964 180.423 133.969 180.597 134.899 180.945C135.837 181.286 136.653 181.801 137.349 182.49C138.053 183.179 138.599 184.045 138.99 185.089C139.381 186.126 139.576 187.341 139.576 188.733V189.979H125.759V187.167H135.304C135.304 186.513 135.162 185.935 134.878 185.43C134.594 184.926 134.2 184.532 133.695 184.248C133.198 183.957 132.619 183.811 131.959 183.811C131.27 183.811 130.659 183.971 130.126 184.29C129.601 184.603 129.189 185.026 128.891 185.558C128.592 186.084 128.44 186.67 128.433 187.316V189.99C128.433 190.8 128.582 191.499 128.88 192.089C129.185 192.678 129.615 193.133 130.169 193.452C130.723 193.772 131.38 193.932 132.14 193.932C132.644 193.932 133.106 193.861 133.525 193.719C133.944 193.577 134.303 193.364 134.601 193.08C134.899 192.795 135.126 192.447 135.283 192.036L139.48 192.312C139.267 193.321 138.83 194.202 138.17 194.955C137.516 195.7 136.671 196.283 135.634 196.702C134.604 197.114 133.415 197.32 132.065 197.32Z" fill="white"/>
<defs>
<filter id="filter0_i_0_1" x="0" y="0" width="171" height="370" filterUnits="userSpaceOnUse" color-interpolation-filters="sRGB">
<feFlood flood-opacity="0" result="BackgroundImageFix"/>
<feBlend mode="normal" in="SourceGraphic" in2="BackgroundImageFix" result="shape"/>
<feColorMatrix in="SourceAlpha" type="matrix" values="0 0 0 0 0 0 0 0 0 0 0 0 0 0 0 0 0 0 127 0" result="hardAlpha"/>
<feOffset dy="50"/>
<feGaussianBlur stdDeviation="25"/>
<feComposite in2="hardAlpha" operator="arithmetic" k2="-1" k3="1"/>
<feColorMatrix type="matrix" values="0 0 0 0 1 0 0 0 0 1 0 0 0 0 1 0 0 0 0.03 0"/>
<feBlend mode="normal" in2="shape" result="effect1_innerShadow_0_1"/>
</filter>
</defs>
</svg>
