<svg width="171" height="320" viewBox="0 0 171 320" fill="none" xmlns="http://www.w3.org/2000/svg">
<g filter="url(#filter0_i_0_1)">
<rect width="171" height="320" rx="36" fill="#131627"/>
</g>
<rect x="1" y="1" width="169" height="318" rx="35" stroke="black" stroke-width="2"/>
<circle cx="85.5" cy="82.5" r="31" fill="#00ADB5" fill-opacity="0.8" stroke="white" stroke-width="3"/>
<path d="M88.2607 71.1818V93H83.6477V75.5604H83.5199L78.5234 78.6925V74.6016L83.9247 71.1818H88.2607Z" fill="black"/>
<path d="M26.2703 197V175.182H34.8783C36.5331 175.182 37.9429 175.498 39.1077 176.13C40.2725 176.755 41.1602 177.625 41.771 178.74C42.3889 179.848 42.6979 181.126 42.6979 182.575C42.6979 184.024 42.3854 185.303 41.7604 186.411C41.1354 187.518 40.2298 188.381 39.0438 188.999C37.8648 189.617 36.4372 189.926 34.7611 189.926H29.2746V186.229H34.0154C34.9031 186.229 35.6347 186.077 36.21 185.771C36.7923 185.459 37.2256 185.029 37.5097 184.482C37.8009 183.928 37.9465 183.293 37.9465 182.575C37.9465 181.851 37.8009 181.219 37.5097 180.679C37.2256 180.132 36.7923 179.71 36.21 179.411C35.6276 179.106 34.8889 178.953 33.9941 178.953H30.8833V197H26.2703ZM45.6089 197V180.636H50.0088V183.491H50.1792C50.4775 182.476 50.9782 181.709 51.6814 181.19C52.3845 180.665 53.1942 180.402 54.1104 180.402C54.3376 180.402 54.5827 180.416 54.8454 180.445C55.1082 180.473 55.339 180.512 55.5379 180.562V184.589C55.3248 184.525 55.0301 184.468 54.6537 184.418C54.2773 184.369 53.9328 184.344 53.6203 184.344C52.9527 184.344 52.3561 184.489 51.8305 184.781C51.3121 185.065 50.9001 185.462 50.5947 185.974C50.2964 186.485 50.1473 187.075 50.1473 187.742V197H45.6089ZM57.8843 197V180.636H62.4227V197H57.8843ZM60.1642 178.527C59.4894 178.527 58.9106 178.303 58.4276 177.856C57.9518 177.401 57.7139 176.858 57.7139 176.226C57.7139 175.601 57.9518 175.065 58.4276 174.617C58.9106 174.163 59.4894 173.935 60.1642 173.935C60.8389 173.935 61.4142 174.163 61.89 174.617C62.373 175.065 62.6144 175.601 62.6144 176.226C62.6144 176.858 62.373 177.401 61.89 177.856C61.4142 178.303 60.8389 178.527 60.1642 178.527ZM66.0581 197V180.636H70.3834V183.523H70.5752C70.9161 182.565 71.4843 181.808 72.2797 181.254C73.0752 180.7 74.0269 180.423 75.1349 180.423C76.257 180.423 77.2123 180.704 78.0006 181.265C78.789 181.819 79.3145 182.572 79.5773 183.523H79.7478C80.0816 182.586 80.6853 181.837 81.5589 181.276C82.4395 180.707 83.48 180.423 84.6803 180.423C86.2073 180.423 87.4466 180.91 88.3983 181.883C89.3572 182.849 89.8366 184.219 89.8366 185.995V197H85.3089V186.89C85.3089 185.981 85.0674 185.299 84.5844 184.844C84.1015 184.39 83.4978 184.163 82.7733 184.163C81.9495 184.163 81.3067 184.425 80.8451 184.951C80.3834 185.469 80.1526 186.155 80.1526 187.007V197H75.7528V186.794C75.7528 185.991 75.5219 185.352 75.0603 184.876C74.6057 184.401 74.0056 184.163 73.2599 184.163C72.7556 184.163 72.301 184.29 71.8962 184.546C71.4985 184.795 71.1824 185.146 70.9481 185.601C70.7137 186.048 70.5965 186.574 70.5965 187.178V197H66.0581ZM100.879 197.32C99.1956 197.32 97.7467 196.979 96.5322 196.297C95.3248 195.608 94.3944 194.635 93.741 193.378C93.0876 192.114 92.7609 190.619 92.7609 188.893C92.7609 187.21 93.0876 185.732 93.741 184.461C94.3944 183.19 95.3142 182.199 96.5003 181.489C97.6934 180.778 99.0926 180.423 100.698 180.423C101.777 180.423 102.782 180.597 103.713 180.945C104.65 181.286 105.467 181.801 106.163 182.49C106.866 183.179 107.413 184.045 107.804 185.089C108.194 186.126 108.389 187.341 108.389 188.733V189.979H94.572V187.167H104.117C104.117 186.513 103.975 185.935 103.691 185.43C103.407 184.926 103.013 184.532 102.509 184.248C102.012 183.957 101.433 183.811 100.772 183.811C100.083 183.811 99.4726 183.971 98.9399 184.29C98.4143 184.603 98.0024 185.026 97.7041 185.558C97.4058 186.084 97.2531 186.67 97.246 187.316V189.99C97.246 190.8 97.3952 191.499 97.6934 192.089C97.9988 192.678 98.4285 193.133 98.9825 193.452C99.5365 193.772 100.193 193.932 100.953 193.932C101.458 193.932 101.919 193.861 102.338 193.719C102.757 193.577 103.116 193.364 103.414 193.08C103.713 192.795 103.94 192.447 104.096 192.036L108.294 192.312C108.081 193.321 107.644 194.202 106.983 194.955C106.33 195.7 105.485 196.283 104.448 196.702C103.418 197.114 102.228 197.32 100.879 197.32ZM111.351 197V180.636H115.889V197H111.351ZM113.631 178.527C112.956 178.527 112.377 178.303 111.894 177.856C111.419 177.401 111.181 176.858 111.181 176.226C111.181 175.601 111.419 175.065 111.894 174.617C112.377 174.163 112.956 173.935 113.631 173.935C114.306 173.935 114.881 174.163 115.357 174.617C115.84 175.065 116.081 175.601 116.081 176.226C116.081 176.858 115.84 177.401 115.357 177.856C114.881 178.303 114.306 178.527 113.631 178.527ZM119.525 197V180.636H123.925V183.491H124.095C124.394 182.476 124.894 181.709 125.597 181.19C126.301 180.665 127.11 180.402 128.026 180.402C128.254 180.402 128.499 180.416 128.761 180.445C129.024 180.473 129.255 180.512 129.454 180.562V184.589C129.241 184.525 128.946 184.468 128.57 184.418C128.193 184.369 127.849 184.344 127.536 184.344C126.869 184.344 126.272 184.489 125.747 184.781C125.228 185.065 124.816 185.462 124.511 185.974C124.212 186.485 124.063 187.075 124.063 187.742V197H119.525ZM138.432 197.32C136.777 197.32 135.346 196.968 134.139 196.265C132.938 195.555 132.012 194.567 131.358 193.303C130.705 192.032 130.378 190.558 130.378 188.882C130.378 187.192 130.705 185.714 131.358 184.45C132.012 183.179 132.938 182.192 134.139 181.489C135.346 180.778 136.777 180.423 138.432 180.423C140.087 180.423 141.514 180.778 142.715 181.489C143.922 182.192 144.853 183.179 145.506 184.45C146.159 185.714 146.486 187.192 146.486 188.882C146.486 190.558 146.159 192.032 145.506 193.303C144.853 194.567 143.922 195.555 142.715 196.265C141.514 196.968 140.087 197.32 138.432 197.32ZM138.453 193.804C139.206 193.804 139.835 193.591 140.339 193.165C140.843 192.732 141.223 192.142 141.479 191.396C141.742 190.651 141.873 189.802 141.873 188.85C141.873 187.898 141.742 187.05 141.479 186.304C141.223 185.558 140.843 184.969 140.339 184.536C139.835 184.102 139.206 183.886 138.453 183.886C137.693 183.886 137.054 184.102 136.536 184.536C136.024 184.969 135.637 185.558 135.375 186.304C135.119 187.05 134.991 187.898 134.991 188.85C134.991 189.802 135.119 190.651 135.375 191.396C135.637 192.142 136.024 192.732 136.536 193.165C137.054 193.591 137.693 193.804 138.453 193.804ZM32.3388 214.985V211.182H50.2578V214.985H43.5781V233H39.0185V214.985H32.3388ZM55.5632 233.309C54.5192 233.309 53.5888 233.128 52.772 232.766C51.9553 232.396 51.3089 231.853 50.8331 231.136C50.3643 230.411 50.13 229.509 50.13 228.43C50.13 227.521 50.2969 226.757 50.6307 226.139C50.9645 225.521 51.419 225.024 51.9943 224.648C52.5696 224.271 53.223 223.987 53.9545 223.795C54.6932 223.604 55.4673 223.469 56.277 223.391C57.2287 223.291 57.9957 223.199 58.5781 223.114C59.1605 223.021 59.5831 222.886 59.8459 222.709C60.1087 222.531 60.2401 222.268 60.2401 221.92V221.857C60.2401 221.182 60.027 220.66 59.6009 220.29C59.1818 219.921 58.5852 219.737 57.8111 219.737C56.9943 219.737 56.3445 219.918 55.8615 220.28C55.3786 220.635 55.0589 221.082 54.9027 221.622L50.7053 221.281C50.9183 220.287 51.3374 219.428 51.9624 218.703C52.5874 217.972 53.3935 217.411 54.3807 217.02C55.375 216.622 56.5256 216.423 57.8324 216.423C58.7415 216.423 59.6115 216.53 60.4425 216.743C61.2805 216.956 62.0227 217.286 62.669 217.734C63.3224 218.181 63.8374 218.756 64.2138 219.46C64.5902 220.156 64.7784 220.99 64.7784 221.963V233H60.4744V230.731H60.3466C60.0838 231.242 59.7322 231.693 59.2919 232.084C58.8516 232.467 58.3224 232.769 57.7045 232.989C57.0866 233.202 56.3729 233.309 55.5632 233.309ZM56.8629 230.177C57.5305 230.177 58.12 230.045 58.6314 229.783C59.1428 229.513 59.544 229.151 59.8352 228.696C60.1264 228.241 60.272 227.727 60.272 227.151V225.415C60.13 225.507 59.9347 225.592 59.6861 225.67C59.4446 225.741 59.1712 225.809 58.8658 225.873C58.5604 225.93 58.255 225.983 57.9496 226.033C57.6442 226.075 57.3672 226.114 57.1186 226.15C56.5859 226.228 56.1207 226.352 55.723 226.523C55.3253 226.693 55.0163 226.924 54.7962 227.215C54.576 227.499 54.4659 227.854 54.4659 228.281C54.4659 228.898 54.6896 229.371 55.1371 229.697C55.5916 230.017 56.1669 230.177 56.8629 230.177ZM72.8377 223.54V233H68.2994V216.636H72.6246V219.523H72.8164C73.1786 218.572 73.7859 217.819 74.6381 217.265C75.4904 216.704 76.5238 216.423 77.7383 216.423C78.8746 216.423 79.8654 216.672 80.7106 217.169C81.5558 217.666 82.2127 218.376 82.6815 219.3C83.1502 220.216 83.3846 221.31 83.3846 222.581V233H78.8462V223.391C78.8533 222.389 78.5977 221.608 78.0792 221.047C77.5607 220.479 76.8469 220.195 75.9379 220.195C75.3271 220.195 74.7873 220.326 74.3185 220.589C73.8569 220.852 73.4947 221.235 73.2319 221.739C72.9762 222.237 72.8448 222.837 72.8377 223.54ZM97.7747 239.136V230.379H97.6362C97.4231 230.834 97.1213 231.285 96.7306 231.732C96.3471 232.173 95.8464 232.538 95.2285 232.83C94.6177 233.121 93.872 233.266 92.9913 233.266C91.7484 233.266 90.6227 232.947 89.6142 232.308C88.6127 231.661 87.8173 230.713 87.2278 229.463C86.6454 228.206 86.3542 226.665 86.3542 224.839C86.3542 222.964 86.6561 221.406 87.2598 220.163C87.8635 218.913 88.666 217.979 89.6674 217.361C90.676 216.736 91.7804 216.423 92.9806 216.423C93.8968 216.423 94.6603 216.58 95.2711 216.892C95.889 217.197 96.3862 217.581 96.7626 218.043C97.1461 218.497 97.4373 218.945 97.6362 219.385H97.8279V216.636H102.302V239.136H97.7747ZM94.4295 229.655C95.161 229.655 95.7789 229.456 96.2832 229.058C96.7946 228.653 97.1852 228.089 97.4551 227.364C97.7321 226.64 97.8706 225.791 97.8706 224.818C97.8706 223.845 97.7356 223 97.4657 222.283C97.1958 221.565 96.8052 221.011 96.2939 220.621C95.7825 220.23 95.161 220.035 94.4295 220.035C93.6838 220.035 93.0552 220.237 92.5439 220.642C92.0325 221.047 91.6454 221.608 91.3826 222.325C91.1199 223.043 90.9885 223.874 90.9885 224.818C90.9885 225.77 91.1199 226.612 91.3826 227.343C91.6525 228.067 92.0396 228.636 92.5439 229.048C93.0552 229.452 93.6838 229.655 94.4295 229.655ZM116.439 226.033V216.636H120.978V233H116.621V230.028H116.45C116.081 230.987 115.466 231.757 114.607 232.339C113.755 232.922 112.714 233.213 111.486 233.213C110.392 233.213 109.43 232.964 108.599 232.467C107.768 231.97 107.118 231.263 106.649 230.347C106.187 229.431 105.953 228.334 105.946 227.055V216.636H110.484V226.246C110.491 227.212 110.751 227.975 111.262 228.536C111.773 229.097 112.459 229.378 113.318 229.378C113.865 229.378 114.376 229.254 114.852 229.005C115.328 228.749 115.711 228.373 116.003 227.876C116.301 227.379 116.447 226.764 116.439 226.033ZM132.065 233.32C130.382 233.32 128.933 232.979 127.719 232.297C126.511 231.608 125.581 230.635 124.928 229.378C124.274 228.114 123.947 226.619 123.947 224.893C123.947 223.21 124.274 221.732 124.928 220.461C125.581 219.19 126.501 218.199 127.687 217.489C128.88 216.778 130.279 216.423 131.884 216.423C132.964 216.423 133.969 216.597 134.899 216.945C135.837 217.286 136.653 217.801 137.349 218.49C138.053 219.179 138.599 220.045 138.99 221.089C139.381 222.126 139.576 223.341 139.576 224.733V225.979H125.759V223.167H135.304C135.304 222.513 135.162 221.935 134.878 221.43C134.594 220.926 134.2 220.532 133.695 220.248C133.198 219.957 132.619 219.811 131.959 219.811C131.27 219.811 130.659 219.971 130.126 220.29C129.601 220.603 129.189 221.026 128.891 221.558C128.592 222.084 128.44 222.67 128.433 223.316V225.99C128.433 226.8 128.582 227.499 128.88 228.089C129.185 228.678 129.615 229.133 130.169 229.452C130.723 229.772 131.38 229.932 132.14 229.932C132.644 229.932 133.106 229.861 133.525 229.719C133.944 229.577 134.303 229.364 134.601 229.08C134.899 228.795 135.126 228.447 135.283 228.036L139.48 228.312C139.267 229.321 138.83 230.202 138.17 230.955C137.516 231.7 136.671 232.283 135.634 232.702C134.604 233.114 133.415 233.32 132.065 233.32Z" fill="white"/>
<defs>
<filter id="filter0_i_0_1" x="0" y="0" width="171" height="370" filterUnits="userSpaceOnUse" color-interpolation-filters="sRGB">
<feFlood flood-opacity="0" result="BackgroundImageFix"/>
<feBlend mode="normal" in="SourceGraphic" in2="BackgroundImageFix" result="shape"/>
<feColorMatrix in="SourceAlpha" type="matrix" values="0 0 0 0 0 0 0 0 0 0 0 0 0 0 0 0 0 0 127 0" result="hardAlpha"/>
<feOffset dy="50"/>
<feGaussianBlur stdDeviation="25"/>
<feComposite in2="hardAlpha" operator="arithmetic" k2="-1" k3="1"/>
<feColorMatrix type="matrix" values="0 0 0 0 1 0 0 0 0 1 0 0 0 0 1 0 0 0 0.03 0"/>
<feBlend mode="normal" in2="shape" result="effect1_innerShadow_0_1"/>
</filter>
</defs>
</svg>
