<svg width="171" height="320" viewBox="0 0 171 320" fill="none" xmlns="http://www.w3.org/2000/svg">
<g filter="url(#filter0_i_0_1)">
<rect width="171" height="320" rx="36" fill="#131627"/>
</g>
<rect x="1" y="1" width="169" height="318" rx="35" stroke="black" stroke-width="2"/>
<circle cx="85.5" cy="82.5" r="31" fill="#00ADB5" fill-opacity="0.8" stroke="white" stroke-width="3"/>
<path d="M85.9077 93.2983C84.267 93.2983 82.8075 93.032 81.5291 92.4993C80.2578 91.9595 79.2599 91.2244 78.5355 90.294C77.8111 89.3636 77.4489 88.3089 77.4489 87.13C77.4489 86.2209 77.6548 85.3864 78.0668 84.6264C78.4858 83.8594 79.054 83.2237 79.7713 82.7195C80.4886 82.2081 81.2912 81.8814 82.179 81.7393V81.5902C81.0142 81.3558 80.0696 80.7912 79.3452 79.8963C78.6207 78.9943 78.2585 77.9467 78.2585 76.7536C78.2585 75.6243 78.5888 74.6193 79.2493 73.7386C79.9098 72.8509 80.8153 72.1548 81.9659 71.6506C83.1236 71.1392 84.4375 70.8835 85.9077 70.8835C87.3778 70.8835 88.6882 71.1392 89.8388 71.6506C90.9964 72.1619 91.9055 72.8615 92.5661 73.7493C93.2266 74.63 93.5604 75.6314 93.5675 76.7536C93.5604 77.9538 93.1911 79.0014 92.4595 79.8963C91.728 80.7912 90.7905 81.3558 89.647 81.5902V81.7393C90.5206 81.8814 91.3125 82.2081 92.0227 82.7195C92.7401 83.2237 93.3082 83.8594 93.7273 84.6264C94.1534 85.3864 94.37 86.2209 94.3771 87.13C94.37 88.3089 94.0043 89.3636 93.2798 90.294C92.5554 91.2244 91.554 91.9595 90.2756 92.4993C89.0043 93.032 87.5483 93.2983 85.9077 93.2983ZM85.9077 89.9105C86.6392 89.9105 87.2784 89.7791 87.8253 89.5163C88.3722 89.2464 88.7983 88.8771 89.1037 88.4084C89.4162 87.9325 89.5724 87.3857 89.5724 86.7678C89.5724 86.1357 89.4126 85.5781 89.093 85.0952C88.7734 84.6051 88.3402 84.2216 87.7933 83.9446C87.2464 83.6605 86.6179 83.5185 85.9077 83.5185C85.2045 83.5185 84.576 83.6605 84.022 83.9446C83.468 84.2216 83.0313 84.6051 82.7116 85.0952C82.3991 85.5781 82.2429 86.1357 82.2429 86.7678C82.2429 87.3857 82.3956 87.9325 82.701 88.4084C83.0064 88.8771 83.4361 89.2464 83.9901 89.5163C84.544 89.7791 85.1832 89.9105 85.9077 89.9105ZM85.9077 80.1626C86.5185 80.1626 87.0618 80.0384 87.5376 79.7898C88.0135 79.5412 88.3864 79.1967 88.6562 78.7564C88.9261 78.3161 89.0611 77.8082 89.0611 77.233C89.0611 76.6648 88.9261 76.1676 88.6562 75.7415C88.3864 75.3082 88.017 74.9709 87.5483 74.7294C87.0795 74.4808 86.5327 74.3565 85.9077 74.3565C85.2898 74.3565 84.7429 74.4808 84.267 74.7294C83.7912 74.9709 83.4183 75.3082 83.1484 75.7415C82.8857 76.1676 82.7543 76.6648 82.7543 77.233C82.7543 77.8082 82.8892 78.3161 83.1591 78.7564C83.429 79.1967 83.8018 79.5412 84.2777 79.7898C84.7536 80.0384 85.2969 80.1626 85.9077 80.1626Z" fill="black"/>
<path d="M60.1628 186.091C60.1628 188.47 59.7118 190.494 58.8098 192.163C57.915 193.832 56.6934 195.107 55.1451 195.988C53.6039 196.862 51.8709 197.298 49.9462 197.298C48.0073 197.298 46.2672 196.858 44.726 195.977C43.1848 195.097 41.9668 193.822 41.0719 192.153C40.177 190.484 39.7296 188.463 39.7296 186.091C39.7296 183.712 40.177 181.688 41.0719 180.018C41.9668 178.349 43.1848 177.078 44.726 176.205C46.2672 175.324 48.0073 174.884 49.9462 174.884C51.8709 174.884 53.6039 175.324 55.1451 176.205C56.6934 177.078 57.915 178.349 58.8098 180.018C59.7118 181.688 60.1628 183.712 60.1628 186.091ZM55.486 186.091C55.486 184.55 55.2551 183.25 54.7935 182.192C54.339 181.134 53.6962 180.331 52.8652 179.784C52.0343 179.237 51.0613 178.964 49.9462 178.964C48.8311 178.964 47.8581 179.237 47.0272 179.784C46.1962 180.331 45.5499 181.134 45.0882 182.192C44.6337 183.25 44.4064 184.55 44.4064 186.091C44.4064 187.632 44.6337 188.932 45.0882 189.99C45.5499 191.048 46.1962 191.851 47.0272 192.398C47.8581 192.945 48.8311 193.218 49.9462 193.218C51.0613 193.218 52.0343 192.945 52.8652 192.398C53.6962 191.851 54.339 191.048 54.7935 189.99C55.2551 188.932 55.486 187.632 55.486 186.091ZM63.4947 197V180.636H68.033V197H63.4947ZM65.7745 178.527C65.0998 178.527 64.521 178.303 64.038 177.856C63.5621 177.401 63.3242 176.858 63.3242 176.226C63.3242 175.601 63.5621 175.065 64.038 174.617C64.521 174.163 65.0998 173.935 65.7745 173.935C66.4492 173.935 67.0245 174.163 67.5004 174.617C67.9833 175.065 68.2248 175.601 68.2248 176.226C68.2248 176.858 67.9833 177.401 67.5004 177.856C67.0245 178.303 66.4492 178.527 65.7745 178.527ZM80.3723 180.636V184.045H70.5179V180.636H80.3723ZM72.7551 176.716H77.2935V191.972C77.2935 192.391 77.3574 192.717 77.4853 192.952C77.6131 193.179 77.7907 193.339 78.0179 193.431C78.2523 193.523 78.5222 193.57 78.8276 193.57C79.0407 193.57 79.2537 193.552 79.4668 193.516C79.6799 193.474 79.8432 193.442 79.9569 193.42L80.6706 196.798C80.4434 196.869 80.1238 196.95 79.7118 197.043C79.2999 197.142 78.7992 197.202 78.2097 197.224C77.1159 197.266 76.1571 197.121 75.3333 196.787C74.5165 196.453 73.8809 195.935 73.4263 195.232C72.9718 194.528 72.748 193.641 72.7551 192.568V176.716ZM87.9949 197.309C86.9508 197.309 86.0204 197.128 85.2037 196.766C84.3869 196.396 83.7406 195.853 83.2647 195.136C82.796 194.411 82.5616 193.509 82.5616 192.43C82.5616 191.521 82.7285 190.757 83.0623 190.139C83.3961 189.521 83.8507 189.024 84.426 188.648C85.0012 188.271 85.6547 187.987 86.3862 187.795C87.1248 187.604 87.899 187.469 88.7086 187.391C89.6603 187.291 90.4274 187.199 91.0098 187.114C91.5922 187.021 92.0147 186.886 92.2775 186.709C92.5403 186.531 92.6717 186.268 92.6717 185.92V185.857C92.6717 185.182 92.4586 184.66 92.0325 184.29C91.6135 183.921 91.0169 183.737 90.2427 183.737C89.426 183.737 88.7761 183.918 88.2931 184.28C87.8102 184.635 87.4906 185.082 87.3343 185.622L83.1369 185.281C83.35 184.287 83.769 183.428 84.394 182.703C85.019 181.972 85.8251 181.411 86.8123 181.02C87.8066 180.622 88.9572 180.423 90.264 180.423C91.1731 180.423 92.0431 180.53 92.8741 180.743C93.7122 180.956 94.4544 181.286 95.1007 181.734C95.7541 182.181 96.269 182.756 96.6454 183.46C97.0218 184.156 97.21 184.99 97.21 185.963V197H92.9061V194.731H92.7782C92.5154 195.242 92.1639 195.693 91.7235 196.084C91.2832 196.467 90.7541 196.769 90.1362 196.989C89.5183 197.202 88.8045 197.309 87.9949 197.309ZM89.2946 194.177C89.9622 194.177 90.5517 194.045 91.063 193.783C91.5744 193.513 91.9757 193.151 92.2669 192.696C92.5581 192.241 92.7037 191.727 92.7037 191.151V189.415C92.5616 189.507 92.3663 189.592 92.1177 189.67C91.8762 189.741 91.6028 189.809 91.2974 189.873C90.992 189.93 90.6866 189.983 90.3812 190.033C90.0758 190.075 89.7988 190.114 89.5502 190.15C89.0176 190.228 88.5524 190.352 88.1547 190.523C87.7569 190.693 87.448 190.924 87.2278 191.215C87.0076 191.499 86.8975 191.854 86.8975 192.281C86.8975 192.898 87.1213 193.371 87.5687 193.697C88.0233 194.017 88.5985 194.177 89.2946 194.177ZM115.401 180.636L109.68 197H104.566L98.8453 180.636H103.639L107.038 192.344H107.208L110.596 180.636H115.401ZM124.589 197.32C122.934 197.32 121.503 196.968 120.296 196.265C119.096 195.555 118.169 194.567 117.515 193.303C116.862 192.032 116.535 190.558 116.535 188.882C116.535 187.192 116.862 185.714 117.515 184.45C118.169 183.179 119.096 182.192 120.296 181.489C121.503 180.778 122.934 180.423 124.589 180.423C126.244 180.423 127.672 180.778 128.872 181.489C130.079 182.192 131.01 183.179 131.663 184.45C132.317 185.714 132.643 187.192 132.643 188.882C132.643 190.558 132.317 192.032 131.663 193.303C131.01 194.567 130.079 195.555 128.872 196.265C127.672 196.968 126.244 197.32 124.589 197.32ZM124.611 193.804C125.363 193.804 125.992 193.591 126.496 193.165C127.001 192.732 127.381 192.142 127.636 191.396C127.899 190.651 128.03 189.802 128.03 188.85C128.03 187.898 127.899 187.05 127.636 186.304C127.381 185.558 127.001 184.969 126.496 184.536C125.992 184.102 125.363 183.886 124.611 183.886C123.851 183.886 123.211 184.102 122.693 184.536C122.182 184.969 121.795 185.558 121.532 186.304C121.276 187.05 121.148 187.898 121.148 188.85C121.148 189.802 121.276 190.651 121.532 191.396C121.795 192.142 122.182 192.732 122.693 193.165C123.211 193.591 123.851 193.804 124.611 193.804ZM32.3388 214.985V211.182H50.2578V214.985H43.5781V233H39.0185V214.985H32.3388ZM55.5632 233.309C54.5192 233.309 53.5888 233.128 52.772 232.766C51.9553 232.396 51.3089 231.853 50.8331 231.136C50.3643 230.411 50.13 229.509 50.13 228.43C50.13 227.521 50.2969 226.757 50.6307 226.139C50.9645 225.521 51.419 225.024 51.9943 224.648C52.5696 224.271 53.223 223.987 53.9545 223.795C54.6932 223.604 55.4673 223.469 56.277 223.391C57.2287 223.291 57.9957 223.199 58.5781 223.114C59.1605 223.021 59.5831 222.886 59.8459 222.709C60.1087 222.531 60.2401 222.268 60.2401 221.92V221.857C60.2401 221.182 60.027 220.66 59.6009 220.29C59.1818 219.921 58.5852 219.737 57.8111 219.737C56.9943 219.737 56.3445 219.918 55.8615 220.28C55.3786 220.635 55.0589 221.082 54.9027 221.622L50.7053 221.281C50.9183 220.287 51.3374 219.428 51.9624 218.703C52.5874 217.972 53.3935 217.411 54.3807 217.02C55.375 216.622 56.5256 216.423 57.8324 216.423C58.7415 216.423 59.6115 216.53 60.4425 216.743C61.2805 216.956 62.0227 217.286 62.669 217.734C63.3224 218.181 63.8374 218.756 64.2138 219.46C64.5902 220.156 64.7784 220.99 64.7784 221.963V233H60.4744V230.731H60.3466C60.0838 231.242 59.7322 231.693 59.2919 232.084C58.8516 232.467 58.3224 232.769 57.7045 232.989C57.0866 233.202 56.3729 233.309 55.5632 233.309ZM56.8629 230.177C57.5305 230.177 58.12 230.045 58.6314 229.783C59.1428 229.513 59.544 229.151 59.8352 228.696C60.1264 228.241 60.272 227.727 60.272 227.151V225.415C60.13 225.507 59.9347 225.592 59.6861 225.67C59.4446 225.741 59.1712 225.809 58.8658 225.873C58.5604 225.93 58.255 225.983 57.9496 226.033C57.6442 226.075 57.3672 226.114 57.1186 226.15C56.5859 226.228 56.1207 226.352 55.723 226.523C55.3253 226.693 55.0163 226.924 54.7962 227.215C54.576 227.499 54.4659 227.854 54.4659 228.281C54.4659 228.898 54.6896 229.371 55.1371 229.697C55.5916 230.017 56.1669 230.177 56.8629 230.177ZM72.8377 223.54V233H68.2994V216.636H72.6246V219.523H72.8164C73.1786 218.572 73.7859 217.819 74.6381 217.265C75.4904 216.704 76.5238 216.423 77.7383 216.423C78.8746 216.423 79.8654 216.672 80.7106 217.169C81.5558 217.666 82.2127 218.376 82.6815 219.3C83.1502 220.216 83.3846 221.31 83.3846 222.581V233H78.8462V223.391C78.8533 222.389 78.5977 221.608 78.0792 221.047C77.5607 220.479 76.8469 220.195 75.9379 220.195C75.3271 220.195 74.7873 220.326 74.3185 220.589C73.8569 220.852 73.4947 221.235 73.2319 221.739C72.9762 222.237 72.8448 222.837 72.8377 223.54ZM97.7747 239.136V230.379H97.6362C97.4231 230.834 97.1213 231.285 96.7306 231.732C96.3471 232.173 95.8464 232.538 95.2285 232.83C94.6177 233.121 93.872 233.266 92.9913 233.266C91.7484 233.266 90.6227 232.947 89.6142 232.308C88.6127 231.661 87.8173 230.713 87.2278 229.463C86.6454 228.206 86.3542 226.665 86.3542 224.839C86.3542 222.964 86.6561 221.406 87.2598 220.163C87.8635 218.913 88.666 217.979 89.6674 217.361C90.676 216.736 91.7804 216.423 92.9806 216.423C93.8968 216.423 94.6603 216.58 95.2711 216.892C95.889 217.197 96.3862 217.581 96.7626 218.043C97.1461 218.497 97.4373 218.945 97.6362 219.385H97.8279V216.636H102.302V239.136H97.7747ZM94.4295 229.655C95.161 229.655 95.7789 229.456 96.2832 229.058C96.7946 228.653 97.1852 228.089 97.4551 227.364C97.7321 226.64 97.8706 225.791 97.8706 224.818C97.8706 223.845 97.7356 223 97.4657 222.283C97.1958 221.565 96.8052 221.011 96.2939 220.621C95.7825 220.23 95.161 220.035 94.4295 220.035C93.6838 220.035 93.0552 220.237 92.5439 220.642C92.0325 221.047 91.6454 221.608 91.3826 222.325C91.1199 223.043 90.9885 223.874 90.9885 224.818C90.9885 225.77 91.1199 226.612 91.3826 227.343C91.6525 228.067 92.0396 228.636 92.5439 229.048C93.0552 229.452 93.6838 229.655 94.4295 229.655ZM116.439 226.033V216.636H120.978V233H116.621V230.028H116.45C116.081 230.987 115.466 231.757 114.607 232.339C113.755 232.922 112.714 233.213 111.486 233.213C110.392 233.213 109.43 232.964 108.599 232.467C107.768 231.97 107.118 231.263 106.649 230.347C106.187 229.431 105.953 228.334 105.946 227.055V216.636H110.484V226.246C110.491 227.212 110.751 227.975 111.262 228.536C111.773 229.097 112.459 229.378 113.318 229.378C113.865 229.378 114.376 229.254 114.852 229.005C115.328 228.749 115.711 228.373 116.003 227.876C116.301 227.379 116.447 226.764 116.439 226.033ZM132.065 233.32C130.382 233.32 128.933 232.979 127.719 232.297C126.511 231.608 125.581 230.635 124.928 229.378C124.274 228.114 123.947 226.619 123.947 224.893C123.947 223.21 124.274 221.732 124.928 220.461C125.581 219.19 126.501 218.199 127.687 217.489C128.88 216.778 130.279 216.423 131.884 216.423C132.964 216.423 133.969 216.597 134.899 216.945C135.837 217.286 136.653 217.801 137.349 218.49C138.053 219.179 138.599 220.045 138.99 221.089C139.381 222.126 139.576 223.341 139.576 224.733V225.979H125.759V223.167H135.304C135.304 222.513 135.162 221.935 134.878 221.43C134.594 220.926 134.2 220.532 133.695 220.248C133.198 219.957 132.619 219.811 131.959 219.811C131.27 219.811 130.659 219.971 130.126 220.29C129.601 220.603 129.189 221.026 128.891 221.558C128.592 222.084 128.44 222.67 128.433 223.316V225.99C128.433 226.8 128.582 227.499 128.88 228.089C129.185 228.678 129.615 229.133 130.169 229.452C130.723 229.772 131.38 229.932 132.14 229.932C132.644 229.932 133.106 229.861 133.525 229.719C133.944 229.577 134.303 229.364 134.601 229.08C134.899 228.795 135.126 228.447 135.283 228.036L139.48 228.312C139.267 229.321 138.83 230.202 138.17 230.955C137.516 231.7 136.671 232.283 135.634 232.702C134.604 233.114 133.415 233.32 132.065 233.32Z" fill="white"/>
<defs>
<filter id="filter0_i_0_1" x="0" y="0" width="171" height="370" filterUnits="userSpaceOnUse" color-interpolation-filters="sRGB">
<feFlood flood-opacity="0" result="BackgroundImageFix"/>
<feBlend mode="normal" in="SourceGraphic" in2="BackgroundImageFix" result="shape"/>
<feColorMatrix in="SourceAlpha" type="matrix" values="0 0 0 0 0 0 0 0 0 0 0 0 0 0 0 0 0 0 127 0" result="hardAlpha"/>
<feOffset dy="50"/>
<feGaussianBlur stdDeviation="25"/>
<feComposite in2="hardAlpha" operator="arithmetic" k2="-1" k3="1"/>
<feColorMatrix type="matrix" values="0 0 0 0 1 0 0 0 0 1 0 0 0 0 1 0 0 0 0.03 0"/>
<feBlend mode="normal" in2="shape" result="effect1_innerShadow_0_1"/>
</filter>
</defs>
</svg>
