<svg width="171" height="320" viewBox="0 0 171 320" fill="none" xmlns="http://www.w3.org/2000/svg">
<g filter="url(#filter0_i_0_1)">
<rect width="171" height="320" rx="36" fill="#131627"/>
</g>
<rect x="1" y="1" width="169" height="318" rx="35" stroke="black" stroke-width="2"/>
<circle cx="85.5" cy="82.5" r="31" fill="#00ADB5" fill-opacity="0.8" stroke="white" stroke-width="3"/>
<path d="M78.6314 93L87.6761 75.1023V74.9531H77.1399V71.1818H92.4489V75.0064L83.3935 93H78.6314Z" fill="black"/>
<path d="M48.1404 181.457C48.0552 180.597 47.6895 179.93 47.0431 179.454C46.3968 178.978 45.5197 178.74 44.4118 178.74C43.6589 178.74 43.0233 178.847 42.5048 179.06C41.9863 179.266 41.5886 179.553 41.3116 179.923C41.0417 180.292 40.9068 180.711 40.9068 181.18C40.8926 181.57 40.9743 181.911 41.1518 182.202C41.3365 182.494 41.5886 182.746 41.9082 182.959C42.2278 183.165 42.5971 183.346 43.0162 183.502C43.4352 183.651 43.8826 183.779 44.3585 183.886L46.3187 184.354C47.2704 184.567 48.144 184.852 48.9395 185.207C49.7349 185.562 50.4238 185.999 51.0062 186.517C51.5886 187.036 52.0396 187.646 52.3592 188.349C52.6859 189.053 52.8528 189.859 52.8599 190.768C52.8528 192.103 52.5119 193.261 51.8372 194.241C51.1696 195.214 50.2037 195.97 48.9395 196.51C47.6824 197.043 46.166 197.309 44.3904 197.309C42.6291 197.309 41.095 197.039 39.7882 196.499C38.4885 195.96 37.4728 195.161 36.7413 194.102C36.0169 193.037 35.6369 191.719 35.6014 190.15H40.0652C40.1149 190.881 40.3244 191.492 40.6937 191.982C41.0701 192.465 41.5708 192.831 42.1958 193.08C42.8279 193.321 43.5417 193.442 44.3372 193.442C45.1184 193.442 45.7967 193.328 46.372 193.101C46.9544 192.874 47.4054 192.558 47.725 192.153C48.0446 191.748 48.2044 191.283 48.2044 190.757C48.2044 190.267 48.0588 189.855 47.7676 189.521C47.4835 189.187 47.0645 188.903 46.5105 188.669C45.9636 188.435 45.2924 188.222 44.497 188.03L42.1213 187.433C40.2818 186.986 38.8294 186.286 37.764 185.335C36.6987 184.383 36.1696 183.101 36.1767 181.489C36.1696 180.168 36.5211 179.013 37.2314 178.026C37.9487 177.039 38.9324 176.268 40.1824 175.714C41.4324 175.161 42.8528 174.884 44.4437 174.884C46.063 174.884 47.4764 175.161 48.6838 175.714C49.8983 176.268 50.8429 177.039 51.5176 178.026C52.1923 179.013 52.5403 180.157 52.5616 181.457H48.1404ZM63.3349 197.32C61.6516 197.32 60.2028 196.979 58.9883 196.297C57.7809 195.608 56.8505 194.635 56.1971 193.378C55.5437 192.114 55.217 190.619 55.217 188.893C55.217 187.21 55.5437 185.732 56.1971 184.461C56.8505 183.19 57.7702 182.199 58.9563 181.489C60.1495 180.778 61.5487 180.423 63.1538 180.423C64.2333 180.423 65.2383 180.597 66.1687 180.945C67.1062 181.286 67.9229 181.801 68.619 182.49C69.3221 183.179 69.869 184.045 70.2596 185.089C70.6502 186.126 70.8455 187.341 70.8455 188.733V189.979H57.0281V187.167H66.5735C66.5735 186.513 66.4315 185.935 66.1474 185.43C65.8633 184.926 65.4691 184.532 64.9648 184.248C64.4677 183.957 63.8888 183.811 63.2283 183.811C62.5394 183.811 61.9286 183.971 61.396 184.29C60.8704 184.603 60.4585 185.026 60.1602 185.558C59.8619 186.084 59.7092 186.67 59.7021 187.316V189.99C59.7021 190.8 59.8512 191.499 60.1495 192.089C60.4549 192.678 60.8846 193.133 61.4386 193.452C61.9925 193.772 62.6495 193.932 63.4094 193.932C63.9137 193.932 64.3754 193.861 64.7944 193.719C65.2134 193.577 65.5721 193.364 65.8704 193.08C66.1687 192.795 66.396 192.447 66.5522 192.036L70.7496 192.312C70.5366 193.321 70.0998 194.202 69.4393 194.955C68.7859 195.7 67.9407 196.283 66.9038 196.702C65.8739 197.114 64.6843 197.32 63.3349 197.32ZM61.4173 178.527L63.6758 173.68H67.8732L64.6239 178.527H61.4173ZM82.511 180.636V184.045H72.6566V180.636H82.511ZM74.8938 176.716H79.4322V191.972C79.4322 192.391 79.4961 192.717 79.6239 192.952C79.7518 193.179 79.9293 193.339 80.1566 193.431C80.391 193.523 80.6609 193.57 80.9663 193.57C81.1793 193.57 81.3924 193.552 81.6055 193.516C81.8185 193.474 81.9819 193.442 82.0955 193.42L82.8093 196.798C82.582 196.869 82.2624 196.95 81.8505 197.043C81.4386 197.142 80.9379 197.202 80.3484 197.224C79.2546 197.266 78.2958 197.121 77.4719 196.787C76.6552 196.453 76.0195 195.935 75.565 195.232C75.1104 194.528 74.8867 193.641 74.8938 192.568V176.716ZM85.4673 197V180.636H90.0057V197H85.4673ZM87.7472 178.527C87.0724 178.527 86.4936 178.303 86.0107 177.856C85.5348 177.401 85.2969 176.858 85.2969 176.226C85.2969 175.601 85.5348 175.065 86.0107 174.617C86.4936 174.163 87.0724 173.935 87.7472 173.935C88.4219 173.935 88.9972 174.163 89.473 174.617C89.956 175.065 90.1974 175.601 90.1974 176.226C90.1974 176.858 89.956 177.401 89.473 177.856C88.9972 178.303 88.4219 178.527 87.7472 178.527ZM93.6412 197V180.636H97.9664V183.523H98.1582C98.4991 182.565 99.0673 181.808 99.8627 181.254C100.658 180.7 101.61 180.423 102.718 180.423C103.84 180.423 104.795 180.704 105.584 181.265C106.372 181.819 106.898 182.572 107.16 183.523H107.331C107.665 182.586 108.268 181.837 109.142 181.276C110.023 180.707 111.063 180.423 112.263 180.423C113.79 180.423 115.03 180.91 115.981 181.883C116.94 182.849 117.42 184.219 117.42 185.995V197H112.892V186.89C112.892 185.981 112.65 185.299 112.167 184.844C111.684 184.39 111.081 184.163 110.356 184.163C109.532 184.163 108.89 184.425 108.428 184.951C107.966 185.469 107.736 186.155 107.736 187.007V197H103.336V186.794C103.336 185.991 103.105 185.352 102.643 184.876C102.189 184.401 101.589 184.163 100.843 184.163C100.339 184.163 99.8841 184.29 99.4792 184.546C99.0815 184.795 98.7654 185.146 98.5311 185.601C98.2967 186.048 98.1795 186.574 98.1795 187.178V197H93.6412ZM128.398 197.32C126.743 197.32 125.312 196.968 124.105 196.265C122.904 195.555 121.977 194.567 121.324 193.303C120.671 192.032 120.344 190.558 120.344 188.882C120.344 187.192 120.671 185.714 121.324 184.45C121.977 183.179 122.904 182.192 124.105 181.489C125.312 180.778 126.743 180.423 128.398 180.423C130.053 180.423 131.48 180.778 132.681 181.489C133.888 182.192 134.818 183.179 135.472 184.45C136.125 185.714 136.452 187.192 136.452 188.882C136.452 190.558 136.125 192.032 135.472 193.303C134.818 194.567 133.888 195.555 132.681 196.265C131.48 196.968 130.053 197.32 128.398 197.32ZM128.419 193.804C129.172 193.804 129.801 193.591 130.305 193.165C130.809 192.732 131.189 192.142 131.445 191.396C131.708 190.651 131.839 189.802 131.839 188.85C131.839 187.898 131.708 187.05 131.445 186.304C131.189 185.558 130.809 184.969 130.305 184.536C129.801 184.102 129.172 183.886 128.419 183.886C127.659 183.886 127.02 184.102 126.502 184.536C125.99 184.969 125.603 185.558 125.34 186.304C125.085 187.05 124.957 187.898 124.957 188.85C124.957 189.802 125.085 190.651 125.34 191.396C125.603 192.142 125.99 192.732 126.502 193.165C127.02 193.591 127.659 193.804 128.419 193.804ZM32.3388 214.985V211.182H50.2578V214.985H43.5781V233H39.0185V214.985H32.3388ZM55.5632 233.309C54.5192 233.309 53.5888 233.128 52.772 232.766C51.9553 232.396 51.3089 231.853 50.8331 231.136C50.3643 230.411 50.13 229.509 50.13 228.43C50.13 227.521 50.2969 226.757 50.6307 226.139C50.9645 225.521 51.419 225.024 51.9943 224.648C52.5696 224.271 53.223 223.987 53.9545 223.795C54.6932 223.604 55.4673 223.469 56.277 223.391C57.2287 223.291 57.9957 223.199 58.5781 223.114C59.1605 223.021 59.5831 222.886 59.8459 222.709C60.1087 222.531 60.2401 222.268 60.2401 221.92V221.857C60.2401 221.182 60.027 220.66 59.6009 220.29C59.1818 219.921 58.5852 219.737 57.8111 219.737C56.9943 219.737 56.3445 219.918 55.8615 220.28C55.3786 220.635 55.0589 221.082 54.9027 221.622L50.7053 221.281C50.9183 220.287 51.3374 219.428 51.9624 218.703C52.5874 217.972 53.3935 217.411 54.3807 217.02C55.375 216.622 56.5256 216.423 57.8324 216.423C58.7415 216.423 59.6115 216.53 60.4425 216.743C61.2805 216.956 62.0227 217.286 62.669 217.734C63.3224 218.181 63.8374 218.756 64.2138 219.46C64.5902 220.156 64.7784 220.99 64.7784 221.963V233H60.4744V230.731H60.3466C60.0838 231.242 59.7322 231.693 59.2919 232.084C58.8516 232.467 58.3224 232.769 57.7045 232.989C57.0866 233.202 56.3729 233.309 55.5632 233.309ZM56.8629 230.177C57.5305 230.177 58.12 230.045 58.6314 229.783C59.1428 229.513 59.544 229.151 59.8352 228.696C60.1264 228.241 60.272 227.727 60.272 227.151V225.415C60.13 225.507 59.9347 225.592 59.6861 225.67C59.4446 225.741 59.1712 225.809 58.8658 225.873C58.5604 225.93 58.255 225.983 57.9496 226.033C57.6442 226.075 57.3672 226.114 57.1186 226.15C56.5859 226.228 56.1207 226.352 55.723 226.523C55.3253 226.693 55.0163 226.924 54.7962 227.215C54.576 227.499 54.4659 227.854 54.4659 228.281C54.4659 228.898 54.6896 229.371 55.1371 229.697C55.5916 230.017 56.1669 230.177 56.8629 230.177ZM72.8377 223.54V233H68.2994V216.636H72.6246V219.523H72.8164C73.1786 218.572 73.7859 217.819 74.6381 217.265C75.4904 216.704 76.5238 216.423 77.7383 216.423C78.8746 216.423 79.8654 216.672 80.7106 217.169C81.5558 217.666 82.2127 218.376 82.6815 219.3C83.1502 220.216 83.3846 221.31 83.3846 222.581V233H78.8462V223.391C78.8533 222.389 78.5977 221.608 78.0792 221.047C77.5607 220.479 76.8469 220.195 75.9379 220.195C75.3271 220.195 74.7873 220.326 74.3185 220.589C73.8569 220.852 73.4947 221.235 73.2319 221.739C72.9762 222.237 72.8448 222.837 72.8377 223.54ZM97.7747 239.136V230.379H97.6362C97.4231 230.834 97.1213 231.285 96.7306 231.732C96.3471 232.173 95.8464 232.538 95.2285 232.83C94.6177 233.121 93.872 233.266 92.9913 233.266C91.7484 233.266 90.6227 232.947 89.6142 232.308C88.6127 231.661 87.8173 230.713 87.2278 229.463C86.6454 228.206 86.3542 226.665 86.3542 224.839C86.3542 222.964 86.6561 221.406 87.2598 220.163C87.8635 218.913 88.666 217.979 89.6674 217.361C90.676 216.736 91.7804 216.423 92.9806 216.423C93.8968 216.423 94.6603 216.58 95.2711 216.892C95.889 217.197 96.3862 217.581 96.7626 218.043C97.1461 218.497 97.4373 218.945 97.6362 219.385H97.8279V216.636H102.302V239.136H97.7747ZM94.4295 229.655C95.161 229.655 95.7789 229.456 96.2832 229.058C96.7946 228.653 97.1852 228.089 97.4551 227.364C97.7321 226.64 97.8706 225.791 97.8706 224.818C97.8706 223.845 97.7356 223 97.4657 222.283C97.1958 221.565 96.8052 221.011 96.2939 220.621C95.7825 220.23 95.161 220.035 94.4295 220.035C93.6838 220.035 93.0552 220.237 92.5439 220.642C92.0325 221.047 91.6454 221.608 91.3826 222.325C91.1199 223.043 90.9885 223.874 90.9885 224.818C90.9885 225.77 91.1199 226.612 91.3826 227.343C91.6525 228.067 92.0396 228.636 92.5439 229.048C93.0552 229.452 93.6838 229.655 94.4295 229.655ZM116.439 226.033V216.636H120.978V233H116.621V230.028H116.45C116.081 230.987 115.466 231.757 114.607 232.339C113.755 232.922 112.714 233.213 111.486 233.213C110.392 233.213 109.43 232.964 108.599 232.467C107.768 231.97 107.118 231.263 106.649 230.347C106.187 229.431 105.953 228.334 105.946 227.055V216.636H110.484V226.246C110.491 227.212 110.751 227.975 111.262 228.536C111.773 229.097 112.459 229.378 113.318 229.378C113.865 229.378 114.376 229.254 114.852 229.005C115.328 228.749 115.711 228.373 116.003 227.876C116.301 227.379 116.447 226.764 116.439 226.033ZM132.065 233.32C130.382 233.32 128.933 232.979 127.719 232.297C126.511 231.608 125.581 230.635 124.928 229.378C124.274 228.114 123.947 226.619 123.947 224.893C123.947 223.21 124.274 221.732 124.928 220.461C125.581 219.19 126.501 218.199 127.687 217.489C128.88 216.778 130.279 216.423 131.884 216.423C132.964 216.423 133.969 216.597 134.899 216.945C135.837 217.286 136.653 217.801 137.349 218.49C138.053 219.179 138.599 220.045 138.99 221.089C139.381 222.126 139.576 223.341 139.576 224.733V225.979H125.759V223.167H135.304C135.304 222.513 135.162 221.935 134.878 221.43C134.594 220.926 134.2 220.532 133.695 220.248C133.198 219.957 132.619 219.811 131.959 219.811C131.27 219.811 130.659 219.971 130.126 220.29C129.601 220.603 129.189 221.026 128.891 221.558C128.592 222.084 128.44 222.67 128.433 223.316V225.99C128.433 226.8 128.582 227.499 128.88 228.089C129.185 228.678 129.615 229.133 130.169 229.452C130.723 229.772 131.38 229.932 132.14 229.932C132.644 229.932 133.106 229.861 133.525 229.719C133.944 229.577 134.303 229.364 134.601 229.08C134.899 228.795 135.126 228.447 135.283 228.036L139.48 228.312C139.267 229.321 138.83 230.202 138.17 230.955C137.516 231.7 136.671 232.283 135.634 232.702C134.604 233.114 133.415 233.32 132.065 233.32Z" fill="white"/>
<defs>
<filter id="filter0_i_0_1" x="0" y="0" width="171" height="370" filterUnits="userSpaceOnUse" color-interpolation-filters="sRGB">
<feFlood flood-opacity="0" result="BackgroundImageFix"/>
<feBlend mode="normal" in="SourceGraphic" in2="BackgroundImageFix" result="shape"/>
<feColorMatrix in="SourceAlpha" type="matrix" values="0 0 0 0 0 0 0 0 0 0 0 0 0 0 0 0 0 0 127 0" result="hardAlpha"/>
<feOffset dy="50"/>
<feGaussianBlur stdDeviation="25"/>
<feComposite in2="hardAlpha" operator="arithmetic" k2="-1" k3="1"/>
<feColorMatrix type="matrix" values="0 0 0 0 1 0 0 0 0 1 0 0 0 0 1 0 0 0 0.03 0"/>
<feBlend mode="normal" in2="shape" result="effect1_innerShadow_0_1"/>
</filter>
</defs>
</svg>
