<svg width="171" height="320" viewBox="0 0 171 320" fill="none" xmlns="http://www.w3.org/2000/svg">
<g filter="url(#filter0_i_0_1)">
<rect width="171" height="320" rx="36" fill="#131627"/>
</g>
<rect x="1" y="1" width="169" height="318" rx="35" stroke="black" stroke-width="2"/>
<circle cx="85.5" cy="82.5" r="31" fill="#00ADB5" fill-opacity="0.8" stroke="white" stroke-width="3"/>
<path d="M85.142 93.2983C84.0199 93.2912 82.9368 93.103 81.8928 92.7337C80.8558 92.3643 79.9254 91.7642 79.1016 90.9332C78.2777 90.1023 77.6243 89.0014 77.1413 87.6307C76.6655 86.2599 76.4276 84.5767 76.4276 82.581C76.4347 80.7486 76.6442 79.1115 77.0561 77.6697C77.4751 76.2209 78.0717 74.9922 78.8459 73.9837C79.6271 72.9751 80.5611 72.2081 81.6477 71.6825C82.7344 71.1499 83.9524 70.8835 85.3018 70.8835C86.7578 70.8835 88.0433 71.1676 89.1584 71.7358C90.2734 72.2969 91.1683 73.0604 91.843 74.0263C92.5249 74.9922 92.9368 76.0753 93.0788 77.2756H88.5298C88.3523 76.5156 87.9794 75.919 87.4112 75.4858C86.843 75.0526 86.1399 74.8359 85.3018 74.8359C83.8814 74.8359 82.8018 75.4538 82.0632 76.6896C81.3317 77.9254 80.9588 79.6051 80.9446 81.7287H81.0938C81.4205 81.0824 81.8608 80.532 82.4148 80.0774C82.9759 79.6158 83.6115 79.2642 84.3217 79.0227C85.0391 78.7741 85.7955 78.6499 86.5909 78.6499C87.8835 78.6499 89.0341 78.9553 90.0426 79.5661C91.0511 80.1697 91.8466 81.0007 92.429 82.0589C93.0114 83.1172 93.3026 84.3281 93.3026 85.6918C93.3026 87.169 92.9581 88.483 92.2692 89.6335C91.5874 90.7841 90.6321 91.6861 89.4034 92.3395C88.1818 92.9858 86.7614 93.3054 85.142 93.2983ZM85.1207 89.6761C85.831 89.6761 86.4666 89.5057 87.0277 89.1648C87.5888 88.8239 88.0291 88.3622 88.3487 87.7798C88.6683 87.1974 88.8281 86.544 88.8281 85.8196C88.8281 85.0952 88.6683 84.4453 88.3487 83.87C88.0362 83.2947 87.603 82.8366 87.049 82.4957C86.495 82.1548 85.8629 81.9844 85.1527 81.9844C84.62 81.9844 84.1264 82.0838 83.6719 82.2827C83.2244 82.4815 82.8303 82.7585 82.4893 83.1136C82.1555 83.4687 81.8928 83.8807 81.701 84.3494C81.5092 84.8111 81.4134 85.3047 81.4134 85.8303C81.4134 86.5334 81.5732 87.1761 81.8928 87.7585C82.2195 88.3409 82.6598 88.8061 83.2138 89.1541C83.7749 89.5021 84.4105 89.6761 85.1207 89.6761Z" fill="black"/>
<path d="M57.5301 181.457C57.4449 180.597 57.0791 179.93 56.4328 179.454C55.7865 178.978 54.9094 178.74 53.8014 178.74C53.0486 178.74 52.4129 178.847 51.8944 179.06C51.376 179.266 50.9782 179.553 50.7013 179.923C50.4314 180.292 50.2964 180.711 50.2964 181.18C50.2822 181.57 50.3639 181.911 50.5415 182.202C50.7261 182.494 50.9782 182.746 51.2979 182.959C51.6175 183.165 51.9868 183.346 52.4058 183.502C52.8248 183.651 53.2723 183.779 53.7481 183.886L55.7084 184.354C56.6601 184.567 57.5336 184.852 58.3291 185.207C59.1246 185.562 59.8135 185.999 60.3959 186.517C60.9782 187.036 61.4292 187.646 61.7488 188.349C62.0756 189.053 62.2425 189.859 62.2496 190.768C62.2425 192.103 61.9015 193.261 61.2268 194.241C60.5592 195.214 59.5933 195.97 58.3291 196.51C57.072 197.043 55.5557 197.309 53.7801 197.309C52.0187 197.309 50.4846 197.039 49.1778 196.499C47.8781 195.96 46.8625 195.161 46.1309 194.102C45.4065 193.037 45.0265 191.719 44.991 190.15H49.4548C49.5045 190.881 49.714 191.492 50.0834 191.982C50.4598 192.465 50.9605 192.831 51.5855 193.08C52.2176 193.321 52.9314 193.442 53.7268 193.442C54.5081 193.442 55.1863 193.328 55.7616 193.101C56.344 192.874 56.795 192.558 57.1146 192.153C57.4342 191.748 57.594 191.283 57.594 190.757C57.594 190.267 57.4484 189.855 57.1572 189.521C56.8731 189.187 56.4541 188.903 55.9001 188.669C55.3532 188.435 54.6821 188.222 53.8866 188.03L51.5109 187.433C49.6714 186.986 48.219 186.286 47.1537 185.335C46.0883 184.383 45.5592 183.101 45.5663 181.489C45.5592 180.168 45.9108 179.013 46.621 178.026C47.3383 177.039 48.322 176.268 49.572 175.714C50.822 175.161 52.2425 174.884 53.8334 174.884C55.4527 174.884 56.866 175.161 58.0734 175.714C59.2879 176.268 60.2325 177.039 60.9072 178.026C61.5819 179.013 61.93 180.157 61.9513 181.457H57.5301ZM72.7245 197.32C71.0413 197.32 69.5924 196.979 68.3779 196.297C67.1705 195.608 66.2401 194.635 65.5867 193.378C64.9333 192.114 64.6066 190.619 64.6066 188.893C64.6066 187.21 64.9333 185.732 65.5867 184.461C66.2401 183.19 67.1599 182.199 68.346 181.489C69.5392 180.778 70.9383 180.423 72.5434 180.423C73.623 180.423 74.6279 180.597 75.5583 180.945C76.4958 181.286 77.3126 181.801 78.0086 182.49C78.7117 183.179 79.2586 184.045 79.6492 185.089C80.0399 186.126 80.2352 187.341 80.2352 188.733V189.979H66.4177V187.167H75.9632C75.9632 186.513 75.8211 185.935 75.537 185.43C75.2529 184.926 74.8588 184.532 74.3545 184.248C73.8573 183.957 73.2785 183.811 72.618 183.811C71.9291 183.811 71.3183 183.971 70.7856 184.29C70.26 184.603 69.8481 185.026 69.5498 185.558C69.2515 186.084 69.0988 186.67 69.0917 187.316V189.99C69.0917 190.8 69.2409 191.499 69.5392 192.089C69.8445 192.678 70.2742 193.133 70.8282 193.452C71.3822 193.772 72.0392 193.932 72.7991 193.932C73.3034 193.932 73.765 193.861 74.184 193.719C74.6031 193.577 74.9617 193.364 75.26 193.08C75.5583 192.795 75.7856 192.447 75.9419 192.036L80.1393 192.312C79.9262 193.321 79.4894 194.202 78.8289 194.955C78.1755 195.7 77.3303 196.283 76.2934 196.702C75.2636 197.114 74.074 197.32 72.7245 197.32ZM86.6965 180.636L89.7007 186.357L92.7796 180.636H97.4351L92.6943 188.818L97.5629 197H92.9287L89.7007 191.343L86.526 197H81.8385L86.6965 188.818L82.009 180.636H86.6965ZM108.834 180.636V184.045H98.9798V180.636H108.834ZM101.217 176.716H105.755V191.972C105.755 192.391 105.819 192.717 105.947 192.952C106.075 193.179 106.253 193.339 106.48 193.431C106.714 193.523 106.984 193.57 107.29 193.57C107.503 193.57 107.716 193.552 107.929 193.516C108.142 193.474 108.305 193.442 108.419 193.42L109.133 196.798C108.905 196.869 108.586 196.95 108.174 197.043C107.762 197.142 107.261 197.202 106.672 197.224C105.578 197.266 104.619 197.121 103.795 196.787C102.978 196.453 102.343 195.935 101.888 195.232C101.434 194.528 101.21 193.641 101.217 192.568V176.716ZM119.008 197.32C117.353 197.32 115.922 196.968 114.715 196.265C113.515 195.555 112.588 194.567 111.934 193.303C111.281 192.032 110.954 190.558 110.954 188.882C110.954 187.192 111.281 185.714 111.934 184.45C112.588 183.179 113.515 182.192 114.715 181.489C115.922 180.778 117.353 180.423 119.008 180.423C120.663 180.423 122.091 180.778 123.291 181.489C124.498 182.192 125.429 183.179 126.082 184.45C126.736 185.714 127.062 187.192 127.062 188.882C127.062 190.558 126.736 192.032 126.082 193.303C125.429 194.567 124.498 195.555 123.291 196.265C122.091 196.968 120.663 197.32 119.008 197.32ZM119.03 193.804C119.782 193.804 120.411 193.591 120.915 193.165C121.419 192.732 121.799 192.142 122.055 191.396C122.318 190.651 122.449 189.802 122.449 188.85C122.449 187.898 122.318 187.05 122.055 186.304C121.799 185.558 121.419 184.969 120.915 184.536C120.411 184.102 119.782 183.886 119.03 183.886C118.27 183.886 117.63 184.102 117.112 184.536C116.601 184.969 116.214 185.558 115.951 186.304C115.695 187.05 115.567 187.898 115.567 188.85C115.567 189.802 115.695 190.651 115.951 191.396C116.214 192.142 116.601 192.732 117.112 193.165C117.63 193.591 118.27 193.804 119.03 193.804ZM32.3388 214.985V211.182H50.2578V214.985H43.5781V233H39.0185V214.985H32.3388ZM55.5632 233.309C54.5192 233.309 53.5888 233.128 52.772 232.766C51.9553 232.396 51.3089 231.853 50.8331 231.136C50.3643 230.411 50.13 229.509 50.13 228.43C50.13 227.521 50.2969 226.757 50.6307 226.139C50.9645 225.521 51.419 225.024 51.9943 224.648C52.5696 224.271 53.223 223.987 53.9545 223.795C54.6932 223.604 55.4673 223.469 56.277 223.391C57.2287 223.291 57.9957 223.199 58.5781 223.114C59.1605 223.021 59.5831 222.886 59.8459 222.709C60.1087 222.531 60.2401 222.268 60.2401 221.92V221.857C60.2401 221.182 60.027 220.66 59.6009 220.29C59.1818 219.921 58.5852 219.737 57.8111 219.737C56.9943 219.737 56.3445 219.918 55.8615 220.28C55.3786 220.635 55.0589 221.082 54.9027 221.622L50.7053 221.281C50.9183 220.287 51.3374 219.428 51.9624 218.703C52.5874 217.972 53.3935 217.411 54.3807 217.02C55.375 216.622 56.5256 216.423 57.8324 216.423C58.7415 216.423 59.6115 216.53 60.4425 216.743C61.2805 216.956 62.0227 217.286 62.669 217.734C63.3224 218.181 63.8374 218.756 64.2138 219.46C64.5902 220.156 64.7784 220.99 64.7784 221.963V233H60.4744V230.731H60.3466C60.0838 231.242 59.7322 231.693 59.2919 232.084C58.8516 232.467 58.3224 232.769 57.7045 232.989C57.0866 233.202 56.3729 233.309 55.5632 233.309ZM56.8629 230.177C57.5305 230.177 58.12 230.045 58.6314 229.783C59.1428 229.513 59.544 229.151 59.8352 228.696C60.1264 228.241 60.272 227.727 60.272 227.151V225.415C60.13 225.507 59.9347 225.592 59.6861 225.67C59.4446 225.741 59.1712 225.809 58.8658 225.873C58.5604 225.93 58.255 225.983 57.9496 226.033C57.6442 226.075 57.3672 226.114 57.1186 226.15C56.5859 226.228 56.1207 226.352 55.723 226.523C55.3253 226.693 55.0163 226.924 54.7962 227.215C54.576 227.499 54.4659 227.854 54.4659 228.281C54.4659 228.898 54.6896 229.371 55.1371 229.697C55.5916 230.017 56.1669 230.177 56.8629 230.177ZM72.8377 223.54V233H68.2994V216.636H72.6246V219.523H72.8164C73.1786 218.572 73.7859 217.819 74.6381 217.265C75.4904 216.704 76.5238 216.423 77.7383 216.423C78.8746 216.423 79.8654 216.672 80.7106 217.169C81.5558 217.666 82.2127 218.376 82.6815 219.3C83.1502 220.216 83.3846 221.31 83.3846 222.581V233H78.8462V223.391C78.8533 222.389 78.5977 221.608 78.0792 221.047C77.5607 220.479 76.8469 220.195 75.9379 220.195C75.3271 220.195 74.7873 220.326 74.3185 220.589C73.8569 220.852 73.4947 221.235 73.2319 221.739C72.9762 222.237 72.8448 222.837 72.8377 223.54ZM97.7747 239.136V230.379H97.6362C97.4231 230.834 97.1213 231.285 96.7306 231.732C96.3471 232.173 95.8464 232.538 95.2285 232.83C94.6177 233.121 93.872 233.266 92.9913 233.266C91.7484 233.266 90.6227 232.947 89.6142 232.308C88.6127 231.661 87.8173 230.713 87.2278 229.463C86.6454 228.206 86.3542 226.665 86.3542 224.839C86.3542 222.964 86.6561 221.406 87.2598 220.163C87.8635 218.913 88.666 217.979 89.6674 217.361C90.676 216.736 91.7804 216.423 92.9806 216.423C93.8968 216.423 94.6603 216.58 95.2711 216.892C95.889 217.197 96.3862 217.581 96.7626 218.043C97.1461 218.497 97.4373 218.945 97.6362 219.385H97.8279V216.636H102.302V239.136H97.7747ZM94.4295 229.655C95.161 229.655 95.7789 229.456 96.2832 229.058C96.7946 228.653 97.1852 228.089 97.4551 227.364C97.7321 226.64 97.8706 225.791 97.8706 224.818C97.8706 223.845 97.7356 223 97.4657 222.283C97.1958 221.565 96.8052 221.011 96.2939 220.621C95.7825 220.23 95.161 220.035 94.4295 220.035C93.6838 220.035 93.0552 220.237 92.5439 220.642C92.0325 221.047 91.6454 221.608 91.3826 222.325C91.1199 223.043 90.9885 223.874 90.9885 224.818C90.9885 225.77 91.1199 226.612 91.3826 227.343C91.6525 228.067 92.0396 228.636 92.5439 229.048C93.0552 229.452 93.6838 229.655 94.4295 229.655ZM116.439 226.033V216.636H120.978V233H116.621V230.028H116.45C116.081 230.987 115.466 231.757 114.607 232.339C113.755 232.922 112.714 233.213 111.486 233.213C110.392 233.213 109.43 232.964 108.599 232.467C107.768 231.97 107.118 231.263 106.649 230.347C106.187 229.431 105.953 228.334 105.946 227.055V216.636H110.484V226.246C110.491 227.212 110.751 227.975 111.262 228.536C111.773 229.097 112.459 229.378 113.318 229.378C113.865 229.378 114.376 229.254 114.852 229.005C115.328 228.749 115.711 228.373 116.003 227.876C116.301 227.379 116.447 226.764 116.439 226.033ZM132.065 233.32C130.382 233.32 128.933 232.979 127.719 232.297C126.511 231.608 125.581 230.635 124.928 229.378C124.274 228.114 123.947 226.619 123.947 224.893C123.947 223.21 124.274 221.732 124.928 220.461C125.581 219.19 126.501 218.199 127.687 217.489C128.88 216.778 130.279 216.423 131.884 216.423C132.964 216.423 133.969 216.597 134.899 216.945C135.837 217.286 136.653 217.801 137.349 218.49C138.053 219.179 138.599 220.045 138.99 221.089C139.381 222.126 139.576 223.341 139.576 224.733V225.979H125.759V223.167H135.304C135.304 222.513 135.162 221.935 134.878 221.43C134.594 220.926 134.2 220.532 133.695 220.248C133.198 219.957 132.619 219.811 131.959 219.811C131.27 219.811 130.659 219.971 130.126 220.29C129.601 220.603 129.189 221.026 128.891 221.558C128.592 222.084 128.44 222.67 128.433 223.316V225.99C128.433 226.8 128.582 227.499 128.88 228.089C129.185 228.678 129.615 229.133 130.169 229.452C130.723 229.772 131.38 229.932 132.14 229.932C132.644 229.932 133.106 229.861 133.525 229.719C133.944 229.577 134.303 229.364 134.601 229.08C134.899 228.795 135.126 228.447 135.283 228.036L139.48 228.312C139.267 229.321 138.83 230.202 138.17 230.955C137.516 231.7 136.671 232.283 135.634 232.702C134.604 233.114 133.415 233.32 132.065 233.32Z" fill="white"/>
<defs>
<filter id="filter0_i_0_1" x="0" y="0" width="171" height="370" filterUnits="userSpaceOnUse" color-interpolation-filters="sRGB">
<feFlood flood-opacity="0" result="BackgroundImageFix"/>
<feBlend mode="normal" in="SourceGraphic" in2="BackgroundImageFix" result="shape"/>
<feColorMatrix in="SourceAlpha" type="matrix" values="0 0 0 0 0 0 0 0 0 0 0 0 0 0 0 0 0 0 127 0" result="hardAlpha"/>
<feOffset dy="50"/>
<feGaussianBlur stdDeviation="25"/>
<feComposite in2="hardAlpha" operator="arithmetic" k2="-1" k3="1"/>
<feColorMatrix type="matrix" values="0 0 0 0 1 0 0 0 0 1 0 0 0 0 1 0 0 0 0.03 0"/>
<feBlend mode="normal" in2="shape" result="effect1_innerShadow_0_1"/>
</filter>
</defs>
</svg>
